<?xml version="1.0" encoding="UTF-8"?>
<svg version="1.1" xmlns="http://www.w3.org/2000/svg" width="512" height="512">
<path d="M0 0 C1.8908376 -0.00571721 3.78167176 -0.01268664 5.67250061 -0.02079773 C10.75668961 -0.0385829 15.84070469 -0.03759013 20.92491531 -0.03185534 C25.18234382 -0.02874597 29.43973974 -0.03487438 33.69716358 -0.04089409 C43.73807856 -0.05488588 53.77890833 -0.05341924 63.81982422 -0.04199219 C74.16291828 -0.03048116 84.50575394 -0.04464886 94.84881401 -0.07138866 C103.75536353 -0.09354848 112.66183193 -0.10018343 121.56840706 -0.09431225 C126.87704806 -0.09094641 132.18552295 -0.09333471 137.49414062 -0.11056328 C142.47826156 -0.12603771 147.46199826 -0.12207131 152.44610405 -0.10325813 C154.27139653 -0.09957548 156.09671757 -0.10267127 157.92198372 -0.11314392 C160.41921442 -0.12637621 162.91517659 -0.11478811 165.41235352 -0.09715271 C166.48745808 -0.11156022 166.48745808 -0.11156022 167.58428192 -0.12625879 C172.994694 -0.04798232 177.13114441 1.46513628 181.59375 4.40405273 C185.67872065 8.90799473 186.83622303 13.4432573 186.59375 19.40405273 C185.43563565 25.61778163 182.72605396 28.87559376 177.59375 32.40405273 C174.00852433 33.59912796 170.74915404 33.54753771 167.01794434 33.54208374 C165.84967818 33.54631566 165.84967818 33.54631566 164.65781069 33.55063307 C162.03944192 33.55898765 159.42111539 33.56031809 156.80273438 33.56176758 C154.92853679 33.56643535 153.05434034 33.57157885 151.18014526 33.5771637 C147.13848476 33.58845203 143.09683167 33.59688284 139.05516052 33.60328293 C132.65853123 33.61396128 126.26195486 33.63420743 119.86535645 33.65640259 C101.67360875 33.71832679 83.48186363 33.77228598 65.29003906 33.80541992 C55.24698831 33.82379238 45.20402573 33.85276427 35.16103983 33.89342463 C29.84823818 33.91445625 24.53554749 33.9299464 19.22270203 33.9322319 C14.21907816 33.93438678 9.21568501 33.95034162 4.2121315 33.97662163 C2.38167215 33.98378506 0.55118476 33.98593003 -1.27928543 33.98251915 C-18.68580841 33.95527987 -33.03283739 36.53516686 -46.14453125 48.94702148 C-54.5342796 58.06127315 -58.52113939 69.62167016 -58.53767776 81.91897011 C-58.54343948 83.53511772 -58.54343948 83.53511772 -58.5493176 85.18391478 C-58.54845112 86.35666437 -58.54758463 87.52941396 -58.54669189 88.73770142 C-58.54966302 89.9920953 -58.55263414 91.24648919 -58.5556953 92.53889501 C-58.56374199 96.01386041 -58.56555356 99.48880512 -58.56629276 102.96377873 C-58.5681474 106.71445469 -58.57569682 110.46512001 -58.58242798 114.21578979 C-58.59599549 122.41432439 -58.60203362 130.61285408 -58.60643864 138.81139803 C-58.60920387 143.93363708 -58.61344175 149.05587425 -58.61794281 154.17811203 C-58.63013366 168.36865177 -58.64043318 182.55919001 -58.6438179 196.74973488 C-58.64403747 197.65752967 -58.64425703 198.56532447 -58.64448325 199.5006282 C-58.64470153 200.41055806 -58.64491981 201.32048793 -58.6451447 202.25799143 C-58.64558816 204.10176317 -58.64603473 205.94553491 -58.64648438 207.78930664 C-58.64681652 209.16115956 -58.64681652 209.16115956 -58.64715537 210.56072669 C-58.65110175 225.37353984 -58.66855171 240.18630376 -58.6918439 254.9990979 C-58.71558143 270.21835476 -58.72802085 285.43758695 -58.72918582 300.65686262 C-58.73010126 309.19738217 -58.73582039 317.73783755 -58.75400543 326.27833939 C-58.76943889 333.55205353 -58.7745078 340.82568368 -58.76626733 348.09941109 C-58.76237222 351.8072406 -58.76323434 355.51490115 -58.77732468 359.22270966 C-58.79249382 363.25142794 -58.78416344 367.27976885 -58.77374268 371.3085022 C-58.78179908 372.46786746 -58.78985548 373.62723272 -58.79815602 374.82173026 C-58.70608153 390.09441708 -54.43306991 402.97657051 -43.86328125 414.14233398 C-35.16173028 422.15218774 -23.78270752 426.5197267 -11.9803524 426.5354805 C-10.89732822 426.53932164 -9.81430403 426.54316279 -8.69846094 426.54712033 C-7.51433449 426.54625385 -6.33020804 426.54538737 -5.11019897 426.54449463 C-3.84778684 426.54746575 -2.58537471 426.55043687 -1.28470767 426.55349803 C2.2172508 426.56155544 5.71918876 426.5633569 9.22115541 426.5640955 C12.99909656 426.56594827 16.77702713 426.57349678 20.55496216 426.58023071 C28.81547033 426.59380609 37.07597364 426.59983765 45.33649111 426.60424137 C50.49640665 426.6070054 55.65632031 426.61124308 60.81623459 426.61574554 C75.10796046 426.62793767 89.39968483 426.63823677 103.69141579 426.64162064 C104.60593249 426.6418402 105.52044919 426.64205977 106.46267851 426.64228599 C107.8377035 426.6426134 107.8377035 426.6426134 109.24050677 426.64294744 C111.09800061 426.6433909 112.95549444 426.64383746 114.81298828 426.64428711 C116.19505477 426.64461925 116.19505477 426.64461925 117.60504179 426.64495811 C132.52852486 426.64890457 147.45195906 426.66635422 162.37542327 426.68964663 C177.70425484 426.7133782 193.0330619 426.72582333 208.36191213 426.72698855 C216.9655717 426.72790435 225.5691676 426.73363259 234.1728096 426.75180817 C241.50037517 426.76723359 248.82785739 426.77231527 256.15543611 426.76407006 C259.89148802 426.76017205 263.62737221 426.76105137 267.36340332 426.77512741 C271.42098811 426.79027457 275.4781975 426.78197467 279.53579712 426.77154541 C280.70653924 426.77960181 281.87728135 426.78765822 283.0835005 426.79595876 C297.9511039 426.70678263 310.48115669 422.13279098 321.33203125 411.86108398 C330.52118112 401.87839785 333.75735061 389.78129096 333.72505188 376.47853088 C333.72716759 375.69838479 333.72928331 374.91823871 333.73146313 374.11445183 C333.73743711 371.5098807 333.73646485 368.90535838 333.7355957 366.30078125 C333.73862886 364.42950356 333.74215075 362.55822661 333.74612427 360.68695068 C333.75400053 356.66170228 333.75915333 352.63646269 333.76241493 348.61120796 C333.76833388 342.24484175 333.78488179 335.87853117 333.80375671 329.51219177 C333.81009365 327.33126548 333.81641928 325.15033916 333.82273388 322.9694128 C333.82589969 321.87739461 333.8290655 320.78537641 333.83232725 319.66026676 C333.87438591 304.84236857 333.90739031 290.02449691 333.91967773 275.20654297 C333.92805587 265.20560763 333.95053455 255.20481071 333.9890334 245.20394462 C334.00879659 239.91363814 334.02119758 234.62353859 334.01619911 229.33319283 C334.0115555 224.35821194 334.02534254 219.38362366 334.05321121 214.40872192 C334.06012684 212.5846428 334.06024556 210.76052312 334.05301094 208.93644524 C334.04412012 206.44268321 334.05981883 203.95021533 334.08149719 201.45655823 C334.07305466 200.73786971 334.06461212 200.0191812 334.05591375 199.27871424 C334.14330834 193.82756624 335.60436714 190.80587028 338.59375 186.40405273 C343.14658796 182.38061454 347.61954711 181.14339816 353.59375 181.40405273 C358.83367615 182.97603058 362.09771183 185.20880693 365.59375 189.40405273 C367.76787905 193.62506097 367.87867132 197.57449872 367.85444641 202.22468567 C367.85827196 203.00579435 367.86209751 203.78690302 367.86603898 204.59168166 C367.87634767 207.20604657 367.87238073 209.82019098 367.8684082 212.43457031 C367.8727562 214.31080325 367.87793964 216.18703442 367.88389587 218.06326294 C367.89729652 223.161006 367.89786271 228.25867495 367.89533257 233.3564322 C367.89426229 237.62000425 367.89914838 241.88356135 367.903938 246.14713019 C367.91503964 256.21837812 367.91546872 266.28958876 367.90942383 276.36083984 C367.9034004 286.72111009 367.91565196 297.08124397 367.9369939 307.44149095 C367.95467258 316.35387877 367.9606009 325.26622346 367.95735615 334.17862815 C367.95555106 339.49325143 367.95810047 344.80777773 367.97207069 350.12238503 C367.98474442 355.13176703 367.98261563 360.14093897 367.96965981 365.15031815 C367.96731404 366.97708015 367.96995582 368.80385736 367.97828293 370.63060188 C368.08766542 396.51851068 361.9962804 418.37779083 343.90625 437.65405273 C321.53517138 458.95325587 294.89138275 460.87531086 265.49242544 460.79622674 C261.71048001 460.78936526 257.92857419 460.79995218 254.14663696 460.8081665 C246.76042728 460.82143124 239.37430961 460.81865874 231.98809648 460.80992858 C225.97939191 460.80312363 219.97071294 460.80224739 213.96200562 460.80550003 C213.10330453 460.80595973 212.24460344 460.80641943 211.3598811 460.80689306 C209.61486061 460.80785234 207.86984012 460.80882498 206.12481964 460.80981083 C189.80302356 460.81834346 173.48127822 460.80856412 157.15949047 460.79240973 C143.18735628 460.77900849 129.2152969 460.78133719 115.24316406 460.79516602 C98.97547712 460.81125956 82.70783452 460.81751968 66.44014072 460.80832922 C64.70192528 460.80737369 62.96370984 460.80643057 61.22549438 460.80550003 C59.94300113 460.80480579 59.94300113 460.80480579 58.63459891 460.80409753 C52.64061483 460.80151894 46.64665913 460.80585409 40.65267944 460.81293869 C33.33727525 460.82139599 26.0219675 460.8189854 18.7065742 460.80309646 C14.981856 460.79527018 11.25729795 460.79202431 7.53258133 460.80204391 C-22.32539871 460.87569441 -47.02788924 457.95239899 -69.65625 436.71655273 C-90.70231955 414.61134657 -92.87590726 388.28765194 -92.79842401 359.23504877 C-92.79156996 355.42583813 -92.80214586 351.61666708 -92.81036377 347.8074646 C-92.82363624 340.365974 -92.8208525 332.92457466 -92.81212585 325.48308063 C-92.80532399 319.43000721 -92.80444334 313.3769592 -92.8076973 307.32388306 C-92.808157 306.45920703 -92.80861669 305.59453101 -92.80909032 304.70365268 C-92.81004959 302.94655092 -92.81102223 301.18944916 -92.8120081 299.43234742 C-92.82054299 282.99327053 -92.8107578 266.55424399 -92.794607 250.11517537 C-92.78120555 236.03924211 -92.78353418 221.96338309 -92.79736328 207.88745117 C-92.81345279 191.50331877 -92.81971919 175.11923041 -92.81052649 158.73509121 C-92.80957094 156.98480162 -92.80862783 155.23451202 -92.8076973 153.48422241 C-92.80723447 152.62326299 -92.80677164 151.76230356 -92.80629479 150.87525445 C-92.803715 144.83622854 -92.80805398 138.79723078 -92.81513596 132.75820923 C-92.82358873 125.38895368 -92.821192 118.01979388 -92.80529372 110.65054917 C-92.79746147 106.89760847 -92.7942321 103.14482684 -92.80424118 99.39188766 C-92.8765937 69.80896851 -89.75283811 45.56742532 -68.71875 23.15405273 C-49.34771096 4.71114694 -25.86273725 -0.07156244 0 0 Z " fill="#ffffff" transform="translate(118.40625,25.595947265625)"/>
<path d="M0 0 C5.29529243 4.11246557 10.16682974 8.46343363 14.90242004 13.20556641 C15.61029663 13.90915787 16.31817322 14.61274933 17.04750061 15.33766174 C18.52884877 16.81331398 20.0076475 18.29152965 21.48396301 19.7722168 C23.73026021 22.02168742 25.98960903 24.25745555 28.25007629 26.49267578 C29.6975011 27.93782828 31.14414288 29.38376555 32.58992004 30.83056641 C33.25771484 31.48915146 33.92550964 32.14773651 34.61354065 32.82627869 C42.9907221 41.28612002 47.82996341 50.38419641 48.41804504 62.45947266 C47.86995763 77.42464216 40.02787164 86.86939162 29.88313293 96.89306641 C29.09370804 97.68117706 28.30428314 98.46928772 27.49093628 99.28128052 C24.89960791 101.86615731 22.30137251 104.44397567 19.70320129 107.02197266 C17.88957472 108.82932122 16.0764674 110.63719098 14.26385498 112.44555664 C9.98703 116.71046629 5.70613856 120.97124707 1.42285103 125.2296629 C-6.69421172 133.29966217 -14.80417465 141.37677283 -22.91002083 149.45803833 C-25.56363874 152.10148766 -28.22067334 154.74146599 -30.87808228 157.38110352 C-32.51638876 159.01257702 -34.15458331 160.64416295 -35.79264832 162.27587891 C-36.52481567 163.0013089 -37.25698303 163.72673889 -38.01133728 164.47415161 C-41.19240291 167.64823893 -44.28384633 170.84205334 -47.20213318 174.26020813 C-52.58860182 180.50101934 -58.50702263 186.24566422 -64.32341003 192.08129883 C-65.66797929 193.43378261 -67.01237043 194.78644349 -68.3565979 196.13926697 C-72.74699837 200.5557107 -77.14269412 204.96686352 -81.53898621 209.37744141 C-83.05777274 210.90159312 -84.5765531 212.425751 -86.09532738 213.94991493 C-92.4130728 220.28925457 -98.7322461 226.62716514 -105.05515003 232.96135998 C-114.09323621 242.01569826 -123.12271702 251.07842773 -132.14043885 260.15304965 C-138.49708517 266.54842703 -144.86331639 272.93416225 -151.23671454 279.31284505 C-155.03707722 283.11685397 -158.83317479 286.92489858 -162.61907387 290.74330711 C-166.1794794 294.33385203 -169.75165497 297.91225926 -173.33303261 301.4818821 C-174.64101482 302.78964414 -175.94476678 304.10165384 -177.24380112 305.41830444 C-183.93170022 312.19189444 -189.91745355 318.1928227 -199.01945496 321.58447266 C-200.01906754 321.98112122 -201.01868011 322.37776978 -202.04858398 322.78643799 C-202.88177658 323.05655701 -203.71496918 323.32667603 -204.57341003 323.60498047 C-205.53753311 323.92170715 -206.50165619 324.23843384 -207.49499512 324.5647583 C-209.00177071 325.04631378 -209.00177071 325.04631378 -210.53898621 325.53759766 C-211.60058456 325.88328796 -212.66218292 326.22897827 -213.75595093 326.58514404 C-215.98085235 327.30801972 -218.2069731 328.0271524 -220.43424988 328.74267578 C-223.84237464 329.83782085 -227.24657947 330.94451742 -230.65031433 332.05322266 C-232.82132071 332.75701918 -234.99253745 333.46016719 -237.16398621 334.16259766 C-238.17862442 334.49173157 -239.19326263 334.82086548 -240.23864746 335.15997314 C-241.66119087 335.61615021 -241.66119087 335.61615021 -243.11247253 336.08154297 C-244.35629448 336.48194794 -244.35629448 336.48194794 -245.62524414 336.89044189 C-256.32487088 339.99203598 -265.74344517 338.82662028 -276.01945496 334.58447266 C-286.38845376 328.78195346 -292.36390664 319.78917729 -295.59757996 308.58056641 C-297.10307348 301.45735167 -296.0544639 294.91360705 -293.92570496 288.03759766 C-293.70510406 287.30835587 -293.48450317 286.57911407 -293.25721741 285.82777405 C-292.52100217 283.41023666 -291.77174867 280.99705261 -291.01945496 278.58447266 C-290.75707031 277.73823334 -290.49468567 276.89199402 -290.22434998 276.02011108 C-288.53807279 270.59910529 -286.80859009 265.19356339 -285.04533386 259.79711914 C-284.44035167 257.93347888 -283.84345101 256.0671974 -283.25431824 254.19848633 C-282.38513181 251.44430864 -281.49027873 248.69963875 -280.58976746 245.95556641 C-280.33534882 245.13148788 -280.08093018 244.30740936 -279.81880188 243.45835876 C-276.41324897 233.31240783 -268.03137721 226.44680008 -260.62716675 219.0382843 C-259.70127505 218.10801035 -258.77538334 217.17773639 -257.82143432 216.21927232 C-255.27063125 213.65661094 -252.71676884 211.09701827 -250.16232741 208.53798425 C-247.40045893 205.77011928 -244.64139701 202.99945873 -241.88188171 200.22924805 C-235.23046218 193.55340914 -228.57418606 186.88242322 -221.91701457 180.21232083 C-220.03550598 178.32709474 -218.15412517 176.44174123 -216.27278924 174.55634284 C-204.57494713 162.833275 -192.87551161 151.11179991 -181.17128277 139.39510822 C-178.46611291 136.68700902 -175.76095925 133.97889363 -173.05583191 131.27075195 C-172.38354397 130.59771796 -171.71125603 129.92468398 -171.01859573 129.23125502 C-160.11818858 118.31818272 -149.22811287 107.39486025 -138.34220674 96.46732495 C-127.1528633 85.23554451 -115.95409828 74.0132273 -104.74612838 62.80003327 C-98.45850356 56.50899802 -92.17509399 50.21387497 -85.90227318 43.90807533 C-80.56331837 38.54109572 -75.21590992 33.18272343 -69.85733374 27.83533136 C-67.12566754 25.10884397 -64.3981663 22.37851334 -61.68152046 19.63705254 C-58.73207227 16.66088904 -55.76346477 13.70458991 -52.79269409 10.74971008 C-51.94335208 9.88648598 -51.09401007 9.02326189 -50.21893042 8.13387948 C-37.21976861 -4.69484674 -16.4530689 -11.53270037 0 0 Z M-23.91149902 28.75498962 C-24.50440231 29.36121658 -25.0973056 29.96744354 -25.70817566 30.59204102 C-26.38850357 31.27282211 -27.06883148 31.95360321 -27.76977539 32.65501404 C-28.48767746 33.40388382 -29.20557953 34.1527536 -29.94523621 34.92431641 C-30.692827 35.68039688 -31.44041779 36.43647736 -32.21066284 37.21546936 C-34.59884351 39.6372778 -36.96534929 42.07909451 -39.33195496 44.52197266 C-40.94580571 46.16591023 -42.56102398 47.80850651 -44.17765808 49.44970703 C-48.14093237 53.47919038 -52.08659942 57.52530671 -56.01945496 61.58447266 C-54.65832482 64.63028752 -53.126154 66.72286292 -50.7631073 69.06787109 C-50.10257355 69.72825378 -49.44203979 70.38863647 -48.76148987 71.06903076 C-48.04997772 71.77022034 -47.33846558 72.47140991 -46.60539246 73.19384766 C-45.87575287 73.92065735 -45.14611328 74.64746704 -44.3943634 75.39630127 C-42.06571615 77.71376463 -39.73020669 80.02417216 -37.39445496 82.33447266 C-35.81326843 83.90562709 -34.23253371 85.47723636 -32.65226746 87.04931641 C-28.77988806 90.89965918 -24.90185325 94.74423382 -21.01945496 98.58447266 C-18.09770608 97.26271669 -16.00895142 95.8291872 -13.73551941 93.57519531 C-13.11840591 92.96761383 -12.50129242 92.36003235 -11.86547852 91.73403931 C-11.21117355 91.07882294 -10.55686859 90.42360657 -9.88273621 89.74853516 C-9.20269028 89.07277435 -8.52264435 88.39701355 -7.82199097 87.70077515 C-6.3881136 86.27263325 -4.95683974 84.84187327 -3.52799988 83.40869141 C-1.33825358 81.21578039 0.86448504 79.03653367 3.06843567 76.85791016 C4.46052203 75.46809633 5.85182512 74.07749741 7.24226379 72.68603516 C7.90264145 72.03486725 8.5630191 71.38369934 9.2434082 70.71279907 C10.15489372 69.79197037 10.15489372 69.79197037 11.08479309 68.85253906 C11.62121933 68.31674225 12.15764557 67.78094543 12.71032715 67.22891235 C14.16958398 65.33974053 14.66182786 63.94068776 14.98054504 61.58447266 C14.01074479 59.78837385 14.01074479 59.78837385 12.33210754 58.14306641 C11.35805969 57.10061768 11.35805969 57.10061768 10.36433411 56.03710938 C9.57768372 55.22773926 8.79103333 54.41836914 7.98054504 53.58447266 C7.03212034 52.59392473 6.0838898 51.60319086 5.13581848 50.61230469 C2.46378772 47.83507378 -0.2386168 45.08951798 -2.95402527 42.35473633 C-4.08902502 41.20809808 -5.21951266 40.05697732 -6.34562683 38.90161133 C-7.99026014 37.2144362 -9.6476348 35.54079191 -11.30851746 33.86962891 C-12.05713547 33.09474876 -12.05713547 33.09474876 -12.82087708 32.30421448 C-16.04626902 29.09858205 -19.47959546 26.01318334 -23.91149902 28.75498962 Z M-87.34077454 92.59712219 C-88.00891517 93.24465255 -88.6770558 93.89218292 -89.36544311 94.55933541 C-91.62406341 96.75026187 -93.87876221 98.94517649 -96.13322449 101.14038086 C-97.74445545 102.70608648 -99.35571299 104.27176475 -100.96699524 105.8374176 C-115.29709643 119.77477255 -129.55158289 133.78928744 -143.77944929 147.83092036 C-146.25040563 150.26952597 -148.72191449 152.7075709 -151.19377136 155.14526367 C-151.68571326 155.63042638 -152.17765515 156.11558908 -152.68450437 156.61545368 C-160.58163622 164.40080966 -168.52829159 172.13355854 -176.49599625 179.84660015 C-184.71388106 187.80403784 -192.87389477 195.81723258 -200.98932731 203.87919682 C-205.53213888 208.38879337 -210.09477477 212.87200832 -214.72154617 217.29555702 C-240.04561438 241.55087999 -259.39503775 266.44671832 -263.01945496 302.58447266 C-262.18612162 304.75113932 -262.18612162 304.75113932 -260.01945496 305.58447266 C-254.28139231 305.10234449 -249.09101885 303.48840114 -243.64836121 301.67041016 C-242.76720139 301.37768219 -241.88604156 301.08495422 -240.97817993 300.78335571 C-239.12219344 300.16310854 -237.26739648 299.53929174 -235.41374207 298.91210938 C-232.59989503 297.96550785 -229.77798692 297.04636969 -226.95500183 296.12744141 C-225.14388918 295.51844432 -223.33332295 294.90781931 -221.52336121 294.29541016 C-220.68978592 294.0284433 -219.85621063 293.76147644 -218.99737549 293.48641968 C-209.85215085 290.31590887 -203.68517835 283.40302768 -196.98320007 276.66847229 C-196.3229963 276.00912294 -195.66279252 275.34977359 -194.98258257 274.67044395 C-192.79392873 272.48342359 -190.60884364 270.29287371 -188.42375183 268.10229492 C-186.84645212 266.52471285 -185.26893161 264.94735151 -183.69120789 263.37019348 C-179.42511321 259.10438488 -175.16210166 254.83550731 -170.89964867 250.5660603 C-166.43849049 246.09863695 -161.97448688 241.63405868 -157.51078796 237.16917419 C-150.02443319 229.68006775 -142.53982476 222.18921959 -135.05656433 214.69702148 C-127.3520135 206.98327831 -119.64640315 199.27059605 -111.93937683 191.55932617 C-111.46355933 191.08324594 -110.98774182 190.60716572 -110.49750561 190.11665881 C-108.11023653 187.72808461 -105.72294673 185.33953113 -103.33564663 182.95098794 C-83.56036903 163.16535962 -63.78875591 143.37607255 -44.01945496 123.58447266 C-44.98027325 122.45859011 -45.94178782 121.33330173 -46.90359783 120.20826626 C-47.43896685 119.58155795 -47.97433587 118.95484963 -48.5259282 118.30915016 C-50.10448965 116.48627728 -51.73491611 114.74224078 -53.43864441 113.03588867 C-54.33405693 112.13574791 -54.33405693 112.13574791 -55.24755859 111.21742249 C-55.86966721 110.5973381 -56.49177582 109.97725372 -57.13273621 109.33837891 C-57.7877562 108.68240219 -58.44277618 108.02642548 -59.11764526 107.35057068 C-60.48871691 105.97882363 -61.86103169 104.60831806 -63.23454285 103.23901367 C-65.34696597 101.13200009 -67.45393103 99.0196324 -69.56047058 96.90673828 C-70.89673814 95.5711306 -72.23331537 94.23583266 -73.57023621 92.90087891 C-74.20246597 92.26662491 -74.83469574 91.63237091 -75.48608398 90.97889709 C-81.48644704 85.01107831 -81.78351178 87.18202032 -87.34077454 92.59712219 Z " fill="#ffffff" transform="translate(438.0194549560547,31.41552734375)"/>
</svg>
