<?xml version="1.0" encoding="UTF-8"?>
<svg version="1.1" xmlns="http://www.w3.org/2000/svg" width="512" height="512">
<path d="M0 0 C1.14089584 -0.00571014 2.28179169 -0.01142029 3.45726013 -0.01730347 C4.70507767 -0.01842133 5.9528952 -0.01953918 7.23852539 -0.02069092 C9.21484703 -0.02813828 9.21484703 -0.02813828 11.23109436 -0.03573608 C14.84518383 -0.04884258 18.45925474 -0.05530244 22.07336426 -0.05974674 C24.33553311 -0.06268226 26.59769696 -0.06678813 28.85986328 -0.07125092 C35.949476 -0.08492558 43.03907718 -0.09459055 50.12870216 -0.09845281 C58.2895683 -0.10292384 66.45026613 -0.12042728 74.61108112 -0.1494534 C80.93231956 -0.17114881 87.25351095 -0.18116138 93.57478619 -0.18249393 C97.34337021 -0.18353699 101.11179604 -0.18933683 104.88034058 -0.20731354 C108.43283196 -0.22392918 111.98504857 -0.22588525 115.53756523 -0.21717453 C117.44368889 -0.21605059 119.34980399 -0.22966613 121.25587463 -0.243927 C137.4316273 -0.16649789 150.21271597 4.52856775 162.01196289 15.67950439 C165.63072989 19.41080261 168.88107183 23.38220532 172.0871582 27.47003174 C174.73063965 30.83687836 177.40670721 34.17722372 180.08618164 37.51544189 C180.62090088 38.19356934 181.15562012 38.87169678 181.70654297 39.57037354 C186.13633529 45.09340051 190.4601088 49.92430824 197.39868164 52.14044189 C200.7685587 52.44184943 200.7685587 52.44184943 204.49368286 52.39872742 C205.19664832 52.40240312 205.89961378 52.40607883 206.62388122 52.40986592 C208.97353099 52.41982584 211.32294315 52.41569908 213.67260742 52.41168213 C215.35991161 52.41607051 217.04721363 52.42137308 218.73451233 52.42752075 C222.36635792 52.43901594 225.99814521 52.44447984 229.6300087 52.44540215 C235.37992898 52.44734499 241.12972909 52.46541164 246.87960815 52.48616028 C261.16590067 52.53532628 275.45222592 52.56619237 289.73858643 52.58746338 C300.83390105 52.60401116 311.92911279 52.62690544 323.02435863 52.67048413 C328.73237229 52.69219258 334.44019017 52.70032459 340.14824224 52.69809139 C343.71172352 52.69976618 347.27507864 52.71386449 350.83851433 52.73130417 C352.48192229 52.73687171 354.12535677 52.73741862 355.7687664 52.73236656 C370.81598604 52.69098613 384.15270357 54.8356501 395.70336914 65.28497314 C404.11646148 74.4928507 407.91568036 84.68437222 407.69165039 96.98809814 C407.68740555 97.88540146 407.68316071 98.78270477 407.67878723 99.7071991 C407.66215528 102.53943432 407.62453361 105.37092613 407.58618164 108.20294189 C407.57111473 110.13717632 407.55742986 112.07142204 407.54516602 114.00567627 C407.51230276 118.71754601 407.46063005 123.42886844 407.39868164 128.14044189 C408.52773926 128.11949463 409.65679687 128.09854736 410.82006836 128.07696533 C415.0505684 128.00399722 419.28101401 127.95843777 423.51196289 127.92071533 C425.33530056 127.90072825 427.1585752 127.87352904 428.98168945 127.83868408 C442.18325908 127.59287172 452.56768822 127.75363903 462.64477539 137.28106689 C470.17626068 145.26544774 472.02779529 152.80978571 471.73852539 163.76641846 C471.31358813 171.14054522 469.06394375 178.00706074 466.89868164 185.01544189 C466.37274223 186.77884886 465.84918216 188.5429667 465.32763672 190.30767822 C464.09911259 194.45469787 462.85853013 198.59790326 461.61206055 202.73956299 C459.05429152 211.26307617 456.55984729 219.80488801 454.06665039 228.34747314 C453.58353648 230.00241228 453.10041773 231.65735001 452.61729431 233.31228638 C451.87172928 235.8662233 451.12617276 238.42016268 450.38074017 240.97413826 C448.58712379 247.11758703 446.78769508 253.25931388 444.98535156 259.40020752 C439.86131285 276.86159822 434.75605266 294.32796918 429.70872307 311.81170845 C428.91296653 314.5672481 428.1162828 317.32251779 427.31922913 320.0776825 C427.06015494 320.97324765 426.80108076 321.86881281 426.53415585 322.7915163 C426.01726047 324.57821408 425.50032673 326.36490076 424.98335361 328.15157604 C423.48695297 333.32538616 421.99675981 338.50093376 420.51106262 343.67782688 C419.58754423 346.89031264 418.65819352 350.10109046 417.72733688 353.31145668 C417.3011506 354.78588411 416.87738653 356.26101445 416.45637894 357.73692894 C411.47707952 375.18384219 406.20208593 389.86599067 390.39868164 400.14044189 C382.61265294 404.05287277 375.67951049 406.2622612 366.95486164 406.27186966 C365.64480005 406.2757108 364.33473845 406.27955195 362.98497802 406.28350949 C361.53273533 406.28272929 360.0804927 406.28185051 358.62825012 406.28088379 C357.08426088 406.28346803 355.54027231 406.28648136 353.99628466 406.28988719 C349.75129401 406.29795349 345.50632027 406.29974656 341.26132286 406.30048466 C336.68380332 406.30233585 332.10629254 406.30988353 327.52877808 406.31661987 C317.5183926 406.33020108 307.50801112 406.33622758 297.49761796 406.34063053 C291.24688714 406.3433933 284.99615786 406.34763072 278.74542809 406.3521347 C261.43840666 406.36432707 244.13138647 406.37462647 226.82436085 406.3780098 C225.16286636 406.37833915 225.16286636 406.37833915 223.46780632 406.37867515 C222.35749592 406.37889343 221.24718552 406.3791117 220.10322934 406.3793366 C217.85332477 406.37978006 215.6034202 406.38022662 213.35351562 406.38067627 C212.2374857 406.3808977 211.12145577 406.38111913 209.97160675 406.38134727 C191.8885539 406.38529515 173.80554134 406.40274904 155.72250406 406.42603579 C137.15619213 406.44975187 118.58990042 406.46221176 100.0235731 406.46337771 C89.59956873 406.46429433 79.17561687 406.47004322 68.75162697 406.48819733 C59.87521791 406.50360175 50.9988776 406.50871674 42.12245772 406.50045922 C37.59466153 406.49655395 33.06700376 406.49747635 28.53922462 406.51151657 C24.39078861 406.5242627 20.24259492 406.52305175 16.09415921 406.51092586 C14.59683012 406.5089701 13.09948383 406.51204172 11.60217891 406.52077022 C-3.92908706 406.60554616 -15.76285605 403.39683958 -27.20678711 392.62091064 C-38.05243593 381.38602157 -41.21817241 369.43682221 -41.10925293 354.09147644 C-41.11387223 352.71126941 -41.12023201 351.33106732 -41.12816191 349.95087534 C-41.1447372 346.19096219 -41.13666335 342.43145929 -41.12421703 338.67154539 C-41.11512012 334.60399608 -41.12915909 330.53651448 -41.14013672 326.46897888 C-41.15787678 318.51390776 -41.15410229 310.55898803 -41.14248616 302.60391109 C-41.13343492 296.13641096 -41.13223513 289.6689531 -41.13658142 283.20144844 C-41.13719435 282.27927962 -41.13780729 281.35711079 -41.13843879 280.40699746 C-41.13971775 278.5333609 -41.14101461 276.65972435 -41.14232916 274.78608782 C-41.15372157 257.23791403 -41.14064196 239.68982397 -41.11912769 222.14166392 C-41.10125495 207.09816455 -41.10436487 192.05478865 -41.12280273 177.0112915 C-41.14422799 159.52229979 -41.15262618 142.03338135 -41.14035368 124.54437834 C-41.13907954 122.67812543 -41.13782206 120.81187251 -41.13658142 118.94561958 C-41.13596432 118.02749444 -41.13534722 117.1093693 -41.13471141 116.16342218 C-41.1312637 109.70630603 -41.1370743 103.24923653 -41.14649963 96.79212761 C-41.15773927 88.91938867 -41.15463822 81.04680918 -41.13337666 73.17408841 C-41.12289307 69.16049995 -41.11869821 65.14717696 -41.13197327 61.1335907 C-41.14395907 57.4540512 -41.13723401 53.77502135 -41.11606306 50.0955276 C-41.10953206 48.14575483 -41.1224775 46.19594623 -41.13629198 44.24621147 C-41.02441621 31.61225589 -37.16046927 21.35159588 -28.63647461 11.98028564 C-20.87718338 4.47355724 -10.81842447 0.03247303 0 0 Z M-15.40991211 31.26153564 C-18.02474978 35.38526324 -18.85174751 38.9652961 -18.86138058 43.81901073 C-18.86844617 44.95838595 -18.87551176 46.09776116 -18.88279146 47.27166289 C-18.88037638 48.51872663 -18.87796129 49.76579037 -18.87547302 51.05064392 C-18.87992639 52.39252022 -18.88524077 53.7343939 -18.89134175 55.07626373 C-18.90552055 58.7625942 -18.90718506 62.44884035 -18.90674484 66.13519418 C-18.90839317 70.11149424 -18.92146004 74.08775956 -18.93293762 78.06404114 C-18.95578616 86.75835359 -18.96370816 95.45264164 -18.96876407 104.14698005 C-18.97202144 109.5769161 -18.97854419 115.00684507 -18.98576546 120.43677711 C-19.00533167 135.47396332 -19.0217356 150.51114295 -19.02464199 165.5483427 C-19.02482956 166.51059275 -19.02501713 167.47284279 -19.02521038 168.46425192 C-19.02557663 170.41493054 -19.02594033 172.36560916 -19.0263015 174.31628778 C-19.02648431 175.28459409 -19.02666712 176.25290039 -19.02685547 177.25054932 C-19.02703602 178.22003912 -19.02721657 179.18952892 -19.02740259 180.18839721 C-19.03094368 195.89504454 -19.05796187 211.60155472 -19.09535336 227.30815449 C-19.13344515 243.43816542 -19.15279953 259.56810832 -19.1531015 275.69816524 C-19.1536859 284.75287766 -19.16216627 293.8074265 -19.19109917 302.86209679 C-19.21562479 310.57291146 -19.22288805 318.2835029 -19.20785164 325.99434604 C-19.20068735 329.92682548 -19.20151887 333.8588642 -19.22426224 337.7912941 C-19.24490932 341.39588684 -19.2421996 344.99970169 -19.22138739 348.60428653 C-19.21626083 350.51638701 -19.23562826 352.42850556 -19.2560491 354.34050387 C-19.17240685 362.95553592 -17.5361623 369.74023611 -11.68745989 376.2806465 C-6.29308426 381.56089658 -0.54335052 383.63872871 6.83618164 384.57794189 C14.37779414 383.65177896 21.11785324 380.66689022 26.39868164 375.14044189 C31.95170172 367.37426268 34.05921699 358.02690725 36.61743164 348.98028564 C37.11225739 347.26197153 37.60810229 345.54395062 38.10488892 343.82620239 C39.16299772 340.15992939 40.21427185 336.49179413 41.2600708 332.82199097 C42.91496951 327.01506588 44.58498116 321.21255675 46.25756836 315.41070557 C48.257647 308.46959545 50.25449429 301.52757431 52.24680138 294.58422947 C55.53552931 283.12430656 58.84945273 271.67195916 62.18774414 260.22637939 C62.41414267 259.45007109 62.64054119 258.67376278 62.87380028 257.87392998 C65.06924828 250.34768418 67.26903005 242.82270705 69.47016048 235.29812145 C70.31616091 232.40598005 71.16194389 229.5137751 72.0076046 226.62153435 C72.41974954 225.21204035 72.83198131 223.80257173 73.24430275 222.39312935 C75.7730398 213.74726208 78.27801856 205.09508862 80.75372314 196.43388367 C82.12279099 191.64844801 83.50204828 186.86598258 84.88275146 182.08389282 C85.50697772 179.911249 86.12619364 177.73715789 86.73980713 175.56149292 C92.57211915 154.88767473 92.57211915 154.88767473 98.39868164 147.14044189 C98.86790039 146.48616211 99.33711914 145.83188232 99.82055664 145.15777588 C106.42744111 136.25810878 117.6560235 130.90164182 128.39868164 129.14044189 C136.72491843 128.39115505 145.11500113 128.57546378 153.46630859 128.59454346 C156.00022005 128.58579921 158.53412599 128.57531048 161.06802368 128.56321716 C166.50157522 128.54117907 171.93493231 128.53115171 177.36852455 128.53232574 C185.22430717 128.53400195 193.07991353 128.51358978 200.93564894 128.48797044 C213.68430424 128.44698575 226.43292762 128.42360109 239.18164062 128.41143799 C251.55797387 128.39959212 263.93424712 128.37936198 276.31054688 128.34796143 C277.07478933 128.34602532 277.83903179 128.34408922 278.62643311 128.34209445 C282.46082154 128.33232919 286.29520951 128.3224002 290.12959731 128.31238985 C321.88593362 128.22969569 353.64225638 128.17592517 385.39868164 128.14044189 C385.47319854 123.14169524 385.52745601 118.14327657 385.56347656 113.144104 C385.5785029 111.44580447 385.59892987 109.74754335 385.625 108.04937744 C385.66165613 105.59916671 385.67846953 103.14947189 385.69165039 100.69903564 C385.70713425 99.94770859 385.7226181 99.19638153 385.73857117 98.42228699 C385.74055228 92.1253977 384.0827202 87.82242923 380.71118164 82.45294189 C375.57265545 77.31441571 369.28854931 75.28829345 362.11795044 75.01574326 C360.23654861 75.01580557 360.23654861 75.01580557 358.31713867 75.01586914 C357.61558434 75.01445899 356.91403002 75.01304884 356.19121647 75.01159596 C353.84628869 75.00795346 351.5014218 75.01127504 349.15649414 75.01446533 C347.47243706 75.01306994 345.78838034 75.01117022 344.10432434 75.00880432 C340.47904173 75.00431124 336.85377043 75.00245132 333.22848511 75.00234222 C327.48644151 75.00119978 321.74446191 74.9883447 316.00244141 74.97277832 C314.54708025 74.96891904 314.54708025 74.96891904 313.06231785 74.96498179 C311.07825974 74.95971519 309.09420167 74.9544297 307.11014366 74.94912577 C293.74618943 74.91406542 280.38231462 74.88745945 267.01831055 74.88995361 C257.99917143 74.89154637 248.9802508 74.87540799 239.96118164 74.83924699 C235.19375572 74.82085185 230.42669427 74.81138738 225.65924072 74.82372284 C221.16760316 74.83523172 216.67661589 74.82328864 212.18506432 74.79408836 C210.54572407 74.78749466 208.90632339 74.78923328 207.26700783 74.80038643 C193.52723287 74.88603393 182.03053856 72.72186101 171.85571289 62.77716064 C165.54037724 55.99997214 159.71822971 48.87799481 154.06787109 41.54107666 C146.63711623 31.9167599 139.71927147 24.72514252 127.39868164 22.14044189 C125.62799253 22.04467507 123.85414532 22.00136776 122.08088684 21.99327087 C121.00296875 21.98611557 119.92505066 21.97896027 118.81446838 21.97158813 C117.63674362 21.96889923 116.45901886 21.96621033 115.24560547 21.96343994 C114.0012674 21.95686874 112.75692932 21.95029755 111.47488403 21.94352722 C107.35182453 21.9237967 103.2288039 21.91212796 99.10571289 21.90216064 C97.68318856 21.89811118 96.26066443 21.8939942 94.83814049 21.88981056 C88.15272689 21.87076748 81.46732427 21.85653551 74.78188878 21.84819859 C67.07995005 21.838434 59.37829931 21.81213141 51.67646199 21.7716977 C45.71365492 21.74147449 39.75093011 21.7267238 33.78804797 21.72341758 C30.23132352 21.72107385 26.67490702 21.71220273 23.11826515 21.68695641 C19.14499464 21.65920771 15.17209885 21.6635258 11.19873047 21.67047119 C9.44732506 21.6512561 9.44732506 21.6512561 7.66053772 21.63165283 C-2.02836913 21.69326175 -9.15345895 23.57911026 -15.40991211 31.26153564 Z M116.39868164 159.14044189 C112.02791948 165.64259222 109.79764103 172.56256945 107.71118164 180.05059814 C107.3762822 181.2167012 107.04138275 182.38280426 106.69633484 183.58424377 C105.96978884 186.11910785 105.24730958 188.65472535 104.53158569 191.19262695 C103.37344913 195.29847507 102.19949368 199.39969958 101.02294922 203.50030518 C99.77040109 207.86810601 98.51868315 212.23613265 97.27192688 216.60559082 C94.30905039 226.98748797 91.3110726 237.3587079 88.28540039 247.72247314 C88.07254961 248.4515859 87.85969883 249.18069866 87.64039803 249.93190575 C86.34108547 254.38159764 85.04051843 258.83092219 83.73963547 263.28015518 C81.98654587 269.27699494 80.2354372 275.2744135 78.48462105 281.27191734 C78.04189394 282.78849368 77.59911821 284.30505582 77.15629387 285.82160378 C74.09611029 296.30286591 71.04904045 306.78786469 68.01176453 317.27578735 C66.32163267 323.11190201 64.6282634 328.94707591 62.93420887 334.78205299 C61.5543696 339.53590191 60.17886154 344.2909756 58.80659676 349.04701614 C57.95623762 351.99019814 57.10164702 354.93213927 56.24591827 357.87376404 C55.85270579 359.22866109 55.46122125 360.58406112 55.07167816 361.9400177 C54.53493332 363.80750697 53.99121498 365.67298759 53.44726562 367.53839111 C53.14642563 368.57809052 52.84558563 369.61778992 52.53562927 370.68899536 C51.56427452 373.63774946 50.48771224 376.47882694 49.32762241 379.3561573 C48.96663159 380.25313839 48.60564077 381.15011948 48.23371083 382.07428181 C47.82037138 383.09703105 47.82037138 383.09703105 47.39868164 384.14044189 C88.26636978 384.20911453 129.13405039 384.26197399 170.00178471 384.29363788 C174.82703625 384.29738998 179.65228769 384.30127295 184.47753906 384.30523682 C185.43815623 384.30602375 186.39877339 384.30681068 187.38850016 384.30762146 C202.9409004 384.32067394 218.49326736 384.34432692 234.04564785 384.37190028 C250.00485437 384.39995886 265.96404345 384.41661911 281.92327362 384.42270738 C291.77027856 384.42682288 301.61718942 384.43981955 311.4641654 384.4641913 C318.21740138 384.48005405 324.97058876 384.48484102 331.72384202 384.48094603 C335.61960911 384.47902532 339.51521186 384.48196141 343.41094971 384.49805832 C346.98097359 384.5127014 350.55072323 384.5133659 354.12075997 384.50313858 C356.01692569 384.50127909 357.91308838 384.51417829 359.8092069 384.52768582 C369.37735297 384.47753376 377.44190374 383.23081127 384.48120117 376.34889221 C390.77484029 369.100219 392.97819245 358.53427028 395.52368164 349.50372314 C395.90630515 348.17057435 396.2897266 346.83765436 396.6738739 345.50494385 C397.49469511 342.65160867 398.31036895 339.7968736 399.12191772 336.94088745 C400.42268989 332.36386806 401.73542585 327.7903335 403.05029297 323.21734619 C404.4321167 318.4099531 405.81346339 313.60242876 407.19111633 308.7938385 C411.66828644 293.16942954 416.21179636 277.56466699 420.76919556 261.96350098 C421.86505834 258.21145219 422.95882808 254.45879726 424.05179501 250.70590401 C428.29228098 236.14564962 432.5517608 221.59159963 436.87711906 207.05630684 C438.08640265 202.98951949 439.29117995 198.92139397 440.49614048 194.85332394 C441.79524733 190.47055304 443.10792082 186.09197228 444.42285156 181.71392822 C445.08848847 179.4695338 445.75363863 177.22499495 446.41821289 174.98028564 C446.72332794 173.97655914 447.02844299 172.97283264 447.34280396 171.93869019 C450.00681654 163.53771689 450.00681654 163.53771689 448.41040039 155.17950439 C445.40761841 151.97299384 443.55472313 150.2589955 439.05627578 150.01164073 C438.12416702 150.00985216 437.19205825 150.00806359 436.23170376 150.00622082 C434.61744067 149.99953405 434.61744067 149.99953405 432.97056621 149.9927122 C431.78382291 149.99289656 430.59707961 149.99308092 429.37437439 149.99327087 C428.11704909 149.98959419 426.8597238 149.9859175 425.56429774 149.9821294 C422.06729402 149.97210597 418.57030747 149.96839204 415.07329142 149.96574008 C411.3041941 149.96183796 407.53511037 149.95225945 403.76602173 149.94352722 C394.65924983 149.9237586 385.55247681 149.91369539 376.44568881 149.90479943 C372.15685681 149.90041655 367.86802605 149.89504968 363.57919502 149.88981056 C349.32100525 149.8727967 335.06281625 149.85830318 320.80461788 149.85106182 C317.10395748 149.84915193 313.40329709 149.8472316 309.70263672 149.84527588 C308.78285636 149.84479214 307.86307601 149.8443084 306.91542352 149.84381 C292.02022119 149.83551219 277.12509924 149.81018021 262.229932 149.7776952 C246.93619929 149.74461306 231.64250741 149.72661195 216.34873873 149.72341758 C207.762384 149.72125338 199.17614643 149.71251815 190.58982658 149.68695641 C183.2760755 149.6652335 175.96247002 149.65720673 168.64869034 149.66692319 C164.91880099 149.67146353 161.18921196 149.66959761 157.45936394 149.65016174 C153.40999026 149.62924373 149.36128059 149.63952944 145.31187439 149.6526947 C144.14074614 149.64172546 142.96961789 149.63075621 141.76300091 149.61945456 C131.94858537 149.69640464 123.37424739 151.84043123 116.39868164 159.14044189 Z " fill="#000000" transform="translate(40.601318359375,52.85955810546875)"/>
</svg>
