<?xml version="1.0" encoding="UTF-8"?>
<svg version="1.1" xmlns="http://www.w3.org/2000/svg" width="512" height="512">
<path d="M0 0 C9.25193039 6.63479412 14.83028277 14.78979432 17 26 C17.20813706 29.05418519 17.14837089 31.93366826 17 35 C17.96099609 35.27263672 17.96099609 35.27263672 18.94140625 35.55078125 C23.04312243 36.74278521 27.00774721 37.92169095 30.875 39.75 C33.7582092 41.12766554 33.7582092 41.12766554 36.0625 41 C38.42971977 39.77820915 40.2307021 38.08850579 42.22265625 36.33984375 C51.05099745 29.68463269 61.39020425 29.25507954 72 30 C82.09681186 32.10297462 89.78441274 37.66927155 95.875 45.875 C101.94454194 55.26800342 103.06444012 63.82922727 102 75 C100.3921369 81.75302502 97.6766854 88.95722588 92.1875 93.5 C90.68783074 95.03759981 90.68783074 95.03759981 91.265625 97.703125 C92.02733883 101.12273389 93.15048219 104.04781716 94.5625 107.25 C97 112.80169972 97 112.80169972 97 115 C98.2375 114.9175 99.475 114.835 100.75 114.75 C110.96614066 114.79818934 119.75357475 118.95526451 127 126 C135.01243833 134.62188554 137.65538819 143.68001705 137.53857422 155.2434082 C137.10663094 165.63934965 133.32533732 173.62680086 126.09765625 181.09765625 C117.6824057 188.72936392 108.24859024 191.54428662 97 191 C96.81824219 191.64066406 96.63648438 192.28132812 96.44921875 192.94140625 C95.25721479 197.04312243 94.07830905 201.00774721 92.25 204.875 C90.87233446 207.7582092 90.87233446 207.7582092 91 210.0625 C92.22179085 212.42971977 93.91149421 214.2307021 95.66015625 216.22265625 C102.31536731 225.05099745 102.74492046 235.39020425 102 246 C99.90240903 256.07096389 94.33996483 263.75745182 86.1875 269.875 C77.01802628 275.81792206 67.83018218 277.10860133 57 276 C50.16844417 274.33688716 43.13232546 271.63349753 38.4375 266.1875 C37.963125 265.795625 37.48875 265.40375 37 265 C32.84817646 265.50777698 29.17717755 267.01574764 25.3125 268.5625 C19.21529745 271 19.21529745 271 17 271 C17.0825 272.2375 17.165 273.475 17.25 274.75 C17.20181066 284.96614066 13.04473549 293.75357475 6 301 C-2.62188554 309.01243833 -11.68001705 311.65538819 -23.2434082 311.53857422 C-33.63934965 311.10663094 -41.62680086 307.32533732 -49.09765625 300.09765625 C-56.72936392 291.6824057 -59.54428662 282.24859024 -59 271 C-59.96099609 270.72736328 -59.96099609 270.72736328 -60.94140625 270.44921875 C-65.04312243 269.25721479 -69.00774721 268.07830905 -72.875 266.25 C-75.7582092 264.87233446 -75.7582092 264.87233446 -78.0625 265 C-80.42971977 266.22179085 -82.2307021 267.91149421 -84.22265625 269.66015625 C-92.84218226 276.15795278 -102.6082785 276.59735492 -113 276 C-122.67990824 274.52225491 -130.63051169 269.17947649 -136.875 261.75 C-143.65807145 252.22483584 -145.23347022 242.55761594 -144 231 C-142.37929164 224.2442922 -139.68254071 217.0476199 -134.1875 212.5 C-132.68783074 210.96240019 -132.68783074 210.96240019 -133.265625 208.296875 C-134.02733883 204.87726611 -135.15048219 201.95218284 -136.5625 198.75 C-139 193.19830028 -139 193.19830028 -139 191 C-140.2375 191.0825 -141.475 191.165 -142.75 191.25 C-152.96614066 191.20181066 -161.75357475 187.04473549 -169 180 C-177.01243833 171.37811446 -179.65538819 162.31998295 -179.53857422 150.7565918 C-179.10663094 140.36065035 -175.32533732 132.37319914 -168.09765625 124.90234375 C-159.6824057 117.27063608 -150.24859024 114.45571338 -139 115 C-138.81824219 114.35933594 -138.63648438 113.71867187 -138.44921875 113.05859375 C-137.25721479 108.95687757 -136.07830905 104.99225279 -134.25 101.125 C-132.87233446 98.2417908 -132.87233446 98.2417908 -133 95.9375 C-134.22179085 93.57028023 -135.91149421 91.7692979 -137.66015625 89.77734375 C-144.31536731 80.94900255 -144.74492046 70.60979575 -144 60 C-141.89702538 49.90318814 -136.33072845 42.21558726 -128.125 36.125 C-118.73199658 30.05545806 -110.17077273 28.93555988 -99 30 C-92.24697498 31.6078631 -85.04277412 34.3233146 -80.5 39.8125 C-78.96240019 41.31216926 -78.96240019 41.31216926 -76.296875 40.734375 C-72.87726611 39.97266117 -69.95218284 38.84951781 -66.75 37.4375 C-61.19830028 35 -61.19830028 35 -59 35 C-59.0825 33.7625 -59.165 32.525 -59.25 31.25 C-59.20181066 21.03385934 -55.04473549 12.24642525 -48 5 C-35.01789247 -7.06445336 -15.25548414 -9.40375365 0 0 Z M-56.984375 126.26953125 C-65.00737441 137.13789673 -66.0733929 148.92040045 -65 162 C-62.49780411 174.12492636 -54.80768742 183.7599904 -45 191 C-33.69386684 197.28950454 -21.39388749 198.93859707 -8.6875 196.31640625 C2.80553435 192.38200102 12.6924065 184.74341212 18.640625 174.05078125 C23.77606293 162.99778409 25.39791401 149.68908284 21.375 137.9375 C15.85336225 125.37960858 7.17489937 116.21919973 -5.5546875 110.875 C-24.8841957 103.95837087 -44.03933968 111.31032086 -56.984375 126.26953125 Z " fill="#ffffff" transform="translate(277,103)"/>
<path d="M0 0 C8.10211441 4.12749225 11.02593256 10.80121673 14.29296875 18.82421875 C14.68446609 19.7668306 15.07596344 20.70944244 15.47932434 21.68061829 C16.7230849 24.67979369 17.95552622 27.6834663 19.1875 30.6875 C20.43275755 33.70113372 21.68025801 36.71383254 22.92781067 39.72651672 C23.70207535 41.59877076 24.47449938 43.47178723 25.24491882 45.34562683 C25.59230606 46.19022964 25.9396933 47.03483246 26.29760742 47.9050293 C26.60309006 48.64939743 26.90857269 49.39376556 27.22331238 50.16069031 C27.77187859 51.45977519 28.36935804 52.73871607 29 54 C29.5099099 59.58393133 29.73870063 64.44052088 27.3125 69.5625 C23.11269797 73.98931835 19.37511538 75.65525323 13.33984375 76.1171875 C9.22696482 75.91120024 6.19617163 74.56810297 3 72 C-0.23969884 68.05315877 -2.17131693 63.73645391 -4 59 C-4.26103516 59.50225098 -4.52207031 60.00450195 -4.79101562 60.52197266 C-7.83213751 66.36321685 -10.9022697 72.18857467 -14 78 C-14.3515918 78.66 -14.70318359 79.32 -15.06542969 80 C-23.27866765 95.27109689 -33.53098363 109.03879693 -45 122 C-45.75925781 122.87011719 -46.51851563 123.74023438 -47.30078125 124.63671875 C-56.13549369 134.6326545 -65.46081199 143.81186162 -76 152 C-76.56783203 152.44956055 -77.13566406 152.89912109 -77.72070312 153.36230469 C-121.01829319 187.5604547 -174.36991518 205.49241566 -229.375 205.375 C-230.82066345 205.37418427 -230.82066345 205.37418427 -232.29553223 205.37335205 C-248.18880847 205.33226972 -263.41482819 204.34132565 -279 201 C-280.51182861 200.68651611 -280.51182861 200.68651611 -282.05419922 200.36669922 C-323.51406683 191.55457961 -363.7181729 171.71653371 -394.51171875 142.37109375 C-396.61809341 140.36392041 -398.76611653 138.48581128 -401 136.625 C-431.34986297 110.09233629 -452.2622829 71.35048035 -464.625 33.5625 C-464.96805176 32.52665771 -465.31110352 31.49081543 -465.66455078 30.42358398 C-467.79887468 23.63078398 -469.32141564 17.74401097 -466.875 10.8125 C-464.05299253 6.57948879 -460.92271008 3.64090336 -456 2 C-450.74234055 1.60319551 -447.43897158 2.10501854 -443 5 C-437.62077432 10.05401106 -436.08300494 16.01496984 -433.97875977 22.9598999 C-426.21619526 48.3859869 -414.44407038 71.09802185 -398 92 C-397.06220703 93.24523437 -397.06220703 93.24523437 -396.10546875 94.515625 C-380.001191 115.22566266 -359.66437388 131.97572246 -337 145 C-335.84105225 145.66878174 -335.84105225 145.66878174 -334.65869141 146.35107422 C-285.67310401 174.22437101 -227.65736395 180.71569118 -173.34814453 166.29589844 C-167.8200489 164.74568609 -162.39531742 162.96060678 -157 161 C-156.31099609 160.75056641 -155.62199219 160.50113281 -154.91210938 160.24414062 C-129.59336827 150.8730747 -107.09870561 136.89970848 -87 119 C-86.48066895 118.54238281 -85.96133789 118.08476562 -85.42626953 117.61328125 C-63.9932812 98.67959282 -43.17718869 72.53156608 -34 45 C-34.83402344 45.37253906 -35.66804688 45.74507813 -36.52734375 46.12890625 C-48.92937689 51.34259028 -48.92937689 51.34259028 -56 49 C-60.8920654 46.5539673 -63.26515642 44.20453074 -65 39 C-65.64923236 34.07865842 -65.56278921 30.24282617 -63.5 25.6875 C-58.34310055 20.14383309 -51.54856534 17.14820078 -44.625 14.3359375 C-43.85623535 14.01718658 -43.0874707 13.69843567 -42.29541016 13.37002563 C-39.86632371 12.36494488 -37.43323995 11.3699764 -35 10.375 C-33.3695312 9.70115072 -31.73932062 9.0266763 -30.109375 8.3515625 C-7.03827261 -1.17522177 -7.03827261 -1.17522177 0 0 Z " fill="#ffffff" transform="translate(483,307)"/>
<path d="M0 0 C1.44566345 0.00081573 1.44566345 0.00081573 2.92053223 0.00164795 C18.81036065 0.04272137 34.04482204 1.02162509 49.625 4.375 C50.64352051 4.58930664 51.66204102 4.80361328 52.71142578 5.02441406 C89.00975944 12.86745706 122.29162726 28.690759 151.625 51.375 C152.553125 52.08914062 153.48125 52.80328125 154.4375 53.5390625 C166.36449181 63.01676135 177.88491418 73.64750696 187.625 85.375 C188.03492188 85.86726074 188.44484375 86.35952148 188.8671875 86.86669922 C209.74632322 112.13941047 225.06609202 140.68428512 235.25 171.8125 C235.59305176 172.84834229 235.93610352 173.88418457 236.28955078 174.95141602 C238.42387468 181.74421602 239.94641564 187.63098903 237.5 194.5625 C234.67799253 198.79551121 231.54771008 201.73409664 226.625 203.375 C221.52742182 203.87476257 218.06022492 203.01435969 213.51953125 200.93359375 C208.15936248 196.5238879 206.65554547 189.66187776 204.9375 183.25 C197.16695026 155.98192633 183.16948855 129.85760711 164.625 108.375 C163.97789062 107.61832031 163.33078125 106.86164063 162.6640625 106.08203125 C160.3660843 103.46370293 158.01170996 100.91285654 155.625 98.375 C155.1005127 97.81651367 154.57602539 97.25802734 154.03564453 96.68261719 C140.29414597 82.17228159 124.94355973 70.32725942 107.625 60.375 C106.46605225 59.70621826 106.46605225 59.70621826 105.28369141 59.02392578 C54.46057018 30.10505358 -4.1446437 25.15836332 -60.18530273 40.10253906 C-85.03286956 47.14224228 -108.97009881 59.67061504 -129.375 75.375 C-130.35210937 76.12136719 -131.32921875 76.86773437 -132.3359375 77.63671875 C-154.50445501 95.22200903 -171.91744831 116.0778698 -186 140.5625 C-186.50917969 141.44752197 -187.01835937 142.33254395 -187.54296875 143.24438477 C-189.95678725 147.53557198 -192.04649712 151.60020434 -193.375 156.375 C-192.41400391 155.941875 -192.41400391 155.941875 -191.43359375 155.5 C-185.56483462 152.98106911 -180.67245022 150.92897705 -174.30859375 153.0703125 C-169.48493132 155.18455128 -166.53810212 157.41789097 -164.375 162.375 C-163.61593043 167.68058003 -163.69357925 171.93353303 -166 176.8125 C-171.12253466 182.33944529 -177.41143345 184.85275834 -184.26171875 187.66796875 C-185.20054398 188.05946609 -186.1393692 188.45096344 -187.10664368 188.85432434 C-190.08948741 190.09635511 -193.07595373 191.32940289 -196.0625 192.5625 C-198.08161344 193.40243435 -200.10049621 194.24292343 -202.11914062 195.08398438 C-205.80555113 196.61675698 -209.49221481 198.14887688 -213.18237305 199.67260742 C-213.92150436 199.97809006 -214.66063568 200.28357269 -215.42216492 200.59831238 C-221.01420577 202.8223962 -225.89973614 203.24862254 -231.5625 201.25 C-237.64840567 197.19272955 -240.37110987 191.85431885 -243.00390625 185.265625 C-243.32028549 184.4987738 -243.63666473 183.73192261 -243.96263123 182.9418335 C-244.96440263 180.50690351 -245.95111171 178.06619622 -246.9375 175.625 C-247.60253585 174.0022023 -248.26854353 172.37980251 -248.93554688 170.7578125 C-250.20702189 167.66102615 -251.46875461 164.5605878 -252.72119141 161.45605469 C-253.699703 159.03095999 -254.69496202 156.61732434 -255.71240234 154.20800781 C-258.28990727 148.06103171 -259.38713793 143.06987071 -258.375 136.375 C-256.25693186 131.52109386 -253.32745744 129.11245312 -248.58984375 127.00390625 C-243.42801139 125.53820076 -239.03538258 126.69131305 -234.1875 128.6875 C-229.88630298 132.79753271 -227.62105744 137.9111865 -225.375 143.375 C-225.375 144.035 -225.375 144.695 -225.375 145.375 C-224.715 145.375 -224.055 145.375 -223.375 145.375 C-223.20991943 144.82320068 -223.04483887 144.27140137 -222.87475586 143.70288086 C-221.10614017 138.07068564 -218.85107366 133.06260929 -215.9375 127.9375 C-215.50646973 127.17179687 -215.07543945 126.40609375 -214.63134766 125.6171875 C-207.54357772 113.22559257 -199.63514209 101.25308513 -190.375 90.375 C-189.48646302 89.30251075 -188.59848254 88.22956029 -187.7109375 87.15625 C-177.35348889 74.73879481 -166.21420288 63.24737512 -153.375 53.375 C-152.81151855 52.92979004 -152.24803711 52.48458008 -151.66748047 52.02587891 C-108.25054262 17.72615002 -55.13759134 -0.11769851 0 0 Z " fill="#ffffff" transform="translate(258.375,-0.375)"/>
<path d="M0 0 C4.61581142 2.18643699 6.72864085 4.49599804 9 9 C9.82885269 14.54808604 9.7240695 19.47140883 7.3125 24.5625 C4.21064779 27.8320199 1.61649202 29.75850523 -2.90234375 30.43359375 C-9.05071801 30.44150672 -13.31314296 30.4465054 -18 26 C-21.88937897 20.55860924 -21.79042609 15.48149391 -21 9 C-16.63929544 -0.20593186 -9.3488659 -1.1401056 0 0 Z " fill="#ffffff" transform="translate(262,241)"/>
</svg>
