<?xml version="1.0" encoding="UTF-8"?>
<svg version="1.1" xmlns="http://www.w3.org/2000/svg" width="512" height="512">
<path d="M0 0 C5.5 3 5.5 3 7 6 C7.10836097 9.0359181 7.15492108 12.04951132 7.15821838 15.08609009 C7.16562535 16.51585491 7.16562535 16.51585491 7.17318195 17.97450387 C7.18861585 21.18824164 7.19693348 24.40195934 7.20532227 27.61572266 C7.21489616 29.91155679 7.22490595 32.20738914 7.23532104 34.5032196 C7.26242911 40.75289051 7.28340665 47.002569 7.30332303 53.25226641 C7.32514627 59.77727179 7.35255283 66.3022536 7.37937927 72.82723999 C7.42367115 83.78455596 7.46449799 94.74187987 7.50268555 105.69921875 C7.54203301 116.98666325 7.58345743 128.27409696 7.62768555 139.56152344 C7.63040982 140.25696796 7.63313409 140.95241248 7.63594092 141.66893108 C7.64962027 145.15767855 7.66334057 148.64642586 7.67708123 152.13517308 C7.79106906 181.09009271 7.89779975 210.04503647 8 239 C8.83493988 238.16283951 9.66987976 237.32567902 10.53012085 236.46315002 C18.3853134 228.58771704 26.24312138 220.71490211 34.10352135 212.84466648 C38.14488587 208.79807543 42.18531167 204.75055613 46.22363281 200.70092773 C50.11826054 196.79546298 54.01530068 192.89242074 57.91405106 188.9910717 C59.40372162 187.49954837 60.89250938 186.00714282 62.38041306 184.51385689 C64.45882302 182.42822573 66.54030288 180.34570664 68.62255859 178.26391602 C69.24186752 177.64101181 69.86117645 177.0181076 70.49925232 176.37632751 C74.41724631 172.46784094 76.30530004 170.83967346 81.8125 170.625 C85.55159373 170.68443646 86.80652235 170.87759577 90.0625 172.9375 C92.52158725 176.82444436 93.67370857 180.39001664 93 185 C89.7642681 190.61654716 85.37953386 194.90316949 80.80664062 199.45214844 C79.98342819 200.27886551 79.16021576 201.10558258 78.3120575 201.95735168 C75.59845384 204.67973483 72.87762731 207.39476426 70.15625 210.109375 C68.26553498 212.0014375 66.37511729 213.8937934 64.48498535 215.78643799 C60.5275958 219.74745879 56.56602427 223.70426022 52.60205078 227.65869141 C48.02213813 232.22770608 43.44949506 236.80390128 38.88053179 241.38386321 C34.95119427 245.32227963 31.01796906 249.25678158 27.08147383 253.18804383 C24.73300869 255.53339453 22.38630586 257.88045656 20.04231262 260.23027802 C17.43079846 262.84686052 14.81297749 265.456964 12.19335938 268.06542969 C11.41921188 268.84362564 10.64506439 269.62182159 9.84745789 270.42359924 C9.13253677 271.13288071 8.41761566 271.84216217 7.68103027 272.57293701 C7.06309349 273.19011974 6.44515671 273.80730247 5.80849457 274.44318771 C2.23444634 277.51984732 -1.09188879 278.63487715 -5.87602139 278.50461102 C-8.52870343 277.87439159 -9.73363561 276.83019491 -11.73365784 274.98872375 C-12.42991838 274.35055033 -13.12617893 273.7123769 -13.84353828 273.05486488 C-17.446729 269.62143038 -20.99691162 266.14202233 -24.51147461 262.61791992 C-25.32058289 261.81056396 -26.12969116 261.00320801 -26.96331787 260.17138672 C-29.61216507 257.52690809 -32.25737668 254.87882779 -34.90234375 252.23046875 C-36.74924861 250.38423797 -38.59630186 248.53815561 -40.4434967 246.69221497 C-44.30079871 242.83672437 -48.15600458 238.97914727 -52.01000977 235.12036133 C-56.46621663 230.65869061 -60.92604569 226.20066489 -65.38772768 221.74446982 C-69.68926408 217.44801143 -73.98799246 213.14875515 -78.28552437 208.8482914 C-80.1121123 207.0210351 -81.9394469 205.19452489 -83.76753044 203.36876488 C-86.3122043 200.82661807 -88.85367195 198.28130959 -91.39428711 195.73510742 C-92.15423477 194.97718399 -92.91418243 194.21926056 -93.69715881 193.43836975 C-94.38534698 192.74736176 -95.07353516 192.05635376 -95.78257751 191.34440613 C-96.38333571 190.7432709 -96.98409391 190.14213568 -97.60305691 189.52278423 C-100.26783626 186.61795296 -100.32830829 183.98575073 -100.29296875 180.10546875 C-99.8224574 176.72406053 -98.13740472 174.57745864 -96 172 C-93.65986288 170.82993144 -91.98542048 170.66163594 -89.375 170.5 C-88.55773437 170.4278125 -87.74046875 170.355625 -86.8984375 170.28125 C-77.5808093 172.59182087 -68.75562924 185.11911252 -62.09375 191.80859375 C-60.7601887 193.14402327 -59.42640412 194.47922985 -58.09240723 195.81422424 C-54.60503352 199.30539128 -51.1206751 202.79955234 -47.63696289 206.29437256 C-44.07231217 209.86930632 -40.50478083 213.44136294 -36.9375 217.01367188 C-29.95553122 224.00632174 -22.97674853 231.00214201 -16 238 C-15.99853344 236.82017233 -15.99706688 235.64034466 -15.99555588 234.42476463 C-15.95985377 206.4179349 -15.90361246 178.41120477 -15.82207905 150.40446981 C-15.81206159 146.95730973 -15.80221746 143.51014917 -15.79248047 140.06298828 C-15.78956841 139.03358698 -15.78956841 139.03358698 -15.78659752 137.98338969 C-15.75557655 126.87148894 -15.73859661 115.75960883 -15.72680578 104.64767294 C-15.71439469 93.24575347 -15.68659694 81.8439672 -15.64538693 70.44211066 C-15.62272799 64.03785093 -15.60709199 57.63374597 -15.60811615 51.2294426 C-15.60886013 45.20314397 -15.59101443 39.17718807 -15.55883217 33.15097809 C-15.55030439 30.93786048 -15.54860265 28.72470457 -15.55419731 26.51157761 C-15.56081522 23.49172126 -15.54296883 20.47296237 -15.51898193 17.45321655 C-15.52674235 16.57577549 -15.53450277 15.69833443 -15.54249835 14.79430425 C-15.46648762 9.3952287 -14.62473185 6.26238045 -11 2 C-7.29825261 -0.4678316 -4.29506525 -0.68072732 0 0 Z " fill="#000000" transform="translate(249,85)"/>
<path d="M0 0 C1.60452652 -0.00761181 1.60452652 -0.00761181 3.24146771 -0.0153774 C4.42607044 -0.01587516 5.61067317 -0.01637292 6.83117294 -0.01688576 C8.08229897 -0.02126801 9.333425 -0.02565027 10.62246394 -0.03016531 C14.1066438 -0.04214915 17.5908098 -0.04778344 21.07500625 -0.05234647 C24.82836809 -0.0582957 28.5817133 -0.06990722 32.33506393 -0.08063698 C41.40514985 -0.10517632 50.47524128 -0.11979025 59.54535019 -0.13269705 C62.10620321 -0.13640782 64.66705567 -0.14038114 67.22790813 -0.14444971 C83.12293649 -0.16968472 99.01796568 -0.19174265 114.91300964 -0.20417786 C118.59599689 -0.20710766 122.27898411 -0.21006931 125.96197128 -0.21308327 C127.33509209 -0.21420234 127.33509209 -0.21420234 128.73595271 -0.21534403 C143.56927571 -0.22800104 158.40247894 -0.26122782 173.23574594 -0.3028851 C188.45710608 -0.34528265 203.67840486 -0.36887035 218.8998239 -0.37409842 C227.44920878 -0.37751499 235.99840647 -0.389299 244.54773331 -0.42220116 C251.82797269 -0.45017293 259.10798653 -0.46121371 266.38827547 -0.4500057 C270.10355181 -0.4448116 273.81835563 -0.44775359 277.53356361 -0.47247124 C281.56042374 -0.49903895 285.58623954 -0.48692917 289.61315536 -0.47098732 C290.7888352 -0.48486941 291.96451504 -0.49875149 293.17582154 -0.51305425 C301.98632934 -0.42681886 301.98632934 -0.42681886 305.68973541 2.53463364 C308.59921723 5.84621194 309.00516528 7.65519128 309.21831894 11.91826439 C308.83252423 15.45264173 307.27963611 17.51357851 304.97613144 20.13701439 C301.66839546 22.34217171 300.67485876 22.38899371 296.82921505 22.39707661 C295.75753966 22.4041422 294.68586426 22.41120779 293.58171386 22.41848749 C291.80917903 22.41486486 291.80917903 22.41486486 290.00083542 22.41116905 C288.74885496 22.41640573 287.49687451 22.42164241 286.20695525 22.42703778 C282.72501241 22.4412478 279.2431587 22.4428805 275.76119101 22.44244087 C272.00851882 22.44408644 268.25588363 22.45714809 264.50323105 22.46863365 C256.29459049 22.491503 248.08597575 22.49940633 239.87730765 22.5044601 C234.75328609 22.50771486 229.62927205 22.51423599 224.50525475 22.52146149 C210.32254623 22.5410299 196.13984473 22.55743271 181.95712185 22.56033802 C180.59520897 22.56061938 180.59520897 22.56061938 179.2057827 22.56090641 C177.36510392 22.56127267 175.52442514 22.56163637 173.68374636 22.56199753 C172.31314372 22.56227174 172.31314372 22.56227174 170.91485214 22.5625515 C170.00000377 22.56273205 169.08515541 22.5629126 168.14258436 22.56309862 C153.31578487 22.56664093 138.48913056 22.59366576 123.66238143 22.63104939 C108.4455027 22.66911012 93.22869604 22.68849533 78.01176864 22.68879753 C69.4657613 22.68938261 60.91992714 22.69790667 52.37396431 22.7267952 C45.09739884 22.75127926 37.8210697 22.75861222 30.54447421 22.74354767 C26.83122349 22.73636644 23.11843971 22.73728756 19.40524101 22.75995827 C15.38060831 22.78429517 11.35704315 22.7699468 7.33237839 22.75174522 C5.56988181 22.77154518 5.56988181 22.77154518 3.77177924 22.79174513 C-5.03315793 22.70048492 -5.03315793 22.70048492 -8.733634 19.72359371 C-11.87528994 16.17542339 -12.4181009 14.02665355 -12.38324356 9.24248314 C-11.74805042 5.52107986 -9.6840784 3.7338859 -7.02386856 1.13701439 C-4.51479078 -0.1175245 -2.80914384 0.00705066 0 0 Z " fill="#000000" transform="translate(97.02386856079102,404.8629856109619)"/>
</svg>
