<?xml version="1.0" encoding="UTF-8"?>
<svg version="1.1" xmlns="http://www.w3.org/2000/svg" width="512" height="512">
<path d="M0 0 C1.75537109 1.29483032 1.75537109 1.29483032 3.6484375 3.01025391 C4.35291016 3.64715149 5.05738281 4.28404907 5.78320312 4.94024658 C12.09428997 10.80424019 18.26932509 16.80157914 24.41162109 22.84179688 C26.14275616 24.5360298 27.88276778 26.22123833 29.63134766 27.89746094 C32.17192265 30.334776 34.68192074 32.80022218 37.1875 35.2734375 C37.9717334 36.01435638 38.7559668 36.75527527 39.56396484 37.51864624 C43.18785129 41.15544742 45.47470134 43.61467348 45.6159668 48.89599609 C45.4083809 52.12922525 45.14799343 52.82682222 42.95703125 55.390625 C39.60228754 57.21645645 36.30804234 58.5318736 32.6875 59.75 C31.71973633 60.08064453 31.71973633 60.08064453 30.73242188 60.41796875 C29.15802516 60.95442985 27.57941996 61.47851357 26 62 C26 75.47974664 48.13723514 95.82985601 57 105 C57.87140625 105.92296875 58.7428125 106.8459375 59.640625 107.796875 C86.48647457 135.5846842 121.72137954 152.94570149 158.76464844 162.40136719 C161.55290885 163.14807039 164.27873088 164.03902378 167 165 C166.69177379 167.2922454 166.37829126 169.58378455 166.0625 171.875 C165.88847656 173.15117187 165.71445313 174.42734375 165.53515625 175.7421875 C165 179 165 179 164 181 C156.53980489 180.53584182 149.71408606 179.07281599 142.5625 176.9375 C141.51771484 176.62804443 140.47292969 176.31858887 139.39648438 175.99975586 C129.60869722 173.01823843 120.27127223 169.31134099 111 165 C110.31534668 164.68450195 109.63069336 164.36900391 108.92529297 164.04394531 C89.05374138 154.78686239 71.32264114 142.88029248 55.21875 128.03125 C53.22984201 126.21041875 51.19317024 124.47912594 49.125 122.75 C32.40011028 108.1157215 18.14691403 88.70637513 8 69 C1.88761641 70.26692935 1.88761641 70.26692935 -4.0625 72.125 C-8.02667063 73.30581678 -10.8572291 73.40091331 -15 73 C-17.72062634 70.94368831 -18.86523847 69.79389084 -19.44198608 66.39622498 C-19.40876251 65.43458939 -19.37553894 64.4729538 -19.34130859 63.48217773 C-19.30463074 62.41804657 -19.26795288 61.35391541 -19.23016357 60.25753784 C-18.87489429 55.22936103 -18.27543157 50.27073494 -17.5390625 45.28515625 C-17.38843353 44.22638779 -17.23780457 43.16761932 -17.08261108 42.07676697 C-16.7655153 39.86203479 -16.4443165 37.64788642 -16.11914062 35.43432617 C-15.62290797 32.04822478 -15.14259731 28.66012737 -14.6640625 25.27148438 C-14.35249953 23.10923977 -14.04003172 20.94712532 -13.7265625 18.78515625 C-13.58376862 17.77679214 -13.44097473 16.76842804 -13.29385376 15.72950745 C-13.15385956 14.78760056 -13.01386536 13.84569366 -12.86962891 12.87524414 C-12.68975937 11.64047081 -12.68975937 11.64047081 -12.5062561 10.38075256 C-11.74235534 6.78838364 -10.82272367 3.85210666 -8.25 1.1875 C-5.06156933 -0.49528285 -3.58079506 -0.68861443 0 0 Z M3 27 C2.49279088 29.85305129 1.99406366 32.70716814 1.5 35.5625 C1.35691406 36.36236328 1.21382812 37.16222656 1.06640625 37.98632812 C0.93105469 38.77587891 0.79570313 39.56542969 0.65625 40.37890625 C0.53056641 41.0963501 0.40488281 41.81379395 0.27539062 42.55297852 C-0.07692869 45.68356055 0 48.84965513 0 52 C10.395 48.535 10.395 48.535 21 45 C17.1530014 40.51183497 13.36662148 36.20722542 9.1875 32.0625 C8.69830078 31.56943359 8.20910156 31.07636719 7.70507812 30.56835938 C5.6990402 28.09095022 5.6990402 28.09095022 3 27 Z " fill="#000000" transform="translate(35,315)"/>
<path d="M0 0 C7.46019511 0.46415818 14.28591394 1.92718401 21.4375 4.0625 C22.48228516 4.37195557 23.52707031 4.68141113 24.60351562 5.00024414 C34.39305414 7.98229507 43.72382603 11.69651185 53 16 C53.67933594 16.31018066 54.35867188 16.62036133 55.05859375 16.93994141 C75.11782204 26.18263164 93.3711252 38.67712952 109.51953125 53.70703125 C111.63509748 55.66268066 113.79243291 57.52565881 116 59.375 C132.29939484 73.61202243 146.12790691 92.82735605 156 112 C162.11238359 110.73307065 162.11238359 110.73307065 168.0625 108.875 C172.02667063 107.69418322 174.8572291 107.59908669 179 108 C181.72062634 110.05631169 182.86523847 111.20610916 183.44198608 114.60377502 C183.40876251 115.56541061 183.37553894 116.5270462 183.34130859 117.51782227 C183.30463074 118.58195343 183.26795288 119.64608459 183.23016357 120.74246216 C182.87489429 125.77063897 182.27543157 130.72926506 181.5390625 135.71484375 C181.38843353 136.77361221 181.23780457 137.83238068 181.08261108 138.92323303 C180.7655153 141.13796521 180.4443165 143.35211358 180.11914062 145.56567383 C179.62290797 148.95177522 179.14259731 152.33987263 178.6640625 155.72851562 C178.35249953 157.89076023 178.04003172 160.05287468 177.7265625 162.21484375 C177.58376862 163.22320786 177.44097473 164.23157196 177.29385376 165.27049255 C177.08386246 166.68335289 177.08386246 166.68335289 176.86962891 168.12475586 C176.74971588 168.94793808 176.62980286 169.7711203 176.5062561 170.61924744 C175.75225292 174.16507138 174.76260643 177.1200695 172.375 179.875 C168.71242078 181.60990595 165.71914295 181.31979653 162 180 C158.23940965 177.30635346 155.06355575 174.09209934 151.8125 170.8125 C150.8607316 169.8705411 149.90807924 168.92947461 148.95458984 167.98925781 C146.9661617 166.02011184 144.9913558 164.03844546 143.02490234 162.04736328 C140.51184673 159.50561262 137.96437046 157.00189684 135.40501404 154.50688171 C133.4312118 152.57351619 131.47898501 150.61943399 129.53231812 148.65878296 C128.15128015 147.2763075 126.75119229 145.91294645 125.35083008 144.55004883 C118.45126985 137.46942923 118.45126985 137.46942923 118.30200195 132.00878906 C118.5621378 128.83640506 118.88996046 128.1287652 121.04296875 125.609375 C124.39771246 123.78354355 127.69195766 122.4681264 131.3125 121.25 C131.95767578 121.02957031 132.60285156 120.80914062 133.26757812 120.58203125 C134.84197484 120.04557015 136.42058004 119.52148643 138 119 C138 105.1827815 116.39909513 85.86181229 107.41259766 76.47558594 C106.10408851 75.10872986 104.80737271 73.7306102 103.51171875 72.3515625 C77.0700672 44.91456236 41.70159873 27.90700793 5.23535156 18.59863281 C2.44709115 17.85192961 -0.27873088 16.96097622 -3 16 C-2.69177379 13.7077546 -2.37829126 11.41621545 -2.0625 9.125 C-1.88847656 7.84882813 -1.71445312 6.57265625 -1.53515625 5.2578125 C-1 2 -1 2 0 0 Z M158.52734375 130.53125 C157.17866211 131.00498047 157.17866211 131.00498047 155.80273438 131.48828125 C154.85720703 131.82214844 153.91167969 132.15601563 152.9375 132.5 C151.5134082 133.00080078 151.5134082 133.00080078 150.06054688 133.51171875 C147.70653995 134.33976139 145.35305285 135.16925083 143 136 C146.77630152 140.51572304 150.67609428 144.81275974 154.875 148.9375 C155.37257813 149.43056641 155.87015625 149.92363281 156.3828125 150.43164062 C157.58620285 151.62345992 158.79275365 152.81208678 160 154 C162.06852553 150.49741264 162.57820915 147.19295993 163.125 143.1875 C163.29257812 142.00542969 163.46015625 140.82335937 163.6328125 139.60546875 C163.99572033 136.04202276 164.06415721 132.57905598 164 129 C162.10390586 129 160.29466081 129.90879871 158.52734375 130.53125 Z " fill="#000000" transform="translate(313,16)"/>
<path d="M0 0 C2.31957058 0.22873136 4.63186912 0.53325167 6.9375 0.875 C8.83822266 1.14957031 8.83822266 1.14957031 10.77734375 1.4296875 C14 2 14 2 16 3 C15.53585902 10.4599187 14.07379112 17.28638072 11.9375 24.4375 C11.62514404 25.48736084 11.31278809 26.53722168 10.9909668 27.61889648 C1.30129228 59.32508997 -15.38724586 88.05496239 -37.7109375 112.48828125 C-39.25260229 114.1799032 -40.77845444 115.88605651 -42.2890625 117.60546875 C-46.90176973 122.84429947 -51.59942816 127.58294694 -57 132 C-57.51804199 132.43038574 -58.03608398 132.86077148 -58.56982422 133.30419922 C-70.2657079 143.0031446 -82.45416197 152.02517825 -96 159 C-94.73307065 165.11238359 -94.73307065 165.11238359 -92.875 171.0625 C-91.69418322 175.02667063 -91.59908669 177.8572291 -92 182 C-94.05631169 184.72062634 -95.20610916 185.86523847 -98.60377502 186.44198608 C-99.56541061 186.40876251 -100.5270462 186.37553894 -101.51782227 186.34130859 C-102.58195343 186.30463074 -103.64608459 186.26795288 -104.74246216 186.23016357 C-109.77063897 185.87489429 -114.72926506 185.27543157 -119.71484375 184.5390625 C-120.77361221 184.38843353 -121.83238068 184.23780457 -122.92323303 184.08261108 C-125.13796521 183.7655153 -127.35211358 183.4443165 -129.56567383 183.11914062 C-132.95177522 182.62290797 -136.33987263 182.14259731 -139.72851562 181.6640625 C-141.89076023 181.35249953 -144.05287468 181.04003172 -146.21484375 180.7265625 C-147.22320786 180.58376862 -148.23157196 180.44097473 -149.27049255 180.29385376 C-150.21239944 180.15385956 -151.15430634 180.01386536 -152.12475586 179.86962891 C-152.94793808 179.74971588 -153.7711203 179.62980286 -154.61924744 179.5062561 C-158.21161636 178.74235534 -161.14789334 177.82272367 -163.8125 175.25 C-165.49528285 172.06156933 -165.68861443 170.58079506 -165 167 C-163.70516968 165.24462891 -163.70516968 165.24462891 -161.98974609 163.3515625 C-161.35284851 162.64708984 -160.71595093 161.94261719 -160.05975342 161.21679688 C-154.19575981 154.90571003 -148.19842086 148.73067491 -142.15820312 142.58837891 C-140.4639702 140.85724384 -138.77876167 139.11723222 -137.10253906 137.36865234 C-134.665224 134.82807735 -132.19977782 132.31807926 -129.7265625 129.8125 C-128.61518417 128.6361499 -128.61518417 128.6361499 -127.48135376 127.43603516 C-123.84455258 123.81214871 -121.38532652 121.52529866 -116.10400391 121.3840332 C-112.87077475 121.5916191 -112.17317778 121.85200657 -109.609375 124.04296875 C-107.78354355 127.39771246 -106.4681264 130.69195766 -105.25 134.3125 C-105.02957031 134.95767578 -104.80914062 135.60285156 -104.58203125 136.26757812 C-104.04557015 137.84197484 -103.52148643 139.42058004 -103 141 C-88.14008452 141 -66.16033111 116.32955007 -55.875 106.1875 C-28.27838432 78.43154175 -9.47596405 41.44797245 -1.54296875 3.2734375 C-1 1 -1 1 0 0 Z M-122.67407227 147.56054688 C-123.38104248 148.27275391 -124.0880127 148.98496094 -124.81640625 149.71875 C-125.96206055 150.86923828 -125.96206055 150.86923828 -127.13085938 152.04296875 C-127.93330078 152.85378906 -128.73574219 153.66460937 -129.5625 154.5 C-130.36880859 155.31082031 -131.17511719 156.12164062 -132.00585938 156.95703125 C-134.00614434 158.96915222 -136.00406778 160.98356271 -138 163 C-134.43240937 165.37839376 -131.98688387 165.59327951 -127.75 166.125 C-126.46609375 166.29257812 -125.1821875 166.46015625 -123.859375 166.6328125 C-119.4847119 167.11049966 -119.4847119 167.11049966 -113 167 C-115.31 160.07 -117.62 153.14 -120 146 C-121.25952594 145.88635506 -121.25952594 145.88635506 -122.67407227 147.56054688 Z " fill="#000000" transform="translate(480,310)"/>
<path d="M0 0 C1.06413116 0.03667786 2.12826233 0.07335571 3.22463989 0.11114502 C8.25281671 0.46641431 13.21144279 1.06587702 18.19702148 1.80224609 C19.25578995 1.95287506 20.31455841 2.10350403 21.40541077 2.25869751 C23.62014294 2.5757933 25.83429131 2.8969921 28.04785156 3.22216797 C31.43395295 3.71840062 34.82205037 4.19871128 38.21069336 4.67724609 C40.37293796 4.98880906 42.53505242 5.30127688 44.69702148 5.61474609 C45.70538559 5.75753998 46.71374969 5.90033386 47.75267029 6.04745483 C48.69457718 6.18744904 49.63648407 6.32744324 50.60693359 6.47167969 C51.43011581 6.59159271 52.25329803 6.71150574 53.10142517 6.83505249 C56.97007693 7.65770353 59.75149598 8.48884654 62.35717773 11.52880859 C63.82056644 15.18728037 63.93116194 17.72415972 62.48217773 21.34130859 C59.73043785 24.9421812 56.51686819 28.02739263 53.26733398 31.17724609 C52.34125839 32.09720367 51.4151828 33.01716125 50.46104431 33.96499634 C48.00741293 36.40145772 45.53587409 38.81895083 43.06048584 41.23327637 C41.03902829 43.21102452 39.03073796 45.20185374 37.02298832 47.19350243 C32.87860169 51.30397532 28.72409966 55.40429915 24.54882812 59.48339844 C23.44082603 60.5675856 23.44082603 60.5675856 22.31044006 61.67367554 C19.18807039 64.52171698 16.72104211 64.53726474 12.55249023 64.76708984 C9.44064017 64.12710559 8.42245211 62.83990683 6.48217773 60.34130859 C5.42946508 57.73722993 4.535995 55.26564403 3.73217773 52.59130859 C3.4015332 51.54523438 3.4015332 51.54523438 3.06420898 50.47802734 C2.52582031 48.76922851 2.00246716 47.05570491 1.48217773 45.34130859 C-13.37773775 45.34130859 -35.35749116 70.01175852 -45.64282227 80.15380859 C-73.88478365 108.55883877 -92.52717106 146.29926719 -100.51782227 185.34130859 C-104.38968675 186.78846586 -107.34105507 185.88550039 -111.26782227 184.90380859 C-112.43829102 184.61634766 -113.60875977 184.32888672 -114.81469727 184.03271484 C-115.70672852 183.80455078 -116.59875977 183.57638672 -117.51782227 183.34130859 C-117.05366408 175.88111348 -115.59063825 169.05539465 -113.45532227 161.90380859 C-113.1458667 160.85902344 -112.83641113 159.81423828 -112.51757812 158.73779297 C-109.53613202 148.95023996 -105.83017143 139.61191866 -101.51782227 130.34130859 C-101.19700684 129.64602051 -100.87619141 128.95073242 -100.5456543 128.234375 C-91.2231279 108.24941618 -78.84372563 89.80221123 -63.74438477 73.72021484 C-61.78194911 71.62350728 -59.92539928 69.47803546 -58.08032227 67.27880859 C-43.64361538 50.80829311 -24.45175792 38.04828228 -5.51782227 27.34130859 C-6.78475162 21.228925 -6.78475162 21.228925 -8.64282227 15.27880859 C-9.82363905 11.31463797 -9.91873558 8.4840795 -9.51782227 4.34130859 C-6.64154573 0.53581854 -4.69788562 -0.16230737 0 0 Z M11.48217773 18.34130859 C13.42376851 25.84504903 15.721741 33.09691371 18.48217773 40.34130859 C24.89287061 35.07029445 30.66808286 29.25002707 36.48217773 23.34130859 C33.38666058 21.27763049 31.97071357 20.94678714 28.37670898 20.48974609 C27.39379883 20.36083984 26.41088867 20.23193359 25.39819336 20.09912109 C24.3740332 19.97279297 23.34987305 19.84646484 22.29467773 19.71630859 C21.25891602 19.58224609 20.2231543 19.44818359 19.15600586 19.31005859 C16.5988777 18.98010657 14.04103977 18.65748345 11.48217773 18.34130859 Z " fill="#000000" transform="translate(133.517822265625,15.65869140625)"/>
<path d="M0 0 C1.18142578 -0.01891296 1.18142578 -0.01891296 2.38671875 -0.03820801 C3.22847656 -0.03011108 4.07023438 -0.02201416 4.9375 -0.01367188 C5.81019531 -0.01749878 6.68289062 -0.02132568 7.58203125 -0.02526855 C9.42449092 -0.02798678 11.26698924 -0.02063182 13.109375 -0.00390625 C15.92795934 0.01750565 18.74399485 -0.00370989 21.5625 -0.02929688 C23.35417229 -0.02665358 25.14584299 -0.02152857 26.9375 -0.01367188 C27.77925781 -0.0217688 28.62101562 -0.02986572 29.48828125 -0.03820801 C30.27589844 -0.02559937 31.06351563 -0.01299072 31.875 0 C32.90947266 0.00477356 32.90947266 0.00477356 33.96484375 0.00964355 C36.86853884 0.7573091 38.04132736 2.2320361 39.9375 4.51757812 C40.44086456 6.99761963 40.44086456 6.99761963 40.44543457 9.83105469 C40.45671387 10.90778442 40.46799316 11.98451416 40.47961426 13.09387207 C40.47151733 14.27010132 40.46342041 15.44633057 40.45507812 16.65820312 C40.4620874 17.90081909 40.46909668 19.14343506 40.47631836 20.42370605 C40.49090873 23.82892998 40.48748748 27.23318195 40.47480202 30.63835144 C40.46467116 34.2025991 40.47406792 37.76680538 40.48034668 41.33105469 C40.48762288 47.31648206 40.47803627 53.30171198 40.45898438 59.28710938 C40.43721546 66.2059677 40.44426687 73.12435455 40.46629 80.04320145 C40.48444495 85.98473775 40.48700193 91.92613215 40.47653532 97.86768723 C40.47030082 101.41581704 40.46946329 104.96372527 40.48268127 108.51184082 C40.49638678 112.46706453 40.47738835 116.42176061 40.45507812 120.37695312 C40.46317505 121.55318237 40.47127197 122.72941162 40.47961426 123.94128418 C40.46833496 125.01801392 40.45705566 126.09474365 40.44543457 127.20410156 C40.44392647 128.13913513 40.44241837 129.0741687 40.44086456 130.03753662 C39.78563266 133.26581772 38.45878138 134.46870764 35.9375 136.51757812 C33.96484375 137.0255127 33.96484375 137.0255127 31.875 137.03515625 C31.08738281 137.04776489 30.29976562 137.06037354 29.48828125 137.07336426 C28.64652344 137.06526733 27.80476563 137.05717041 26.9375 137.04882812 C26.06480469 137.05265503 25.19210938 137.05648193 24.29296875 137.0604248 C22.45050908 137.06314303 20.60801076 137.05578807 18.765625 137.0390625 C15.94704066 137.0176506 13.13100515 137.03886614 10.3125 137.06445312 C8.52082771 137.06180983 6.72915701 137.05668482 4.9375 137.04882812 C4.09574219 137.05692505 3.25398437 137.06502197 2.38671875 137.07336426 C1.59910156 137.06075562 0.81148437 137.04814697 0 137.03515625 C-1.03447266 137.03038269 -1.03447266 137.03038269 -2.08984375 137.0255127 C-4.99353884 136.27784715 -6.16632736 134.80312015 -8.0625 132.51757812 C-8.56586456 130.03753662 -8.56586456 130.03753662 -8.57043457 127.20410156 C-8.58171387 126.12737183 -8.59299316 125.05064209 -8.60461426 123.94128418 C-8.59651733 122.76505493 -8.58842041 121.58882568 -8.58007812 120.37695312 C-8.5870874 119.13433716 -8.59409668 117.89172119 -8.60131836 116.6114502 C-8.61590873 113.20622627 -8.61248748 109.8019743 -8.59980202 106.39680481 C-8.58967116 102.83255715 -8.59906792 99.26835087 -8.60534668 95.70410156 C-8.61262288 89.71867419 -8.60303627 83.73344427 -8.58398438 77.74804688 C-8.56221546 70.82918855 -8.56926687 63.9108017 -8.59129 56.9919548 C-8.60944495 51.0504185 -8.61200193 45.1090241 -8.60153532 39.16746902 C-8.59530082 35.61933921 -8.59446329 32.07143098 -8.60768127 28.52331543 C-8.62138678 24.56809172 -8.60238835 20.61339564 -8.58007812 16.65820312 C-8.58817505 15.48197388 -8.59627197 14.30574463 -8.60461426 13.09387207 C-8.59333496 12.01714233 -8.58205566 10.9404126 -8.57043457 9.83105469 C-8.56892647 8.89602112 -8.56741837 7.96098755 -8.56586456 6.99761963 C-7.62873619 2.38045459 -4.62201134 0.02132821 0 0 Z M7.9375 16.51757812 C7.9375 50.83757812 7.9375 85.15757812 7.9375 120.51757812 C13.2175 120.51757812 18.4975 120.51757812 23.9375 120.51757812 C23.9375 86.19757813 23.9375 51.87757813 23.9375 16.51757812 C18.6575 16.51757812 13.3775 16.51757812 7.9375 16.51757812 Z " fill="#000000" transform="translate(168.0625,191.482421875)"/>
<path d="M0 0 C1.18142578 -0.01891296 1.18142578 -0.01891296 2.38671875 -0.03820801 C3.22847656 -0.03011108 4.07023437 -0.02201416 4.9375 -0.01367188 C5.81019531 -0.01749878 6.68289063 -0.02132568 7.58203125 -0.02526855 C9.42449092 -0.02798678 11.26698924 -0.02063182 13.109375 -0.00390625 C15.92795934 0.01750565 18.74399485 -0.00370989 21.5625 -0.02929688 C23.35417229 -0.02665358 25.14584299 -0.02152857 26.9375 -0.01367188 C27.77925781 -0.0217688 28.62101562 -0.02986572 29.48828125 -0.03820801 C30.27589844 -0.02559937 31.06351562 -0.01299072 31.875 0 C32.90947266 0.00477356 32.90947266 0.00477356 33.96484375 0.00964355 C36.85853731 0.75473383 38.03986471 2.24914743 39.9375 4.51757812 C40.44086456 6.87268066 40.44086456 6.87268066 40.44543457 9.52734375 C40.45671387 10.53676025 40.46799316 11.54617676 40.47961426 12.58618164 C40.47151733 13.68760498 40.46342041 14.78902832 40.45507812 15.92382812 C40.4620874 17.08841553 40.46909668 18.25300293 40.47631836 19.45288086 C40.49394432 23.30802146 40.48225841 27.16242987 40.46875 31.01757812 C40.47144357 33.69271765 40.47531853 36.36783482 40.48034668 39.04296875 C40.48762197 44.65177362 40.47803871 50.26036775 40.45898438 55.86914062 C40.43721557 62.35175719 40.44426705 68.83387054 40.46629 75.31647491 C40.48444759 80.88434402 40.48700066 86.45206172 40.47653532 92.01995087 C40.47030222 95.34453482 40.47103198 98.66883064 40.48268127 101.9934082 C40.49281748 105.6997297 40.47738485 109.4050792 40.45507812 113.11132812 C40.46317505 114.21275146 40.47127197 115.3141748 40.47961426 116.44897461 C40.46833496 117.45839111 40.45705566 118.46780762 40.44543457 119.5078125 C40.44392647 120.38385132 40.44241837 121.25989014 40.44086456 122.16247559 C39.77111385 125.29605257 38.37767178 126.51247387 35.9375 128.51757812 C33.96484375 129.0255127 33.96484375 129.0255127 31.875 129.03515625 C31.08738281 129.04776489 30.29976563 129.06037354 29.48828125 129.07336426 C28.64652344 129.06526733 27.80476563 129.05717041 26.9375 129.04882812 C26.06480469 129.05265503 25.19210937 129.05648193 24.29296875 129.0604248 C22.45050908 129.06314303 20.60801076 129.05578807 18.765625 129.0390625 C15.94704066 129.0176506 13.13100515 129.03886614 10.3125 129.06445312 C8.52082771 129.06180983 6.72915701 129.05668482 4.9375 129.04882812 C4.09574219 129.05692505 3.25398438 129.06502197 2.38671875 129.07336426 C1.59910156 129.06075562 0.81148438 129.04814697 0 129.03515625 C-1.03447266 129.03038269 -1.03447266 129.03038269 -2.08984375 129.0255127 C-4.98353731 128.28042242 -6.16486471 126.78600882 -8.0625 124.51757812 C-8.56586456 122.16247559 -8.56586456 122.16247559 -8.57043457 119.5078125 C-8.58735352 117.99368774 -8.58735352 117.99368774 -8.60461426 116.44897461 C-8.59246887 114.7968396 -8.59246887 114.7968396 -8.58007812 113.11132812 C-8.5870874 111.94674072 -8.59409668 110.78215332 -8.60131836 109.58227539 C-8.61894432 105.72713479 -8.60725841 101.87272638 -8.59375 98.01757812 C-8.59644357 95.3424386 -8.60031853 92.66732143 -8.60534668 89.9921875 C-8.61262197 84.38338263 -8.60303871 78.7747885 -8.58398438 73.16601562 C-8.56221557 66.68339906 -8.56926705 60.20128571 -8.59129 53.71868134 C-8.60944759 48.15081223 -8.61200066 42.58309453 -8.60153532 37.01520538 C-8.59530222 33.69062143 -8.59603198 30.36632561 -8.60768127 27.04174805 C-8.61781748 23.33542655 -8.60238485 19.63007705 -8.58007812 15.92382812 C-8.58817505 14.82240479 -8.59627197 13.72098145 -8.60461426 12.58618164 C-8.59333496 11.57676514 -8.58205566 10.56734863 -8.57043457 9.52734375 C-8.56892647 8.65130493 -8.56741837 7.77526611 -8.56586456 6.87268066 C-7.59492205 2.32991116 -4.53661484 0.02093415 0 0 Z M7.9375 16.51757812 C7.9375 48.19757813 7.9375 79.87757813 7.9375 112.51757812 C13.2175 112.51757812 18.4975 112.51757812 23.9375 112.51757812 C23.9375 80.83757812 23.9375 49.15757812 23.9375 16.51757812 C18.6575 16.51757812 13.3775 16.51757812 7.9375 16.51757812 Z " fill="#000000" transform="translate(312.0625,199.482421875)"/>
<path d="M0 0 C1.18142578 -0.01891296 1.18142578 -0.01891296 2.38671875 -0.03820801 C3.22847656 -0.03011108 4.07023438 -0.02201416 4.9375 -0.01367188 C5.81019531 -0.01749878 6.68289062 -0.02132568 7.58203125 -0.02526855 C9.42449092 -0.02798678 11.26698924 -0.02063182 13.109375 -0.00390625 C15.92795934 0.01750565 18.74399485 -0.00370989 21.5625 -0.02929688 C23.35417229 -0.02665358 25.14584299 -0.02152857 26.9375 -0.01367188 C27.77925781 -0.0217688 28.62101562 -0.02986572 29.48828125 -0.03820801 C30.27589844 -0.02559937 31.06351562 -0.01299072 31.875 0 C32.90947266 0.00477356 32.90947266 0.00477356 33.96484375 0.00964355 C36.96439617 0.78199118 38.10664165 2.04153981 39.9375 4.51757812 C40.44543457 7.70507812 40.44543457 7.70507812 40.45507812 11.51757812 C40.4620874 12.21399414 40.46909668 12.91041016 40.47631836 13.62792969 C40.49389196 15.92488744 40.48227919 18.22060833 40.46875 20.51757812 C40.47144513 22.11653886 40.47532773 23.715498 40.48034668 25.31445312 C40.48624082 28.66357038 40.47768192 32.01226056 40.45898438 35.36132812 C40.43619435 39.65236403 40.44931796 43.94239924 40.47327423 48.23339844 C40.4877348 51.53458179 40.48312515 54.83552823 40.47276306 58.13671875 C40.47009646 59.71875121 40.47336322 61.30080524 40.48268127 62.8828125 C40.49285179 65.09497975 40.4773419 67.30553112 40.45507812 69.51757812 C40.45030457 71.40476562 40.45030457 71.40476562 40.44543457 73.33007812 C39.9375 76.51757812 39.9375 76.51757812 38.15905762 78.92272949 C35.77749861 80.63244258 34.75731025 81.02185587 31.875 81.03515625 C30.69357422 81.05406921 30.69357422 81.05406921 29.48828125 81.07336426 C28.64652344 81.06526733 27.80476563 81.05717041 26.9375 81.04882812 C26.06480469 81.05265503 25.19210937 81.05648193 24.29296875 81.0604248 C22.45050908 81.06314303 20.60801076 81.05578807 18.765625 81.0390625 C15.94704066 81.0176506 13.13100515 81.03886614 10.3125 81.06445312 C8.52082771 81.06180983 6.72915701 81.05668482 4.9375 81.04882812 C3.67486328 81.06097351 3.67486328 81.06097351 2.38671875 81.07336426 C1.20529297 81.05445129 1.20529297 81.05445129 0 81.03515625 C-0.68964844 81.03197388 -1.37929687 81.0287915 -2.08984375 81.0255127 C-5.08939617 80.25316507 -6.23164165 78.99361644 -8.0625 76.51757812 C-8.57043457 73.33007812 -8.57043457 73.33007812 -8.58007812 69.51757812 C-8.5870874 68.82116211 -8.59409668 68.12474609 -8.60131836 67.40722656 C-8.61889196 65.11026881 -8.60727919 62.81454792 -8.59375 60.51757812 C-8.59644513 58.91861739 -8.60032773 57.31965825 -8.60534668 55.72070312 C-8.61124082 52.37158587 -8.60268192 49.02289569 -8.58398438 45.67382812 C-8.56119435 41.38279222 -8.57431796 37.09275701 -8.59827423 32.80175781 C-8.6127348 29.50057446 -8.60812515 26.19962802 -8.59776306 22.8984375 C-8.59509646 21.31640504 -8.59836322 19.73435101 -8.60768127 18.15234375 C-8.61785179 15.9401765 -8.6023419 13.72962513 -8.58007812 11.51757812 C-8.57689575 10.25945312 -8.57371338 9.00132812 -8.57043457 7.70507812 C-8.0625 4.51757812 -8.0625 4.51757812 -6.28405762 2.11242676 C-3.90249861 0.40271367 -2.88231025 0.01330038 0 0 Z M7.9375 16.51757812 C7.9375 32.35757812 7.9375 48.19757813 7.9375 64.51757812 C13.2175 64.51757812 18.4975 64.51757812 23.9375 64.51757812 C23.9375 48.67757812 23.9375 32.83757812 23.9375 16.51757812 C18.6575 16.51757812 13.3775 16.51757812 7.9375 16.51757812 Z " fill="#000000" transform="translate(240.0625,247.482421875)"/>
<path d="M0 0 C4.88049925 3.9419417 9.0580583 8.11950075 13 13 C9.19588166 16.91939465 5.18423892 20.49102731 1 24 C-2.34820898 22.53374144 -4.69266359 20.66341553 -7.3125 18.125 C-8.03050781 17.44695312 -8.74851562 16.76890625 -9.48828125 16.0703125 C-11 14 -11 14 -11.046875 12.0703125 C-9.52337991 9.05743041 -7.36290916 7.08330501 -4.9375 4.75 C-4.01839844 3.85796875 -3.09929687 2.9659375 -2.15234375 2.046875 C-1.44207031 1.37140625 -0.73179687 0.6959375 0 0 Z " fill="#000000" transform="translate(371,133)"/>
<path d="M0 0 C3.56236008 1.49570875 5.72604957 3.52848599 8.3125 6.375 C9.03050781 7.14585937 9.74851563 7.91671875 10.48828125 8.7109375 C12 11 12 11 12.015625 12.9921875 C10.60464081 15.78159471 8.68993378 17.59273948 6.4375 19.75 C5.61121094 20.54921875 4.78492188 21.3484375 3.93359375 22.171875 C3.29550781 22.77515625 2.65742188 23.3784375 2 24 C-1.43264715 22.0462166 -4.37572063 19.95062384 -7.3125 17.3125 C-8.00988281 16.68988281 -8.70726562 16.06726563 -9.42578125 15.42578125 C-9.94527344 14.95527344 -10.46476563 14.48476562 -11 14 C-9.61085525 9.70281047 -7.61968015 7.29312243 -4.375 4.1875 C-3.55773437 3.39730469 -2.74046875 2.60710937 -1.8984375 1.79296875 C-0.95871094 0.90544922 -0.95871094 0.90544922 0 0 Z " fill="#000000" transform="translate(139,134)"/>
<path d="M0 0 C3.65564909 0.68761019 6.51867272 2.25449545 9.75 4.0625 C10.73484375 4.61035156 11.7196875 5.15820312 12.734375 5.72265625 C13.48203125 6.14417969 14.2296875 6.56570313 15 7 C13.45454854 12.47932789 10.84456788 17.11429181 8 22 C3.85701333 21.40165275 0.81805623 19.99335715 -2.8125 17.9375 C-3.78832031 17.38964844 -4.76414063 16.84179688 -5.76953125 16.27734375 C-6.50558594 15.85582031 -7.24164063 15.43429687 -8 15 C-7.35256333 11.17009294 -5.54688763 8.4716102 -3.4375 5.25 C-2.79683594 4.26515625 -2.15617188 3.2803125 -1.49609375 2.265625 C-1.00238281 1.51796875 -0.50867188 0.7703125 0 0 Z " fill="#000000" transform="translate(175,385)"/>
<path d="M0 0 C2.75126682 1.37028075 4.6350635 3.15549332 6.8203125 5.3125 C7.63113281 6.09238281 8.44195312 6.87226563 9.27734375 7.67578125 C11.0078125 10 11.0078125 10 11.1171875 11.99609375 C9.45865497 14.99196413 7.12922498 16.65222932 4.4453125 18.75 C3.43339844 19.54921875 2.42148437 20.3484375 1.37890625 21.171875 C0.59644531 21.77515625 -0.18601562 22.3784375 -0.9921875 23 C-4.54955257 21.5328827 -6.43413917 19.6293581 -8.8046875 16.625 C-9.74248047 15.46871094 -9.74248047 15.46871094 -10.69921875 14.2890625 C-11.9921875 12 -11.9921875 12 -11.9609375 9.98046875 C-10.64170184 7.28348294 -8.9123791 5.68632538 -6.6796875 3.6875 C-5.50986328 2.61048828 -5.50986328 2.61048828 -4.31640625 1.51171875 C-1.9921875 0 -1.9921875 0 0 0 Z " fill="#000000" transform="translate(360.9921875,366)"/>
<path d="M0 0 C0.86772029 2.07772471 1.71873619 4.16243177 2.5625 6.25 C3.03816406 7.41015625 3.51382813 8.5703125 4.00390625 9.765625 C5 13 5 13 4.984375 15.24609375 C3.47363027 17.93785718 1.47418196 18.5907891 -1.3125 19.8125 C-2.27800781 20.25207031 -3.24351562 20.69164063 -4.23828125 21.14453125 C-7 22 -7 22 -9.1484375 22.00390625 C-12.07659586 20.41627608 -12.88707542 18.07488611 -14.3125 15.125 C-14.84488281 14.05507812 -15.37726563 12.98515625 -15.92578125 11.8828125 C-17 9 -17 9 -16 6 C-13.68612486 4.79772101 -11.47102687 3.77925261 -9.0625 2.8125 C-8.41603516 2.53986328 -7.76957031 2.26722656 -7.10351562 1.98632812 C-2.30944549 0 -2.30944549 0 0 0 Z " fill="#000000" transform="translate(198,98)"/>
<path d="M0 0 C3.34708051 1.54841575 6.24667512 3.49105864 9.25 5.625 C10.14203125 6.25664062 11.0340625 6.88828125 11.953125 7.5390625 C12.96632813 8.26222656 12.96632813 8.26222656 14 9 C13.40129582 12.88250593 11.54611851 15.21695044 9.125 18.25 C8.42632812 19.14203125 7.72765625 20.0340625 7.0078125 20.953125 C6.34523438 21.62859375 5.68265625 22.3040625 5 23 C0.82438593 23 -0.53957787 21.16647522 -3.6875 18.5 C-4.68136719 17.6646875 -5.67523438 16.829375 -6.69921875 15.96875 C-7.83810547 14.99421875 -7.83810547 14.99421875 -9 14 C-7.65070536 10.16336928 -5.92248975 7.34827431 -3.375 4.1875 C-2.42753906 3.00220703 -2.42753906 3.00220703 -1.4609375 1.79296875 C-0.97882813 1.20128906 -0.49671875 0.60960937 0 0 Z " fill="#000000" transform="translate(380,342)"/>
<path d="M0 0 C4.13813705 0.53176995 6.27082318 2.77932166 9.25 5.5625 C10.14203125 6.38878906 11.0340625 7.21507812 11.953125 8.06640625 C12.62859375 8.70449219 13.3040625 9.34257812 14 10 C11.09700957 14.40824473 8.08418637 18.71640781 5 23 C0.2809009 22.53234153 -1.91832317 20.65065406 -5.3125 17.4375 C-6.19550781 16.61121094 -7.07851562 15.78492188 -7.98828125 14.93359375 C-8.65214844 14.29550781 -9.31601563 13.65742188 -10 13 C-8.48446596 9.52224821 -6.4226544 7.0442016 -3.875 4.25 C-3.15054688 3.45078125 -2.42609375 2.6515625 -1.6796875 1.828125 C-0.84824219 0.92320312 -0.84824219 0.92320312 0 0 Z " fill="#000000" transform="translate(150,366)"/>
<path d="M0 0 C2.10588701 0.78707902 4.20965616 1.57982626 6.3125 2.375 C8.07013672 3.03628906 8.07013672 3.03628906 9.86328125 3.7109375 C13 5 13 5 16 7 C14.35433477 12.68502535 11.70967216 17.76681636 9 23 C3.52067211 21.45454854 -1.11429181 18.84456788 -6 16 C-5.52412884 9.97229862 -2.80277043 5.23321711 0 0 Z " fill="#000000" transform="translate(395,315)"/>
<path d="M0 0 C2.83350101 1.67773086 3.65007371 4.0589318 5.03125 6.9921875 C5.55203125 8.07371094 6.0728125 9.15523438 6.609375 10.26953125 C7.78125 13.0546875 7.78125 13.0546875 7.78125 15.0546875 C5.68108377 16.22910285 3.57666245 17.39432762 1.46875 18.5546875 C0.87384766 18.88855469 0.27894531 19.22242188 -0.33398438 19.56640625 C-3.17703844 21.12293864 -4.92535988 22.0546875 -8.21875 22.0546875 C-9.39029293 19.76539697 -10.55613074 17.47350388 -11.71875 15.1796875 C-12.05261719 14.52871094 -12.38648437 13.87773437 -12.73046875 13.20703125 C-15.21875 8.28125 -15.21875 8.28125 -15.21875 6.0546875 C-13.1424843 5.01955503 -11.05743521 4.00202539 -8.96875 2.9921875 C-7.80859375 2.42371094 -6.6484375 1.85523438 -5.453125 1.26953125 C-2.21875 0.0546875 -2.21875 0.0546875 0 0 Z " fill="#000000" transform="translate(116.21875,315.9453125)"/>
<path d="M0 0 C4.02423424 1.50463625 5.52065616 3.85054292 7.75 7.4375 C8.36359375 8.40558594 8.9771875 9.37367188 9.609375 10.37109375 C11 13 11 13 11 16 C8.9021477 17.20005531 6.7979751 18.38502983 4.6875 19.5625 C3.79514648 20.07586914 3.79514648 20.07586914 2.88476562 20.59960938 C1.29717441 21.47766262 -0.34993931 22.24586268 -2 23 C-5.87938025 21.70687325 -6.6070744 20.07873489 -8.8125 16.6875 C-9.45832031 15.72199219 -10.10414063 14.75648438 -10.76953125 13.76171875 C-12 11 -12 11 -11.51953125 8.87890625 C-9.57295111 6.47195241 -7.44863661 4.96575774 -4.875 3.25 C-3.50988281 2.32960937 -3.50988281 2.32960937 -2.1171875 1.390625 C-1.06917969 0.70226562 -1.06917969 0.70226562 0 0 Z " fill="#000000" transform="translate(392,159)"/>
<path d="M0 0 C5.02569612 1.00513922 6.84885175 2.05394771 10.8125 5.0625 C11.78832031 5.79597656 12.76414062 6.52945313 13.76953125 7.28515625 C14.50558594 7.85105469 15.24164063 8.41695312 16 9 C14.52186113 12.22973344 12.68253503 14.88997098 10.5 17.6875 C9.58734375 18.86892578 9.58734375 18.86892578 8.65625 20.07421875 C7 22 7 22 5 23 C0.71 20.03 -3.58 17.06 -8 14 C-5.36 9.38 -2.72 4.76 0 0 Z " fill="#000000" transform="translate(343,113)"/>
<path d="M0 0 C1.73017508 0.45451184 3.45909877 0.91378857 5.1875 1.375 C6.15042969 1.63023437 7.11335937 1.88546875 8.10546875 2.1484375 C11 3 11 3 16 5 C14.68 10.28 13.36 15.56 12 21 C7.00077611 20.28582516 3.59485604 19.6721054 -0.9375 17.9375 C-1.89527344 17.57527344 -2.85304687 17.21304687 -3.83984375 16.83984375 C-4.55269531 16.56269531 -5.26554688 16.28554688 -6 16 C-5.19110952 13.51960151 -4.37808099 11.04069788 -3.5625 8.5625 C-3.33240234 7.85544922 -3.10230469 7.14839844 -2.86523438 6.41992188 C-1.11328125 1.11328125 -1.11328125 1.11328125 0 0 Z " fill="#000000" transform="translate(203,398)"/>
<path d="M0 0 C1.921875 2.51953125 1.921875 2.51953125 3.75 5.8125 C4.36359375 6.89144531 4.9771875 7.97039062 5.609375 9.08203125 C7 12 7 12 7 15 C4.89983377 16.17441535 2.79541245 17.33964012 0.6875 18.5 C0.09259766 18.83386719 -0.50230469 19.16773438 -1.11523438 19.51171875 C-3.95828844 21.06825114 -5.70660988 22 -9 22 C-10.03544174 20.09118566 -11.05290085 18.17260796 -12.0625 16.25 C-12.63097656 15.18265625 -13.19945312 14.1153125 -13.78515625 13.015625 C-15 10 -15 10 -14.984375 7.8125 C-13.56081402 5.19134011 -11.74986959 4.23564913 -9.1875 2.75 C-7.87845703 1.96882813 -7.87845703 1.96882813 -6.54296875 1.171875 C-4 0 -4 0 0 0 Z " fill="#000000" transform="translate(338,385)"/>
<path d="M0 0 C5.84344827 0.92939671 10.67062997 3.49583818 16 6 C14.35 10.95 12.7 15.9 11 21 C6.45103572 20.35014796 2.81894759 19.77857253 -1.4375 18.4375 C-2.30246094 18.16808594 -3.16742188 17.89867187 -4.05859375 17.62109375 C-4.69925781 17.41613281 -5.33992188 17.21117187 -6 17 C-4.89061647 10.69403048 -3.06802099 5.62470514 0 0 Z " fill="#000000" transform="translate(101,190)"/>
<path d="M0 0 C3.62276315 1.3255581 6.63505348 2.94346955 9.8125 5.125 C10.60269531 5.66382813 11.39289063 6.20265625 12.20703125 6.7578125 C12.79871094 7.16773438 13.39039063 7.57765625 14 8 C13.42176904 12.06225548 12.10882263 14.84762346 9.9375 18.3125 C9.38964844 19.19550781 8.84179688 20.07851562 8.27734375 20.98828125 C7.85582031 21.65214844 7.43429688 22.31601563 7 23 C3.34435091 22.31238981 0.48132728 20.74550455 -2.75 18.9375 C-3.73484375 18.38964844 -4.7196875 17.84179688 -5.734375 17.27734375 C-6.48203125 16.85582031 -7.2296875 16.43429688 -8 16 C-8 12.0838073 -6.56499825 10.21921237 -4.5625 6.875 C-3.92441406 5.79992187 -3.28632812 4.72484375 -2.62890625 3.6171875 C-1 1 -1 1 0 0 Z " fill="#000000" transform="translate(117,160)"/>
<path d="M0 0 C4.18659858 3.82774727 7.37820862 7.94607874 10 13 C10 13.66 10 14.32 10 15 C8.11947058 16.45194365 6.16863151 17.81364605 4.1875 19.125 C2.56908203 20.21167969 2.56908203 20.21167969 0.91796875 21.3203125 C-2 23 -2 23 -5 23 C-6.69630313 21.03123367 -8.19536118 19.11326838 -9.6875 17 C-10.10322266 16.42765625 -10.51894531 15.8553125 -10.94726562 15.265625 C-11.97356861 13.85003468 -12.98793399 12.42580369 -14 11 C-10.92277398 7.79159561 -7.92861134 5.08851176 -4.1875 2.6875 C-3.39730469 2.17574219 -2.60710937 1.66398437 -1.79296875 1.13671875 C-1.20128906 0.76160156 -0.60960937 0.38648437 0 0 Z " fill="#000000" transform="translate(166,113)"/>
<path d="M0 0 C2.04296875 2.40625 2.04296875 2.40625 4.1875 5.5 C4.90292969 6.5209375 5.61835938 7.541875 6.35546875 8.59375 C6.89816406 9.3878125 7.44085938 10.181875 8 11 C6.49650623 14.66786393 4.36271208 16.68910393 1.375 19.25 C0.55773437 19.95640625 -0.25953125 20.6628125 -1.1015625 21.390625 C-2.04128906 22.18726563 -2.04128906 22.18726563 -3 23 C-6.80257473 21.48410872 -8.73055864 19.2397955 -11.25 16.0625 C-11.95640625 15.18722656 -12.6628125 14.31195313 -13.390625 13.41015625 C-15 11 -15 11 -15 8 C-12.48046875 5.95703125 -12.48046875 5.95703125 -9.1875 3.8125 C-8.10855469 3.09707031 -7.02960938 2.38164062 -5.91796875 1.64453125 C-3 0 -3 0 0 0 Z " fill="#000000" transform="translate(133,343)"/>
<path d="M0 0 C6.22987798 0.50512524 11.45474233 3.32604123 17 6 C15.35433477 11.68502535 12.70967216 16.76681636 10 22 C7.87453041 21.18872921 5.74963805 20.37594602 3.625 19.5625 C2.44164062 19.11003906 1.25828125 18.65757813 0.0390625 18.19140625 C-3 17 -3 17 -5 16 C-4.39363767 10.23955788 -2.24341721 5.27985631 0 0 Z " fill="#000000" transform="translate(313,98)"/>
<path d="M0 0 C0.8655047 2.26708325 1.71759315 4.53775079 2.5625 6.8125 C2.80935547 7.45509766 3.05621094 8.09769531 3.31054688 8.75976562 C5.11328125 13.66015625 5.11328125 13.66015625 4 17 C1.19921875 18.203125 1.19921875 18.203125 -2.3125 19.25 C-3.46363281 19.60578125 -4.61476563 19.9615625 -5.80078125 20.328125 C-8.78238886 20.954299 -10.2123239 21.07377154 -13 20 C-13.53251766 18.08654673 -14.05059483 16.1690705 -14.5625 14.25 C-14.85253906 13.18265625 -15.14257812 12.1153125 -15.44140625 11.015625 C-16.30045339 6.37797191 -16.30045339 6.37797191 -15 4 C-12.3828125 2.734375 -12.3828125 2.734375 -9.125 1.75 C-8.05507813 1.41484375 -6.98515625 1.0796875 -5.8828125 0.734375 C-3 0 -3 0 0 0 Z " fill="#000000" transform="translate(310,398)"/>
<path d="M0 0 C1.4883163 0.00574353 2.97660671 0.01875734 4.46484375 0.03515625 C7.08421875 0.05578125 9.70359375 0.07640625 12.40234375 0.09765625 C12.40234375 6.03765625 12.40234375 11.97765625 12.40234375 18.09765625 C6.55019071 18.16902397 1.16427606 18.1833616 -4.59765625 17.09765625 C-4.62450304 14.45175611 -4.64441982 11.80612529 -4.66015625 9.16015625 C-4.66853516 8.40541016 -4.67691406 7.65066406 -4.68554688 6.87304688 C-4.69418066 4.94771312 -4.64989958 3.02230044 -4.59765625 1.09765625 C-3.59765625 0.09765625 -3.59765625 0.09765625 0 0 Z " fill="#000000" transform="translate(411.59765625,254.90234375)"/>
<path d="M0 0 C1.00419637 2.4566947 2.00350501 4.91518353 3 7.375 C3.28617187 8.07367188 3.57234375 8.77234375 3.8671875 9.4921875 C6 14.7734375 6 14.7734375 6 17 C3.91891315 17.67364661 1.8350329 18.33866798 -0.25 19 C-1.41015625 19.37125 -2.5703125 19.7425 -3.765625 20.125 C-7 21 -7 21 -11 21 C-11.86555948 18.90049414 -12.71711277 16.7952093 -13.5625 14.6875 C-14.27599609 12.92986328 -14.27599609 12.92986328 -15.00390625 11.13671875 C-16 8 -16 8 -15 5 C-12.3828125 3.61328125 -12.3828125 3.61328125 -9.125 2.3125 C-8.05507813 1.87550781 -6.98515625 1.43851563 -5.8828125 0.98828125 C-3 0 -3 0 0 0 Z " fill="#000000" transform="translate(411,189)"/>
<path d="M0 0 C8.415 1.485 8.415 1.485 17 3 C18.0826674 7.33066959 17.70725583 9.03729855 16.5625 13.25 C16.13130859 14.86648437 16.13130859 14.86648437 15.69140625 16.515625 C15.46324219 17.33546875 15.23507812 18.1553125 15 19 C8.88766616 20.71236069 3.99095064 18.64586556 -2 17 C-1.34 11.39 -0.68 5.78 0 0 Z " fill="#000000" transform="translate(280,89)"/>
<path d="M0 0 C0.50744423 1.89385437 1.00564574 3.79018666 1.5 5.6875 C1.7784375 6.74324219 2.056875 7.79898437 2.34375 8.88671875 C2.9391715 11.71142672 3.12786492 14.12836708 3 17 C0.89748139 17.67184618 -1.20707763 18.33730968 -3.3125 19 C-5.07013672 19.556875 -5.07013672 19.556875 -6.86328125 20.125 C-10 21 -10 21 -13 21 C-13.69969682 18.75376301 -14.38435043 16.50283586 -15.0625 14.25 C-15.44535156 12.99703125 -15.82820313 11.7440625 -16.22265625 10.453125 C-16.92656828 7.3261992 -17.16653785 5.90533954 -16 3 C-13.70887834 2.49750857 -11.41708499 1.99807883 -9.125 1.5 C-7.84882812 1.2215625 -6.57265625 0.943125 -5.2578125 0.65625 C-2 0 -2 0 0 0 Z " fill="#000000" transform="translate(108,286)"/>
<path d="M0 0 C2.08368538 0.31014392 4.16693668 0.6232052 6.25 0.9375 C7.41015625 1.11152344 8.5703125 1.28554688 9.765625 1.46484375 C12.23106961 1.8727736 14.59424562 2.33901303 17 3 C16.41632611 9.30367803 14.95928381 14.98660063 13 21 C11.26982492 20.54548816 9.54090123 20.08621143 7.8125 19.625 C6.36810547 19.24214844 6.36810547 19.24214844 4.89453125 18.8515625 C2.17789793 18.05233704 -0.39137175 17.0968638 -3 16 C-2.40984815 10.49191603 -1.43336231 5.35121931 0 0 Z " fill="#000000" transform="translate(404,286)"/>
<path d="M0 0 C0.66 5.28 1.32 10.56 2 16 C-5.875 18.25 -5.875 18.25 -9.9375 18.625 C-10.70964844 18.69976562 -11.48179687 18.77453125 -12.27734375 18.8515625 C-12.84582031 18.90054688 -13.41429687 18.94953125 -14 19 C-15.92471317 13.66164461 -17.39891424 8.65020618 -18 3 C-16.31598074 2.48839921 -14.62754778 1.99131941 -12.9375 1.5 C-11.99777344 1.2215625 -11.05804688 0.943125 -10.08984375 0.65625 C-7 0 -7 0 0 0 Z " fill="#000000" transform="translate(231,90)"/>
<path d="M0 0 C0.50220072 2.6245966 1.00185357 5.24963369 1.5 7.875 C1.64308594 8.62136719 1.78617187 9.36773437 1.93359375 10.13671875 C3 15.7734375 3 15.7734375 3 18 C-2.65554456 18.98357297 -8.25883309 19.37394574 -14 19 C-16.01481734 16.98518266 -15.7214027 13.20923137 -16.0625 10.4375 C-16.19881836 9.37112305 -16.19881836 9.37112305 -16.33789062 8.28320312 C-16.56239503 6.52261597 -16.78168397 4.76136522 -17 3 C-14.73000175 2.49622232 -12.45896997 1.99709981 -10.1875 1.5 C-8.29064453 1.08234375 -8.29064453 1.08234375 -6.35546875 0.65625 C-3 0 -3 0 0 0 Z " fill="#000000" transform="translate(421,221)"/>
<path d="M0 0 C0.33848652 1.89492006 0.67056911 3.79098466 1 5.6875 C1.185625 6.74324219 1.37125 7.79898437 1.5625 8.88671875 C1.95068074 11.64904062 2.08259976 14.21742043 2 17 C-4.06815666 17.89898617 -9.86403867 18.08522169 -16 18 C-16.33 12.39 -16.66 6.78 -17 1 C-11.28740745 0.37396246 -5.74429252 -0.12487592 0 0 Z " fill="#000000" transform="translate(280,406)"/>
<path d="M0 0 C2.70108504 0.090916 5.36930311 0.23740766 8.0625 0.4375 C9.20041992 0.51581055 9.20041992 0.51581055 10.36132812 0.59570312 C12.24121722 0.72575835 14.12065685 0.86228038 16 1 C16.10477512 6.78591511 15.99250545 12.29309366 15 18 C13.50011039 18.0276619 12.00006131 18.0466861 10.5 18.0625 C9.6646875 18.07410156 8.829375 18.08570313 7.96875 18.09765625 C4.26191676 17.97572095 0.67509943 17.49865131 -3 17 C-2.69268013 14.35346869 -2.37940678 11.707885 -2.0625 9.0625 C-1.97548828 8.30775391 -1.88847656 7.55300781 -1.79882812 6.77539062 C-1.11328125 1.11328125 -1.11328125 1.11328125 0 0 Z " fill="#000000" transform="translate(233,406)"/>
<path d="M0 0 C2.10464793 0.30924214 4.2087053 0.6225056 6.3125 0.9375 C7.48425781 1.11152344 8.65601562 1.28554687 9.86328125 1.46484375 C13 2 13 2 16 3 C15.85936865 5.29199177 15.71234057 7.58359186 15.5625 9.875 C15.48128906 11.15117187 15.40007812 12.42734375 15.31640625 13.7421875 C15 17 15 17 14 19 C12.4792733 19.02753831 10.95839326 19.04663375 9.4375 19.0625 C8.59058594 19.07410156 7.74367188 19.08570313 6.87109375 19.09765625 C3.52885856 18.98397478 0.3014687 18.51827753 -3 18 C-2.6919856 15.37440156 -2.37879818 12.74960194 -2.0625 10.125 C-1.97548828 9.37863281 -1.88847656 8.63226563 -1.79882812 7.86328125 C-1.11328125 2.2265625 -1.11328125 2.2265625 0 0 Z " fill="#000000" transform="translate(91,222)"/>
<path d="M0 0 C5.61 0 11.22 0 17 0 C17 5.28 17 10.56 17 16 C4.5 18 4.5 18 0 18 C0 12.06 0 6.12 0 0 Z " fill="#000000" transform="translate(88,256)"/>
<path d="M0 0 C5.94 0 11.88 0 18 0 C18 5.61 18 11.22 18 17 C12.39 17 6.78 17 1 17 C0.67 11.39 0.34 5.78 0 0 Z " fill="#000000" transform="translate(246,88)"/>
</svg>
