<?xml version="1.0" encoding="UTF-8"?>
<svg version="1.1" xmlns="http://www.w3.org/2000/svg" width="512" height="512">
<path d="M0 0 C3.84353532 1.92176766 5.79333212 3.5599133 8.765625 6.5703125 C9.65507812 7.46621094 10.54453125 8.36210937 11.4609375 9.28515625 C12.38132813 10.22230469 13.30171875 11.15945313 14.25 12.125 C15.19484856 13.07988637 16.14015633 14.03431859 17.0859375 14.98828125 C19.39518338 17.32109087 21.69963203 19.65844086 24 22 C22.70188635 24.85747552 21.33200344 26.91737731 19.11456871 29.13152695 C18.22555479 30.02651402 18.22555479 30.02651402 17.31858099 30.93958163 C16.66683641 31.58550053 16.01509183 32.23141943 15.34359741 32.89691162 C14.30585361 33.93721869 14.30585361 33.93721869 13.2471453 34.99854207 C10.92258598 37.32640145 8.59093958 39.64703022 6.25927734 41.96777344 C4.5935494 43.63293738 2.92826144 45.29854157 1.26338196 46.96455383 C-3.26287891 51.49138964 -7.79528953 56.01202294 -12.32880449 60.53159237 C-16.58457736 64.7751932 -20.834804 69.02434656 -25.08552365 73.27300778 C-33.5049313 81.68803842 -41.92879539 90.09859325 -50.35546875 98.50634766 C-58.54107987 106.67360013 -66.72458733 114.84295101 -74.90527344 123.01513672 C-75.40955024 123.51888808 -75.91382705 124.02263944 -76.43338497 124.54165599 C-78.96318613 127.06884707 -81.49294598 129.5960795 -84.02268529 132.1233325 C-105.00872176 153.08863629 -126.00206898 174.04660912 -147 195 C-146.15793031 195.00219984 -146.15793031 195.00219984 -145.29884911 195.00444412 C-131.62715463 195.04152669 -117.95571086 195.10081234 -104.28421593 195.18390274 C-97.67270284 195.22341557 -91.06132371 195.25558559 -84.44970703 195.27099609 C-78.06938877 195.28613728 -71.68943869 195.32053852 -65.30928421 195.36830902 C-62.87486597 195.38314887 -60.44039518 195.3910425 -58.00593185 195.39188385 C-54.59649121 195.3942473 -51.18807317 195.42127897 -47.77880859 195.45410156 C-46.77179901 195.4490712 -45.76478943 195.44404083 -44.7272644 195.43885803 C-38.96971744 195.52464004 -35.54228144 196.10495152 -31 200 C-27.37166337 203.81930172 -26.68999542 206.88279006 -26.5 212 C-26.68999542 217.11720994 -27.37166337 220.18069828 -31 224 C-35.32415683 227.35462906 -38.09722597 228.50063517 -43.55882263 228.50793457 C-44.86114838 228.51921387 -46.16347412 228.53049316 -47.50526428 228.54211426 C-48.93637309 228.53433808 -50.36747969 228.52614546 -51.79858398 228.51757812 C-53.31519237 228.52300202 -54.83179549 228.53012619 -56.34838867 228.53881836 C-60.45800833 228.5570246 -64.56722546 228.54999509 -68.67685199 228.53730202 C-72.98307025 228.52715844 -77.28925459 228.53657164 -81.59547424 228.54284668 C-88.82746553 228.55011992 -96.05929332 228.54054472 -103.29125977 228.52148438 C-111.64379854 228.49972442 -119.9959466 228.50676181 -128.34847587 228.52879 C-135.52744935 228.54696307 -142.70630544 228.54949277 -149.8852945 228.53903532 C-154.16956581 228.53280979 -158.45365371 228.5319386 -162.73791313 228.54518127 C-166.76738828 228.55676672 -170.79636163 228.54866535 -174.82578278 228.52560425 C-176.30155417 228.52033111 -177.77736804 228.52180703 -179.25312233 228.53065491 C-193.45901261 228.60795012 -193.45901261 228.60795012 -199 224 C-202.39011431 219.67809084 -203.50067251 216.87190597 -203.50793457 211.39648438 C-203.51921387 210.08429932 -203.53049316 208.77211426 -203.54211426 207.42016602 C-203.5343381 205.97802512 -203.52614549 204.53588642 -203.51757812 203.09375 C-203.5230019 201.56566705 -203.530126 200.03758934 -203.53881836 198.50952148 C-203.55702444 194.36897921 -203.54999557 190.22883645 -203.53730202 186.08828735 C-203.52716021 181.75090474 -203.53657097 177.41355586 -203.54284668 173.07617188 C-203.55011965 165.79290641 -203.54054461 158.5098033 -203.52148438 151.2265625 C-203.49971624 142.81152078 -203.50676787 134.39686674 -203.52879 125.98183441 C-203.54695401 118.75107256 -203.54949744 111.52042727 -203.53903532 104.28964996 C-203.53280587 99.97355293 -203.53194959 95.657638 -203.54518127 91.34155273 C-203.5567538 87.28335462 -203.54868885 83.22565533 -203.52560425 79.16751099 C-203.52032459 77.68003161 -203.52181827 76.19251011 -203.53065491 74.70504761 C-203.5416215 72.67121908 -203.52541659 70.63729859 -203.50793457 68.60351562 C-203.50567242 66.89790466 -203.50567242 66.89790466 -203.50336456 65.15783691 C-202.70486479 60.1484814 -200.11029271 57.05477808 -196.5 53.625 C-191.33499991 51.22696425 -186.5997712 51.24618465 -181 52 C-175.5478643 54.53134872 -174.5240019 56.71399714 -171 62 C-170.67 97.64 -170.34 133.28 -170 170 C-113.9 113.9 -57.8 57.8 0 0 Z " fill="#000000" transform="translate(203,284)"/>
<path d="M0 0 C1.30232574 -0.0112793 2.60465149 -0.02255859 3.94644165 -0.03417969 C5.37755046 -0.0264035 6.80865706 -0.01821089 8.23976135 -0.00964355 C9.75636974 -0.01506745 11.27297286 -0.02219162 12.78956604 -0.03088379 C16.8991857 -0.04909003 21.00840283 -0.04206052 25.11802936 -0.02936745 C29.42424762 -0.01922387 33.73043196 -0.02863707 38.03665161 -0.03491211 C45.2686429 -0.04218535 52.50047069 -0.03261015 59.73243713 -0.0135498 C68.08497591 0.00821015 76.43712397 0.00117276 84.78965324 -0.02085543 C91.96862672 -0.0390285 99.14748281 -0.0415582 106.32647187 -0.03110075 C110.61074318 -0.02487522 114.89483108 -0.02400403 119.1790905 -0.0372467 C123.20856564 -0.04883215 127.237539 -0.04073078 131.26696014 -0.01766968 C132.74273153 -0.01239654 134.21854541 -0.01387246 135.6942997 -0.02272034 C149.90018998 -0.10001555 149.90018998 -0.10001555 155.44117737 4.50793457 C158.83129168 8.82984373 159.94184988 11.6360286 159.94911194 17.1114502 C159.96039124 18.42363525 159.97167053 19.73582031 159.98329163 21.08776855 C159.97551547 22.52990945 159.96732286 23.97204815 159.95875549 25.41418457 C159.96417927 26.94226752 159.97130337 28.47034523 159.97999573 29.99841309 C159.9982018 34.13895536 159.99117293 38.27909813 159.97847939 42.41964722 C159.96833758 46.75702983 159.97774834 51.09437871 159.98402405 55.4317627 C159.99129702 62.71502816 159.98172198 69.99813127 159.96266174 77.28137207 C159.94089361 85.69641379 159.94794524 94.11106783 159.96996737 102.52610016 C159.98813138 109.75686201 159.99067481 116.9875073 159.98021269 124.21828461 C159.97398324 128.53438164 159.97312696 132.85029657 159.98635864 137.16638184 C159.99793117 141.22457995 159.98986621 145.28227924 159.96678162 149.34042358 C159.96150195 150.82790296 159.96299564 152.31542447 159.97183228 153.80288696 C159.98279887 155.83671549 159.96659396 157.87063599 159.94911194 159.90441895 C159.94760384 161.04149292 159.94609573 162.17856689 159.94454193 163.35009766 C159.14604216 168.35945317 156.55147008 171.4531565 152.94117737 174.88293457 C147.77617728 177.28097032 143.04094857 177.26174992 137.44117737 176.50793457 C131.98904167 173.97658585 130.96517927 171.79393743 127.44117737 166.50793457 C127.11117737 130.86793457 126.78117737 95.22793457 126.44117737 58.50793457 C70.34117737 114.60793457 14.24117737 170.70793457 -43.55882263 228.50793457 C-47.40235796 226.58616691 -49.35215475 224.94802127 -52.32444763 221.93762207 C-53.65862732 220.59377441 -53.65862732 220.59377441 -55.01976013 219.22277832 C-55.94015076 218.28562988 -56.86054138 217.34848145 -57.80882263 216.38293457 C-58.7536712 215.4280482 -59.69897897 214.47361598 -60.64476013 213.51965332 C-62.95400601 211.1868437 -65.25845466 208.84949371 -67.55882263 206.50793457 C-66.26070898 203.65045905 -64.89082607 201.59055726 -62.67339134 199.37640762 C-62.08071539 198.77974958 -61.48803944 198.18309153 -60.87740362 197.56835294 C-60.22565904 196.92243404 -59.57391446 196.27651515 -58.90242004 195.61102295 C-58.21059085 194.9174849 -57.51876165 194.22394685 -56.80596793 193.5093925 C-54.48140861 191.18153312 -52.14976221 188.86090435 -49.81809998 186.54016113 C-48.15237203 184.87499719 -46.48708407 183.209393 -44.82220459 181.54338074 C-40.29594372 177.01654493 -35.7635331 172.49591163 -31.23001814 167.9763422 C-26.97424527 163.73274137 -22.72401863 159.48358801 -18.47329898 155.23492679 C-10.05389133 146.81989615 -1.63002724 138.40934132 6.79664612 130.00158691 C14.98225724 121.83433444 23.1657647 113.66498356 31.34645081 105.49279785 C31.85072761 104.98904649 32.35500442 104.48529513 32.87456234 103.96627858 C35.4043635 101.4390875 37.93412335 98.91185507 40.46386266 96.38460207 C61.44989912 75.41929828 82.44324635 54.46132545 103.44117737 33.50793457 C102.87979757 33.50646801 102.31841778 33.50500145 101.74002647 33.50349045 C88.068332 33.46640788 74.39688822 33.40712223 60.7253933 33.32403183 C54.11388021 33.284519 47.50250108 33.25234898 40.8908844 33.23693848 C34.51056614 33.22179729 28.13061606 33.18739605 21.75046158 33.13962555 C19.31604334 33.1247857 16.88157255 33.11689207 14.44710922 33.11605072 C11.03766858 33.11368727 7.62925054 33.0866556 4.21998596 33.05383301 C3.21297638 33.05886337 2.2059668 33.06389374 1.16844177 33.06907654 C-4.58910519 32.98329453 -8.01654119 32.40298305 -12.55882263 28.50793457 C-16.18715927 24.68863285 -16.86882721 21.62514451 -17.05882263 16.50793457 C-16.86882721 11.39072463 -16.18715927 8.32723629 -12.55882263 4.50793457 C-8.2346658 1.15330551 -5.46159666 0.0072994 0 0 Z " fill="#000000" transform="translate(352.55882263183594,-0.5079345703125)"/>
</svg>
