<?xml version="1.0" encoding="UTF-8"?>
<svg version="1.1" xmlns="http://www.w3.org/2000/svg" width="512" height="512">
<path d="M0 0 C4.31255199 2.30882324 6.60281562 4.78638106 8.125 9.4375 C7.81111719 18.38316018 2.43542267 23.1188578 -3.63061523 29.06884766 C-4.95299698 30.38969612 -4.95299698 30.38969612 -6.30209351 31.73722839 C-8.71037793 34.13899931 -11.12714324 36.53159359 -13.54800296 38.92064714 C-16.08539655 41.42919054 -18.61096335 43.94958292 -21.13771057 46.46884155 C-25.92393904 51.23750454 -30.71984304 55.99630481 -35.51970583 60.75124013 C-42.55928819 67.72562094 -49.58627197 74.71267769 -56.61077213 81.70224571 C-57.1269702 82.21587437 -57.64316828 82.72950303 -58.17500871 83.2586962 C-59.20459193 84.28318086 -60.23414204 85.3076988 -61.26365811 86.33225095 C-64.27064264 89.32402199 -67.28114172 92.31219843 -70.29475582 95.29729104 C-72.61160056 97.59306108 -74.92544725 99.89185114 -77.23999023 102.18994141 C-78.0718132 103.01188492 -78.90363617 103.83382843 -79.76066589 104.68067932 C-80.52751709 105.44312454 -81.29436829 106.20556976 -82.0844574 106.99111938 C-82.74793906 107.64848398 -83.41142073 108.30584858 -84.0950079 108.98313332 C-86.20761791 111.2198107 -88.09004046 113.58942586 -90 116 C-89.02681631 116.00059709 -88.05363262 116.00119418 -87.05095851 116.00180936 C-29.40739497 116.03752829 28.23612033 116.09427982 85.87963463 116.17792095 C92.79670931 116.18795227 99.71378426 116.19778744 106.63085938 116.20751953 C107.3191973 116.20849134 108.00753523 116.20946314 108.71673188 116.2104644 C131.03412529 116.24188049 153.35150659 116.26034024 175.66891829 116.27209247 C199.24973791 116.28458028 222.8304898 116.31180719 246.4112767 116.35461307 C260.54070661 116.37978448 274.67004679 116.39311462 288.79949944 116.39142957 C298.48079721 116.39139988 308.16200339 116.40597564 317.84326549 116.43216428 C323.43380165 116.44685186 329.02414998 116.45497759 334.61470222 116.44580269 C339.72972996 116.43754996 344.84437937 116.44757624 349.95935081 116.47233662 C351.81273439 116.47804681 353.66615351 116.47696402 355.51952662 116.46851245 C358.03417638 116.45802517 360.54754182 116.4720055 363.06210518 116.49219131 C363.78594635 116.48328761 364.50978751 116.4743839 365.25556326 116.46521038 C370.28022716 116.54287738 373.13779326 117.83287431 377 121 C379.8288298 125.2432447 379.65268001 129.01734529 379 134 C376.88412055 137.62722192 374.88945739 139.51910969 371 141 C368.39471354 141.19191137 365.89722347 141.27472263 363.29258347 141.26171303 C362.50793945 141.26570909 361.72329543 141.26970515 360.91487432 141.27382231 C358.26974494 141.28484387 355.6248231 141.28158866 352.97967529 141.2784729 C351.07056289 141.28347308 349.1614526 141.28934805 347.25234532 141.29602563 C341.99384485 141.31187329 336.73539773 141.31525893 331.47687626 141.31667423 C325.81089306 141.32035998 320.14493941 141.33551129 314.47897339 141.34928894 C304.65817319 141.37159159 294.83738348 141.38658679 285.01656342 141.39665604 C270.81720861 141.41122509 256.61789028 141.4367569 242.41855684 141.46498732 C219.3825625 141.51048762 196.3465647 141.5471061 173.31054688 141.578125 C150.92967813 141.60828283 128.54882217 141.64261851 106.16796875 141.68261719 C105.47824102 141.68384819 104.7885133 141.68507919 104.07788473 141.6863475 C97.1514323 141.69871423 90.22498003 141.71116596 83.29852787 141.72367998 C25.19903699 141.82864037 -32.90047058 141.91925315 -91 142 C-90.49585603 142.49861321 -89.99171206 142.99722643 -89.47229099 143.51094913 C-77.20396972 155.64673966 -64.95232169 167.79911197 -52.71897221 179.97015476 C-46.80259573 185.85559894 -40.88072109 191.73530467 -34.94555664 197.60180664 C-29.77221497 202.71532756 -24.60952258 207.83932372 -19.4593181 212.97615093 C-16.73214464 215.69550524 -13.99994755 218.40933808 -11.2549305 221.11068916 C-8.67033032 223.65450639 -6.10022557 226.21211703 -3.54044914 228.78090477 C-2.15155925 230.16736187 -0.7477951 231.53886858 0.65637207 232.90985107 C7.42180375 239.7428418 7.42180375 239.7428418 8.1474762 243.87754822 C7.92582693 248.57043532 6.43333659 252.20832926 3.5 255.875 C-0.04280661 258.53210496 -3.76180546 258.35916903 -8 258 C-12.27294012 255.48499852 -15.69963092 252.54981251 -19.1945343 249.05270386 C-19.68081446 248.56883811 -20.16709463 248.08497236 -20.66811055 247.58644402 C-22.28261839 245.97753411 -23.88992934 244.36162894 -25.49731445 242.74560547 C-26.65870215 241.58529158 -27.82052289 240.42541098 -28.98274231 239.26593018 C-32.12743895 236.12606737 -35.26587219 232.98001252 -38.40306497 229.83265448 C-41.68779534 226.53912553 -44.97781186 223.25088483 -48.26713562 219.96194458 C-53.78575507 214.44238968 -59.30049337 208.91898118 -64.81274414 203.39306641 C-71.19082097 196.99923811 -77.57413566 190.61067779 -83.96045905 184.22508705 C-90.10317062 178.08298506 -96.24302382 171.93803454 -102.38127708 165.7914772 C-104.99491391 163.17430499 -107.60940258 160.5579881 -110.22454262 157.94231796 C-113.29915481 154.86670374 -116.37121273 151.78856066 -119.44128227 148.70841217 C-120.57040039 147.57636562 -121.70037357 146.4451712 -122.83124542 145.31487656 C-124.36995096 143.77665939 -125.90556117 142.23541883 -127.44038391 140.69332886 C-128.30184178 139.83019514 -129.16329966 138.96706142 -130.05086231 138.07777214 C-132.77975663 135.16878289 -133.25773075 133.28764843 -133.5 129.375 C-133.5721875 128.55773437 -133.644375 127.74046875 -133.71875 126.8984375 C-131.55443052 118.17058393 -120.94657028 110.79797757 -114.69628906 104.55102539 C-113.56693582 103.41867459 -112.43778599 102.28612087 -111.30882263 101.15338135 C-108.26402914 98.09981271 -105.21605509 95.04943868 -102.16719151 91.99993443 C-100.26148204 90.09351174 -98.35648737 88.18637778 -96.45174408 86.27898979 C-89.80482246 79.62284223 -83.15534868 72.9692568 -76.50341797 66.31811523 C-70.30314848 60.11844853 -64.10850105 53.91320298 -57.91641259 47.70536619 C-52.59328928 42.36918737 -47.26633815 37.03685056 -41.93636298 31.70751566 C-38.75549843 28.52690632 -35.57621328 25.34475619 -32.40076447 22.15873909 C-29.42072011 19.16904519 -26.43595507 16.18414781 -23.44743538 13.20292664 C-22.35039871 12.10693914 -21.2550772 11.00923182 -20.16158104 9.90971184 C-18.6721195 8.4125756 -17.17666855 6.92169383 -15.67950439 5.43226624 C-14.84331196 4.59552903 -14.00711952 3.75879183 -13.14558792 2.89669895 C-9.37312625 -0.43815581 -4.85317101 -0.92272356 0 0 Z " fill="#000000" transform="translate(133,127)"/>
</svg>
