<?xml version="1.0" encoding="UTF-8"?>
<svg version="1.1" xmlns="http://www.w3.org/2000/svg" width="878" height="284">
<path d="M0 0 C3 1 3 1 4.6640625 3.1328125 C7.3324452 8.85969233 6.84031226 16.0785428 5.53125 22.1875 C1.51385427 32.51794615 -8.03596475 40.43180279 -16.5703125 46.96875 C-19.21661126 49.1810898 -21.19961832 51.52832191 -23.3125 54.25 C-24.00988281 55.14203125 -24.70726562 56.0340625 -25.42578125 56.953125 C-25.94527344 57.62859375 -26.46476563 58.3040625 -27 59 C-26.67 59.66 -26.34 60.32 -26 61 C-14.59347644 55.60458304 -14.59347644 55.60458304 -3.87109375 49.0078125 C3.82035074 44.86503029 13.97760268 44.73835212 22.38671875 46.5 C26.4154851 48.03809735 28.99427269 50.22923266 31 54 C32.75751562 62.31381301 29.44577051 69.11285552 25 76 C18.77586805 84.04615348 10.34097835 88.82092799 0.3828125 90.73046875 C-4.07361462 91.23455641 -8.5238891 91.15059812 -13 91 C-12.84273437 91.5259375 -12.68546875 92.051875 -12.5234375 92.59375 C-11.87192954 95.5887418 -11.71635613 98.43605596 -11.625 101.5 C-11.57601562 102.6240625 -11.52703125 103.748125 -11.4765625 104.90625 C-12 108 -12 108 -14.3984375 110.15625 C-15.25695312 110.7646875 -16.11546875 111.373125 -17 112 C-21.00424486 117.86075838 -19.50490464 126.29534865 -18.27734375 132.87109375 C-15.69064186 143.27026369 -12.80046997 151.58299065 -4 158 C0.90909091 161.81818182 0.90909091 161.81818182 2 164 C2.76490686 171.13913072 0.89421869 176.01263877 -3 182 C-6.73957059 186.53255989 -10.46724396 190.47147744 -16.48046875 191.37109375 C-22.8063505 191.52627411 -26.26542668 190.57358274 -31.53125 187.16796875 C-35.59359315 185.24606906 -39.74469713 185.38836055 -44.1796875 185.3359375 C-47 185 -47 185 -48.83984375 183.83203125 C-50.43126201 181.31898356 -50.51377464 179.2658312 -50.6875 176.3125 C-50.75324219 175.31863281 -50.81898438 174.32476562 -50.88671875 173.30078125 C-50.92410156 172.54152344 -50.96148437 171.78226563 -51 171 C-51.66 171 -52.32 171 -53 171 C-52.49074056 166.54397988 -51.21510967 164.13473193 -48 161 C-41.66962337 157.41157207 -35.04400777 155.95667216 -27.9375 154.75 C-26.97650391 154.57726562 -26.01550781 154.40453125 -25.02539062 154.2265625 C-22.68520722 153.80742517 -20.34372005 153.39879466 -18 153 C-18.54269531 152.34773437 -19.08539063 151.69546875 -19.64453125 151.0234375 C-27.23200236 141.75441873 -29.93198885 136.14641203 -29 124 C-28.35466922 121.66067594 -27.68939809 119.32671854 -27 117 C-25.37564862 107.28738348 -29.25455935 99.44478122 -33.24389648 90.84008789 C-38.00223199 79.25998627 -35.33807655 61.77696834 -32 50 C-30.41738698 46.7347237 -28.6421918 44.45630896 -26 42 C-25.52820313 41.48179688 -25.05640625 40.96359375 -24.5703125 40.4296875 C-23.25 39 -23.25 39 -21 37 C-20.34 37 -19.68 37 -19 37 C-18.67 36.01 -18.34 35.02 -18 34 C-16.328125 32.45703125 -16.328125 32.45703125 -14.25 30.8125 C-10.21449682 27.40119336 -7.28548135 23.77973263 -5 19 C-5 18.34 -5 17.68 -5 17 C-5.4125 17.556875 -5.825 18.11375 -6.25 18.6875 C-15.01355177 30.26790769 -24.77686177 40.64059115 -39.4375 43.875 C-48.12606054 45.86222974 -53.39946099 50.33194711 -60 56 C-62.29402622 57.82569561 -64.51564189 59.43377423 -67 61 C-67.99 60.67 -68.98 60.34 -70 60 C-70.9921875 57.890625 -70.9921875 57.890625 -71.875 55.25 C-73.54268269 50.81764184 -75.1335371 47.92342317 -79 45 C-83.69012094 43.36272142 -87.59424995 44.76398841 -92.1875 46.0625 C-98.77881131 47.7582339 -104.55052924 48.98562674 -111 46 C-113.9375 43.625 -113.9375 43.625 -116 41 C-116.50273438 40.39027344 -117.00546875 39.78054687 -117.5234375 39.15234375 C-119.15334902 36.77646743 -119.89953201 34.70164167 -120.6875 31.9375 C-120.93886719 31.08027344 -121.19023438 30.22304688 -121.44921875 29.33984375 C-122 27 -122 27 -122 24 C-122.66 24 -123.32 24 -124 24 C-125.47494797 32.352115 -125.09616246 39.2827336 -120.34375 46.5234375 C-118.63324689 48.76303691 -116.88463884 50.90548092 -115 53 C-114.55011719 53.58007812 -114.10023437 54.16015625 -113.63671875 54.7578125 C-111.19676922 56.6096119 -109.31715771 56.14909561 -106.3125 55.9375 C-92.49369791 55.68955499 -81.29816691 67.5379765 -71.8046875 76.6015625 C-66.48476936 83.67175674 -65.70124141 92.96967441 -64.125 101.4375 C-62.27209051 111.15911216 -60.22054851 120.67055995 -57.078125 130.06640625 C-53.56589294 141.82811587 -53.65114095 154.01156408 -53.61914062 166.16235352 C-53.60959857 168.32625408 -53.57587276 170.48875885 -53.5390625 172.65234375 C-53.53084473 173.92070068 -53.52262695 175.18905762 -53.51416016 176.49584961 C-52.77418822 181.53897271 -50.64365297 184.73064424 -46.6328125 187.828125 C-45.80523437 188.29734375 -44.97765625 188.7665625 -44.125 189.25 C-43.30257812 189.72953125 -42.48015625 190.2090625 -41.6328125 190.703125 C-33.06292267 194.92449507 -23.39306922 195.35402807 -14.0859375 193.3828125 C-8.21793279 191.27778224 -3.77836996 187.69911194 0.87109375 183.609375 C3 182 3 182 6 182 C4.94958849 187.89543458 0.61508827 192.14566468 -4.1484375 195.5234375 C-9.18102698 198.43704193 -14.42806857 200.37979299 -20 202 C-20 202.99 -20 203.98 -20 205 C-26.7183911 209.13439452 -32.17049437 209.77629659 -40 209 C-42.01495907 208.38001259 -44.0187415 207.72045764 -46 207 C-48.69256491 206.83233112 -51.29836614 206.90684021 -54 207 C-55.53832776 212.03072934 -57.03575539 217.06593398 -58.39453125 222.1484375 C-62.64069148 237.93052059 -67.02829792 252.82805466 -82.0625 261.5625 C-83.031875 262.036875 -84.00125 262.51125 -85 263 C-86 261 -86 261 -85.10375977 258.29443359 C-84.63768311 257.17375488 -84.17160645 256.05307617 -83.69140625 254.8984375 C-83.19189453 253.68671875 -82.69238281 252.475 -82.17773438 251.2265625 C-81.63948912 249.94263865 -81.10107545 248.65878538 -80.5625 247.375 C-80.02728545 246.08362709 -79.49277112 244.79196374 -78.95898438 243.5 C-77.64620267 240.33040093 -76.32626784 237.16397435 -75 234 C-77.71068109 234.42561919 -80.41791363 234.86502931 -83.125 235.3125 C-84.26582031 235.48942383 -84.26582031 235.48942383 -85.4296875 235.66992188 C-91.08384366 236.62040502 -96.12615167 237.61184011 -99.8359375 242.33984375 C-100.34382813 243.19707031 -100.85171875 244.05429688 -101.375 244.9375 C-104.51523666 249.6513058 -107.31565083 252.78893904 -113 254 C-118.95292235 254.08122896 -122.9656678 250.92889606 -127.125 246.97265625 C-137.74004439 235.80474497 -143.46386183 222.77008452 -143.26953125 207.41796875 C-142.99967642 203.99589668 -142.36129033 200.94362104 -141.5 197.625 C-140.25571288 192.73120091 -139.64152152 188.04132615 -139.5625 183 C-139.54316406 181.783125 -139.52382812 180.56625 -139.50390625 179.3125 C-140.09229886 175.38370523 -141.21066813 173.77931632 -144 171 C-149.84060574 167.96737779 -155.885165 167.3583588 -162.36425781 166.73364258 C-165.94683446 166.36891038 -168.97497971 166.044135 -172 164 C-173 162 -173 162 -174 153 C-182.25 152.67 -190.5 152.34 -199 152 C-199 151.01 -199 150.02 -199 149 C-194.23425447 146.88551719 -189.45645975 145.08691967 -184.484375 143.51171875 C-183.05323745 143.04798242 -181.62225264 142.58377455 -180.19140625 142.11914062 C-177.97727753 141.40363773 -175.76229506 140.69140192 -173.54443359 139.98754883 C-157.53419628 134.89305774 -142.02782466 128.65842451 -133.4375 113.1875 C-131.7789023 109.85553963 -130.35082411 106.46732272 -129 103 C-128.01 103 -127.02 103 -126 103 C-125.67 104.65 -125.34 106.3 -125 108 C-125 104.04 -125 100.08 -125 96 C-127.1346875 95.63648437 -127.1346875 95.63648437 -129.3125 95.265625 C-131.20844924 94.92773306 -133.10427627 94.58915485 -135 94.25 C-135.93457031 94.09273438 -136.86914062 93.93546875 -137.83203125 93.7734375 C-149.18662721 91.70896551 -157.71716804 86.83010491 -164.8671875 77.5859375 C-168.66846511 72.00224263 -170.60970289 67.95061291 -170 61 C-167.81406184 58.00366526 -166.62023871 57.10008935 -162.92578125 56.50390625 C-150.6143358 56.70355131 -138.53825107 58.08721835 -126.9375 62.4375 C-123.59759885 63.40714872 -120.45158147 63.18826808 -117 63 C-118.66192365 59.6761527 -120.42043669 57.55832792 -123.3125 55.3125 C-130.06725177 49.77417599 -134.23816508 41.44167802 -135.4375 32.875 C-134.30615602 22.85452473 -129.0724109 14.05835044 -122 7 C-119.75390625 5.7265625 -119.75390625 5.7265625 -118 5 C-116.10564348 9.16920345 -115.34698695 13.32747724 -114.625 17.8125 C-113.57137519 23.82054827 -112.41120443 28.83150844 -109 34 C-105.60202157 36.12986689 -102.87953886 36.33743163 -98.8828125 35.81640625 C-95.01543961 34.72117463 -91.6695659 32.93310482 -88.125 31.0625 C-75.51811765 24.44826416 -64.27401879 23.66624348 -50.60571289 27.86547852 C-49.86957764 28.09549561 -49.13344238 28.3255127 -48.375 28.5625 C-38.21683229 31.80763855 -38.21683229 31.80763855 -27.90234375 30.18359375 C-19.95460401 25.78860087 -14.70226309 18.21114999 -9.875 10.75 C-6.97593642 6.29034031 -4.5245644 2.84100555 0 0 Z M-68 179 C-61.13659333 190.46500886 -52.24707909 197.99207931 -39.21875 201.81640625 C-34.84033389 202.75934827 -30.48137956 203.44813796 -26 203 C-25.34 202.34 -24.68 201.68 -24 201 C-24.76183594 200.90203125 -25.52367187 200.8040625 -26.30859375 200.703125 C-41.99329737 198.43168228 -52.01597771 190.44270655 -64.00390625 180.46875 C-65.85544585 178.80244626 -65.85544585 178.80244626 -68 179 Z " fill="#CFE17C" transform="translate(213,7)"/>
<path d="M0 0 C1.3181218 -0.00855011 1.3181218 -0.00855011 2.66287231 -0.01727295 C4.5307698 -0.02673568 6.39868407 -0.03326197 8.26660156 -0.03710938 C11.08689973 -0.04671857 13.90643852 -0.07768821 16.7265625 -0.109375 C41.52074912 -0.25534374 41.52074912 -0.25534374 50.2578125 7.203125 C55.49510524 12.51376918 57.54397721 17.18773843 57.5703125 24.640625 C57.44715355 31.46824935 56.26873859 35.05190174 51.5703125 40.078125 C50.425625 41.13 50.425625 41.13 49.2578125 42.203125 C49.99113917 45.44666285 49.99113917 45.44666285 53.0703125 47.015625 C58.20684704 50.54069772 60.70787733 54.82707909 62.00390625 60.93359375 C62.8671282 68.64946991 61.6299931 75.74825026 57.2578125 82.203125 C52.04440217 88.43025401 45.24141806 92.64065795 37.2578125 94.203125 C33.61231781 94.47459606 29.98225393 94.46014792 26.328125 94.43359375 C25.29718719 94.43313553 24.26624939 94.43267731 23.20407104 94.4322052 C21.03740276 94.42919659 18.87073636 94.42135225 16.70410156 94.40893555 C13.37296988 94.39057074 10.04211475 94.38842679 6.7109375 94.38867188 C4.60416424 94.38376031 2.49739288 94.37793357 0.390625 94.37109375 C-0.61032196 94.36998093 -1.61126892 94.3688681 -2.64254761 94.36772156 C-4.02000656 94.35815178 -4.02000656 94.35815178 -5.42529297 94.34838867 C-6.64271683 94.34267097 -6.64271683 94.34267097 -7.88473511 94.33683777 C-9.7421875 94.203125 -9.7421875 94.203125 -10.7421875 93.203125 C-10.83741168 90.34220682 -10.86772076 87.50548879 -10.85571289 84.64428711 C-10.85585892 83.74681259 -10.85600494 82.84933807 -10.8561554 81.92466736 C-10.85545592 78.94324366 -10.84766191 75.9618816 -10.83984375 72.98046875 C-10.83797969 70.91923558 -10.83655573 68.85800196 -10.83555603 66.79676819 C-10.83172987 61.3600849 -10.82189876 55.92342814 -10.81085205 50.48675537 C-10.80064003 44.94364786 -10.79605886 39.40053608 -10.79101562 33.85742188 C-10.78027658 22.97264457 -10.76319899 12.08788698 -10.7421875 1.203125 C-7.40838683 -0.46377534 -3.66673424 0.01835781 0 0 Z M3.2578125 14.203125 C3.17033043 16.12980007 3.15083916 18.05964361 3.16015625 19.98828125 C3.16337891 21.15810547 3.16660156 22.32792969 3.16992188 23.53320312 C3.17830078 24.76490234 3.18667969 25.99660156 3.1953125 27.265625 C3.19982422 28.50119141 3.20433594 29.73675781 3.20898438 31.00976562 C3.22081642 34.07426617 3.23730077 37.13867221 3.2578125 40.203125 C6.88274217 40.26204484 10.50754584 40.2970259 14.1328125 40.328125 C15.65261719 40.35326172 15.65261719 40.35326172 17.203125 40.37890625 C30.0029591 40.509492 30.0029591 40.509492 41.2578125 35.203125 C43.89492213 30.93351893 43.79749754 26.06913769 43.2578125 21.203125 C41.89875735 17.29584144 40.74257732 16.4463888 37.03515625 14.5859375 C30.82332534 12.36652402 24.32841924 12.84692438 17.8203125 12.953125 C16.52931641 12.95828125 15.23832031 12.9634375 13.90820312 12.96875 C8.20787499 12.46492382 8.20787499 12.46492382 3.2578125 14.203125 Z M3.2578125 52.203125 C3.16997708 54.42167764 3.15086641 56.64300996 3.16015625 58.86328125 C3.1615712 59.52774765 3.16298615 60.19221405 3.16444397 60.8768158 C3.17005732 63.00646399 3.18261196 65.13600839 3.1953125 67.265625 C3.20032579 68.70637869 3.20488899 70.14713403 3.20898438 71.58789062 C3.22003105 75.12633602 3.23730458 78.66472039 3.2578125 82.203125 C7.50783216 82.30293578 11.75720845 82.37503012 16.00805664 82.42285156 C17.45023502 82.44281251 18.8923341 82.46999163 20.33422852 82.50488281 C32.36552376 82.86888503 32.36552376 82.86888503 43.2578125 78.203125 C46.87759517 74.1308695 48.1640205 70.64306079 48.2578125 65.203125 C47.35989771 60.96782783 45.99491207 57.98117455 43.0078125 54.828125 C37.66731706 51.67237769 32.39016204 50.9511829 26.265625 50.97265625 C24.98429688 50.97458984 23.70296875 50.97652344 22.3828125 50.97851562 C21.72667969 50.98471924 21.07054687 50.99092285 20.39453125 50.99731445 C18.36706185 51.01576836 16.3400453 51.01782241 14.3125 51.01757812 C8.40410825 50.46299949 8.40410825 50.46299949 3.2578125 52.203125 Z " fill="#E6DDDE" transform="translate(713.7421875,90.796875)"/>
<path d="M0 0 C5.90814027 5.90814027 8.1491751 11.12407296 8.4375 19.3125 C8.25831976 26.71861669 6.56786734 32.82792858 1.875 38.625 C0 40 0 40 -2 40 C-1.25567074 43.16489056 -1.25567074 43.16489056 1.4375 44.875 C4.72560929 47.60172478 5.68904749 50.11505074 6.37890625 54.296875 C6.43949219 55.10640625 6.50007812 55.9159375 6.5625 56.75 C6.67851563 58.16925781 6.67851563 58.16925781 6.796875 59.6171875 C6.95127132 62.1884801 7.06184799 64.7465552 7.140625 67.3203125 C7.16954834 68.0721582 7.19847168 68.82400391 7.22827148 69.59863281 C7.28344095 71.08964767 7.32262 72.58136011 7.34399414 74.07324219 C7.53820767 79.07525508 8.7736185 81.28799819 12 85 C11.505 86.485 11.505 86.485 11 88 C5.72 88 0.44 88 -5 88 C-6.29700814 85.40598373 -6.26197551 83.29771876 -6.4296875 80.3984375 C-6.50316406 79.26792969 -6.57664062 78.13742188 -6.65234375 76.97265625 C-6.79930697 74.59804003 -6.94006141 72.22303037 -7.07421875 69.84765625 C-7.50573557 63.38953171 -7.94249697 57.77223667 -11 52 C-15.23170741 49.60706727 -19.62171128 49.65784834 -24.36328125 49.5859375 C-25.15526413 49.56657135 -25.94724701 49.5472052 -26.76322937 49.5272522 C-29.27954519 49.46772768 -31.79590744 49.42118042 -34.3125 49.375 C-36.0241079 49.33679519 -37.73569709 49.29774201 -39.44726562 49.2578125 C-43.63135749 49.1620487 -47.81553931 49.0779182 -52 49 C-51.99476318 50.145896 -51.98952637 51.29179199 -51.98413086 52.47241211 C-51.96608283 56.70840682 -51.95456872 60.94439812 -51.94506836 65.18041992 C-51.94002769 67.01668875 -51.93319523 68.85295354 -51.92456055 70.68920898 C-51.91248328 73.32276401 -51.90676919 75.95626616 -51.90234375 78.58984375 C-51.89718246 79.41588608 -51.89202118 80.24192841 -51.88670349 81.09300232 C-51.88650795 83.06236368 -51.93795848 85.03161614 -52 87 C-52.495 87.495 -52.495 87.495 -53 88 C-57.29 88 -61.58 88 -66 88 C-66 57.31 -66 26.62 -66 -5 C-10.88986784 -8.06167401 -10.88986784 -8.06167401 0 0 Z M-52 7 C-52 16.57 -52 26.14 -52 36 C-47.28580274 36.0460921 -42.57239794 36.08586245 -37.8581543 36.10986328 C-36.25689026 36.11987623 -34.65564429 36.1334906 -33.05444336 36.15087891 C-30.74328124 36.17533565 -28.43236238 36.18653029 -26.12109375 36.1953125 C-25.41351425 36.20563507 -24.70593475 36.21595764 -23.97691345 36.22659302 C-18.82683093 36.22773681 -13.18375157 36.00137232 -9.22265625 32.37109375 C-6.12813952 27.21356587 -4.9669514 22.99834673 -6 17 C-7.40245991 13.39367451 -8.88251566 10.3692881 -12 8 C-16.06036066 6.76379121 -20.05924382 6.87403125 -24.265625 6.90234375 C-25.05902283 6.9037587 -25.85242065 6.90517365 -26.66986084 6.90663147 C-29.19661272 6.91221585 -31.72327504 6.92476546 -34.25 6.9375 C-35.96614455 6.94251702 -37.68229049 6.94707957 -39.3984375 6.95117188 C-43.59902035 6.96132802 -47.79941027 6.98090641 -52 7 Z " fill="#E6DDDE" transform="translate(508,97)"/>
<path d="M0 0 C1.25770203 -0.00315216 2.51540405 -0.00630432 3.81121826 -0.009552 C5.17395055 -0.00776277 6.53668253 -0.00571196 7.89941406 -0.00341797 C9.30234799 -0.00409189 10.7052818 -0.00506266 12.10821533 -0.00631714 C15.04009113 -0.007788 17.97193636 -0.00565792 20.90380859 -0.00097656 C24.66903975 0.00474148 28.43419996 0.00142481 32.19942856 -0.00454903 C35.0920872 -0.0081532 37.98472886 -0.00701709 40.877388 -0.00442123 C42.26652281 -0.00375265 43.65565915 -0.00457799 45.04479218 -0.00690079 C46.97907992 -0.00942718 48.91337306 -0.00489696 50.84765625 0 C52.50048615 0.00119339 52.50048615 0.00119339 54.18670654 0.00241089 C56.66503906 0.12939453 56.66503906 0.12939453 57.66503906 1.12939453 C57.76355077 2.96055336 57.79476535 4.79559386 57.79003906 6.62939453 C57.79390625 8.12986328 57.79390625 8.12986328 57.79785156 9.66064453 C57.66503906 12.12939453 57.66503906 12.12939453 56.66503906 13.12939453 C55.0085954 13.25230171 53.34704914 13.30723361 51.6862793 13.3347168 C50.62525497 13.35466202 49.56423065 13.37460724 48.47105408 13.39515686 C47.31690506 13.41186935 46.16275604 13.42858185 44.97363281 13.44580078 C43.21116966 13.47697243 43.21116966 13.47697243 41.4131012 13.5087738 C37.64297583 13.57439577 33.87277824 13.63321283 30.10253906 13.69189453 C27.55370333 13.73506773 25.00487503 13.77868161 22.45605469 13.82275391 C16.19245588 13.93092293 9.92880587 14.02990246 3.66503906 14.12939453 C3.33503906 22.70939453 3.00503906 31.28939453 2.66503906 40.12939453 C6.2628125 40.11779297 9.86058594 40.10619141 13.56738281 40.09423828 C17.03572501 40.08644896 20.50406626 40.08037149 23.97241211 40.07446289 C26.39071079 40.06942104 28.8090064 40.06258775 31.22729492 40.05395508 C34.6948319 40.04188296 38.16232873 40.0361649 41.62988281 40.03173828 C42.71841049 40.026577 43.80693817 40.02141571 44.92845154 40.01609802 C46.42989464 40.01598473 46.42989464 40.01598473 47.96166992 40.01586914 C49.29070595 40.01253822 49.29070595 40.01253822 50.64659119 40.00914001 C52.66503906 40.12939453 52.66503906 40.12939453 53.66503906 41.12939453 C53.76327843 42.79368505 53.79477537 44.46221384 53.79003906 46.12939453 C53.79390625 47.49064453 53.79390625 47.49064453 53.79785156 48.87939453 C53.66503906 51.12939453 53.66503906 51.12939453 52.66503906 52.12939453 C46.71853649 53.08754494 40.92832419 53.26332784 34.91503906 53.22705078 C34.0163208 53.22563583 33.11760254 53.22422089 32.19165039 53.22276306 C29.34941131 53.21721036 26.50725393 53.20466691 23.66503906 53.19189453 C21.72623812 53.18687341 19.78743594 53.18231158 17.84863281 53.17822266 C13.12071219 53.16811162 8.39296601 53.14852733 3.66503906 53.12939453 C3.33503906 62.36939453 3.00503906 71.60939453 2.66503906 81.12939453 C6.53996094 81.11779297 10.41488281 81.10619141 14.40722656 81.09423828 C18.14697182 81.08644666 21.88671619 81.08037049 25.62646484 81.07446289 C28.23193769 81.06942423 30.8374077 81.06259323 33.44287109 81.05395508 C37.1809967 81.04186909 40.91908503 81.03616165 44.65722656 81.03173828 C45.82808807 81.026577 46.99894958 81.02141571 48.20529175 81.01609802 C49.82674606 81.01598473 49.82674606 81.01598473 51.48095703 81.01586914 C52.43582001 81.01364853 53.39068298 81.01142792 54.3744812 81.00914001 C56.66503906 81.12939453 56.66503906 81.12939453 58.66503906 82.12939453 C58.69191185 83.94181505 58.71137622 85.75434687 58.72753906 87.56689453 C58.73914063 88.57623047 58.75074219 89.58556641 58.76269531 90.62548828 C58.66503906 93.12939453 58.66503906 93.12939453 57.66503906 94.12939453 C55.55366005 94.22887646 53.43891621 94.25739091 51.32519531 94.25878906 C50.33252151 94.26141754 50.33252151 94.26141754 49.3197937 94.26409912 C47.12234917 94.2685167 44.92498448 94.26558 42.72753906 94.26220703 C41.20678695 94.2628801 39.68603494 94.26385015 38.1652832 94.2651062 C34.9741107 94.26658305 31.78296614 94.26442905 28.59179688 94.25976562 C24.49239376 94.25406834 20.39305611 94.25734741 16.2936554 94.26333809 C13.15221662 94.26694407 10.01079348 94.26580495 6.86935425 94.2632103 C5.35741162 94.26254113 3.8454676 94.2633691 2.33352661 94.26568985 C0.22394019 94.26821698 -1.88553881 94.26437497 -3.99511719 94.25878906 C-5.19789307 94.25799347 -6.40066895 94.25719788 -7.63989258 94.25637817 C-10.33496094 94.12939453 -10.33496094 94.12939453 -11.33496094 93.12939453 C-11.43018512 90.26847635 -11.46049419 87.43175832 -11.44848633 84.57055664 C-11.44863235 83.67308212 -11.44877838 82.7756076 -11.44892883 81.85093689 C-11.44822936 78.86951319 -11.44043535 75.88815113 -11.43261719 72.90673828 C-11.43075313 70.84550511 -11.42932917 68.78427149 -11.42832947 66.72303772 C-11.42450331 61.28635443 -11.4146722 55.84969768 -11.40362549 50.4130249 C-11.39341346 44.86991739 -11.3888323 39.32680561 -11.38378906 33.78369141 C-11.37305002 22.8989141 -11.35597243 12.01415652 -11.33496094 1.12939453 C-7.4963767 0.23196554 -3.93822178 0.00283532 0 0 Z " fill="#E7DDDD" transform="translate(630.3349609375,90.87060546875)"/>
<path d="M0 0 C6.3438609 4.50775157 9.79959429 9.84379819 11.33984375 17.45703125 C11.46189704 20.13243941 11.38451688 22.77664363 11.33984375 25.45703125 C7.37984375 25.45703125 3.41984375 25.45703125 -0.66015625 25.45703125 C-1.23765625 23.88953125 -1.81515625 22.32203125 -2.41015625 20.70703125 C-4.49984712 15.52664375 -6.51259011 12.94380781 -11.09765625 9.76953125 C-18.71669632 6.96251649 -27.1803769 6.32565152 -34.78515625 9.45703125 C-37.874338 11.10459485 -39.65043765 12.56806076 -41.66015625 15.45703125 C-42.68923179 19.78224348 -42.66015625 24.02916362 -42.66015625 28.45703125 C-42.00015625 28.45703125 -41.34015625 28.45703125 -40.66015625 28.45703125 C-40.66015625 29.11703125 -40.66015625 29.77703125 -40.66015625 30.45703125 C-38.43142717 31.02130636 -36.20219169 31.58345611 -33.97265625 32.14453125 C-33.26947266 32.32242188 -32.56628906 32.5003125 -31.84179688 32.68359375 C-27.63946311 33.73872517 -23.43030047 34.74425396 -19.203125 35.6953125 C-18.28297607 35.90518799 -17.36282715 36.11506348 -16.41479492 36.33129883 C-14.61867315 36.73929848 -12.82070341 37.13927117 -11.02075195 37.5300293 C-2.88177057 39.39301929 5.78367067 42.37818738 10.75390625 49.4765625 C15.08560826 56.96629308 15.56484127 64.39228945 13.86328125 72.81640625 C11.56672524 79.95509842 7.03781554 84.81644929 0.46484375 88.26953125 C-3.84908959 90.23041004 -7.98387944 91.69355748 -12.66015625 92.45703125 C-13.87251953 92.658125 -13.87251953 92.658125 -15.109375 92.86328125 C-26.87934681 94.37533602 -38.90578417 92.74410312 -48.80859375 85.9921875 C-54.90611478 81.17537256 -58.70484339 75.29372016 -60.21875 67.62890625 C-60.4985057 65.21126439 -60.72896219 62.88981265 -60.66015625 60.45703125 C-59.66015625 59.45703125 -59.66015625 59.45703125 -56.9375 59.359375 C-55.83535156 59.37097656 -54.73320313 59.38257813 -53.59765625 59.39453125 C-52.49292969 59.40355469 -51.38820313 59.41257812 -50.25 59.421875 C-49.39535156 59.43347656 -48.54070313 59.44507813 -47.66015625 59.45703125 C-47.50160156 60.10929687 -47.34304688 60.7615625 -47.1796875 61.43359375 C-45.28693666 68.52356652 -43.23454764 72.86559749 -37.16015625 77.26953125 C-29.28967039 81.00801203 -17.71690786 80.73106169 -9.47265625 78.20703125 C-5.38379053 76.5822654 -2.65376247 74.4442437 -0.66015625 70.45703125 C-0.0633907 65.64028075 0.1602021 61.75828933 -2.47265625 57.58203125 C-10.65193875 52.12917625 -20.39435018 50.43750469 -29.87109375 48.3828125 C-39.44124119 46.24495348 -48.71849937 43.78522621 -54.66015625 35.45703125 C-58.44095006 28.4187369 -57.87748599 21.94012991 -56.1953125 14.36328125 C-54.13680009 7.5822992 -49.34720825 1.65717375 -43.27734375 -1.96484375 C-41.08853683 -2.96172611 -38.95265243 -3.81902259 -36.66015625 -4.54296875 C-35.78423828 -4.82720703 -35.78423828 -4.82720703 -34.890625 -5.1171875 C-23.22166419 -7.34471242 -10.29950378 -5.97401468 0 0 Z " fill="#E5DDDE" transform="translate(589.66015625,94.54296875)"/>
<path d="M0 0 C0.71638641 0.08495728 1.43277283 0.16991455 2.17086792 0.25744629 C3.78709457 0.458058 5.3954552 0.72094873 7 1 C5.55424099 4.33865998 3.73285462 6.48071403 1.125 9 C0.44695312 9.66 -0.23109375 10.32 -0.9296875 11 C-1.61289062 11.66 -2.29609375 12.32 -3 13 C-4.05574219 14.11375 -4.05574219 14.11375 -5.1328125 15.25 C-7 17 -7 17 -9 17 C-9.21140625 17.55042969 -9.4228125 18.10085937 -9.640625 18.66796875 C-11.47473088 21.81440901 -14.03307682 23.95010216 -16.75 26.3125 C-21.25068093 30.24211463 -25.2068458 34.37889414 -29 39 C-19.75906921 52.63973139 -19.75906921 52.63973139 -10.17578125 66.0390625 C-6.57610517 70.93772402 -3.03271663 75.87713013 0.52148438 80.80883789 C1.05708984 81.55125732 1.59269531 82.29367676 2.14453125 83.05859375 C2.62253174 83.72173584 3.10053223 84.38487793 3.59301758 85.06811523 C4.58291536 86.42731376 5.61599151 87.75558638 6.6784668 89.05883789 C8 91 8 91 8 94 C2.29589506 95.10666467 -3.40723496 95.99594453 -9 94 C-14.7803976 89.33237554 -18.33212241 82.34074584 -22 76 C-23.20050526 74.09920001 -24.4072553 72.20230192 -25.625 70.3125 C-26.38876953 69.075 -26.38876953 69.075 -27.16796875 67.8125 C-31.16206124 61.68084415 -35.62471128 55.86272865 -40 50 C-42.22739701 51.06201737 -42.22739701 51.06201737 -45 53 C-45.68578125 53.45632812 -46.3715625 53.91265625 -47.078125 54.3828125 C-50.95391528 57.49180974 -52.76282236 59.79140332 -53.734375 64.7421875 C-54.10523105 69.16090888 -54.05931814 73.56997041 -54 78 C-54.00810249 79.55340849 -54.01978946 81.10680264 -54.03515625 82.66015625 C-54.07148999 86.44290203 -54.03410232 90.21464236 -54 94 C-58.62 94 -63.24 94 -68 94 C-68 63.31 -68 32.62 -68 1 C-63.38 1 -58.76 1 -54 1 C-53.67 14.86 -53.34 28.72 -53 43 C-50.01195312 39.8959375 -47.02390625 36.791875 -43.9453125 33.59375 C-41.53921702 31.12328445 -39.12809973 28.65796174 -36.71340942 26.19590759 C-34.17068391 23.60050444 -31.63760586 20.99711975 -29.12597656 18.37158203 C-26.70361244 15.84006878 -24.25717753 13.33423502 -21.79259872 10.84382629 C-20.40741446 9.43133692 -19.04789376 7.9938261 -17.68899536 6.55603027 C-11.89148533 0.75342929 -8.2013563 -1.39870359 0 0 Z " fill="#E6DDDE" transform="translate(423,91)"/>
<path d="M0 0 C2.10241603 -0.13496251 4.2072961 -0.23197307 6.3125 -0.3125 C7.48425781 -0.37050781 8.65601563 -0.42851563 9.86328125 -0.48828125 C13 0 13 0 14.53564453 2.07373047 C16.20043517 5.40053618 17.42605984 8.77814228 18.56640625 12.30859375 C18.80162491 13.02000015 19.03684357 13.73140656 19.27919006 14.46437073 C20.04579969 16.78697469 20.80405195 19.11221958 21.5625 21.4375 C22.09293391 23.0477414 22.62402811 24.65776544 23.15576172 26.26757812 C24.24204371 29.55877149 25.32532962 32.85092457 26.40576172 36.14404297 C28.58427123 42.7829875 30.7761145 49.41746815 32.97824097 56.0486145 C33.61404812 57.96695626 34.24580202 59.88659886 34.87719727 61.80639648 C35.26061279 62.96341064 35.64402832 64.1204248 36.0390625 65.3125 C36.37115723 66.31925781 36.70325195 67.32601562 37.04541016 68.36328125 C37.88688116 70.68754898 38.8379118 72.82197381 40 75 C40.30067383 74.09797852 40.60134766 73.19595703 40.91113281 72.26660156 C41.11308258 71.66076736 41.31503235 71.05493317 41.52310181 70.43074036 C41.98617127 69.04150079 42.44920281 67.65224858 42.91220093 66.26298523 C44.23014823 62.3085776 45.54879918 58.35440672 46.86865234 54.40063477 C49.44380186 46.68414846 52.01451885 38.96633655 54.56079102 31.24026489 C55.6508854 27.93340432 56.74420964 24.62761566 57.83776855 21.32189941 C58.361607 19.73527569 58.88383044 18.14811783 59.40441895 16.5604248 C60.13273812 14.33970005 60.86655368 12.12086174 61.6015625 9.90234375 C61.92270523 8.91568977 61.92270523 8.91568977 62.25033569 7.90910339 C63.24559818 4.92219834 64.23695016 2.64457476 66 0 C69.0390625 -0.29296875 69.0390625 -0.29296875 72.625 -0.1875 C73.81351563 -0.16042969 75.00203125 -0.13335937 76.2265625 -0.10546875 C77.14179687 -0.07066406 78.05703125 -0.03585938 79 0 C80.70094883 4.93855029 78.94156868 8.50768214 77 13.0625 C76.34202104 14.67585049 75.68718226 16.29048449 75.03515625 17.90625 C74.69629395 18.74285156 74.35743164 19.57945313 74.00830078 20.44140625 C72.36654146 24.60742021 70.89859195 28.83038576 69.4375 33.0625 C69.1489917 33.89450928 68.8604834 34.72651855 68.56323242 35.58374023 C67.98819375 37.24415428 67.41404494 38.90487679 66.84082031 40.56591797 C65.50856424 44.42265229 64.16332519 48.27473598 62.8125 52.125 C62.5868335 52.77476807 62.36116699 53.42453613 62.12866211 54.09399414 C60.86592795 57.69216684 59.51377799 61.2389003 58.08203125 64.7734375 C55.45755936 71.27218897 53.14608922 77.88046714 50.82421875 84.4921875 C50.48777344 85.43320313 50.15132812 86.37421875 49.8046875 87.34375 C49.50546387 88.19130859 49.20624023 89.03886719 48.89794922 89.91210938 C48 92 48 92 46 94 C42.7421875 94.1953125 42.7421875 94.1953125 38.875 94.125 C36.95300781 94.09792969 36.95300781 94.09792969 34.9921875 94.0703125 C34.00476563 94.04710937 33.01734375 94.02390625 32 94 C29.70452831 87.8160605 27.41201061 81.63103124 25.12133789 75.4453125 C24.34529035 73.35067232 23.56861985 71.2562628 22.79125977 69.16210938 C18.55420156 57.74642831 14.38047961 46.31651173 10.39231873 34.81134033 C7.71031203 27.10121703 4.78633211 19.49134932 1.76953125 11.90625 C1.39183594 10.9265625 1.01414062 9.946875 0.625 8.9375 C0.28726563 8.08027344 -0.05046875 7.22304687 -0.3984375 6.33984375 C-1.05451067 3.78797472 -0.87261905 2.45353279 0 0 Z " fill="#E5DDDE" transform="translate(783,91)"/>
<path d="M0 0 C3.3 0 6.6 0 10 0 C10 32.34 10 64.68 10 98 C6.7 98 3.4 98 0 98 C0 65.66 0 33.32 0 0 Z " fill="#E5DDDF" transform="translate(289,89)"/>
<path d="M0 0 C20.79 0 41.58 0 63 0 C63 0.99 63 1.98 63 3 C42.21 3 21.42 3 0 3 C0 2.01 0 1.02 0 0 Z " fill="#F0EBEE" transform="translate(624,91)"/>
<path d="M0 0 C4.62 0 9.24 0 14 0 C14 14.19 14 28.38 14 43 C13.67 43 13.34 43 13 43 C13 29.47 13 15.94 13 2 C9.37 2.33 5.74 2.66 2 3 C2.00444122 4.04347595 2.00888245 5.0869519 2.01345825 6.16204834 C2.05398461 15.99117344 2.08397493 25.82028162 2.10362434 35.64947128 C2.11406585 40.70287302 2.12823181 45.75620736 2.15087891 50.80957031 C2.17259411 55.68545444 2.18456586 60.5612737 2.18975449 65.43720245 C2.19345261 67.29835278 2.20067403 69.15949951 2.21146011 71.02062225 C2.22595741 73.62548014 2.22797868 76.23006926 2.22705078 78.83496094 C2.23424133 79.60604187 2.24143188 80.3771228 2.24884033 81.17156982 C2.23305892 85.26016921 1.88188827 87.23622346 0 91 C0 60.97 0 30.94 0 0 Z " fill="#DCDAE4" transform="translate(355,92)"/>
<path d="M0 0 C0.02687279 1.81242052 0.04633715 3.62495233 0.0625 5.4375 C0.07410156 6.44683594 0.08570313 7.45617187 0.09765625 8.49609375 C0 11 0 11 -1 12 C-3.11681317 12.0942174 -5.23680758 12.11742761 -7.35571289 12.11352539 C-8.01910172 12.11367142 -8.68249054 12.11381744 -9.36598206 12.1139679 C-11.56823956 12.11326881 -13.77041345 12.10547665 -15.97265625 12.09765625 C-17.49580336 12.09579206 -19.01895107 12.09436816 -20.542099 12.09336853 C-24.55837651 12.08954346 -28.57461808 12.07971328 -32.59088135 12.06866455 C-36.68623366 12.05845019 -40.78159176 12.05387086 -44.87695312 12.04882812 C-52.91798528 12.038091 -60.95898817 12.02101472 -69 12 C-68.67 11.34 -68.34 10.68 -68 10 C-46.22 9.67 -24.44 9.34 -2 9 C-1.67 6.69 -1.34 4.38 -1 2 C-5.29 1.67 -9.58 1.34 -14 1 C-14 0.67 -14 0.34 -14 0 C-9.49048355 -1.09321611 -4.27999354 -2.13999677 0 0 Z " fill="#E5E3EA" transform="translate(689,173)"/>
<path d="M0 0 C0.33 0 0.66 0 1 0 C1.26238839 7.55442343 1.52327963 15.10889734 1.78230286 22.66343689 C1.9026465 26.17197172 2.02348988 29.68048781 2.14550781 33.18896484 C2.28602768 37.23009179 2.42431548 41.27129252 2.5625 45.3125 C2.60624756 46.5617627 2.64999512 47.81102539 2.69506836 49.09814453 C2.89758984 55.06947206 3.05195453 61.02522958 3 67 C1.515 67.495 1.515 67.495 0 68 C0 45.56 0 23.12 0 0 Z " fill="#D9D6DE" transform="translate(619,116)"/>
<path d="M0 0 C13.53 0 27.06 0 41 0 C41 0.99 41 1.98 41 3 C29.78 3 18.56 3 7 3 C7 2.34 7 1.68 7 1 C4.69 1 2.38 1 0 1 C0 0.67 0 0.34 0 0 Z " fill="#F1ECEF" transform="translate(705,91)"/>
<path d="M0 0 C1.19044922 0.00451172 2.38089844 0.00902344 3.60742188 0.01367188 C6.50916936 0.02532548 9.41080626 0.04168441 12.3125 0.0625 C12.3125 0.7225 12.3125 1.3825 12.3125 2.0625 C12.9725 2.3925 13.6325 2.7225 14.3125 3.0625 C1.1125 3.0625 -12.0875 3.0625 -25.6875 3.0625 C-25.3575 2.4025 -25.0275 1.7425 -24.6875 1.0625 C-16.6869519 -0.56657962 -8.12175555 -0.05928289 0 0 Z " fill="#EEE9ED" transform="translate(473.6875,90.9375)"/>
<path d="M0 0 C6.39037231 -0.02527062 12.78073183 -0.04283317 19.17114258 -0.05493164 C21.34692873 -0.05997308 23.52271147 -0.06680607 25.69848633 -0.07543945 C28.81853067 -0.08751338 31.93853038 -0.09323005 35.05859375 -0.09765625 C36.52733192 -0.10539818 36.52733192 -0.10539818 38.02574158 -0.11329651 C39.37702904 -0.11340981 39.37702904 -0.11340981 40.75561523 -0.11352539 C41.95141457 -0.11685631 41.95141457 -0.11685631 43.17137146 -0.12025452 C45 0 45 0 46 1 C46.07205511 2.68608966 46.08386068 4.37500659 46.0625 6.0625 C46.05347656 6.98160156 46.04445313 7.90070313 46.03515625 8.84765625 C46.02355469 9.55792969 46.01195312 10.26820313 46 11 C44.68 11.33 43.36 11.66 42 12 C42.33 11.484375 42.66 10.96875 43 10.4375 C44.44281575 7.35974576 44.44281575 7.35974576 44 1 C29.48 1 14.96 1 0 1 C0 0.67 0 0.34 0 0 Z " fill="#D8D7E1" transform="translate(638,131)"/>
<path d="M0 0 C1.65322266 0.01740234 1.65322266 0.01740234 3.33984375 0.03515625 C4.99693359 0.04869141 4.99693359 0.04869141 6.6875 0.0625 C7.54214844 0.07410156 8.39679687 0.08570312 9.27734375 0.09765625 C9.60734375 1.08765625 9.93734375 2.07765625 10.27734375 3.09765625 C9.32859375 3.38640625 8.37984375 3.67515625 7.40234375 3.97265625 C4.22522797 4.86590734 4.22522797 4.86590734 2.27734375 7.09765625 C-0.34765625 6.72265625 -0.34765625 6.72265625 -2.72265625 6.09765625 C-3.10484392 4.44150968 -3.43660727 2.77308601 -3.72265625 1.09765625 C-2.72265625 0.09765625 -2.72265625 0.09765625 0 0 Z " fill="#E6DFE1" transform="translate(785.72265625,90.90234375)"/>
<path d="M0 0 C5.78591511 -0.10477512 11.29309366 0.00749455 17 1 C17 1.66 17 2.32 17 3 C14.54203147 3.19436491 12.08390706 3.3807742 9.625 3.5625 C8.92632812 3.61857422 8.22765625 3.67464844 7.5078125 3.73242188 C2.2265625 4.11328125 2.2265625 4.11328125 0 3 C0 2.01 0 1.02 0 0 Z " fill="#EAE6EC" transform="translate(413,91)"/>
<path d="M0 0 C0.66 0.66 1.32 1.32 2 2 C-2.79300133 3.39151652 -7.15135782 2.68662689 -12 2 C-12 1.67 -12 1.34 -12 1 C-7.94392005 0.01670789 -4.16937798 -0.23600253 0 0 Z " fill="#EEE9EA" transform="translate(687,172)"/>
<path d="M0 0 C2.31 0 4.62 0 7 0 C7.33 0.99 7.66 1.98 8 3 C5.08517222 3.80967438 3.53886783 4.21845993 0.6875 3.0625 C0.130625 2.711875 -0.42625 2.36125 -1 2 C-0.67 1.34 -0.34 0.68 0 0 Z " fill="#EEE8EC" transform="translate(788,91)"/>
<path d="M0 0 C0.99 0.33 1.98 0.66 3 1 C1.63016497 4.16115776 1.0109362 4.9927092 -2 7 C-2.33 6.01 -2.66 5.02 -3 4 C-1.5625 1.8125 -1.5625 1.8125 0 0 Z " fill="#EDE9ED" transform="translate(411,107)"/>
<path d="M0 0 C0.66 0 1.32 0 2 0 C2 0.66 2 1.32 2 2 C2.66 2.33 3.32 2.66 4 3 C5.125 5.0625 5.125 5.0625 6 7 C5.01 7 4.02 7 3 7 C0 2.77777778 0 2.77777778 0 0 Z " fill="#E8E3E9" transform="translate(398,160)"/>
<path d="M0 0 C1.32 0.33 2.64 0.66 4 1 C3.67 2.32 3.34 3.64 3 5 C0.525 4.01 0.525 4.01 -2 3 C-1.34 2.01 -0.68 1.02 0 0 Z " fill="#E7E4ED" transform="translate(859,91)"/>
<path d="M0 0 C2.97 0 5.94 0 9 0 C8.67 0.66 8.34 1.32 8 2 C6.34385343 2.38218767 4.67542976 2.71395102 3 3 C2.01 3.495 2.01 3.495 1 4 C0.67 2.68 0.34 1.36 0 0 Z " fill="#DFDEE9" transform="translate(289,89)"/>
</svg>
