<?xml version="1.0" encoding="UTF-8"?>
<svg version="1.1" xmlns="http://www.w3.org/2000/svg" width="512" height="512">
<path d="M0 0 C1.55014759 -0.00604729 3.10028922 -0.0138284 4.65042037 -0.02318513 C8.89401427 -0.04370849 13.13726953 -0.03939112 17.38089097 -0.03082395 C21.96386407 -0.02588272 26.54675635 -0.04392615 31.12969971 -0.05889893 C40.1021805 -0.08437889 49.07454154 -0.08798205 58.04705242 -0.0832984 C65.34175259 -0.07973003 72.63641646 -0.08323567 79.93111229 -0.09174728 C80.96996403 -0.09293766 82.00881577 -0.09412804 83.07914787 -0.09535449 C85.1896973 -0.09777804 87.30024671 -0.1002063 89.41079613 -0.10263924 C109.19751169 -0.12438511 128.98415906 -0.1200678 148.77087846 -0.10786955 C166.86209306 -0.09753279 184.95309224 -0.12003869 203.04426423 -0.15806599 C221.63107147 -0.19683485 240.21777681 -0.21333261 258.80462474 -0.20581949 C269.2353901 -0.20199707 279.66597214 -0.20695458 290.09670448 -0.23524857 C298.97706318 -0.25909371 307.85712571 -0.26186673 316.73748855 -0.23766823 C321.2657011 -0.22590245 325.79337219 -0.22365768 330.32154846 -0.24767303 C334.47266195 -0.26943218 338.6227833 -0.26313796 342.77385076 -0.23514967 C344.26974722 -0.22986682 345.76572196 -0.23455443 347.26154146 -0.25062139 C357.6579848 -0.354478 366.45783355 1.22699671 374.64530689 8.14468992 C382.7324741 16.7977198 383.30800426 26.50014887 383.24543762 37.79734802 C383.25148491 39.34749561 383.25926602 40.89763724 383.26862276 42.44776839 C383.28914611 46.69136229 383.28482875 50.93461755 383.27626157 55.17823899 C383.27132034 59.76121209 383.28936377 64.34410437 383.30433655 68.92704773 C383.32981652 77.89952852 383.33341967 86.87188956 383.32873602 95.84440044 C383.32516765 103.13910061 383.32867329 110.43376448 383.33718491 117.72846031 C383.33837528 118.76731205 383.33956566 119.8061638 383.34079211 120.87649589 C383.34321566 122.98704532 383.34564393 125.09759474 383.34807687 127.20814415 C383.36982274 146.99485971 383.36550542 166.78150708 383.35330717 186.56822648 C383.34297042 204.65944109 383.36547631 222.75044026 383.40350361 240.84161226 C383.44227247 259.42841949 383.45877023 278.01512483 383.45125711 296.60197276 C383.44743469 307.03273812 383.4523922 317.46332016 383.48068619 327.89405251 C383.50453134 336.7744112 383.50730435 345.65447373 383.48310585 354.53483657 C383.47134007 359.06304912 383.4690953 363.59072021 383.49311066 368.11889648 C383.5148698 372.27000997 383.50857558 376.42013132 383.48058729 380.57119878 C383.47530444 382.06709525 383.47999206 383.56306998 383.49605902 385.05888949 C383.59991562 395.45533282 382.01844091 404.25518157 375.1007477 412.44265491 C366.44771783 420.52982212 356.74528875 421.10535228 345.4480896 421.04278564 C343.89794201 421.04883294 342.34780038 421.05661404 340.79766923 421.06597078 C336.55407533 421.08649413 332.31082007 421.08217677 328.06719863 421.07360959 C323.48422553 421.06866836 318.90133325 421.0867118 314.31838989 421.10168457 C305.3459091 421.12716454 296.37354806 421.13076769 287.40103718 421.12608404 C280.10633701 421.12251567 272.81167314 421.12602131 265.51697731 421.13453293 C263.9586997 421.1363185 263.9586997 421.1363185 262.36894173 421.13814013 C260.2583923 421.14056368 258.14784288 421.14299195 256.03729347 421.14542489 C236.25057791 421.16717076 216.46393054 421.16285345 196.67721114 421.1506552 C178.58599654 421.14031844 160.49499736 421.16282433 142.40382537 421.20085163 C123.81701813 421.23962049 105.23031279 421.25611826 86.64346486 421.24860513 C76.2126995 421.24478271 65.78211746 421.24974023 55.35138512 421.27803421 C46.47102642 421.30187936 37.59096389 421.30465237 28.71060105 421.28045388 C24.1823885 421.26868809 19.65471741 421.26644332 15.12654114 421.29045868 C10.97542765 421.31221783 6.8253063 421.3059236 2.67423884 421.27793531 C1.17834238 421.27265246 -0.31763236 421.27734008 -1.81345186 421.29340704 C-12.2098952 421.39726364 -21.00974395 419.81578894 -29.19721729 412.89809573 C-37.2843845 404.24506585 -37.85991466 394.54263677 -37.79734802 383.24543762 C-37.80339531 381.69529003 -37.81117642 380.1451484 -37.82053316 378.59501725 C-37.84105651 374.35142336 -37.83673915 370.10816809 -37.82817197 365.86454666 C-37.82323074 361.28157355 -37.84127417 356.69868127 -37.85624695 352.11573792 C-37.88172692 343.14325712 -37.88533007 334.17089608 -37.88064642 325.1983852 C-37.87707805 317.90368503 -37.88058369 310.60902116 -37.88909531 303.31432533 C-37.89028568 302.27547359 -37.89147606 301.23662185 -37.89270251 300.16628975 C-37.89512606 298.05574033 -37.89755433 295.94519091 -37.89998727 293.83464149 C-37.92173314 274.04792593 -37.91741583 254.26127856 -37.90521757 234.47455917 C-37.89488082 216.38334456 -37.91738671 198.29234538 -37.95541401 180.20117339 C-37.99418287 161.61436616 -38.01068063 143.02766081 -38.00316751 124.44081289 C-37.99934509 114.01004752 -38.0043026 103.57946548 -38.03259659 93.14873314 C-38.05644174 84.26837444 -38.05921475 75.38831191 -38.03501625 66.50794908 C-38.02325047 61.97973652 -38.0210057 57.45206543 -38.04502106 52.92388916 C-38.06678021 48.77277567 -38.06048598 44.62265432 -38.03249769 40.47158686 C-38.02721484 38.9756904 -38.03190246 37.47971566 -38.04796942 35.98389616 C-38.15182602 25.58745282 -36.57035131 16.78760407 -29.6526581 8.60013074 C-20.99962823 0.51296352 -11.29719915 -0.06256664 0 0 Z M-14.2759552 23.52139282 C-18.63806868 29.86650332 -17.69444696 37.55704278 -17.65690613 44.98306274 C-17.66036466 46.46904691 -17.66513053 47.95502851 -17.67108786 49.44100475 C-17.68360076 53.51631165 -17.67742619 57.59140753 -17.66812921 61.66671515 C-17.66134024 66.06487291 -17.67181919 70.46299445 -17.68006897 74.86114502 C-17.69341012 83.47393902 -17.69052686 92.08665461 -17.68183105 100.69945168 C-17.67505642 107.69913645 -17.67413683 114.69879923 -17.6774025 121.69848633 C-17.6778622 122.69464688 -17.67832189 123.69080744 -17.67879552 124.71715468 C-17.6797547 126.74082383 -17.68072734 128.76449298 -17.6817133 130.78816211 C-17.69026831 149.76494843 -17.68043131 168.74169127 -17.6643122 187.71847045 C-17.65090892 204.00208354 -17.65323698 220.28563246 -17.66706848 236.56924438 C-17.68312232 255.47804095 -17.68944433 274.38679941 -17.68023169 293.29560184 C-17.67927604 295.31183433 -17.67833293 297.32806682 -17.6774025 299.34429932 C-17.67693967 300.33632911 -17.67647684 301.32835891 -17.67599999 302.35045022 C-17.67340952 309.34187846 -17.67778234 316.33328253 -17.68484116 323.32470703 C-17.69325416 331.8447023 -17.69098019 340.36461464 -17.67499892 348.8846004 C-17.66711354 353.23178468 -17.66402917 357.57883069 -17.67394638 361.92601395 C-17.68288824 365.90584064 -17.67796889 369.88540096 -17.66201372 373.8652035 C-17.65866376 375.30454134 -17.66036486 376.74390169 -17.66764109 378.18322504 C-17.99328129 388.37369095 -17.99328129 388.37369095 -14.2759552 397.52139282 C-7.9308447 401.8835063 -0.24030525 400.93988458 7.18571472 400.90234375 C8.67169889 400.90580228 10.15768048 400.91056815 11.64365673 400.91652548 C15.71896363 400.92903838 19.79405951 400.92286381 23.86936712 400.91356683 C28.26752489 400.90677787 32.66564643 400.91725681 37.063797 400.92550659 C45.676591 400.93884774 54.28930658 400.93596448 62.90210366 400.92726867 C69.90178842 400.92049404 76.90145121 400.91957445 83.90113831 400.92284012 C84.89729886 400.92329982 85.89345942 400.92375952 86.91980666 400.92423315 C88.94347581 400.92519232 90.96714495 400.92616496 92.99081409 400.92715092 C111.9676004 400.93570593 130.94434325 400.92586893 149.92112243 400.90974982 C166.20473551 400.89634654 182.48828444 400.8986746 198.77189636 400.9125061 C217.68069293 400.92855994 236.58945139 400.93488195 255.49825382 400.92566931 C257.51448631 400.92471366 259.5307188 400.92377055 261.54695129 400.92284012 C262.53898109 400.92237729 263.53101089 400.92191447 264.5531022 400.92143761 C271.54453044 400.91884714 278.53593451 400.92321997 285.52735901 400.93027878 C294.04735427 400.93869179 302.56726662 400.93641781 311.08725238 400.92043655 C315.43443665 400.91255117 319.78148267 400.90946679 324.12866592 400.919384 C328.10849262 400.92832587 332.08805293 400.92340651 336.06785548 400.90745135 C337.50719331 400.90410138 338.94655367 400.90580249 340.38587701 400.91307871 C350.57634293 401.23871891 350.57634293 401.23871891 359.7240448 397.52139282 C364.08615828 391.17628232 363.14253656 383.48574287 363.10499573 376.0597229 C363.10845426 374.57373874 363.11322013 373.08775714 363.11917746 371.60178089 C363.13169036 367.526474 363.12551579 363.45137811 363.11621881 359.3760705 C363.10942984 354.97791273 363.11990879 350.57979119 363.12815857 346.18164062 C363.14149972 337.56884662 363.13861646 328.95613104 363.12992065 320.34333396 C363.12314602 313.3436492 363.12222643 306.34398642 363.1254921 299.34429932 C363.1259518 298.34813876 363.12641149 297.3519782 363.12688512 296.32563096 C363.1278443 294.30196181 363.12881694 292.27829267 363.1298029 290.25462353 C363.13835791 271.27783722 363.12852091 252.30109438 363.1124018 233.32431519 C363.09899852 217.04070211 363.10132658 200.75715318 363.11515808 184.47354126 C363.13121192 165.56474469 363.13753393 146.65598623 363.12832129 127.7471838 C363.12736564 125.73095132 363.12642253 123.71471882 363.1254921 121.69848633 C363.12479786 120.21044163 363.12479786 120.21044163 363.12408959 118.69233543 C363.12149912 111.70090719 363.12587194 104.70950311 363.13293076 97.71807861 C363.14134376 89.19808335 363.13906979 80.67817101 363.12308852 72.15818524 C363.11520314 67.81100097 363.11211877 63.46395496 363.12203598 59.1167717 C363.13097784 55.136945 363.12605848 51.15738469 363.11010332 47.17758214 C363.10675336 45.73824431 363.10845446 44.29888395 363.11573069 42.85956061 C363.44137089 32.66909469 363.44137089 32.66909469 359.7240448 23.52139282 C353.3789343 19.15927935 345.68839485 20.10290107 338.26237488 20.14044189 C336.77639071 20.13698337 335.29040912 20.13221749 333.80443287 20.12626016 C329.72912597 20.11374726 325.65403009 20.11992184 321.57872248 20.12921882 C317.18056471 20.13600778 312.78244317 20.12552883 308.3842926 20.11727905 C299.7714986 20.10393791 291.15878302 20.10682116 282.54598594 20.11551698 C275.54630117 20.1222916 268.54663839 20.1232112 261.54695129 20.11994553 C260.55079074 20.11948583 259.55463018 20.11902613 258.52828294 20.1185525 C256.50461379 20.11759332 254.48094465 20.11662068 252.45727551 20.11563472 C233.48048919 20.10707971 214.50374635 20.11691671 195.52696717 20.13303582 C179.24335409 20.1464391 162.95980516 20.14411104 146.67619324 20.13027954 C127.76739667 20.1142257 108.85863821 20.1079037 89.94983578 20.11711633 C87.93360329 20.11807198 85.9173708 20.11901509 83.90113831 20.11994553 C82.41309361 20.12063977 82.41309361 20.12063977 80.8949874 20.12134803 C73.90355916 20.12393851 66.91215509 20.11956568 59.92073059 20.11250687 C51.40073533 20.10409386 42.88082298 20.10636783 34.36083722 20.1223491 C30.01365295 20.13023448 25.66660693 20.13331885 21.31942368 20.12340164 C17.33959698 20.11445978 13.36003667 20.11937914 9.38023412 20.1353343 C7.94089629 20.13868426 6.50153593 20.13698316 5.06221259 20.12970693 C-5.12825333 19.80406673 -5.12825333 19.80406673 -14.2759552 23.52139282 Z " fill="#000000" transform="translate(83.27595520019531,45.478607177734375)"/>
</svg>
