<?xml version="1.0" encoding="UTF-8"?>
<svg version="1.1" xmlns="http://www.w3.org/2000/svg" width="512" height="512">
<path d="M0 0 C1.1435933 -0.00445784 2.28718661 -0.00891569 3.46543425 -0.01350862 C5.35848759 -0.01323207 5.35848759 -0.01323207 7.28978443 -0.01294994 C8.63960765 -0.01624881 9.98942989 -0.01997443 11.33925086 -0.02409142 C15.05674561 -0.03411698 18.77422422 -0.03782911 22.49173057 -0.04048073 C26.49801024 -0.04438214 30.50427709 -0.05396059 34.51054859 -0.0626936 C44.18980312 -0.08246265 53.8690587 -0.09252478 63.54832837 -0.10142139 C68.10539536 -0.10580357 72.66246118 -0.11117056 77.21952724 -0.11641026 C92.36643927 -0.13342298 107.51335057 -0.14791745 122.66027069 -0.155159 C126.59161028 -0.15706892 130.52294987 -0.15898925 134.45428944 -0.16094494 C135.91997942 -0.16167055 135.91997942 -0.16167055 137.41527931 -0.16241082 C153.24624352 -0.1707122 169.07713221 -0.19605073 184.90806343 -0.22852562 C201.15777688 -0.26158807 217.40745194 -0.27960702 233.6571992 -0.28280324 C242.7822798 -0.28496909 251.90725025 -0.29372874 261.03229809 -0.31926441 C268.80321059 -0.34096029 276.57398619 -0.34902732 284.34492555 -0.33929763 C288.30949119 -0.33474968 292.2737743 -0.33666768 296.23830128 -0.35605907 C299.86990811 -0.37366859 303.50102585 -0.37271143 307.13263772 -0.35716178 C309.06420038 -0.35365765 310.99576804 -0.3698286 312.92725962 -0.38676625 C321.19199482 -0.32545133 326.90474235 0.59890706 333.03070545 6.57172108 C335.45401959 12.32709215 335.96863201 19.24595029 333.76508045 25.20453358 C331.21256725 29.23588379 327.98530252 31.64935539 323.53070545 33.13422108 C321.69818786 33.22937504 319.86236628 33.26515202 318.02738285 33.26844215 C316.87620606 33.2729 315.72502926 33.27735784 314.53896832 33.28195077 C313.26846875 33.28176641 311.99796917 33.28158205 310.68896961 33.2813921 C309.3301841 33.28469094 307.97139958 33.28841655 306.6126163 33.29253358 C302.8703878 33.30255931 299.12817534 33.30627129 295.38593531 33.30892289 C291.3530897 33.3128242 287.32025681 33.32240261 283.28741932 33.33113575 C273.54439497 33.35090434 263.80136957 33.36096656 254.05833018 33.36986354 C249.47174647 33.37424552 244.88516392 33.37961253 240.29858112 33.38485241 C225.05473158 33.40186456 209.81088276 33.41635942 194.56702518 33.42360115 C190.61058266 33.42551109 186.65414014 33.42743141 182.69769764 33.42938709 C181.22264234 33.4301127 181.22264234 33.4301127 179.71778795 33.43085297 C163.782684 33.43915585 147.84765505 33.46449717 131.91258386 33.49696777 C115.55778409 33.53002238 99.20302247 33.54804844 82.84818912 33.55124539 C73.66333697 33.5534119 64.47859423 33.56218115 55.2937746 33.58770657 C47.47269476 33.60939168 39.65175089 33.61747477 31.8306444 33.60773978 C27.83987493 33.60318879 23.84938612 33.60512745 19.85865498 33.62450123 C16.20427945 33.64208898 12.55039027 33.64117135 8.89600989 33.62560394 C6.94979014 33.62209347 5.00356555 33.63828689 3.0574162 33.65520841 C-3.67920825 33.60544441 -8.02921683 33.23797369 -13.46929455 29.13422108 C-17.15562338 25.35337099 -17.77290835 22.25293239 -17.96929455 17.13422108 C-17.78559633 12.01600878 -17.03926042 8.99364364 -13.46929455 5.13422108 C-9.00740263 1.10763569 -5.94062955 0.0107227 0 0 Z " fill="#000000" transform="translate(97.46929454803467,238.86577892303467)"/>
</svg>
