<?xml version="1.0" encoding="UTF-8"?>
<svg version="1.1" xmlns="http://www.w3.org/2000/svg" width="512" height="512">
<path d="M0 0 C1.23923218 -0.0071553 2.47846436 -0.01431061 3.75524902 -0.02168274 C5.12591528 -0.02452279 6.4965818 -0.02723455 7.86724854 -0.02983093 C9.31296959 -0.03609852 10.75868904 -0.04274558 12.20440674 -0.04974365 C16.94910569 -0.07075076 21.69380483 -0.08114266 26.4385376 -0.09111023 C28.0740587 -0.09515899 29.70957964 -0.09927595 31.3451004 -0.10346031 C39.02950662 -0.12250435 46.71390327 -0.13673723 54.39832854 -0.14507228 C63.25940056 -0.15484319 72.12022268 -0.18116206 80.98120666 -0.22157317 C87.83655943 -0.25176135 94.69184067 -0.2665437 101.54725862 -0.26985329 C105.63881418 -0.27220062 109.73010253 -0.28111957 113.82158661 -0.30631447 C117.67287466 -0.32964785 121.52372054 -0.33380754 125.37506104 -0.32355309 C126.78431929 -0.32305889 128.19359971 -0.32934488 129.60279083 -0.34310913 C137.99716682 -0.42047842 145.05131682 -0.44605323 151.49911118 5.59455395 C155.73083287 10.31268733 156.07757522 14.02911172 156.09460449 20.16177368 C156.10031464 21.39403687 156.10602478 22.62630005 156.11190796 23.89590454 C156.11315322 25.25871267 156.11427834 26.62152091 156.11529541 27.98432922 C156.11992555 29.42182034 156.12495048 30.85931024 156.13034058 32.29679871 C156.14344736 36.19979948 156.14990613 40.10278306 156.15435123 44.00580239 C156.15728464 46.44549239 156.16138995 48.8851777 156.16585541 51.32486534 C156.17952558 58.96175213 156.18919468 66.59862821 156.1930573 74.23552638 C156.19753751 83.04449277 156.21508568 91.85330396 156.24405789 100.66222316 C156.26568842 107.47594816 156.2757623 114.28962953 156.27709842 121.10338849 C156.27814543 125.17082673 156.28403115 129.23811898 156.30191803 133.30552101 C156.31842258 137.13295101 156.32054276 140.96012563 156.31177902 144.78757858 C156.31100993 146.18918607 156.31533454 147.59080743 156.32523727 148.99238014 C156.42842063 164.51131959 156.42842063 164.51131959 150.2666626 170.95967102 C145.21021582 174.29883399 140.80725485 175.76776254 134.7666626 174.58467102 C129.7589493 173.04308085 127.11824036 169.96804025 124.33872986 165.62028503 C122.46837531 160.9285992 122.55738171 156.8312192 122.61358643 151.8273468 C122.61314835 150.80234573 122.61271027 149.77734467 122.61225891 148.72128296 C122.61434323 145.34482043 122.63765807 141.96885895 122.66119385 138.59248352 C122.66679105 136.24693574 122.67106056 133.90138445 122.67405701 131.55583191 C122.68549589 125.39084645 122.71495514 119.22607396 122.74816895 113.06117249 C122.77889027 106.7669513 122.79256677 100.47269561 122.80767822 94.17842102 C122.83982551 81.83457759 122.89101054 69.49089204 122.9541626 57.14717102 C122.12571052 57.9765449 121.29725843 58.80591877 120.44370174 59.66042519 C100.76462314 79.36117559 81.08295007 99.05933106 61.39809212 118.75430683 C58.97364798 121.18000163 56.54922569 123.60571825 54.12481689 126.03144836 C53.40085176 126.75580696 53.40085176 126.75580696 52.66226108 127.49479906 C44.85402793 135.30737997 37.04756407 143.12172647 29.24175607 150.93673034 C21.22840243 158.95944538 13.21310538 166.9802143 5.1961208 174.99930131 C0.69479421 179.50193113 -3.80564912 184.00543583 -8.3039875 188.51105118 C-12.53950802 192.75336783 -16.77737899 196.99332224 -21.01704979 201.23149109 C-22.57110658 202.78582258 -24.12430903 204.34100881 -25.67658234 205.89712143 C-27.80004334 208.0255758 -29.92658958 210.1509007 -32.0539093 212.27549744 C-32.66385304 212.88835401 -33.27379677 213.50121059 -33.90222365 214.13263857 C-37.79371122 218.01072679 -41.8370488 221.615091 -46.0458374 225.14717102 C-51.6460956 222.49757959 -55.49965406 218.10203133 -59.8583374 213.77217102 C-60.75488037 212.90849915 -61.65142334 212.04482727 -62.57513428 211.15498352 C-63.41753662 210.31967102 -64.25993896 209.48435852 -65.12786865 208.62373352 C-65.90364258 207.86141418 -66.6794165 207.09909485 -67.47869873 206.31367493 C-69.0458374 204.14717102 -69.0458374 204.14717102 -68.93978214 202.33073139 C-67.66561536 199.21843599 -65.68784118 197.41778872 -63.30986023 195.04370117 C-62.56362997 194.29256765 -62.56362997 194.29256765 -61.80232435 193.52625972 C-60.13135952 191.84800496 -58.44987944 190.18070087 -56.76824951 188.51313782 C-55.56863741 187.31273492 -54.36967847 186.11167898 -53.17132568 184.91001892 C-49.91121764 181.64476973 -46.6418374 178.38895003 -43.37061763 175.13483787 C-39.9459715 171.72522616 -36.52942978 168.30751211 -33.1118927 164.89077759 C-27.36579414 159.14837433 -21.61408587 153.41164043 -15.85858154 147.67866516 C-8.48616448 140.33504885 -1.12296372 132.98226447 6.23729801 125.6264677 C12.57654879 119.29120969 18.92005065 112.96021311 25.26422572 106.62988687 C27.29649012 104.60170779 29.32817805 102.5729526 31.35978889 100.54411888 C34.56416146 97.34467114 37.77118551 94.14790345 40.98021698 90.95312881 C42.15325459 89.78458199 43.3254803 88.61521944 44.49680138 87.44495201 C49.88232133 82.0653586 55.27803522 76.76569986 61.06485653 71.81286335 C64.74081879 68.57197918 68.15846856 65.06439866 71.6104126 61.58857727 C72.39815063 60.79942429 73.18588867 60.0102713 73.99749756 59.19720459 C76.48543362 56.7037209 78.96984884 54.20676318 81.4541626 51.70967102 C83.1518467 50.00696515 84.84976118 48.30448895 86.5479126 46.60224915 C90.68599539 42.4532069 94.82120195 38.30131526 98.9541626 34.14717102 C97.65425888 34.14130478 96.35435516 34.13543854 95.01506042 34.12939453 C82.75857027 34.07215621 70.50225734 33.99938846 58.24594784 33.91145611 C51.94500446 33.8667483 45.64412581 33.82749281 39.34307861 33.80073547 C33.26105602 33.77470699 27.17928243 33.73430715 21.09741402 33.68398476 C18.77825584 33.66731309 16.45905459 33.6558007 14.13984489 33.64955711 C10.88880243 33.63991961 7.63839746 33.61186322 4.38751221 33.57954407 C2.95252129 33.5816967 2.95252129 33.5816967 1.48854065 33.58389282 C-4.70033235 33.49700867 -9.95555045 32.87022656 -14.7880249 28.61201477 C-19.23184308 22.62052199 -19.8022841 18.57505734 -19.0458374 11.14717102 C-16.86794833 6.71073032 -14.13148314 3.90498189 -10.0458374 1.14717102 C-6.69503499 0.02368839 -3.51651301 0.01394913 0 0 Z " fill="#000000" transform="translate(69.04583740234375,286.8528289794922)"/>
<path d="M0 0 C5.60025819 2.64959143 9.45381666 7.04513969 13.8125 11.375 C15.15731445 12.67050781 15.15731445 12.67050781 16.52929688 13.9921875 C17.37169922 14.8275 18.21410156 15.6628125 19.08203125 16.5234375 C19.85780518 17.28575684 20.6335791 18.04807617 21.43286133 18.83349609 C23 21 23 21 22.89394474 22.81643963 C21.61977795 25.92873503 19.64200378 27.7293823 17.26402283 30.10346985 C16.51779257 30.85460337 16.51779257 30.85460337 15.75648695 31.6209113 C14.08552212 33.29916606 12.40404204 34.96647015 10.72241211 36.6340332 C9.52280001 37.8344361 8.32384107 39.03549204 7.12548828 40.2371521 C3.86538024 43.50240129 0.596 46.75822099 -2.67521977 50.01233315 C-6.0998659 53.42194486 -9.51640762 56.83965891 -12.9339447 60.25639343 C-18.68004326 65.99879669 -24.43175153 71.73553059 -30.18725586 77.46850586 C-37.55967292 84.81212217 -44.92287368 92.16490655 -52.28313541 99.52070332 C-58.62238619 105.85596133 -64.96588805 112.18695792 -71.31006312 118.51728415 C-73.34232752 120.54546323 -75.37401545 122.57421842 -77.4056263 124.60305214 C-80.60999886 127.80249988 -83.81702291 130.99926758 -87.02605438 134.19404221 C-88.19909199 135.36258903 -89.3713177 136.53195158 -90.54263878 137.70221901 C-95.92815873 143.08181242 -101.32387262 148.38147116 -107.11069393 153.33430767 C-110.78665619 156.57519184 -114.20430597 160.08277236 -117.65625 163.55859375 C-118.83785706 164.74232323 -118.83785706 164.74232323 -120.04333496 165.94996643 C-122.53127102 168.44345012 -125.01568624 170.94040784 -127.5 173.4375 C-129.1976841 175.14020587 -130.89559858 176.84268207 -132.59375 178.54492188 C-136.7318328 182.69396412 -140.86703935 186.84585576 -145 191 C-143.70009628 191.00586624 -142.40019257 191.01173248 -141.06089783 191.01777649 C-128.80440767 191.07501481 -116.54809475 191.14778256 -104.29178524 191.23571491 C-97.99084187 191.28042272 -91.68996322 191.31967821 -85.38891602 191.34643555 C-79.30689342 191.37246403 -73.22511983 191.41286387 -67.14325142 191.46318626 C-64.82409324 191.47985793 -62.50489199 191.49137032 -60.1856823 191.49761391 C-56.93463983 191.50725141 -53.68423486 191.5353078 -50.43334961 191.56762695 C-48.99835869 191.56547432 -48.99835869 191.56547432 -47.53437805 191.5632782 C-41.34550505 191.65016235 -36.09028695 192.27694446 -31.2578125 196.53515625 C-26.81399433 202.52664903 -26.2435533 206.57211368 -27 214 C-29.17788907 218.4364407 -31.91435426 221.24218913 -36 224 C-39.35080241 225.12348263 -42.52932439 225.13322189 -46.0458374 225.14717102 C-47.28506958 225.15432632 -48.52430176 225.16148163 -49.80108643 225.16885376 C-51.17175268 225.17169381 -52.5424192 225.17440557 -53.91308594 225.17700195 C-55.35880699 225.18326954 -56.80452644 225.1899166 -58.25024414 225.19691467 C-62.99494309 225.21792178 -67.73964224 225.22831368 -72.484375 225.23828125 C-74.1198961 225.24233001 -75.75541704 225.24644697 -77.39093781 225.25063133 C-85.07534402 225.26967537 -92.75974068 225.28390825 -100.44416595 225.2922433 C-109.30523796 225.30201421 -118.16606008 225.32833308 -127.02704406 225.36874419 C-133.88239683 225.39893237 -140.73767808 225.41371472 -147.59309602 225.41702431 C-151.68465158 225.41937164 -155.77593993 225.42829059 -159.86742401 225.45348549 C-163.71871206 225.47681887 -167.56955794 225.48097856 -171.42089844 225.47072411 C-172.83015669 225.47022991 -174.23943711 225.4765159 -175.64862823 225.49028015 C-184.04300422 225.56764944 -191.09715423 225.59322425 -197.54494858 219.55261707 C-201.77667027 214.83448369 -202.12341262 211.1180593 -202.14044189 204.98539734 C-202.14615204 203.75313416 -202.15186218 202.52087097 -202.15774536 201.25126648 C-202.15899063 199.88845835 -202.16011574 198.52565011 -202.16113281 197.1628418 C-202.16576296 195.72535068 -202.17078788 194.28786078 -202.17617798 192.85037231 C-202.18928476 188.94737154 -202.19574353 185.04438796 -202.20018864 181.14136863 C-202.20312204 178.70167864 -202.20722735 176.26199332 -202.21169281 173.82230568 C-202.22536299 166.18541889 -202.23503208 158.54854281 -202.2388947 150.91164464 C-202.24337492 142.10267825 -202.26092308 133.29386706 -202.2898953 124.48494786 C-202.31152583 117.67122286 -202.32159971 110.85754149 -202.32293582 104.04378253 C-202.32398283 99.97634429 -202.32986855 95.90905204 -202.34775543 91.84165001 C-202.36425999 88.01422001 -202.36638017 84.18704539 -202.35761642 80.35959244 C-202.35684733 78.95798495 -202.36117194 77.55636359 -202.37107468 76.15479088 C-202.47425803 60.63585143 -202.47425803 60.63585143 -196.3125 54.1875 C-191.25605322 50.84833703 -186.85309225 49.37940849 -180.8125 50.5625 C-175.8047867 52.10409017 -173.16407776 55.17913077 -170.38456726 59.52688599 C-168.51421271 64.21857182 -168.60321912 68.31595182 -168.65942383 73.31982422 C-168.65876671 74.85732582 -168.65876671 74.85732582 -168.65809631 76.42588806 C-168.66018064 79.80235059 -168.68349547 83.17831207 -168.70703125 86.5546875 C-168.71262846 88.90023528 -168.71689797 91.24578657 -168.71989441 93.59133911 C-168.73133329 99.75632457 -168.76079254 105.92109706 -168.79400635 112.08599854 C-168.82472767 118.38021972 -168.83840417 124.67447541 -168.85351562 130.96875 C-168.88566291 143.31259343 -168.93684794 155.65627898 -169 168 C-168.17154792 167.17062613 -167.34309584 166.34125225 -166.48953915 165.48674583 C-146.81046055 145.78599543 -127.12878747 126.08783996 -107.44392952 106.39286419 C-105.01948539 103.96716939 -102.59506309 101.54145277 -100.1706543 99.11572266 C-99.44668917 98.39136406 -99.44668917 98.39136406 -98.70809848 97.65237196 C-90.89986533 89.83979105 -83.09340147 82.02544455 -75.28759348 74.21044068 C-67.27423983 66.18772564 -59.25894278 58.16695672 -51.2419582 50.14786971 C-46.74063161 45.64523989 -42.24018828 41.14173519 -37.7418499 36.63611984 C-33.50632938 32.39380319 -29.26845841 28.15384878 -25.02878761 23.91567993 C-23.47473083 22.36134844 -21.92152837 20.80616221 -20.36925507 19.25004959 C-18.24579406 17.12159522 -16.11924782 14.99627032 -13.9919281 12.87167358 C-13.0770125 11.95238872 -13.0770125 11.95238872 -12.14361376 11.01453245 C-8.25212619 7.13644423 -4.2087886 3.53208002 0 0 Z " fill="#000000" transform="translate(489,0)"/>
</svg>
