<?xml version="1.0" encoding="UTF-8"?>
<svg version="1.1" xmlns="http://www.w3.org/2000/svg" width="512" height="512">
<path d="M0 0 C4.02507323 2.03558967 6.93703743 4.6878148 10.11224365 7.86500549 C10.84650759 8.5956478 10.84650759 8.5956478 11.59560513 9.34105057 C13.2270465 10.96687695 14.85126915 12.599724 16.47558594 14.23266602 C17.64667802 15.4026847 18.81820304 16.57227019 19.99012756 17.74145508 C23.16587757 20.91236413 26.33535282 24.08947745 29.50360012 27.26788068 C32.81903783 30.59210704 36.13975164 33.91105513 39.45977783 37.23069763 C45.03145175 42.80330755 50.59924149 48.3797744 56.16455078 53.95874023 C62.60452646 60.41446 69.04973261 66.86491947 75.49795127 73.31240517 C81.69779192 79.5116362 87.89477384 85.71371623 94.09015656 91.91740227 C96.72891288 94.55969453 99.36852158 97.20113098 102.00878143 99.84192085 C105.113749 102.9478905 108.21616221 106.05638933 111.31658745 109.16689301 C112.45699259 110.31022666 113.59825286 111.45270808 114.74041176 112.59428978 C116.29449738 114.14788704 117.84548808 115.70450799 119.39569092 117.26197815 C120.26582195 118.13378503 121.13595299 119.00559191 122.03245163 119.90381718 C124.77312606 122.82367153 125.25677346 124.69689141 125.5 128.625 C125.5721875 129.44226563 125.644375 130.25953125 125.71875 131.1015625 C123.56431587 139.78955229 113.02665515 147.12195785 106.80395508 153.34130859 C105.6860765 154.46218485 104.5684013 155.58326397 103.45091248 156.70452881 C100.43704242 159.7271737 97.41999219 162.74662423 94.40205216 165.76520491 C92.51509605 167.65287438 90.6288548 169.54125517 88.74286461 171.42988968 C82.159629 178.0223518 75.57384072 184.61225118 68.9855957 191.19970703 C62.84783025 197.33686999 56.71568405 203.47960849 50.58610231 209.62494409 C45.31477191 214.90933863 40.03960495 220.18988227 34.76141852 225.4674288 C31.61238019 228.61621214 28.4649154 231.76652999 25.3212986 234.92072678 C22.36998531 237.88170389 19.41393245 240.8378649 16.45414162 243.79036713 C15.36881374 244.87464755 14.2851942 245.96064104 13.2034111 247.0484581 C11.7274485 248.53211976 10.24546433 250.00949401 8.76179504 251.48544312 C7.93389874 252.31388418 7.10600245 253.14232525 6.25301838 253.99587059 C2.97396173 256.91269272 0.94204327 257.9143597 -3.4375 258.3125 C-8.10652451 257.90293645 -10.4769208 256.5230792 -13.75 253.25 C-15.47961418 250.13669448 -15.81350821 247.54334409 -16 244 C-14.78996076 240.00245392 -13.0157882 237.64363398 -10.07699585 234.7162323 C-8.84861244 233.4816629 -8.84861244 233.4816629 -7.59541321 232.22215271 C-6.69558212 231.33310745 -5.79575104 230.44406219 -4.86865234 229.52807617 C-3.91205994 228.57233045 -2.95612857 227.61592273 -2.00080872 226.65890503 C0.58942349 224.06781304 3.18879276 221.48606698 5.78990984 218.90590835 C8.5085662 216.20602145 11.21871429 213.49762135 13.92977905 210.79011536 C19.06257744 205.66663662 24.20297436 200.55085248 29.3461498 195.43779308 C35.20206407 189.61542523 41.04944954 183.78452398 46.89613652 177.95289266 C58.92129727 165.95907915 70.95711716 153.97601826 83 142 C81.53705051 141.99910437 81.53705051 141.99910437 80.04454648 141.99819064 C22.27572626 141.96247176 -35.49304582 141.9057203 -93.2618169 141.82207905 C-100.19391285 141.81204773 -107.12600908 141.80221256 -114.05810547 141.79248047 C-114.74793824 141.79150866 -115.43777101 141.79053686 -116.1485078 141.7895356 C-138.51440302 141.75811946 -160.88028617 141.73965974 -183.24619964 141.72790753 C-206.87824775 141.71541975 -230.51022828 141.6881929 -254.14224374 141.64538693 C-268.30238307 141.62021544 -282.46243286 141.60688538 -296.62259488 141.60857043 C-306.32491734 141.60860012 -316.02714841 141.59402447 -325.72943528 141.56783572 C-331.33212291 141.55314805 -336.93462313 141.54502249 -342.53732681 141.55419731 C-347.66345677 141.56244995 -352.78920922 141.55242401 -357.91528301 141.52766338 C-359.77270426 141.52195312 -361.63016099 141.52303608 -363.48757179 141.53148755 C-366.00766641 141.54197457 -368.52647942 141.52799481 -371.04648781 141.50780869 C-371.77193332 141.51671239 -372.49737883 141.5256161 -373.24480754 141.53478962 C-378.27408777 141.45721617 -381.13445543 140.17104019 -385 137 C-387.8288298 132.7567553 -387.65268001 128.98265471 -387 124 C-384.88406839 120.37268867 -382.889288 118.48144348 -379 117 C-376.39984415 116.80811087 -373.90770098 116.72527448 -371.30820084 116.73828697 C-370.52524519 116.73429091 -369.74228954 116.73029485 -368.93560797 116.72617769 C-366.29622185 116.7151563 -363.65704374 116.71841132 -361.01763916 116.7215271 C-359.11265155 116.71652691 -357.20766606 116.71065194 -355.30268359 116.70397437 C-350.05558467 116.68812683 -344.80853922 116.68474108 -339.56141925 116.68332577 C-333.90770607 116.67964 -328.2540225 116.66448867 -322.60032654 116.65071106 C-312.80080728 116.62840847 -303.00129851 116.61341324 -293.20175934 116.60334396 C-279.03317358 116.58877488 -264.86462438 116.56324306 -250.69606003 116.53501268 C-227.70997968 116.48951245 -204.72389668 116.45289394 -181.73779297 116.421875 C-159.4054268 116.39171714 -137.07307346 116.35738145 -114.74072266 116.31738281 C-114.05248899 116.31615181 -113.36425531 116.31492081 -112.65516608 116.3136525 C-105.74371705 116.30128577 -98.83226818 116.28883404 -91.92081942 116.27632002 C-33.9472313 116.17135973 24.0263733 116.08074692 82 116 C80.09720161 113.93016721 78.19326016 111.86140581 76.28866005 109.79323196 C75.48819216 108.92214049 75.48819216 108.92214049 74.67155319 108.0334512 C70.22649939 103.20949515 65.64293603 98.5480159 60.95849609 93.95605469 C59.26717555 92.28768524 57.57588238 90.61928804 55.88461304 88.9508667 C55.0105418 88.09064659 54.13647057 87.23042648 53.23591232 86.3441391 C49.02669034 82.19731617 44.83176829 78.03607114 40.63527989 73.87637186 C34.2272675 67.5249241 27.81483926 61.17817256 21.38037109 54.85351562 C16.53960031 50.09523212 11.71747773 45.31866115 6.90578079 40.53098297 C5.07721349 38.71782447 3.2423757 36.91096653 1.40113449 35.11067963 C-1.16651611 32.59858223 -3.71150821 30.0654459 -6.25244141 27.52636719 C-7.01186035 26.79368622 -7.7712793 26.06100525 -8.55371094 25.30612183 C-13.18215567 20.62299743 -15.59915411 16.67824905 -16 10 C-15.2556212 5.90591658 -13.06588058 3.4980358 -9.77734375 0.94921875 C-6.38274696 -0.86371976 -3.79545921 -0.48196307 0 0 Z " fill="#000000" transform="translate(387,127)"/>
</svg>
