<?xml version="1.0" encoding="UTF-8"?>
<svg version="1.1" xmlns="http://www.w3.org/2000/svg" width="512" height="512">
<path d="M0 0 C1.12713791 -0.00538554 2.25427582 -0.01077108 3.41556942 -0.01631981 C7.17080545 -0.03056171 10.9256871 -0.02350474 14.68093872 -0.01637268 C17.38213201 -0.02207822 20.08330035 -0.02894319 22.78448486 -0.03717041 C29.34713619 -0.05431984 35.90969161 -0.05520644 42.47235952 -0.04995751 C47.80955655 -0.04590724 53.14672536 -0.04736951 58.48392105 -0.05270576 C59.62569124 -0.0538284 59.62569124 -0.0538284 60.7905275 -0.05497371 C62.33713539 -0.05650527 63.88374328 -0.05804362 65.43035115 -0.05958868 C79.91687928 -0.07329985 94.40335332 -0.06788585 108.8898802 -0.05640347 C122.12463765 -0.04647328 135.35925526 -0.05941048 148.59399115 -0.08333766 C162.20424956 -0.10775715 175.81444292 -0.11732949 189.42472279 -0.11068493 C197.05752131 -0.10719894 204.69021234 -0.10938363 212.32299423 -0.12693596 C218.82077665 -0.1416937 225.31837586 -0.14224701 231.81615482 -0.12486505 C235.12718629 -0.11638152 238.43762394 -0.11632734 241.74868011 -0.1295166 C245.34822099 -0.14275685 248.94688298 -0.13115064 252.54638672 -0.11352539 C253.57851315 -0.1231304 254.61063959 -0.1327354 255.67404258 -0.14263147 C269.4699033 -0.00435073 280.16755378 5.43840271 290.150177 14.70018005 C302.52106196 27.77130378 302.83303381 42.07713806 302.69314575 59.05174255 C302.68754262 61.05526917 302.68327591 63.05879993 302.68028259 65.06233215 C302.66889029 70.30664138 302.63947199 75.55069686 302.60617065 80.79490662 C302.5753481 86.15782744 302.56175133 91.52078972 302.54666138 96.8837738 C302.51459646 107.38518668 302.46346878 117.88641217 302.400177 128.38768005 C303.42643188 128.37673561 303.42643188 128.37673561 304.47341919 128.36557007 C305.37221802 128.35989517 306.27101685 128.35422028 307.197052 128.34837341 C308.08747192 128.34107712 308.97789185 128.33378082 309.89529419 128.32626343 C320.94189683 128.59711245 330.3541388 135.46709428 338.150177 142.70018005 C350.42921603 155.67425902 350.84619099 169.93553613 350.80422974 186.79344177 C350.80993813 188.8640937 350.8169042 190.93474249 350.82502747 193.00538635 C350.84292261 198.60877263 350.84179725 204.21200199 350.83608508 209.81540823 C350.83298779 214.50211937 350.83909174 219.1888006 350.84512383 223.87550747 C350.85915565 234.93671937 350.85761908 245.997854 350.84622192 257.05906677 C350.83474347 268.45054415 350.84881499 279.84178603 350.8756184 291.23323238 C350.8978073 301.03228339 350.90440553 310.83126064 350.89854199 320.63033497 C350.89517869 326.47462615 350.89754578 332.31876641 350.91479301 338.16303635 C350.93031075 343.66088317 350.92625295 349.15838234 350.90748787 354.65621567 C350.90381528 356.66687964 350.90687137 358.67756964 350.91737366 360.68820953 C351.00183044 378.2026338 348.37222362 390.89702485 336.087677 404.13768005 C324.72154562 414.89491154 312.27789563 416.84264854 297.15582275 416.77536011 C295.62131482 416.77953841 294.08680999 416.78501865 292.55231082 416.79167992 C288.35662407 416.80608815 284.16113452 416.80190433 279.96543717 416.79451311 C275.43226181 416.78977225 270.89912855 416.8022994 266.3659668 416.81253052 C257.49322947 416.82970595 248.62056299 416.83056112 239.74781336 416.82531761 C232.53418837 416.8212723 225.32058429 416.82272377 218.1069603 416.82806587 C216.56553809 416.82918851 216.56553809 416.82918851 214.99297603 416.83033382 C212.90521614 416.83186533 210.81745626 416.83340368 208.72969638 416.83494879 C189.16140121 416.84866932 169.59314604 416.8432393 150.02485178 416.83176357 C132.13420929 416.82183194 114.24367023 416.83477147 96.35304369 416.85869776 C77.96961667 416.88309732 59.5862378 416.89269451 41.20279491 416.88604504 C30.88722213 416.88255469 20.57172888 416.88477271 10.25616837 416.90229607 C1.47469926 416.91702874 -7.3066343 416.91763953 -16.08810078 416.90022516 C-20.56558095 416.89172154 -25.0428191 416.88954995 -29.52028656 416.90487671 C-33.62491168 416.91875288 -37.72908809 416.91392333 -41.83368744 416.89463747 C-43.31272959 416.8908861 -44.79180793 416.89377442 -46.27081774 416.90424912 C-62.1712691 417.00878735 -73.66953273 412.9120358 -85.349823 402.07518005 C-94.92397401 391.95909597 -98.06646518 380.40691904 -97.98750305 366.78785706 C-97.99288859 365.66071915 -97.99827413 364.53358124 -98.00382286 363.37228763 C-98.01806476 359.61705161 -98.01100779 355.86216996 -98.00387573 352.10691833 C-98.00958127 349.40572505 -98.01644625 346.7045567 -98.02467346 344.00337219 C-98.04182289 337.44072086 -98.04270949 330.87816544 -98.03746056 324.31549753 C-98.03341029 318.9783005 -98.03487256 313.6411317 -98.04020882 308.303936 C-98.04095724 307.54275588 -98.04170566 306.78157575 -98.04247676 305.99732956 C-98.04400833 304.45072166 -98.04554667 302.90411378 -98.04709173 301.3575059 C-98.0608029 286.87097778 -98.0553889 272.38450374 -98.04390652 257.89797686 C-98.03397633 244.6632194 -98.04691353 231.4286018 -98.07084071 218.19386591 C-98.09526021 204.58360749 -98.10483254 190.97341414 -98.09818798 177.36313426 C-98.09470199 169.73033574 -98.09688669 162.09764471 -98.11443901 154.46486282 C-98.12919675 147.96708041 -98.12975007 141.46948119 -98.1123681 134.97170223 C-98.10388457 131.66067076 -98.10383039 128.35023312 -98.11701965 125.03917694 C-98.1302599 121.43963606 -98.1186537 117.84097407 -98.10102844 114.24147034 C-98.11063345 113.2093439 -98.12023846 112.17721747 -98.13013452 111.11381447 C-97.99185379 97.31795375 -92.54910034 86.62030328 -83.287323 76.63768005 C-73.4771379 67.35304059 -62.78929299 64.12837251 -49.599823 64.38768005 C-49.62077026 63.66290466 -49.64171753 62.93812927 -49.66329956 62.19139099 C-49.74752995 58.84030077 -49.79881804 55.48943435 -49.849823 52.13768005 C-49.88333862 50.9981488 -49.91685425 49.85861755 -49.9513855 48.68455505 C-50.11737868 34.07715464 -45.13624612 23.25314672 -35.287323 12.63768005 C-25.17123891 3.06352904 -13.61906199 -0.07896212 0 0 Z M-13.537323 38.13768005 C-17.36094646 44.16278368 -17.88952636 49.90130415 -17.724823 56.82518005 C-17.71579956 57.55672302 -17.70677612 58.28826599 -17.69747925 59.04197693 C-17.67418453 60.82402303 -17.6383249 62.60589764 -17.599823 64.38768005 C-16.65958786 64.39132568 -15.71935272 64.39497131 -14.75062561 64.39872742 C-5.85058197 64.43581389 3.04912003 64.49373428 11.94890308 64.57158279 C16.52341369 64.61094026 21.09773518 64.64318587 25.6723938 64.65867615 C30.09468454 64.67392054 34.51645495 64.70850226 38.9385128 64.75598907 C40.61798239 64.77072315 42.29752631 64.77871645 43.97706032 64.7795639 C53.40621961 64.78909872 61.78498315 65.1028049 70.400177 69.38768005 C71.2629425 69.77410675 72.12570801 70.16053345 73.01461792 70.55867004 C79.48222545 73.85134095 82.48335274 77.96889397 86.11569214 84.14733887 C97.10955336 102.59292593 112.39764836 121.44551258 133.400177 128.38768005 C156.60915296 133.69005368 181.58086267 132.37463065 205.212677 131.70018005 C206.00900244 131.67794215 206.80532788 131.65570425 207.6257844 131.63279247 C228.58191017 131.03526108 249.49319831 129.94185115 270.400177 128.38768005 C270.46986507 118.1124558 270.52308352 107.83728831 270.55561352 97.56187534 C270.57123085 92.78993917 270.59239687 88.01816538 270.62649536 83.24632263 C270.6592296 78.63624424 270.67705956 74.02632148 270.68480873 69.41613579 C270.69032708 67.66237376 270.70110282 65.90861969 270.71736717 64.15492439 C271.39853533 50.22858 271.39853533 50.22858 266.12495422 37.8269043 C259.79325276 31.91617637 252.01300711 32.09535992 243.90020752 32.12698364 C242.85518723 32.1231581 241.81016695 32.11933255 240.73347938 32.11539108 C237.23837532 32.10508784 233.74343636 32.1090482 230.24832153 32.11302185 C227.73975472 32.1086739 225.23118924 32.10349048 222.72262573 32.09753418 C216.61979047 32.08553237 210.51701588 32.08299173 204.41417111 32.08533444 C199.45207218 32.08711939 194.48998659 32.08536417 189.52788925 32.08111 C188.82094371 32.08051481 188.11399817 32.07991962 187.38563003 32.0793064 C185.94934035 32.07809461 184.51305067 32.07688048 183.07676099 32.07566402 C169.61471376 32.06479387 156.15269158 32.06694845 142.69064294 32.07304887 C130.38487006 32.07821721 118.07917637 32.06696384 105.77341916 32.04795065 C93.12717782 32.02856171 80.48097392 32.02031812 67.83471763 32.0240739 C60.73910089 32.02598439 53.64355152 32.02351329 46.54794693 32.00935936 C39.87486009 31.99618258 33.20195723 31.99871991 26.528862 32.01177025 C24.08154878 32.0141368 21.63422443 32.01139854 19.18692398 32.00314713 C15.84247013 31.99268505 12.49854861 32.00077661 9.15411377 32.01345825 C8.18902142 32.00608397 7.22392906 31.99870968 6.22959149 31.99111193 C-0.81761496 32.04720725 -8.51694274 32.63963244 -13.537323 38.13768005 Z M-61.537323 102.13768005 C-65.79790276 108.85132089 -65.89067997 115.1502114 -65.86051941 122.88764954 C-65.86434496 123.93266982 -65.8681705 124.97769011 -65.87211198 126.05437768 C-65.88241521 129.54948174 -65.87845485 133.0444207 -65.8744812 136.53953552 C-65.87882915 139.04810233 -65.88401258 141.55666782 -65.88996887 144.06523132 C-65.90197068 150.16806659 -65.90451132 156.27084117 -65.90216861 162.37368594 C-65.90038366 167.33578487 -65.90213888 172.29787047 -65.90639305 177.2599678 C-65.90698824 177.96691335 -65.90758343 178.67385889 -65.90819665 179.40222702 C-65.90940844 180.8385167 -65.91062257 182.27480638 -65.91183903 183.71109606 C-65.92270919 197.1731433 -65.9205546 210.63516547 -65.91445418 224.09721412 C-65.90928584 236.40298699 -65.92053921 248.70868069 -65.9395524 261.0144379 C-65.95894135 273.66067923 -65.96718493 286.30688313 -65.96342915 298.95313942 C-65.96151866 306.04875617 -65.96398976 313.14430553 -65.97814369 320.23991013 C-65.99132047 326.91299696 -65.98878315 333.58589983 -65.9757328 340.25899506 C-65.97336625 342.70630827 -65.97610451 345.15363262 -65.98435593 347.60093307 C-65.994818 350.94538692 -65.98672644 354.28930845 -65.9740448 357.63374329 C-65.98141908 358.59883564 -65.98879337 359.56392799 -65.99639112 360.55826557 C-65.94574235 366.92122678 -65.45989118 373.81948403 -61.32491761 378.97824085 C-54.02042878 385.64811971 -44.68178851 384.67554992 -35.45532227 384.64837646 C-34.00376339 384.65139881 -32.5522061 384.65528872 -31.10065162 384.65996903 C-27.12046107 384.67024703 -23.14036062 384.66806772 -19.16016269 384.66378844 C-14.86422171 384.66132086 -10.56830241 384.67033578 -6.27236938 384.67782593 C2.14054971 384.69057408 10.55343689 384.69236647 18.96636401 384.69002566 C25.80489209 384.68824247 32.64341049 384.68999219 39.48193741 384.69425011 C40.45531763 384.6948453 41.42869785 384.69544048 42.43157444 384.69605371 C44.40901612 384.69726546 46.3864578 384.6984796 48.36389948 384.69969609 C66.90771641 384.71057209 85.45151514 384.70840885 103.99533309 384.70231124 C120.95699633 384.69714211 137.91860214 384.70839733 154.88025402 384.72740946 C172.29966568 384.74678489 189.71905017 384.75504437 207.13847268 384.75128621 C216.91686717 384.74937371 226.69521278 384.7518665 236.47359848 384.76600075 C244.79809945 384.77791175 253.12252145 384.77932258 261.4470235 384.76721058 C265.69319718 384.76131992 269.93922639 384.76022763 274.18539047 384.77221298 C278.07526363 384.78306495 281.96487157 384.77997669 285.85473229 384.7659513 C287.25911521 384.76330247 288.66351887 384.76567677 290.06788145 384.77368716 C302.2090325 385.04183147 302.2090325 385.04183147 312.97650135 380.11277467 C318.15107319 374.50513466 318.69910543 367.60638249 318.66087341 360.31739807 C318.66469896 359.53372514 318.66852451 358.7500522 318.67246598 357.9426316 C318.68273667 355.33195987 318.67881517 352.72151052 318.67483521 350.11082458 C318.67918498 348.23279111 318.68436901 346.35475942 318.69032288 344.47673035 C318.70369587 339.38577378 318.70429341 334.29489154 318.70175958 329.20392084 C318.70068867 324.94952991 318.70557632 320.69515394 318.710365 316.44076622 C318.7214544 306.40141227 318.72190083 296.36209575 318.71585083 286.32273865 C318.70981128 275.97592042 318.72212291 265.62923819 318.7434209 255.28244317 C318.7610509 246.38965716 318.76703603 237.49691439 318.76378316 228.60411155 C318.76197233 223.29700705 318.76458651 217.98999955 318.7784977 212.68291092 C318.79109407 207.69075991 318.78911475 202.69882051 318.77608681 197.70667267 C318.77372539 195.87858127 318.77644006 194.05047489 318.78470993 192.22240067 C319.41176559 178.25916972 319.41176559 178.25916972 314.12526417 165.82751656 C308.65488243 160.71964454 301.84537196 160.08731345 294.68934631 160.13612366 C293.9443922 160.13315352 293.1994381 160.13018338 292.43190962 160.12712324 C289.95242089 160.11952548 287.47317202 160.1259597 284.99368286 160.13230896 C283.20930318 160.12955715 281.42492473 160.12587609 279.64054871 160.12133789 C275.80628236 160.11324232 271.97207427 160.11105326 268.13780022 160.11328506 C262.07405219 160.11612264 256.01042023 160.10175054 249.94670105 160.08430481 C232.70684539 160.03731726 215.46699817 160.01333057 198.2270813 160.00682068 C188.69932922 160.00307113 179.17170901 159.98505333 169.64401346 159.95172632 C163.61676427 159.93150584 157.58985501 159.92914479 151.56258571 159.94000649 C147.81358466 159.94261276 144.06478183 159.9286143 140.31583214 159.90992546 C138.57840446 159.90460151 136.84094033 159.90610375 135.10352707 159.91496086 C132.72988528 159.92608507 130.35758407 159.91264869 127.98402405 159.89320374 C126.95517299 159.90689072 126.95517299 159.90689072 125.90553707 159.92085421 C118.94588747 159.81005874 114.90540237 156.13483552 110.19979858 151.36949158 C109.71186829 150.86494446 109.22393799 150.36039734 108.72122192 149.84056091 C108.18860245 149.29859573 107.65598297 148.75663055 107.10722351 148.19824219 C105.95930042 147.02943311 104.81359481 145.85844279 103.66991234 144.68548393 C101.85435858 142.82559471 100.03072701 140.9739939 98.20445251 139.12463379 C93.01547889 133.86874661 87.83491447 128.60479936 82.67532349 123.3200531 C79.51078614 120.07993512 76.331557 116.85486191 73.14263344 113.63875008 C71.93585355 112.41593794 70.7346348 111.18761002 69.53932762 109.95358086 C67.86243002 108.22331272 66.16739032 106.51286409 64.46731567 104.80540466 C63.98545807 104.29883331 63.50360046 103.79226196 63.00714111 103.27033997 C57.13802328 97.46743648 50.15198155 96.06295125 42.09770203 95.98109436 C41.2184758 95.98716705 40.33924957 95.99323975 39.43338013 95.99949646 C38.48091904 95.9942395 37.52845795 95.98898254 36.5471344 95.98356628 C33.42506094 95.97045328 30.30350489 95.97907354 27.181427 95.98924255 C24.99624535 95.98721932 22.81106436 95.98430581 20.62588501 95.98054504 C16.05660545 95.97613346 11.48750238 95.98251525 6.91824341 95.99656677 C1.07769977 96.01365777 -4.7624302 96.00381035 -10.60295868 95.98584938 C-15.11212245 95.97498009 -19.62118905 95.97847233 -24.13035583 95.98623276 C-26.28321889 95.98822607 -28.43609092 95.98580622 -30.58894348 95.9787941 C-33.60387356 95.97112782 -36.61814479 95.9828563 -39.63302612 95.99949646 C-40.95186546 95.99038742 -40.95186546 95.99038742 -42.29734802 95.98109436 C-49.1546648 96.05078633 -56.67790818 96.80353961 -61.537323 102.13768005 Z " fill="#000000" transform="translate(129.59982299804688,47.61231994628906)"/>
<path d="M0 0 C4.8846525 2.26787438 7.73212562 5.1153475 10 10 C10.8460523 16.28495998 10.96429042 21.02901538 7.26803589 26.3562851 C4.93848667 29.37600623 2.25307643 32.0240537 -0.44921875 34.70800781 C-1.08711334 35.34940704 -1.72500793 35.99080627 -2.38223267 36.65164185 C-4.47900674 38.75717413 -6.58295879 40.85535832 -8.6875 42.953125 C-10.1522294 44.41920241 -11.61666186 45.88557654 -13.08081055 47.35223389 C-16.14405737 50.41842369 -19.21087851 53.48098074 -22.28027344 56.54101562 C-26.21468002 60.46400808 -30.14001295 64.39593784 -34.06272888 68.330616 C-37.08224762 71.35735839 -40.10650949 74.37932527 -43.13223267 77.3998642 C-44.58178537 78.84808286 -46.02985418 80.29778835 -47.47640991 81.74900055 C-49.49640201 83.77406827 -51.52268836 85.79261991 -53.55078125 87.80957031 C-54.14726471 88.41010223 -54.74374817 89.01063416 -55.35830688 89.62936401 C-60.02745656 94.25107245 -63.11885298 96.28904393 -69.875 96.375 C-75.10748117 96.26055934 -78.13038751 95.77523169 -82 92 C-86.45109507 85.3713908 -90.15007419 78.33665119 -93.78588867 71.23828125 C-94.46928051 69.9147276 -95.16265043 68.59627767 -95.8659668 67.28320312 C-100.29537477 59.00532704 -103.6340722 51.65508775 -102 42 C-99.73212562 37.1153475 -96.8846525 34.26787438 -92 32 C-86.47359771 31.25606123 -81.70836523 31.25453154 -76.5625 33.5 C-73.30399882 36.67902554 -71.19763511 40.04290857 -69 44 C-68.3081029 45.21517769 -67.61481264 46.4295628 -66.92041016 47.64331055 C-66.2866748 48.75101807 -65.65293945 49.85872559 -65 51 C-64.39500671 50.39056549 -63.79001343 49.78113098 -63.16668701 49.15322876 C-57.46308567 43.40954603 -51.75467903 37.67069217 -46.0408287 31.93720436 C-43.10348455 28.989425 -40.16802907 26.03981497 -37.23681641 23.0859375 C-34.40773998 20.23512354 -31.57379976 17.38922915 -28.73642731 14.54667282 C-27.65501667 13.46156808 -26.5753673 12.3747051 -25.49752045 11.28606033 C-23.98702792 9.76104095 -22.47038231 8.24240489 -20.95214844 6.72509766 C-20.09055115 5.85905914 -19.22895386 4.99302063 -18.34124756 4.10073853 C-12.79065582 -0.8796583 -7.20676841 -0.7728438 0 0 Z " fill="#000000" transform="translate(302,272)"/>
<path d="M0 0 C0.73250977 -0.00700928 1.46501953 -0.01401855 2.21972656 -0.02124023 C4.62604382 -0.03875584 7.03117209 -0.02722142 9.4375 -0.01367188 C11.11849186 -0.01636866 12.79948221 -0.02025264 14.48046875 -0.02526855 C17.99754743 -0.03115485 21.5142188 -0.02262896 25.03125 -0.00390625 C29.53052189 0.01888312 34.02883927 0.00575532 38.52807617 -0.01819611 C41.99746847 -0.03267779 45.46663594 -0.02803731 48.93603516 -0.01768494 C50.59456496 -0.01502418 52.25311544 -0.01826444 53.91162109 -0.02760315 C56.23329421 -0.03780834 58.55344011 -0.02221466 60.875 0 C62.19371094 0.00318237 63.51242187 0.00636475 64.87109375 0.00964355 C70.16529367 0.76365389 73.1949097 3.20958834 76.8125 7.01757812 C79.21053575 12.18257821 79.19131535 16.91780692 78.4375 22.51757812 C76.12838725 27.49105174 73.16511365 29.84944159 68.4375 32.51757812 C64.87109375 33.0255127 64.87109375 33.0255127 60.875 33.03515625 C60.14249023 33.04216553 59.40998047 33.0491748 58.65527344 33.05639648 C56.24895618 33.07391209 53.84382791 33.06237767 51.4375 33.04882812 C49.75650814 33.05152491 48.07551779 33.05540889 46.39453125 33.0604248 C42.87745257 33.0663111 39.3607812 33.05778521 35.84375 33.0390625 C31.34447811 33.01627313 26.84616073 33.02940093 22.34692383 33.05335236 C18.87753153 33.06783404 15.40836406 33.06319356 11.93896484 33.05284119 C10.28043504 33.05018043 8.62188456 33.05342069 6.96337891 33.0627594 C4.64170579 33.07296459 2.32155989 33.05737091 0 33.03515625 C-1.31871094 33.03197388 -2.63742187 33.0287915 -3.99609375 33.0255127 C-9.29029367 32.27150236 -12.3199097 29.82556791 -15.9375 26.01757812 C-18.33553575 20.85257804 -18.31631535 16.11734933 -17.5625 10.51757812 C-13.97822937 2.79761062 -8.2761305 0.01997233 0 0 Z " fill="#000000" transform="translate(289.5625,111.482421875)"/>
</svg>
