<?xml version="1.0" encoding="UTF-8"?>
<svg version="1.1" xmlns="http://www.w3.org/2000/svg" width="512" height="512">
<path d="M0 0 C15.9471567 15.66958957 28.2821261 35.43658235 33.85400391 57.25488281 C33.85400391 58.24488281 33.85400391 59.23488281 33.85400391 60.25488281 C34.65580078 60.34125 35.45759766 60.42761719 36.28369141 60.51660156 C71.11293636 64.82089601 100.75490901 82.12682722 122.85400391 109.25488281 C144.59257362 137.77842022 152.71441296 172.98555623 148.13134766 208.4152832 C143.77200071 236.02134879 130.80691118 259.09973888 111.85400391 279.25488281 C111.32806641 279.84527344 110.80212891 280.43566406 110.26025391 281.04394531 C97.46738998 294.81585494 79.29414326 304.68642876 61.66650391 310.69238281 C60.69040161 311.02653198 60.69040161 311.02653198 59.69458008 311.36743164 C46.74971672 315.45056284 33.87912113 316.72503086 20.40869141 316.68847656 C18.89893361 316.69305512 17.38917788 316.69836556 15.87942505 316.70436096 C12.75172314 316.71319258 9.62427808 316.71097702 6.49658203 316.70092773 C2.49980876 316.68933218 -1.49609473 316.70985923 -5.49275398 316.73884487 C-8.5949559 316.75720518 -11.69694791 316.75691683 -14.79919052 316.75120735 C-16.27352004 316.75105474 -17.74786431 316.75704885 -19.22214127 316.76949883 C-21.27690918 316.78444034 -23.33004753 316.77371937 -25.38476562 316.7565918 C-26.54896027 316.75642563 -27.71315491 316.75625946 -28.91262817 316.75608826 C-33.9750421 315.97136178 -37.05689534 313.40130466 -40.52099609 309.75488281 C-42.91903185 304.58988273 -42.89981145 299.85465401 -42.14599609 294.25488281 C-39.9861689 289.60294731 -36.91074567 286.2612085 -32.14599609 284.25488281 C-28.15190215 283.66820525 -24.19291327 283.69758856 -20.16162109 283.71582031 C-18.99201843 283.7040274 -17.82241577 283.6922345 -16.61737061 283.68008423 C-12.87677816 283.64484843 -9.13674065 283.63566971 -5.39599609 283.62988281 C28.38060698 283.47927239 59.76041565 282.4545816 85.85400391 258.25488281 C86.65322266 257.52398437 87.45244141 256.79308594 88.27587891 256.04003906 C103.63151101 241.38004801 114.67747323 219.85380433 116.03100586 198.45678711 C116.43441867 179.51245714 115.20792955 163.52454782 106.85400391 146.25488281 C106.41314453 145.33320313 105.97228516 144.41152344 105.51806641 143.46191406 C93.79510331 120.501746 72.62498873 104.83681179 48.47900391 97.00488281 C40.68281035 94.89248134 32.679146 94.17174738 24.64746094 93.46875 C16.97194011 92.71519256 11.8746232 91.68172332 6.58837891 85.68457031 C4.2506675 81.06179866 3.23905174 76.41199685 2.10400391 71.37988281 C-0.39405605 61.16032679 -3.71261952 52.25826642 -9.14599609 43.25488281 C-9.49533203 42.67561035 -9.84466797 42.09633789 -10.20458984 41.49951172 C-23.39088383 20.16838687 -44.68862923 5.64957408 -68.96533203 -0.27978516 C-95.10218618 -5.85712998 -120.579914 -0.81871764 -143.14599609 13.25488281 C-146.72310857 15.69987724 -149.96283907 18.31869487 -153.14599609 21.25488281 C-153.99677734 22.03734375 -154.84755859 22.81980469 -155.72412109 23.62597656 C-171.06037016 38.34234729 -180.14604808 57.65098142 -184.20849609 78.37988281 C-185.49962253 83.71653875 -187.46565392 86.85286357 -191.66943359 90.36035156 C-196.18811482 92.82277897 -199.95471898 92.98857497 -205.02099609 93.25488281 C-231.37934907 95.239189 -255.04924154 105.06824384 -273.39599609 124.65722656 C-290.10278778 144.79021577 -298.53650354 169.09274275 -297.14599609 195.25488281 C-295.16846547 216.15747705 -287.54649673 234.0481597 -274.14599609 250.25488281 C-273.71158203 250.83496094 -273.27716797 251.41503906 -272.82958984 252.01269531 C-259.65592391 268.92217696 -236.27686921 279.45752429 -215.43170166 282.12838745 C-200.70675202 283.79031752 -185.91031807 283.61284377 -171.10839844 283.63574219 C-167.44871312 283.64523923 -163.78986819 283.67892222 -160.13037109 283.71582031 C-159.01474792 283.71077484 -157.89912476 283.70572937 -156.74969482 283.70053101 C-150.5612427 283.77925704 -146.84496545 284.09810223 -142.14599609 288.25488281 C-138.51765946 292.07418453 -137.83599151 295.13767287 -137.64599609 300.25488281 C-137.83599151 305.37209275 -138.51765946 308.43558109 -142.14599609 312.25488281 C-146.54238901 315.68263408 -149.37677536 316.75733985 -154.93554688 316.77246094 C-155.91279724 316.78297485 -155.91279724 316.78297485 -156.90979004 316.79370117 C-159.05407043 316.81123047 -161.19701566 316.79965893 -163.34130859 316.78613281 C-164.8542404 316.78883375 -166.36717051 316.79272115 -167.88009644 316.79772949 C-171.05597409 316.80362153 -174.23140143 316.79508851 -177.40722656 316.77636719 C-181.41708454 316.75384667 -185.4258655 316.76690607 -189.4356842 316.79012775 C-206.00919657 316.87171007 -222.06197572 316.77922338 -238.14599609 312.25488281 C-239.64767334 311.83940186 -239.64767334 311.83940186 -241.1796875 311.41552734 C-243.4658737 310.71861144 -245.67244829 309.94127895 -247.89599609 309.06738281 C-248.66637207 308.77259033 -249.43674805 308.47779785 -250.23046875 308.17407227 C-281.43328109 295.79744822 -306.70872881 270.97331011 -320.26708984 240.34960938 C-334.24030187 207.04678739 -334.31850904 171.03630159 -320.89599609 137.50488281 C-307.97437647 106.80490917 -282.79627265 82.11513871 -252.14599609 69.25488281 C-240.21773007 64.52388535 -227.0803437 60.25488281 -214.14599609 60.25488281 C-213.86755859 58.30582031 -213.86755859 58.30582031 -213.58349609 56.31738281 C-209.82782786 37.85201401 -199.34862959 21.26703231 -187.14599609 7.25488281 C-186.61232422 6.60003906 -186.07865234 5.94519531 -185.52880859 5.27050781 C-166.57386253 -17.88526413 -136.29907433 -31.8038212 -107.14599609 -35.74511719 C-106.10958984 -35.88691406 -105.07318359 -36.02871094 -104.00537109 -36.17480469 C-65.36722145 -40.23676401 -27.8478222 -26.67535051 0 0 Z " fill="#000000" transform="translate(346.14599609375,115.7451171875)"/>
<path d="M0 0 C1.00804687 -0.02835938 2.01609375 -0.05671875 3.0546875 -0.0859375 C10.30970228 1.00323775 15.3482374 7.30704124 20.30175781 12.27709961 C21.09921417 13.06944504 21.89667053 13.86179047 22.71829224 14.67814636 C25.34341349 17.28940715 27.96107941 19.90799118 30.578125 22.52734375 C32.40299852 24.34832949 34.22809535 26.16909147 36.05340576 27.98963928 C39.87300568 31.80178541 43.68878377 35.61770235 47.50195312 39.4362793 C51.90582719 43.84620244 56.31882121 48.24684637 60.73634076 52.64309686 C64.99421603 56.88122653 69.24369875 61.12766532 73.48995209 65.37744331 C75.2945468 67.18152424 77.10151015 68.98323905 78.91086578 70.78254509 C81.43640509 73.29576994 83.95224573 75.81832238 86.46582031 78.34350586 C87.21596405 79.08600586 87.96610779 79.82850586 88.73898315 80.59350586 C89.76504166 81.63008583 89.76504166 81.63008583 90.81182861 82.68760681 C91.40688831 83.28249877 92.00194801 83.87739073 92.61503983 84.49030972 C96.14992692 88.90245745 96.57183834 93.41027269 96.43359375 98.875 C95.92225842 103.01746345 94.7142128 105.05549641 92.125 108.375 C87.30438294 112.13508131 83.70047864 112.81839624 77.65234375 112.80859375 C71.70990846 111.78910331 67.81289961 108.43378668 63.67041016 104.26098633 C62.90831741 103.4995507 62.90831741 103.4995507 62.13082886 102.72273254 C60.46802109 101.05784949 58.81606942 99.38262617 57.1640625 97.70703125 C56.00744283 96.54481115 54.85015515 95.38325549 53.69223022 94.22233582 C50.65738712 91.17607919 47.63166459 88.12091948 44.60778809 85.06378174 C41.51614568 81.94136308 38.41591409 78.82749822 35.31640625 75.71289062 C29.24419164 69.60857352 23.1815909 63.49481879 17.125 57.375 C17.12353344 58.42598436 17.12206688 59.47696873 17.12055588 60.5598011 C17.08397361 86.12333731 17.0245407 111.68674238 16.94109726 137.25016975 C16.90127469 149.6124201 16.86889852 161.97460648 16.85400391 174.33691406 C16.84100411 185.11092034 16.81408214 195.88478608 16.77038693 206.65871322 C16.74773462 212.36433551 16.73209159 218.06978423 16.73311615 223.77545547 C16.73386053 229.14515086 16.71599902 234.514462 16.68383217 239.884058 C16.67530936 241.85529008 16.67359933 243.82656514 16.67919731 245.79780769 C16.68582286 248.48928229 16.66795152 251.17952916 16.64398193 253.87088013 C16.65174235 254.65104748 16.65950277 255.43121483 16.66749835 256.23502362 C16.58551796 261.43447997 15.38594526 264.35691415 12.125 268.375 C8.30569828 272.00333663 5.24220994 272.68500458 0.125 272.875 C-4.99220994 272.68500458 -8.05569828 272.00333663 -11.875 268.375 C-15.73835012 263.61464028 -16.45329543 259.83376238 -16.39398193 253.87088013 C-16.40148319 253.02862534 -16.40898444 252.18637056 -16.416713 251.31859291 C-16.43696916 248.50397259 -16.42889161 245.69015943 -16.42089844 242.87548828 C-16.42963457 240.85491642 -16.44012049 238.83435148 -16.45222473 236.813797 C-16.48010026 231.33286715 -16.48348906 225.85216287 -16.48250484 220.37117243 C-16.48563259 214.64159237 -16.51124794 208.91211411 -16.53448486 203.18258667 C-16.57505892 192.33487706 -16.59538892 181.48722758 -16.60845876 170.63945377 C-16.624324 158.28883055 -16.66273767 145.93830975 -16.70305204 133.5877459 C-16.78547028 108.18353163 -16.83955041 82.77932016 -16.875 57.375 C-17.52788498 58.03454681 -18.18076996 58.69409363 -18.85343933 59.37362671 C-25.01041155 65.59073339 -31.1745941 71.8005806 -37.34696484 78.00240135 C-40.51991707 81.19100314 -43.69002083 84.38233257 -46.85375977 87.58007812 C-49.90757813 90.66651472 -52.96868664 93.74554501 -56.03496742 96.81959915 C-57.20296641 97.99313717 -58.36832358 99.16931071 -59.53096581 100.34815598 C-61.16108748 102.00008419 -62.80038861 103.64235412 -64.44213867 105.28271484 C-64.91975143 105.77111343 -65.3973642 106.25951202 -65.88945007 106.76271057 C-70.08667292 110.92170811 -73.86719351 112.65602546 -79.75 112.75 C-84.98040581 112.61768319 -87.73827549 111.60164512 -91.875 108.375 C-95.63508131 103.55438294 -96.31839624 99.95047864 -96.30859375 93.90234375 C-95.05061901 86.56982429 -90.0361959 82.11295178 -84.97875977 77.10644531 C-84.1752005 76.29923538 -83.37164124 75.49202545 -82.54373169 74.66035461 C-79.8919637 72.00049623 -77.22951292 69.35162709 -74.56640625 66.703125 C-72.71888483 64.85612229 -70.87188168 63.00860103 -69.02537537 61.1605835 C-65.15776823 57.29209499 -61.28424031 53.42961518 -57.40698242 49.57080078 C-52.92730339 45.1123094 -48.45654037 40.64503051 -43.99056202 36.17281842 C-39.68800926 31.86456831 -35.37975528 27.56207182 -31.06879997 23.26222992 C-29.23700564 21.4342882 -27.406562 19.60499191 -25.57748604 17.77433014 C-23.02343265 15.2199066 -20.46298952 12.67206927 -17.90063477 10.12597656 C-16.76510918 8.98673485 -16.76510918 8.98673485 -15.60664368 7.82447815 C-14.90710571 7.13202499 -14.20756775 6.43957184 -13.48683167 5.72613525 C-12.88234475 5.12370121 -12.27785784 4.52126717 -11.65505314 3.90057755 C-7.92924037 0.70740529 -4.85963195 0.06182738 0 0 Z " fill="#000000" transform="translate(255.875,207.625)"/>
</svg>
