<?xml version="1.0" encoding="UTF-8"?>
<svg version="1.1" xmlns="http://www.w3.org/2000/svg" width="512" height="512">
<path d="M0 0 C1.68502876 -0.0076664 1.68502876 -0.0076664 3.40409851 -0.01548767 C7.09058061 -0.02930456 10.7768741 -0.02843285 14.46337891 -0.02612305 C17.04350859 -0.03001425 19.62363764 -0.03434979 22.20376587 -0.03910828 C27.60185093 -0.04655348 32.99986383 -0.04643122 38.39794922 -0.04101562 C44.60892667 -0.03497964 50.81967737 -0.04728691 57.03061616 -0.06858569 C63.04060571 -0.08842598 69.05047778 -0.09136366 75.06050491 -0.08785057 C77.60164548 -0.08836171 80.14278983 -0.09356026 82.68391037 -0.10366249 C86.24647927 -0.11608873 89.80853223 -0.10919784 93.37109375 -0.09765625 C94.4062764 -0.10529999 95.44145905 -0.11294373 96.50801086 -0.12081909 C114.64199993 0.00811899 130.46223486 7.55192419 143.27197266 20.20825195 C153.44551783 31.22405141 158.56010773 45.00968797 161.39599609 59.55981445 C161.56991882 60.44677002 161.74384155 61.33372559 161.92303467 62.24755859 C162.05236389 62.91650146 162.18169312 63.58544434 162.31494141 64.2746582 C163.04509555 64.27189282 163.77524969 64.26912745 164.52752972 64.26627827 C182.34072517 64.19986014 200.15389572 64.15030088 217.96718884 64.11922169 C226.5817683 64.10379034 235.19626481 64.0827727 243.81079102 64.04833984 C251.32420976 64.01832266 258.83756839 63.99905611 266.35104543 63.99239272 C270.32485197 63.9885012 274.29848663 63.97943464 278.27223778 63.95746803 C282.02246626 63.93690757 285.77245419 63.9308633 289.52273369 63.93533516 C291.53487107 63.9341331 293.54698305 63.9180944 295.55905151 63.90139771 C314.34719221 63.9644165 330.81272821 69.87926631 344.31494141 83.2746582 C356.21690864 97.19425344 361.47373967 112.51833549 361.4553833 130.67799377 C361.45983998 132.06872326 361.45983998 132.06872326 361.4643867 133.48754829 C361.47303515 136.58399326 361.47457869 139.68039939 361.47607422 142.77685547 C361.48070517 145.00145042 361.4857302 147.22604458 361.49111938 149.45063782 C361.50421985 155.48816056 361.51068391 161.52567218 361.51513004 167.56320691 C361.51806495 171.33919183 361.52217058 175.11517375 361.52663422 178.89115715 C361.53873894 189.36301418 361.54912202 199.83486942 361.55250931 210.30673313 C361.55272887 210.97608078 361.55294844 211.64542843 361.55317466 212.33505934 C361.55339294 213.00593435 361.55361122 213.67680936 361.55383611 214.36801392 C361.55427956 215.72727621 361.55472612 217.08653849 361.55517578 218.44580078 C361.55539721 219.12003009 361.55561864 219.7942594 361.55584678 220.48891991 C361.55979039 231.40101108 361.57723312 242.3130353 361.6005353 253.22510064 C361.6243123 264.45093411 361.63645665 275.67673526 361.63787723 286.90259784 C361.63892282 293.19634583 361.64477815 299.48999933 361.66269684 305.78372383 C361.6792389 311.70909094 361.68130327 317.63429317 361.67255783 323.55967522 C361.6717907 325.72591978 361.67608705 327.89217344 361.68601608 330.05839539 C361.77214821 350.03264587 359.80640356 366.96943106 347.31494141 383.2746582 C346.87666016 383.89083008 346.43837891 384.50700195 345.98681641 385.1418457 C336.75057965 397.21572146 320.96528532 404.12951678 306.31494141 406.2746582 C301.91724651 406.54880736 297.53256346 406.54923631 293.12736511 406.53535461 C291.82942357 406.53918016 290.53148203 406.54300571 289.19420892 406.54694718 C285.61616908 406.55717807 282.03822999 406.55505798 278.46018207 406.55076659 C274.5916232 406.54829038 270.72308804 406.55732463 266.85453796 406.56480408 C259.28491356 406.57752854 251.71532466 406.57934756 244.14569136 406.57700381 C237.98995409 406.57521788 231.83422757 406.57697619 225.67849159 406.58122826 C224.36230673 406.58212104 224.36230673 406.58212104 223.01953227 406.58303186 C221.23673611 406.58424366 219.45393996 406.5854578 217.67114381 406.58667424 C200.96609121 406.5975412 184.26105882 406.59539134 167.5560051 406.58928939 C152.29146222 406.58412162 137.02698318 406.59537347 121.76245292 406.61438761 C106.06958532 406.63378466 90.37674789 406.64201869 74.68386823 406.63826436 C65.88125177 406.63635507 57.07868964 406.63881328 48.27608299 406.6529789 C40.78180441 406.66491752 33.28761358 406.66626987 25.79333373 406.65418873 C21.97396912 406.64831727 18.15476482 406.64715226 14.33541107 406.65919113 C10.18463775 406.67212197 6.03424277 406.66154436 1.88346863 406.64888 C0.69083521 406.65625429 -0.50179822 406.66362857 -1.73057204 406.67122632 C-20.15660958 406.55344759 -36.48385302 400.37142386 -49.68505859 387.2746582 C-62.39871105 372.40578042 -66.84051814 356.61431483 -66.82550049 337.44163513 C-66.82847161 336.25313479 -66.83144273 335.06463445 -66.83450389 333.84011894 C-66.84166037 330.55369502 -66.84436135 327.26730303 -66.84510136 323.98087251 C-66.84695852 320.43126812 -66.85450921 316.88167491 -66.86123657 313.33207703 C-66.87479405 305.57560211 -66.88084069 297.81913237 -66.88524723 290.06264758 C-66.88801427 285.21460089 -66.89225248 280.36655617 -66.8967514 275.51851082 C-66.90894114 262.08197244 -66.91924075 248.64543565 -66.9226265 235.20889187 C-66.92284606 234.3496171 -66.92306563 233.49034233 -66.92329185 232.60502893 C-66.92351012 231.74375725 -66.9237284 230.88248557 -66.92395329 229.99511474 C-66.92439675 228.24999837 -66.92484332 226.504882 -66.92529297 224.75976562 C-66.9255144 223.89413697 -66.92573583 223.02850831 -66.92596397 222.13664848 C-66.92990924 208.12063148 -66.94735632 194.10466655 -66.97065249 180.08866965 C-66.99440577 165.68072026 -67.00683017 151.27279697 -67.00799441 136.86482769 C-67.00890899 128.7825668 -67.01460621 120.70037376 -67.03281403 112.61813164 C-67.04826885 105.7338982 -67.05330394 98.84975358 -67.04507592 91.96550607 C-67.04118824 88.45791953 -67.04200591 84.95051157 -67.05613327 81.44294739 C-67.12924892 59.58965564 -66.34896357 41.2320379 -52.68505859 23.2746582 C-51.60224609 21.7587207 -51.60224609 21.7587207 -50.49755859 20.2121582 C-37.56988345 5.39569935 -18.97647224 -0.0452379 0 0 Z M-16.06005859 48.4621582 C-16.99978516 49.28780273 -16.99978516 49.28780273 -17.95849609 50.13012695 C-23.17073673 56.60415435 -23.11658163 63.01008094 -23.07273865 70.99620056 C-23.07812419 72.17260009 -23.08350972 73.34899962 -23.08905846 74.56104761 C-23.10086496 77.81354946 -23.09927836 81.06572157 -23.09189165 84.31822622 C-23.08715448 87.83092383 -23.09967464 91.34356691 -23.10990906 94.85624695 C-23.1270915 101.7327963 -23.12793826 108.60925426 -23.12269615 115.48581951 C-23.11865229 121.075792 -23.12010058 126.6657375 -23.12544441 132.25570869 C-23.12619283 133.05175452 -23.12694126 133.84780034 -23.12771236 134.66796877 C-23.12924386 136.28520819 -23.1307822 137.9024476 -23.13232733 139.519687 C-23.14605028 154.68040654 -23.14061605 169.84107444 -23.12914211 185.0017928 C-23.11920927 198.86669384 -23.13215163 212.73146144 -23.1560763 226.5963419 C-23.18046786 240.83929233 -23.19007508 255.08218061 -23.18342358 269.3251515 C-23.17993157 277.31892341 -23.18216225 285.31259269 -23.19967461 293.3063488 C-23.21439727 300.11100512 -23.21503123 306.91548654 -23.1976037 313.72013944 C-23.18909187 317.19057038 -23.1869482 320.66068888 -23.20225525 324.13110352 C-23.21542177 327.8964087 -23.20395437 331.66086375 -23.18626404 335.4261322 C-23.20067155 337.06490551 -23.20067155 337.06490551 -23.21537012 338.73678535 C-23.14295126 346.22513038 -21.8292395 351.31191925 -17.07958984 357.2980957 C-16.55751953 357.74411133 -16.03544922 358.19012695 -15.49755859 358.6496582 C-14.98837891 359.11114258 -14.47919922 359.57262695 -13.95458984 360.0480957 C-6.73693563 363.94885891 1.75200475 363.55997084 9.72583008 363.52862549 C10.95223552 363.53174547 12.17864096 363.53486545 13.4422102 363.53807998 C16.82505187 363.54465074 20.20766969 363.54232152 23.59049749 363.53610754 C27.24699496 363.5315672 30.9034734 363.53857464 34.55996704 363.54406738 C41.71463287 363.55294617 48.86925666 363.55104613 56.02392411 363.5452421 C61.84028356 363.54071965 67.65663124 363.54011523 73.47299194 363.54228973 C74.3017824 363.5425962 75.13057286 363.54290267 75.98447818 363.54321842 C77.66831279 363.54385789 79.3521474 363.54450632 81.03598201 363.5451636 C96.81383165 363.55086246 112.59165803 363.54431597 128.36950386 363.53356287 C141.89852854 363.52462776 155.4275189 363.52617993 168.95654297 363.53540039 C184.67913153 363.54611087 200.40169972 363.55031318 216.12429142 363.54417586 C217.80182457 363.54353879 219.47935772 363.54291004 221.15689087 363.54228973 C222.39485854 363.54182691 222.39485854 363.54182691 223.65783566 363.54135473 C229.46512256 363.53963012 235.2723965 363.54253784 241.0796814 363.54724884 C248.15979911 363.55286631 255.2398725 363.55132302 262.31998515 363.54068735 C265.93021251 363.53544229 269.54036604 363.53335396 273.1505928 363.53998566 C277.06845425 363.54707344 280.98619561 363.53859254 284.90405273 363.52862549 C286.03898257 363.53308693 287.17391241 363.53754838 288.34323406 363.54214501 C297.91169518 363.49494922 305.54326002 363.01854017 312.65087891 356.20825195 C315.77105898 352.5826906 317.19363648 349.17510212 317.50244141 344.3371582 C317.44056641 343.6565332 317.37869141 342.9759082 317.31494141 342.2746582 C316.65494141 342.2746582 315.99494141 342.2746582 315.31494141 342.2746582 C315.31770679 341.15851891 315.32047216 340.04237961 315.32332134 338.89241791 C315.3899199 311.73434462 315.43921866 284.57628193 315.47037792 257.41814423 C315.48584681 244.28467405 315.50693685 231.15125782 315.54125977 218.01782227 C315.57116133 206.57073127 315.59051625 195.12367935 315.59720689 183.67655039 C315.60111783 177.61538767 315.61030977 171.55433673 315.63213158 165.49320984 C315.65250855 159.78710974 315.65877269 154.08116736 315.65426445 148.37503433 C315.6550891 146.28206144 315.66104744 144.18908322 315.67255783 142.09614182 C315.68752074 139.23484085 315.68388102 136.37413255 315.67570496 133.51281738 C315.68444348 132.68789339 315.693182 131.86296939 315.70218533 131.0130477 C315.65356647 124.70236504 314.53894031 119.16283778 310.58837891 114.0324707 C309.96189453 113.49364258 309.33541016 112.95481445 308.68994141 112.3996582 C308.07892578 111.84536133 307.46791016 111.29106445 306.83837891 110.7199707 C298.80016584 106.11604062 289.01787901 106.98632547 280.06811523 107.00341797 C278.53959375 106.99902421 277.01107467 106.9937197 275.4825592 106.98757935 C272.20709078 106.97613235 268.93168659 106.97062388 265.6561985 106.96969795 C260.474409 106.96774853 255.29275163 106.94964981 250.11100769 106.92893982 C237.24671051 106.87988051 224.38237784 106.84884721 211.51800537 106.82763672 C201.50613335 106.81110896 191.49437572 106.78830224 181.48258036 106.74461597 C176.33348173 106.72286011 171.18460058 106.71477967 166.03545916 106.71700871 C162.83276587 106.71534072 159.63021452 106.70128559 156.42757225 106.68379593 C154.94493009 106.6782028 153.46225844 106.67770534 151.97961426 106.68273354 C149.95249447 106.68888684 147.92534362 106.67488082 145.89826965 106.65992737 C144.76509213 106.65791604 143.63191462 106.65590471 142.46439838 106.65383244 C136.60510034 105.94841088 132.38978717 103.18373477 128.765625 98.68334961 C125.49699512 93.25616981 123.93821285 86.99359895 122.12744141 80.9621582 C121.69998137 79.58471488 121.2709548 78.20775668 120.84033203 76.83129883 C119.32935805 71.97648591 117.82940595 67.1203828 116.46411133 62.22216797 C114.30894189 54.53282372 111.09659321 49.61928232 104.18994141 45.3371582 C98.36735966 43.18533452 92.93859236 43.12628253 86.80224609 43.12939453 C85.85036911 43.12603592 84.89849213 43.12267731 83.91777039 43.11921692 C80.77410574 43.10972628 77.63049448 43.10776462 74.48681641 43.10668945 C72.29591856 43.10347512 70.10502093 43.10011091 67.91412354 43.09660339 C63.32099917 43.09061653 58.72789361 43.088763 54.13476562 43.08935547 C48.2628119 43.08945696 42.39097944 43.07581584 36.51905441 43.05858326 C31.99275158 43.04743747 27.46647781 43.04543707 22.94016266 43.04596519 C20.77613152 43.04478854 18.61209955 43.04038451 16.44808197 43.03263283 C13.41370786 43.02278273 10.37959357 43.025731 7.34521484 43.03173828 C6.45970444 43.02611877 5.57419403 43.02049927 4.66184998 43.01470947 C-2.60232289 43.05106285 -10.47541951 43.31345086 -16.06005859 48.4621582 Z " fill="#000000" transform="translate(108.68505859375,52.725341796875)"/>
<path d="M0 0 C0.75410156 -0.01933594 1.50820313 -0.03867188 2.28515625 -0.05859375 C11.62553138 1.68842781 17.49237041 8.41715194 23.89453125 14.8984375 C24.92900499 15.93275598 25.96414796 16.96640553 26.99992371 17.99942017 C29.15862506 20.15674365 31.31024394 22.3208148 33.45678711 24.49023438 C36.19970565 27.26158909 38.95797156 30.01704323 41.72148609 32.76784325 C43.85731827 34.89670167 45.98568812 37.03289589 48.11182213 39.17143631 C49.12599545 40.19010386 50.14223525 41.2067186 51.16062355 42.22117233 C52.58426656 43.6418853 53.99706893 45.07343589 55.40942383 46.50537109 C56.21358231 47.31493256 57.01774078 48.12449402 57.8462677 48.95858765 C62.96128614 55.02184633 63.52608357 60.31358469 63.35546875 68.015625 C62.60723711 74.1413345 59.8693843 77.5056157 55.625 81.75 C49.41540775 85.64904629 43.37555249 87.65694207 36.00390625 86.00390625 C31.82430303 84.69217892 28.932785 82.74711578 25.68359375 79.81640625 C24.62483032 78.86809937 24.62483032 78.86809937 23.54467773 77.90063477 C23.01430908 77.41780029 22.48394043 76.93496582 21.9375 76.4375 C21.92870064 77.45988014 21.92870064 77.45988014 21.91972351 78.50291443 C21.85557101 85.6251761 21.77109516 92.74699504 21.67504883 99.86889648 C21.64027337 102.52355803 21.61382813 105.17792896 21.59106445 107.83276367 C21.55736211 111.65833852 21.50503604 115.4832853 21.44921875 119.30859375 C21.44282883 120.48707382 21.4364389 121.66555389 21.42985535 122.87974548 C21.29710659 130.39421672 20.86046609 137.63128981 16.140625 143.77734375 C10.1760029 148.65640463 4.9647202 150.96690945 -2.95703125 150.67578125 C-10.35662221 149.83835073 -14.80221636 147.40690792 -19.65234375 141.765625 C-23.82832639 134.87120491 -23.40060479 127.32115985 -23.4765625 119.50390625 C-23.49592865 118.27083237 -23.5152948 117.03775848 -23.5352478 115.76731873 C-23.59482952 111.84494861 -23.64134388 107.92254881 -23.6875 104 C-23.72463969 101.33395297 -23.76475221 98.66796095 -23.8046875 96.00195312 C-23.90051359 89.48057633 -23.9856235 82.95912623 -24.0625 76.4375 C-24.59286865 76.92033447 -25.1232373 77.40316895 -25.66967773 77.90063477 C-26.37552002 78.53283936 -27.0813623 79.16504395 -27.80859375 79.81640625 C-28.5039624 80.44361572 -29.19933105 81.0708252 -29.91577148 81.71704102 C-34.06360394 85.04125065 -38.23593196 86.20072266 -43.4375 86.875 C-50.1421804 86.06581443 -56.01567488 84.1068733 -60.5625 78.9375 C-64.23319512 74.24242484 -65.38815721 70.71385292 -65.5 64.6875 C-65.53996094 63.51703125 -65.57992187 62.3465625 -65.62109375 61.140625 C-64.19511743 51.68729949 -56.29475881 45.18055935 -49.828125 38.69921875 C-48.82528795 37.68671864 -47.8226674 36.67400406 -46.82025146 35.66108704 C-44.72757196 33.55054614 -42.62888856 31.44619323 -40.52636719 29.34545898 C-37.84699019 26.66638739 -35.18888912 23.96722761 -32.53558731 21.26236248 C-30.47483398 19.16810197 -28.40043369 17.08777214 -26.32207489 15.01099586 C-25.33653883 14.02194552 -24.35580238 13.02808615 -23.38025665 12.02918053 C-16.45505322 4.95373526 -10.24504503 0.01757298 0 0 Z " fill="#000000" transform="translate(257.0625,223.5625)"/>
</svg>
