<?xml version="1.0" encoding="UTF-8"?>
<svg version="1.1" xmlns="http://www.w3.org/2000/svg" width="512" height="512">
<path d="M0 0 C1.46037595 -0.00532652 2.92074642 -0.01239283 4.38110644 -0.02104706 C8.39031102 -0.03968753 12.39914657 -0.03336469 16.40836656 -0.02289402 C20.73362159 -0.01590596 25.05880051 -0.03189696 29.3840332 -0.04489136 C37.85593906 -0.06654328 46.32771066 -0.0664014 54.7996351 -0.05826581 C61.68493394 -0.05196813 68.5701936 -0.05310072 75.45549202 -0.05953789 C76.4351359 -0.06043954 77.41477978 -0.0613412 78.42410984 -0.06227018 C80.41419852 -0.06412136 82.4042872 -0.06598392 84.39437587 -0.06785773 C103.06023336 -0.0844404 121.72601529 -0.07571307 140.39186824 -0.05887216 C157.47138692 -0.04417519 174.55072969 -0.05880274 191.63022571 -0.08764232 C209.1648711 -0.1170301 226.69943528 -0.12801038 244.23410422 -0.11846012 C246.21721207 -0.11743756 248.20031993 -0.11644295 250.18342781 -0.11547661 C251.647038 -0.11476202 251.647038 -0.11476202 253.14021606 -0.114033 C260.01693942 -0.11186803 266.89358596 -0.12167738 273.77029228 -0.13624763 C282.15128706 -0.15375731 290.53205753 -0.15367327 298.91304343 -0.13089598 C303.18942743 -0.11974126 307.46541606 -0.1166189 311.74178314 -0.13519669 C315.65705101 -0.15198693 319.57157824 -0.14567091 323.486798 -0.1209799 C324.90261213 -0.11609133 326.31848584 -0.11962685 327.73425018 -0.13246734 C335.72001601 -0.19966488 340.98464854 -0.16588425 346.8863678 5.5146637 C349.9736592 9.79703564 350.46773878 13.82066565 350.30433655 18.97950745 C349.61423491 23.1652641 347.77160816 26.42994993 344.8863678 29.5146637 C341.05850108 32.24683533 338.43812433 32.89090537 333.76213264 32.89777374 C332.52337226 32.90683038 331.28461188 32.91588702 330.0083133 32.92521811 C328.63653784 32.92011394 327.26476343 32.91472186 325.89299011 32.90907288 C324.43347958 32.91396174 322.97397291 32.92015153 321.51447284 32.92753077 C317.50306867 32.94395413 313.49186072 32.94160752 309.48043466 32.9361558 C305.15448857 32.93348854 300.82859515 32.94801167 296.50267029 32.96025085 C288.02730867 32.98131999 279.55201544 32.98584486 271.07663073 32.98406297 C264.1884523 32.98275608 257.30029523 32.98655575 250.41212082 32.99398804 C248.42906439 32.9960872 246.44600797 32.9981848 244.46295154 33.00028086 C243.47597112 33.00132438 242.48899071 33.00236791 241.47210179 33.00344306 C222.7995877 33.02235144 204.12711287 33.02129341 185.45459317 33.01447374 C168.36854892 33.00889791 151.2826546 33.02972432 134.19664539 33.0628342 C116.6575179 33.09655866 99.11846225 33.11174108 81.57930171 33.10711718 C71.73048192 33.10487121 61.8818007 33.11013415 52.03300858 33.13500977 C43.64833891 33.15600682 35.26388379 33.15963078 26.87920536 33.14071018 C22.60079674 33.13154241 18.32278832 33.13044087 14.04441071 33.15106583 C10.1272631 33.16974062 6.21084443 33.16531235 2.29372488 33.14252001 C0.87720361 33.13832533 -0.53937316 33.14256358 -1.9558358 33.15611595 C-9.94395532 33.2273353 -15.21059242 33.19826696 -21.1136322 27.5146637 C-24.68137535 22.56585868 -24.94577097 17.41443404 -24.1136322 11.5146637 C-22.67036622 7.21748194 -20.09394958 3.77056667 -16.22927368 1.32952893 C-11.1356227 -0.63235314 -5.38438827 -0.03413488 0 0 Z " fill="#ffffff" transform="translate(93.11363220214844,367.48533630371094)"/>
<path d="M0 0 C1.46037595 -0.00532652 2.92074642 -0.01239283 4.38110644 -0.02104706 C8.39031102 -0.03968753 12.39914657 -0.03336469 16.40836656 -0.02289402 C20.73362159 -0.01590596 25.05880051 -0.03189696 29.3840332 -0.04489136 C37.85593906 -0.06654328 46.32771066 -0.0664014 54.7996351 -0.05826581 C61.68493394 -0.05196813 68.5701936 -0.05310072 75.45549202 -0.05953789 C76.4351359 -0.06043954 77.41477978 -0.0613412 78.42410984 -0.06227018 C80.41419852 -0.06412136 82.4042872 -0.06598392 84.39437587 -0.06785773 C103.06023336 -0.0844404 121.72601529 -0.07571307 140.39186824 -0.05887216 C157.47138692 -0.04417519 174.55072969 -0.05880274 191.63022571 -0.08764232 C209.1648711 -0.1170301 226.69943528 -0.12801038 244.23410422 -0.11846012 C246.21721207 -0.11743756 248.20031993 -0.11644295 250.18342781 -0.11547661 C251.647038 -0.11476202 251.647038 -0.11476202 253.14021606 -0.114033 C260.01693942 -0.11186803 266.89358596 -0.12167738 273.77029228 -0.13624763 C282.15128706 -0.15375731 290.53205753 -0.15367327 298.91304343 -0.13089598 C303.18942743 -0.11974126 307.46541606 -0.1166189 311.74178314 -0.13519669 C315.65705101 -0.15198693 319.57157824 -0.14567091 323.486798 -0.1209799 C324.90261213 -0.11609133 326.31848584 -0.11962685 327.73425018 -0.13246734 C335.72001601 -0.19966488 340.98464854 -0.16588425 346.8863678 5.5146637 C349.9736592 9.79703564 350.46773878 13.82066565 350.30433655 18.97950745 C349.61423491 23.1652641 347.77160816 26.42994993 344.8863678 29.5146637 C341.05850108 32.24683533 338.43812433 32.89090537 333.76213264 32.89777374 C332.52337226 32.90683038 331.28461188 32.91588702 330.0083133 32.92521811 C328.63653784 32.92011394 327.26476343 32.91472186 325.89299011 32.90907288 C324.43347958 32.91396174 322.97397291 32.92015153 321.51447284 32.92753077 C317.50306867 32.94395413 313.49186072 32.94160752 309.48043466 32.9361558 C305.15448857 32.93348854 300.82859515 32.94801167 296.50267029 32.96025085 C288.02730867 32.98131999 279.55201544 32.98584486 271.07663073 32.98406297 C264.1884523 32.98275608 257.30029523 32.98655575 250.41212082 32.99398804 C248.42906439 32.9960872 246.44600797 32.9981848 244.46295154 33.00028086 C243.47597112 33.00132438 242.48899071 33.00236791 241.47210179 33.00344306 C222.7995877 33.02235144 204.12711287 33.02129341 185.45459317 33.01447374 C168.36854892 33.00889791 151.2826546 33.02972432 134.19664539 33.0628342 C116.6575179 33.09655866 99.11846225 33.11174108 81.57930171 33.10711718 C71.73048192 33.10487121 61.8818007 33.11013415 52.03300858 33.13500977 C43.64833891 33.15600682 35.26388379 33.15963078 26.87920536 33.14071018 C22.60079674 33.13154241 18.32278832 33.13044087 14.04441071 33.15106583 C10.1272631 33.16974062 6.21084443 33.16531235 2.29372488 33.14252001 C0.87720361 33.13832533 -0.53937316 33.14256358 -1.9558358 33.15611595 C-9.94395532 33.2273353 -15.21059242 33.19826696 -21.1136322 27.5146637 C-24.68137535 22.56585868 -24.94577097 17.41443404 -24.1136322 11.5146637 C-22.67036622 7.21748194 -20.09394958 3.77056667 -16.22927368 1.32952893 C-11.1356227 -0.63235314 -5.38438827 -0.03413488 0 0 Z " fill="#ffffff" transform="translate(93.11363220214844,239.48533630371094)"/>
<path d="M0 0 C1.46037595 -0.00532652 2.92074642 -0.01239283 4.38110644 -0.02104706 C8.39031102 -0.03968753 12.39914657 -0.03336469 16.40836656 -0.02289402 C20.73362159 -0.01590596 25.05880051 -0.03189696 29.3840332 -0.04489136 C37.85593906 -0.06654328 46.32771066 -0.0664014 54.7996351 -0.05826581 C61.68493394 -0.05196813 68.5701936 -0.05310072 75.45549202 -0.05953789 C76.4351359 -0.06043954 77.41477978 -0.0613412 78.42410984 -0.06227018 C80.41419852 -0.06412136 82.4042872 -0.06598392 84.39437587 -0.06785773 C103.06023336 -0.0844404 121.72601529 -0.07571307 140.39186824 -0.05887216 C157.47138692 -0.04417519 174.55072969 -0.05880274 191.63022571 -0.08764232 C209.1648711 -0.1170301 226.69943528 -0.12801038 244.23410422 -0.11846012 C246.21721207 -0.11743756 248.20031993 -0.11644295 250.18342781 -0.11547661 C251.647038 -0.11476202 251.647038 -0.11476202 253.14021606 -0.114033 C260.01693942 -0.11186803 266.89358596 -0.12167738 273.77029228 -0.13624763 C282.15128706 -0.15375731 290.53205753 -0.15367327 298.91304343 -0.13089598 C303.18942743 -0.11974126 307.46541606 -0.1166189 311.74178314 -0.13519669 C315.65705101 -0.15198693 319.57157824 -0.14567091 323.486798 -0.1209799 C324.90261213 -0.11609133 326.31848584 -0.11962685 327.73425018 -0.13246734 C335.72001601 -0.19966488 340.98464854 -0.16588425 346.8863678 5.5146637 C349.9736592 9.79703564 350.46773878 13.82066565 350.30433655 18.97950745 C349.61423491 23.1652641 347.77160816 26.42994993 344.8863678 29.5146637 C341.05850108 32.24683533 338.43812433 32.89090537 333.76213264 32.89777374 C332.52337226 32.90683038 331.28461188 32.91588702 330.0083133 32.92521811 C328.63653784 32.92011394 327.26476343 32.91472186 325.89299011 32.90907288 C324.43347958 32.91396174 322.97397291 32.92015153 321.51447284 32.92753077 C317.50306867 32.94395413 313.49186072 32.94160752 309.48043466 32.9361558 C305.15448857 32.93348854 300.82859515 32.94801167 296.50267029 32.96025085 C288.02730867 32.98131999 279.55201544 32.98584486 271.07663073 32.98406297 C264.1884523 32.98275608 257.30029523 32.98655575 250.41212082 32.99398804 C248.42906439 32.9960872 246.44600797 32.9981848 244.46295154 33.00028086 C243.47597112 33.00132438 242.48899071 33.00236791 241.47210179 33.00344306 C222.7995877 33.02235144 204.12711287 33.02129341 185.45459317 33.01447374 C168.36854892 33.00889791 151.2826546 33.02972432 134.19664539 33.0628342 C116.6575179 33.09655866 99.11846225 33.11174108 81.57930171 33.10711718 C71.73048192 33.10487121 61.8818007 33.11013415 52.03300858 33.13500977 C43.64833891 33.15600682 35.26388379 33.15963078 26.87920536 33.14071018 C22.60079674 33.13154241 18.32278832 33.13044087 14.04441071 33.15106583 C10.1272631 33.16974062 6.21084443 33.16531235 2.29372488 33.14252001 C0.87720361 33.13832533 -0.53937316 33.14256358 -1.9558358 33.15611595 C-9.94395532 33.2273353 -15.21059242 33.19826696 -21.1136322 27.5146637 C-24.68137535 22.56585868 -24.94577097 17.41443404 -24.1136322 11.5146637 C-22.67036622 7.21748194 -20.09394958 3.77056667 -16.22927368 1.32952893 C-11.1356227 -0.63235314 -5.38438827 -0.03413488 0 0 Z " fill="#ffffff" transform="translate(93.11363220214844,111.48533630371094)"/>
</svg>
