<?xml version="1.0" encoding="UTF-8"?>
<svg version="1.1" xmlns="http://www.w3.org/2000/svg" width="512" height="512">
<path d="M0 0 C0.91297852 0.16628906 1.82595703 0.33257812 2.76660156 0.50390625 C44.3986228 8.16363077 83.16052206 26.40624883 116 53 C116.54446777 53.44005371 117.08893555 53.88010742 117.64990234 54.33349609 C131.72173929 65.81174863 144.93680647 78.57719064 156 93 C156.75925781 93.93070312 157.51851563 94.86140625 158.30078125 95.8203125 C184.1596216 128.07168914 200.62794761 167.52514646 208 208 C208.16371094 208.83563477 208.32742188 209.67126953 208.49609375 210.53222656 C213.78656862 238.24163521 213.41678597 270.35093304 208 298 C207.83371094 298.91297852 207.66742188 299.82595703 207.49609375 300.76660156 C199.83636923 342.3986228 181.59375117 381.16052206 155 414 C154.55994629 414.54446777 154.11989258 415.08893555 153.66650391 415.64990234 C142.18825137 429.72173929 129.42280936 442.93680647 115 454 C114.06929688 454.75925781 113.13859375 455.51851563 112.1796875 456.30078125 C79.92831086 482.1596216 40.47485354 498.62794761 0 506 C-0.83563477 506.16371094 -1.67126953 506.32742188 -2.53222656 506.49609375 C-30.24163521 511.78656862 -62.35093304 511.41678597 -90 506 C-90.91297852 505.83371094 -91.82595703 505.66742188 -92.76660156 505.49609375 C-134.3986228 497.83636923 -173.16052206 479.59375117 -206 453 C-206.54446777 452.55994629 -207.08893555 452.11989258 -207.64990234 451.66650391 C-221.72173929 440.18825137 -234.93680647 427.42280936 -246 413 C-246.75925781 412.06929688 -247.51851562 411.13859375 -248.30078125 410.1796875 C-274.1596216 377.92831086 -290.62794761 338.47485354 -298 298 C-298.16371094 297.16436523 -298.32742188 296.32873047 -298.49609375 295.46777344 C-303.78656862 267.75836479 -303.41678597 235.64906696 -298 208 C-297.83371094 207.08702148 -297.66742188 206.17404297 -297.49609375 205.23339844 C-289.83636923 163.6013772 -271.59375117 124.83947794 -245 92 C-244.55994629 91.45553223 -244.11989258 90.91106445 -243.66650391 90.35009766 C-232.18825137 76.27826071 -219.42280936 63.06319353 -205 52 C-204.06929688 51.24074219 -203.13859375 50.48148438 -202.1796875 49.69921875 C-169.92831086 23.8403784 -130.47485354 7.37205239 -90 0 C-89.16436523 -0.16371094 -88.32873047 -0.32742188 -87.46777344 -0.49609375 C-59.75836479 -5.78656862 -27.64906696 -5.41678597 0 0 Z M-201.52197266 77.72167969 C-202.86760772 78.8854962 -204.22052834 80.04087546 -205.57421875 81.1953125 C-209.7982655 84.85280629 -213.61136907 88.63278977 -217.2109375 92.90625 C-218.43041215 94.3334081 -219.68792852 95.72871479 -220.9765625 97.09375 C-231.87592761 108.66689405 -241.22093418 122.16299562 -249 136 C-249.41991211 136.74556152 -249.83982422 137.49112305 -250.27246094 138.25927734 C-264.31580612 163.48048741 -273.55581017 190.47941177 -278 219 C-278.11859375 219.75506836 -278.2371875 220.51013672 -278.359375 221.28808594 C-287.28979221 281.27603723 -270.0358334 343.7915094 -234.4375 392.375 C-229.90446779 398.24659063 -225.13191634 403.91426707 -220.27832031 409.52197266 C-219.1145038 410.86760772 -217.95912454 412.22052834 -216.8046875 413.57421875 C-213.14719371 417.7982655 -209.36721023 421.61136907 -205.09375 425.2109375 C-203.6665919 426.43041215 -202.27128521 427.68792852 -200.90625 428.9765625 C-189.33310595 439.87592761 -175.83700438 449.22093418 -162 457 C-161.25443848 457.41991211 -160.50887695 457.83982422 -159.74072266 458.27246094 C-134.51951259 472.31580612 -107.52058823 481.55581017 -79 486 C-77.86739746 486.17789063 -77.86739746 486.17789063 -76.71191406 486.359375 C-16.72396277 495.28979221 45.7915094 478.0358334 94.375 442.4375 C100.24659063 437.90446779 105.91426707 433.13191634 111.52197266 428.27832031 C112.86760772 427.1145038 114.22052834 425.95912454 115.57421875 424.8046875 C119.7982655 421.14719371 123.61136907 417.36721023 127.2109375 413.09375 C128.43041215 411.6665919 129.68792852 410.27128521 130.9765625 408.90625 C141.87592761 397.33310595 151.22093418 383.83700438 159 370 C159.41991211 369.25443848 159.83982422 368.50887695 160.27246094 367.74072266 C174.31580612 342.51951259 183.55581017 315.52058823 188 287 C188.17789063 285.86739746 188.17789063 285.86739746 188.359375 284.71191406 C197.28979221 224.72396277 180.0358334 162.2084906 144.4375 113.625 C139.90446779 107.75340937 135.13191634 102.08573293 130.27832031 96.47802734 C129.1145038 95.13239228 127.95912454 93.77947166 126.8046875 92.42578125 C123.14719371 88.2017345 119.36721023 84.38863093 115.09375 80.7890625 C113.6665919 79.56958785 112.27128521 78.31207148 110.90625 77.0234375 C99.33310595 66.12407239 85.83700438 56.77906582 72 49 C71.25443848 48.58008789 70.50887695 48.16017578 69.74072266 47.72753906 C44.51951259 33.68419388 17.52058823 24.44418983 -11 20 C-11.75506836 19.88140625 -12.51013672 19.7628125 -13.28808594 19.640625 C-81.67641931 9.45964139 -149.95114218 33.08595933 -201.52197266 77.72167969 Z " fill="#ffffff" transform="translate(301,3)"/>
<path d="M0 0 C0.76570313 0.28617188 1.53140625 0.57234375 2.3203125 0.8671875 C17.74384117 7.64321474 31.50450048 22.49577251 37.76660156 37.88378906 C45.30253446 57.89025124 45.12315878 78.63671809 36.46679688 98.22290039 C30.83133872 110.03886228 21.96814935 119.8416283 11 127 C10.01644531 127.65613281 9.03289062 128.31226563 8.01953125 128.98828125 C5.96323267 130.3583121 3.90119786 131.71979485 1.83203125 133.0703125 C-2.68988364 136.15145175 -6.3802866 139.08082127 -9.5625 143.5625 C-10.12066406 144.32691406 -10.67882812 145.09132813 -11.25390625 145.87890625 C-16.73103745 155.66912511 -17.57160863 164.79236284 -17.5625 175.8125 C-17.56612963 177.8884089 -17.57581839 179.96349249 -17.60325623 182.03923035 C-17.62746925 183.90858816 -17.62997132 185.7781908 -17.63110352 187.64770508 C-18.12818005 192.16481819 -19.64886767 195.49874186 -22.6875 198.875 C-26.10524568 200.53768709 -29.32140789 200.6581974 -33 200 C-37.0868498 197.60119686 -38.55129982 195.42514233 -40 191 C-40.4164754 186.90521385 -40.33264644 182.8014615 -40.3125 178.6875 C-40.30512817 176.93832275 -40.30512817 176.93832275 -40.29760742 175.15380859 C-40.00174237 153.24765691 -34.03666684 135.16371159 -18.09375 119.58984375 C-13.75677244 115.7699447 -8.80392641 112.76751712 -3.88916016 109.75415039 C-0.12521813 107.44275369 2.91710259 105.20204321 6 102 C6.66 102 7.32 102 8 102 C8.27070313 101.4225 8.54140625 100.845 8.8203125 100.25 C10.00611863 97.98833002 11.36935146 96.05953997 12.875 94 C20.00795186 83.32673218 21.98128116 70.81978047 20.5625 58.1875 C17.89516935 44.77971791 10.58189298 33.35748928 -0.3359375 25.26953125 C-12.51140218 17.29046459 -26.3320146 14.99901273 -40.51953125 17.66015625 C-52.96092955 21.06936504 -64.34453758 28.29166006 -71.1640625 39.3984375 C-75.7971511 47.55851698 -78.07702471 55.26205113 -78.90161133 64.61645508 C-79.33765778 68.88500122 -79.65162349 70.58680925 -82.51953125 73.98828125 C-83.33808594 74.65214844 -84.15664062 75.31601563 -85 76 C-85.495 76.495 -85.495 76.495 -86 77 C-89.05397552 77.44169067 -91.95030077 77.47716383 -95 77 C-97.75569447 74.81840855 -99.43588747 73.12822506 -101 70 C-102.67973997 52.54171902 -96.67653738 35.28060907 -86 21.5625 C-84.68580798 20.02509597 -83.35376293 18.50267685 -82 17 C-81.45859375 16.37738281 -80.9171875 15.75476563 -80.359375 15.11328125 C-59.56494915 -7.34671755 -27.21746591 -10.30684083 0 0 Z " fill="#ffffff" transform="translate(285,128)"/>
<path d="M0 0 C5.57045439 3.9400775 9.394053 8.31881732 11.5625 14.8125 C12.72712176 22.33078048 10.63748502 27.89630483 6.25 34.0625 C1.94990868 38.46259344 -2.20401252 40.24865 -8.359375 40.8125 C-14.58480368 40.8125 -19.63524067 38.76102433 -24.4375 34.8125 C-29.16949436 29.32594437 -30.88497948 24.56778469 -30.77734375 17.3203125 C-30.04242963 11.89715312 -27.61693948 6.8965592 -23.65234375 3.10546875 C-16.66594683 -2.04162197 -8.16024952 -2.81899529 0 0 Z " fill="#ffffff" transform="translate(265.4375,349.1875)"/>
</svg>
