<?xml version="1.0" encoding="UTF-8"?>
<svg version="1.1" xmlns="http://www.w3.org/2000/svg" width="512" height="512">
<path d="M0 0 C7.91923064 6.45946462 13.67787876 14.83848483 14.76171875 25.15673828 C15.60381228 37.36446292 14.182799 47.11928842 6.54296875 57.07421875 C-3.10386459 67.4631162 -12.35519205 71.35443737 -26.45703125 72.07421875 C-37.3366272 71.53301436 -46.54840467 66.76672246 -54.41015625 59.37890625 C-60.32463506 52.719474 -62.35255099 46.91006084 -63.45703125 38.07421875 C-98.10703125 38.07421875 -132.75703125 38.07421875 -168.45703125 38.07421875 C-168.45703125 102.09421875 -168.45703125 166.11421875 -168.45703125 232.07421875 C-151.95703125 231.74421875 -135.45703125 231.41421875 -118.45703125 231.07421875 C-117.13703125 227.11421875 -115.81703125 223.15421875 -114.45703125 219.07421875 C-112.17625551 215.7176054 -110.17878941 212.98128811 -107.45703125 210.07421875 C-106.93367188 209.50960937 -106.4103125 208.945 -105.87109375 208.36328125 C-98.74620761 201.51643944 -89.11721359 198.41683051 -79.39453125 198.01171875 C-68.0154266 198.25382736 -58.5998272 201.98335932 -50.14453125 209.69921875 C-41.12375103 219.31395981 -38.95652719 230.08313999 -39.18359375 242.734375 C-39.64809562 253.35123201 -44.67003661 261.68425285 -52.3359375 268.82421875 C-61.5865241 276.29944025 -72.72922408 279.12160782 -84.45703125 278.07421875 C-97.23390591 275.44677684 -105.72058586 269.48668516 -113.45703125 259.07421875 C-116.06694593 254.44857746 -117.41211475 250.29880125 -118.45703125 245.07421875 C-143.20703125 244.57921875 -143.20703125 244.57921875 -168.45703125 244.07421875 C-168.45703125 307.76421875 -168.45703125 371.45421875 -168.45703125 437.07421875 C-133.80703125 437.07421875 -99.15703125 437.07421875 -63.45703125 437.07421875 C-62.79703125 434.10421875 -62.13703125 431.13421875 -61.45703125 428.07421875 C-57.39255884 418.5726816 -49.85146739 411.01667459 -40.41015625 406.81640625 C-28.80737118 402.40734792 -17.88542543 403.29817342 -6.45703125 408.07421875 C2.70628964 412.83707481 9.51790197 420.60760717 13.54296875 430.13671875 C16.20230684 439.76595603 16.08163001 452.09688712 11.6796875 461.1015625 C6.1109125 470.76558785 -1.90532798 479.37907795 -12.91796875 482.5390625 C-24.65753725 485.01340232 -35.08641793 484.27028773 -45.70703125 478.44921875 C-54.94846797 472.39704189 -60.17907088 464.5699957 -63.45703125 454.07421875 C-63.45703125 453.08421875 -63.45703125 452.09421875 -63.45703125 451.07421875 C-64.03571583 451.07698413 -64.61440041 451.07974951 -65.21062088 451.08259869 C-79.29034544 451.14884751 -93.37004664 451.19849393 -107.44989395 451.22965527 C-114.25880785 451.24512515 -121.06761772 451.26621686 -127.87646484 451.30053711 C-134.44462606 451.33362839 -141.01270742 451.35106116 -147.58095551 451.35885048 C-150.08964491 451.36440308 -152.59832826 451.37524563 -155.10697174 451.39140892 C-158.61473999 451.41311529 -162.12205846 451.41618846 -165.62988281 451.41479492 C-167.19326134 451.43097366 -167.19326134 451.43097366 -168.78822327 451.44747925 C-169.74452133 451.44335526 -170.7008194 451.43923126 -171.68609619 451.4349823 C-172.51570988 451.43774768 -173.34532356 451.44051306 -174.20007706 451.44336224 C-177.18838177 450.95460034 -178.43044641 450.35110436 -180.45703125 448.07421875 C-180.86184048 445.42695949 -181.00431636 443.18846675 -180.97601318 440.5382843 C-180.98726506 439.3767523 -180.98726506 439.3767523 -180.99874425 438.191755 C-181.01909472 435.58891142 -181.01090466 432.98693287 -181.00292969 430.3840332 C-181.01166073 428.5215366 -181.02214486 426.65904751 -181.03425598 424.79656982 C-181.06219411 419.73280007 -181.06551895 414.66927412 -181.06453609 409.60543847 C-181.0676585 404.31626394 -181.09326263 399.02720032 -181.11651611 393.73808289 C-181.15713131 383.71900714 -181.17742978 373.69999657 -181.19049001 363.68085116 C-181.20634138 352.27586138 -181.24474912 340.87098281 -181.28508329 329.46605742 C-181.36755776 306.00214849 -181.42160269 282.53824253 -181.45703125 259.07421875 C-181.81680054 259.57236084 -182.17656982 260.07050293 -182.54724121 260.58374023 C-223.70703125 317.57421875 -223.70703125 317.57421875 -225.33276367 319.82519531 C-226.41370316 321.32190576 -227.49459526 322.81865043 -228.57543945 324.31542969 C-231.32000665 328.11604512 -234.06545091 331.91602173 -236.8125 335.71484375 C-242.94191596 344.18760904 -242.94191596 344.18760904 -249.0390625 352.68359375 C-249.44294189 353.24788086 -249.84682129 353.81216797 -250.26293945 354.39355469 C-251.05363716 355.50644837 -251.83745554 356.62426459 -252.61401367 357.74707031 C-254.97832259 361.13813425 -257.48359285 364.31014888 -260.17578125 367.44921875 C-266.6259947 374.45094939 -266.6259947 374.45094939 -269.47216797 383.11035156 C-268.42068135 387.57945085 -265.92609135 391.2702603 -263.45703125 395.07421875 C-257.70677489 409.44985966 -260.20953736 427.10217204 -265.98046875 440.97265625 C-273.75698997 457.30746537 -285.71370861 467.50966588 -302.4921875 474.07421875 C-318.78770693 479.57046773 -336.17589834 477.97875933 -351.58203125 470.57421875 C-367.52698493 462.42376775 -377.86762529 449.06077279 -383.45703125 432.07421875 C-387.31825936 416.42820067 -386.05377207 399.48023336 -378.45703125 385.07421875 C-368.95246411 369.91011391 -355.81548777 358.50341416 -338.3359375 353.69921875 C-320.06950294 350.7559866 -303.08378638 352.7934588 -287.45703125 363.07421875 C-284.65884241 365.28167883 -282.01675616 367.59517285 -279.45703125 370.07421875 C-271.22204101 359.89701383 -263.54159569 349.28654669 -256.02709961 338.57104492 C-250.79138414 331.10707679 -245.44739581 323.72315671 -240.09814453 316.34033203 C-237.38054952 312.58777075 -234.66908652 308.83078456 -231.95703125 305.07421875 C-230.87372763 303.57419729 -229.79039429 302.07419729 -228.70703125 300.57421875 C-228.17078125 299.83171875 -227.63453125 299.08921875 -227.08203125 298.32421875 C-224.64453125 294.94921875 -224.64453125 294.94921875 -222.20703125 291.57421875 C-221.67062012 290.83147705 -221.13420898 290.08873535 -220.58154297 289.32348633 C-219.49990857 287.82587621 -218.41820302 286.32831749 -217.33642578 284.83081055 C-214.6015083 281.04466688 -211.86789406 277.2575942 -209.13671875 273.46875 C-208.30624023 272.31729492 -208.30624023 272.31729492 -207.45898438 271.14257812 C-206.43376195 269.72105123 -205.40896282 268.29921887 -204.38476562 266.87695312 C-199.11849997 259.57710952 -193.78063444 252.33367765 -188.45703125 245.07421875 C-243.23703125 244.74421875 -298.01703125 244.41421875 -354.45703125 244.07421875 C-354.45703125 246.38421875 -354.45703125 248.69421875 -354.45703125 251.07421875 C-357.91007263 269.13298172 -367.87236114 284.66287759 -382.3046875 295.9375 C-393.71767034 303.67343757 -406.582661 309.20707061 -420.45703125 310.07421875 C-421.63265625 310.15349609 -421.63265625 310.15349609 -422.83203125 310.234375 C-442.63786137 310.91225311 -460.55041012 303.61475137 -475.58203125 290.94921875 C-484.08938304 282.99640022 -490.42786875 272.97665847 -494.45703125 262.07421875 C-494.77542969 261.24664062 -495.09382813 260.4190625 -495.421875 259.56640625 C-501.04649815 241.78533953 -498.51490462 220.64933167 -490.20703125 204.26171875 C-479.48838507 185.66907771 -463.69418935 173.06094167 -442.95703125 167.390625 C-423.32690359 163.05164861 -403.50229386 166.7150485 -386.30712891 176.86767578 C-381.08465607 180.27351647 -376.76631861 184.60606366 -372.45703125 189.07421875 C-371.79316406 189.70714844 -371.12929688 190.34007812 -370.4453125 190.9921875 C-360.08542988 201.5383152 -355.48818169 216.85616565 -353.45703125 231.07421875 C-299.00703125 231.07421875 -244.55703125 231.07421875 -188.45703125 231.07421875 C-192.74703125 225.13421875 -197.03703125 219.19421875 -201.45703125 213.07421875 C-215.54036458 193.57421875 -229.62369792 174.07421875 -243.70703125 154.57421875 C-244.24336182 153.83163818 -244.77969238 153.08905762 -245.33227539 152.32397461 C-246.41491379 150.82487425 -247.49743345 149.32568813 -248.57983398 147.82641602 C-251.29782948 144.06193707 -254.01791193 140.29899971 -256.7421875 136.5390625 C-264.05713656 126.43741444 -271.28746005 116.27955434 -278.45703125 106.07421875 C-280.96019507 107.31501854 -283.42692878 108.59392493 -285.890625 109.9140625 C-302.28101085 118.58648554 -318.96461455 122.0666995 -337.2421875 117.1640625 C-353.88492623 111.5221134 -366.5535578 100.96644862 -375.08203125 85.57421875 C-383.01460864 68.83622374 -383.32832776 51.45544619 -377.45703125 34.07421875 C-372.01136715 19.47073366 -360.09992703 7.05519137 -346.08203125 0.32421875 C-344.21801161 -0.45266977 -342.34295233 -1.20368244 -340.45703125 -1.92578125 C-339.65136719 -2.24675781 -338.84570312 -2.56773438 -338.015625 -2.8984375 C-323.1765299 -7.89124728 -305.20546248 -5.93047903 -291.21875 0.58203125 C-275.16022766 9.35606506 -264.47616821 22.70955994 -258.58203125 39.94921875 C-255.05460887 54.50247634 -255.90632711 72.28895681 -263.3515625 85.4140625 C-264.60717669 87.45722168 -265.90625027 89.47479954 -267.26171875 91.453125 C-268.71033763 93.96182429 -268.71033763 93.96182429 -268.015625 96.40234375 C-265.79590972 100.20756995 -263.26414699 103.72310029 -260.64453125 107.26171875 C-259.46079693 108.88010552 -258.27720716 110.49859804 -257.09375 112.1171875 C-256.48837402 112.94138184 -255.88299805 113.76557617 -255.25927734 114.61474609 C-252.47113646 118.4196406 -249.71478616 122.24727629 -246.95703125 126.07421875 C-245.87778895 127.56914383 -244.79836113 129.06393501 -243.71875 130.55859375 C-242.9151001 131.67137695 -242.9151001 131.67137695 -242.09521484 132.80664062 C-240.43130031 135.10983559 -238.76652718 137.41240783 -237.1015625 139.71484375 C-231.80020894 147.04755708 -226.51047688 154.38783719 -221.25830078 161.75585938 C-215.6942893 169.55483421 -210.07116893 177.31129994 -204.45703125 185.07421875 C-202.22740612 188.15722095 -199.99831979 191.24061172 -197.76953125 194.32421875 C-197.28379639 194.99549805 -196.79806152 195.66677734 -196.29760742 196.35839844 C-192.93114357 201.0161468 -189.58609221 205.6889492 -186.24682617 210.36621094 C-185.55415775 211.33619522 -185.55415775 211.33619522 -184.84749603 212.32577515 C-183.71726155 213.90853287 -182.58713539 215.49136795 -181.45703125 217.07421875 C-181.4537211 216.10200693 -181.45041096 215.12979511 -181.4470005 214.12812233 C-181.36610536 190.50210358 -181.27382048 166.87615042 -181.16950417 143.25022316 C-181.11932348 131.82503227 -181.0728813 120.39984875 -181.03515625 108.97460938 C-181.00227628 99.01957488 -180.96246742 89.0645967 -180.91424119 79.10962427 C-180.88893634 73.83565462 -180.86716695 68.56172252 -180.85368729 63.28770828 C-180.84090296 58.32850814 -180.81888822 53.36943652 -180.78964806 48.41030693 C-180.78054376 46.58574623 -180.77487545 44.76116482 -180.77281761 42.93658257 C-180.7695151 40.4542068 -180.75409301 37.97219995 -180.73550415 35.48989868 C-180.73743888 34.76033514 -180.73937362 34.03077159 -180.74136698 33.27910006 C-180.68527367 28.30246117 -180.68527367 28.30246117 -178.45703125 26.07421875 C-176.41493797 25.82812309 -176.41493797 25.82812309 -173.85067749 25.83370972 C-172.88030045 25.83096039 -171.9099234 25.82821106 -170.91014099 25.82537842 C-169.30792442 25.83616425 -169.30792442 25.83616425 -167.67333984 25.84716797 C-166.55138718 25.84687592 -165.42943451 25.84658386 -164.27348328 25.84628296 C-160.55073414 25.8476806 -156.82818309 25.86326231 -153.10546875 25.87890625 C-150.52999989 25.88263483 -147.95452962 25.88548253 -145.37905884 25.88748169 C-139.28399972 25.89434779 -133.18902282 25.91012396 -127.09399474 25.93018067 C-120.15575913 25.95251761 -113.21752014 25.96352754 -106.27925754 25.97357154 C-92.00514365 25.99448963 -77.73108999 26.02967937 -63.45703125 26.07421875 C-63.31604004 24.81488525 -63.17504883 23.55555176 -63.02978516 22.25805664 C-62.13731218 14.28648798 -57.35003731 7.00068466 -51.49609375 1.63671875 C-35.84959832 -10.35293292 -16.3604656 -11.2610997 0 0 Z M-348.45703125 36.07421875 C-349.04036458 38.57421875 -349.04036458 38.57421875 -348.45703125 41.07421875 C-345.49858261 43.89716069 -343.41819183 44.45152526 -339.38476562 44.46240234 C-338.37692017 44.47185883 -337.36907471 44.48131531 -336.33068848 44.49105835 C-334.7071344 44.48194931 -334.7071344 44.48194931 -333.05078125 44.47265625 C-331.93392944 44.47552643 -330.81707764 44.47839661 -329.66638184 44.48135376 C-327.3060658 44.48339441 -324.94573286 44.47786451 -322.58544922 44.46533203 C-318.97064432 44.4492792 -315.35695759 44.46518153 -311.7421875 44.484375 C-309.44921628 44.48239257 -307.15624576 44.4785489 -304.86328125 44.47265625 C-303.78091187 44.47872894 -302.69854248 44.48480164 -301.58337402 44.49105835 C-300.57552856 44.48160187 -299.56768311 44.47214539 -298.52929688 44.46240234 C-297.64423462 44.46001556 -296.75917236 44.45762878 -295.84729004 44.45516968 C-292.99993685 44.00136867 -291.60109654 42.95426091 -289.45703125 41.07421875 C-289.71264448 38.73109745 -290.04973897 36.39578472 -290.45703125 34.07421875 C-292.9637986 32.82083508 -294.6963894 32.93372571 -297.50170898 32.91308594 C-299.07860756 32.89867462 -299.07860756 32.89867462 -300.68736267 32.88397217 C-301.82693924 32.87972229 -302.96651581 32.87547241 -304.140625 32.87109375 C-305.30707047 32.86539368 -306.47351593 32.8596936 -307.67530823 32.8538208 C-310.14591563 32.84436227 -312.61653569 32.83783345 -315.0871582 32.83398438 C-318.87538511 32.82426786 -322.66307215 32.79324725 -326.45117188 32.76171875 C-328.84765302 32.75519006 -331.24413805 32.74993906 -333.640625 32.74609375 C-334.77817734 32.73374695 -335.91572968 32.72140015 -337.0877533 32.7086792 C-338.14217117 32.7116803 -339.19658905 32.7146814 -340.28295898 32.71777344 C-341.21180405 32.71412781 -342.14064911 32.71048218 -343.09764099 32.70672607 C-345.90599047 33.14414751 -346.78831138 33.80949879 -348.45703125 36.07421875 Z M-339.48852539 53.39941406 C-340.73754314 55.2040356 -340.73754314 55.2040356 -340.26953125 58.19921875 C-340.00140625 59.14796875 -339.73328125 60.09671875 -339.45703125 61.07421875 C-336.25959986 62.67293444 -332.78644009 62.25843556 -329.2734375 62.27734375 C-328.46212875 62.28304382 -327.65082001 62.2887439 -326.81492615 62.2946167 C-325.09757798 62.30406861 -323.38021166 62.31060144 -321.6628418 62.31445312 C-319.03337076 62.32416762 -316.40467842 62.35519193 -313.77539062 62.38671875 C-312.10807757 62.39324793 -310.44075891 62.39849873 -308.7734375 62.40234375 C-307.98586563 62.41469055 -307.19829376 62.42703735 -306.38685608 62.4397583 C-302.17970153 62.44328951 -302.17970153 62.44328951 -298.42553711 60.74902344 C-297.17651936 58.9444019 -297.17651936 58.9444019 -297.64453125 55.94921875 C-297.91265625 55.00046875 -298.18078125 54.05171875 -298.45703125 53.07421875 C-301.65446264 51.47550306 -305.12762241 51.89000194 -308.640625 51.87109375 C-309.45193375 51.86539368 -310.26324249 51.8596936 -311.09913635 51.8538208 C-312.81648452 51.84436889 -314.53385084 51.83783606 -316.2512207 51.83398438 C-318.88069174 51.82426988 -321.50938408 51.79324557 -324.13867188 51.76171875 C-325.80598493 51.75518957 -327.47330359 51.74993877 -329.140625 51.74609375 C-329.92819687 51.73374695 -330.71576874 51.72140015 -331.52720642 51.7086792 C-335.73436097 51.70514799 -335.73436097 51.70514799 -339.48852539 53.39941406 Z M-348.45703125 73.07421875 C-348.20141802 75.41734005 -347.86432353 77.75265278 -347.45703125 80.07421875 C-344.9502639 81.32760242 -343.2176731 81.21471179 -340.41235352 81.23535156 C-338.83545494 81.24976288 -338.83545494 81.24976288 -337.22669983 81.26446533 C-336.08712326 81.26871521 -334.94754669 81.27296509 -333.7734375 81.27734375 C-332.60699203 81.28304382 -331.44054657 81.2887439 -330.23875427 81.2946167 C-327.76814687 81.30407523 -325.29752681 81.31060405 -322.8269043 81.31445312 C-319.03867739 81.32416964 -315.25099035 81.35519025 -311.46289062 81.38671875 C-309.06640948 81.39324744 -306.66992445 81.39849844 -304.2734375 81.40234375 C-303.13588516 81.41469055 -301.99833282 81.42703735 -300.8263092 81.4397583 C-299.77189133 81.4367572 -298.71747345 81.4337561 -297.63110352 81.43066406 C-296.70225845 81.43430969 -295.77341339 81.43795532 -294.81642151 81.44171143 C-292.00807203 81.00428999 -291.12575112 80.33893871 -289.45703125 78.07421875 C-288.87369792 75.57421875 -288.87369792 75.57421875 -289.45703125 73.07421875 C-292.41547989 70.25127681 -294.49587067 69.69691224 -298.52929688 69.68603516 C-299.53714233 69.67657867 -300.54498779 69.66712219 -301.58337402 69.65737915 C-302.66574341 69.66345184 -303.74811279 69.66952454 -304.86328125 69.67578125 C-305.98013306 69.67291107 -307.09698486 69.67004089 -308.24768066 69.66708374 C-310.6079967 69.66504309 -312.96832964 69.67057299 -315.32861328 69.68310547 C-318.94341818 69.6991583 -322.55710491 69.68325597 -326.171875 69.6640625 C-328.46484622 69.66604493 -330.75781674 69.6698886 -333.05078125 69.67578125 C-334.67433533 69.66667221 -334.67433533 69.66667221 -336.33068848 69.65737915 C-337.33853394 69.66683563 -338.34637939 69.67629211 -339.38476562 69.68603516 C-340.26982788 69.68842194 -341.15489014 69.69080872 -342.06677246 69.69326782 C-344.91412565 70.14706883 -346.31296596 71.19417659 -348.45703125 73.07421875 Z M-459.34277344 212.43733215 C-460.72208394 214.09906726 -460.72208394 214.09906726 -460.26953125 216.63671875 C-459.61076092 219.21863147 -459.61076092 219.21863147 -457.45703125 221.07421875 C-454.71942378 221.38160748 -454.71942378 221.38160748 -451.47851562 221.33300781 C-449.59646423 221.34246429 -449.59646423 221.34246429 -447.6763916 221.35211182 C-446.30118673 221.34853214 -444.92598313 221.3444302 -443.55078125 221.33984375 C-442.14595472 221.34119048 -440.74112864 221.34313107 -439.33630371 221.34564209 C-436.39066129 221.34859301 -433.44514007 221.34429684 -430.49951172 221.33496094 C-426.71964622 221.3235663 -422.94006473 221.33012596 -419.16020966 221.34210587 C-416.25890962 221.3493254 -413.35767716 221.34703613 -410.45637512 221.34185028 C-409.0624844 221.34051404 -407.66858759 221.34216063 -406.27470398 221.34680939 C-404.32831944 221.35187586 -402.38191344 221.34278745 -400.43554688 221.33300781 C-398.77247498 221.33062103 -398.77247498 221.33062103 -397.07580566 221.32818604 C-394.29790144 221.33878912 -394.29790144 221.33878912 -392.45703125 219.07421875 C-392.04036458 216.07421875 -392.04036458 216.07421875 -392.45703125 213.07421875 C-395.94131878 210.7513604 -397.32551981 210.81702695 -401.44140625 210.79956055 C-402.6727832 210.79002853 -403.90416016 210.78049652 -405.17285156 210.77067566 C-406.51757841 210.77093706 -407.86230528 210.77187399 -409.20703125 210.7734375 C-410.58561329 210.76955053 -411.96419414 210.76521586 -413.34277344 210.76045227 C-416.2311593 210.75299218 -419.11942293 210.75328006 -422.0078125 210.75854492 C-425.7102974 210.76434404 -429.41228278 210.7473975 -433.11468506 210.72420025 C-435.96113004 210.70947435 -438.80745434 210.70858953 -441.65393066 210.71170998 C-443.01909374 210.71119634 -444.38426349 210.70595052 -445.74938965 210.69589806 C-447.65710642 210.68357256 -449.56492407 210.69225424 -451.47265625 210.7019043 C-453.10122559 210.70096016 -453.10122559 210.70096016 -454.76269531 210.69999695 C-457.47372266 210.86197539 -457.47372266 210.86197539 -459.34277344 212.43733215 Z M-450.45703125 236.07421875 C-450.87382422 238.61652722 -450.87382422 238.61652722 -450.45703125 241.07421875 C-448.03579525 243.49545475 -447.44341416 243.32953187 -444.13085938 243.34887695 C-443.23653198 243.35840897 -442.34220459 243.36794098 -441.42077637 243.37776184 C-440.45305298 243.37685043 -439.48532959 243.37593903 -438.48828125 243.375 C-437.00140808 243.38142769 -437.00140808 243.38142769 -435.48449707 243.38798523 C-433.38631963 243.39373459 -431.28812225 243.39422435 -429.18994141 243.38989258 C-425.97003395 243.38673152 -422.75104382 243.41018835 -419.53125 243.43554688 C-417.49609491 243.43781959 -415.46093735 243.43852349 -413.42578125 243.4375 C-412.45805786 243.44670975 -411.49033447 243.45591949 -410.49328613 243.46540833 C-409.15179504 243.45606514 -409.15179504 243.45606514 -407.78320312 243.4465332 C-406.99425659 243.44716263 -406.20531006 243.44779205 -405.39245605 243.44844055 C-404.75376587 243.32494736 -404.11507568 243.20145416 -403.45703125 243.07421875 C-401.16065346 240.3152624 -401.16065346 240.3152624 -401.70703125 237.51171875 C-402.29511177 234.92421308 -402.29511177 234.92421308 -404.45703125 233.07421875 C-406.37326896 232.76262977 -406.37326896 232.76262977 -408.58374023 232.79956055 C-409.43479843 232.79002853 -410.28585663 232.78049652 -411.16270447 232.77067566 C-412.54396263 232.77204277 -412.54396263 232.77204277 -413.953125 232.7734375 C-414.89761002 232.76915237 -415.84209503 232.76486725 -416.81520081 232.76045227 C-418.8150248 232.75470289 -420.8148697 232.75421317 -422.81469727 232.75854492 C-425.87878029 232.76170252 -428.941896 232.73826149 -432.00585938 232.71289062 C-433.94661336 232.7106175 -435.88736995 232.70991419 -437.828125 232.7109375 C-438.74693954 232.70172775 -439.66575409 232.69251801 -440.6124115 232.68302917 C-441.89372704 232.69237236 -441.89372704 232.69237236 -443.20092773 232.7019043 C-443.95212387 232.70127487 -444.70332001 232.70064545 -445.47727966 232.69999695 C-448.01337049 233.17938057 -448.90377472 234.04593432 -450.45703125 236.07421875 Z M-459.33595276 256.93952942 C-460.67007128 259.05991579 -460.67007128 259.05991579 -460.39453125 261.69921875 C-459.68629739 264.15405004 -459.68629739 264.15405004 -457.76135254 265.20549011 C-454.93563962 266.27078328 -452.67099129 266.33532814 -449.65039062 266.34887695 C-448.48237915 266.35840897 -447.31436768 266.36794098 -446.11096191 266.37776184 C-444.85360229 266.37685043 -443.59624268 266.37593903 -442.30078125 266.375 C-440.359151 266.38142769 -440.359151 266.38142769 -438.3782959 266.38798523 C-435.6413157 266.39543716 -432.90446454 266.39516331 -430.16748047 266.38989258 C-426.66352939 266.38409352 -423.16010616 266.40104366 -419.65624237 266.42423725 C-416.30856646 266.44252487 -412.96100686 266.43878927 -409.61328125 266.4375 C-408.35592163 266.44670975 -407.09856201 266.45591949 -405.80310059 266.46540833 C-404.63508911 266.45917953 -403.46707764 266.45295074 -402.26367188 266.4465332 C-401.23649048 266.44716263 -400.20930908 266.44779205 -399.15100098 266.44844055 C-396.09577037 266.02403567 -394.7212009 265.11661002 -392.45703125 263.07421875 C-392.71264448 260.73109745 -393.04973897 258.39578472 -393.45703125 256.07421875 C-396.1613358 254.72206647 -398.30010969 254.9246137 -401.32788086 254.8972168 C-403.17505959 254.87796394 -403.17505959 254.87796394 -405.05955505 254.85832214 C-406.40949096 254.85015625 -407.7594314 254.84271223 -409.109375 254.8359375 C-409.78781527 254.83186197 -410.46625553 254.82778645 -411.16525459 254.82358742 C-414.75429098 254.80273366 -418.34328918 254.78842747 -421.93237305 254.77905273 C-425.64280925 254.76797316 -429.35264821 254.73355465 -433.06287289 254.69388103 C-435.91359083 254.66776724 -438.7641651 254.65936578 -441.61499214 254.65577126 C-442.98297739 254.65089374 -444.35095572 254.63924655 -445.71882439 254.62073326 C-447.63133239 254.59645206 -449.54413034 254.59971574 -451.45678711 254.60424805 C-453.08988075 254.59544868 -453.08988075 254.59544868 -454.75596619 254.58647156 C-457.56662759 254.83033853 -457.56662759 254.83033853 -459.33595276 256.93952942 Z M-351.29786682 392.43733215 C-352.7289058 394.09028935 -352.7289058 394.09028935 -352.26953125 396.63671875 C-351.61076092 399.21863147 -351.61076092 399.21863147 -349.45703125 401.07421875 C-347.08554577 401.38066286 -347.08554577 401.38066286 -344.3046875 401.33300781 C-342.69291626 401.34246429 -342.69291626 401.34246429 -341.04858398 401.35211182 C-339.88399658 401.34806335 -338.71940918 401.34401489 -337.51953125 401.33984375 C-336.32851807 401.3417572 -335.13750488 401.34367065 -333.91040039 401.34564209 C-331.38850697 401.34700505 -328.86660656 401.34330091 -326.34472656 401.33496094 C-322.47314776 401.32426328 -318.60203303 401.33485281 -314.73046875 401.34765625 C-312.28515522 401.34633468 -309.83984198 401.34377233 -307.39453125 401.33984375 C-305.64765015 401.34591644 -305.64765015 401.34591644 -303.86547852 401.35211182 C-302.79096436 401.3458075 -301.7164502 401.33950317 -300.609375 401.33300781 C-299.66054443 401.33141663 -298.71171387 401.32982544 -297.73413086 401.32818604 C-295.25855428 401.29198918 -295.25855428 401.29198918 -293.45703125 399.07421875 C-293.12369792 396.07421875 -293.12369792 396.07421875 -293.45703125 393.07421875 C-296.02762751 390.50362249 -297.02145532 390.81696125 -300.59350586 390.79956055 C-302.20043556 390.78526253 -302.20043556 390.78526253 -303.83982849 390.77067566 C-305.00127884 390.77158707 -306.16272919 390.77249847 -307.359375 390.7734375 C-309.14233727 390.76700981 -309.14233727 390.76700981 -310.96131897 390.76045227 C-313.47900759 390.75470056 -315.99671283 390.75421486 -318.5144043 390.75854492 C-322.37512465 390.76170288 -326.23507773 390.73826193 -330.09570312 390.71289062 C-332.53775945 390.7106176 -334.97981784 390.70991415 -337.421875 390.7109375 C-338.58130112 390.70172775 -339.74072723 390.69251801 -340.93528748 390.68302917 C-342.54694542 390.69237236 -342.54694542 390.69237236 -344.19116211 390.7019043 C-345.13777206 390.70127487 -346.08438202 390.70064545 -347.05967712 390.69999695 C-349.50923046 390.89244292 -349.50923046 390.89244292 -351.29786682 392.43733215 Z M-342.95678711 410.94555664 C-344.72999818 412.99868806 -344.72999818 412.99868806 -344.33203125 415.69921875 C-343.59235212 418.21827 -343.59235212 418.21827 -341.45703125 420.07421875 C-338.69524687 420.27408845 -336.03593042 420.35400776 -333.2734375 420.33984375 C-332.05647438 420.34271393 -332.05647438 420.34271393 -330.81492615 420.34564209 C-329.09756155 420.34700417 -327.38018666 420.34330613 -325.6628418 420.33496094 C-323.03345577 420.32427534 -320.40475513 420.3348481 -317.77539062 420.34765625 C-316.10807141 420.34633439 -314.44075262 420.34377144 -312.7734375 420.33984375 C-311.5920797 420.34591644 -311.5920797 420.34591644 -310.38685608 420.35211182 C-306.55053958 420.31916557 -304.72445514 420.25250135 -301.45703125 418.07421875 C-300.2809093 416.28750804 -300.2809093 416.28750804 -300.45703125 414.07421875 C-303.19524457 410.51765038 -304.69462366 409.20366529 -309.17407227 408.44311523 C-310.6027901 408.41706738 -312.03221965 408.4192653 -313.4609375 408.4453125 C-314.22123764 408.44290054 -314.98153778 408.44048859 -315.76487732 408.43800354 C-317.36600989 408.43897968 -318.96717719 408.45231803 -320.56811523 408.47729492 C-323.01597777 408.51166885 -325.4602399 408.49793025 -327.90820312 408.47851562 C-329.46746324 408.48541301 -331.02671408 408.49508444 -332.5859375 408.5078125 C-333.67981529 408.5003727 -333.67981529 408.5003727 -334.79579163 408.49278259 C-338.25556529 408.57285168 -340.1539927 408.84736158 -342.95678711 410.94555664 Z M-352.45703125 432.07421875 C-352.54508271 434.71759615 -352.54508271 434.71759615 -351.45703125 437.07421875 C-348.17684452 439.2610099 -347.19668936 439.32956551 -343.390625 439.34887695 C-341.84387085 439.36317497 -341.84387085 439.36317497 -340.26586914 439.37776184 C-339.15332764 439.37685043 -338.04078613 439.37593903 -336.89453125 439.375 C-335.75169678 439.37928513 -334.6088623 439.38357025 -333.43139648 439.38798523 C-331.01384138 439.39373119 -328.59626898 439.39422685 -326.17871094 439.38989258 C-322.47170676 439.38673127 -318.76549928 439.4101942 -315.05859375 439.43554688 C-312.71224059 439.43781962 -310.36588528 439.43852348 -308.01953125 439.4375 C-306.35071899 439.45131462 -306.35071899 439.45131462 -304.64819336 439.46540833 C-303.61702393 439.45917953 -302.58585449 439.45295074 -301.5234375 439.4465332 C-300.61537354 439.44716263 -299.70730957 439.44779205 -298.77172852 439.44844055 C-295.99843934 439.00007727 -295.11020481 438.31123297 -293.45703125 436.07421875 C-292.95703125 433.57421875 -292.95703125 433.57421875 -293.45703125 431.07421875 C-295.10751238 428.84539259 -296.00320266 428.15045043 -298.76499939 427.6865387 C-299.67004715 427.68113571 -300.57509491 427.67573273 -301.50756836 427.67016602 C-303.04948097 427.65113976 -303.04948097 427.65113976 -304.62254333 427.63172913 C-305.73194778 427.63466476 -306.84135223 427.6376004 -307.984375 427.640625 C-309.1248378 427.63538315 -310.2653006 427.6301413 -311.44032288 427.6247406 C-313.85368027 427.61831329 -316.26706896 427.61966651 -318.68041992 427.62817383 C-322.37670622 427.63667774 -326.07144484 427.60793956 -329.76757812 427.57617188 C-332.11067662 427.57455969 -334.45377786 427.57513771 -336.796875 427.578125 C-337.90425522 427.56689102 -339.01163544 427.55565704 -340.15257263 427.54408264 C-341.69921349 427.55815407 -341.69921349 427.55815407 -343.27709961 427.57250977 C-344.18294296 427.57267593 -345.08878632 427.5728421 -346.02207947 427.57301331 C-349.23341727 428.23402845 -350.4587562 429.52586607 -352.45703125 432.07421875 Z " fill="#000000" transform="translate(497.45703125,17.92578125)"/>
</svg>
