<?xml version="1.0" encoding="UTF-8"?>
<svg version="1.1" xmlns="http://www.w3.org/2000/svg" width="512" height="512">
<path d="M0 0 C1.12153506 -0.00467997 2.24307013 -0.00935994 3.3985911 -0.01418173 C7.12250481 -0.02606099 10.8460457 -0.01670223 14.56996155 -0.00723267 C17.25325073 -0.01130135 19.936515 -0.01653705 22.61979675 -0.02316284 C29.12903126 -0.03644829 35.63816155 -0.03364663 42.14740001 -0.02492492 C47.43693462 -0.01813231 52.72644014 -0.01723843 58.01597786 -0.02049637 C58.77058198 -0.02095607 59.52518611 -0.02141577 60.30265703 -0.0218894 C61.83583097 -0.02284862 63.36900491 -0.02382126 64.90217883 -0.02480717 C79.24973176 -0.03334478 93.597227 -0.02355044 107.94477046 -0.00740607 C120.25329392 0.00601476 132.56173256 0.00365137 144.87025452 -0.01016235 C159.17953736 -0.02621407 173.48876988 -0.03254104 187.79806048 -0.02332556 C189.32325494 -0.02236994 190.8484494 -0.02142683 192.37364388 -0.02049637 C193.49918191 -0.01980213 193.49918191 -0.01980213 194.64745809 -0.01909386 C199.9336849 -0.01650417 205.21987975 -0.02087411 210.50610161 -0.02793503 C216.94326191 -0.03634484 223.38031246 -0.03408007 229.81746017 -0.0180928 C233.1011922 -0.01020595 236.3847032 -0.00873928 239.66843987 -0.01704025 C243.22640965 -0.02520711 246.78386039 -0.01499263 250.34179688 0 C251.90101574 -0.01003825 251.90101574 -0.01003825 253.49173397 -0.02027929 C262.31337029 0.05209849 262.31337029 0.05209849 266.22645569 3.38095093 C267.77232445 6.47268844 267.5200509 8.97524645 267.22645569 12.38095093 C265.88375473 14.57633877 265.88375473 14.57633877 263.22645569 16.38095093 C259.62161814 16.98584154 256.04479292 16.9138456 252.39717102 16.87974548 C251.2805045 16.88513004 250.16383798 16.89051459 249.01333308 16.89606231 C245.25765577 16.90937597 241.50262702 16.89416243 237.7469635 16.87924194 C235.05986021 16.88306342 232.37280563 16.88848215 229.68571472 16.89596558 C223.89188769 16.90906404 218.0982049 16.90788626 212.30437469 16.89737129 C203.91875607 16.88243601 195.53330675 16.89234352 187.14769778 16.90889048 C173.53136774 16.93536149 159.91507567 16.94621011 146.29872131 16.94515991 C145.07611938 16.94507243 145.07611938 16.94507243 143.82881841 16.94498318 C140.52654997 16.94471734 137.22428155 16.94440007 133.92201312 16.94401992 C124.83989971 16.94305434 115.75778746 16.94438046 106.67567444 16.94711304 C105.45638044 16.94747288 105.45638044 16.94747288 104.21245423 16.94783998 C90.6521215 16.95224874 77.09182399 16.96849194 63.53151202 16.99233383 C55.16903913 17.00639748 46.80670015 17.00929072 38.44422266 16.99771094 C32.71142087 16.99038019 26.97868646 16.99345908 21.24589112 17.00466938 C17.93955962 17.0107343 14.63345555 17.01019743 11.32712936 16.9997921 C7.73914418 16.98917568 4.15164445 16.99691957 0.56367493 17.00914001 C-0.4764137 17.00156396 -1.51650232 16.9939879 -2.58810878 16.98618227 C-9.98496632 17.03959844 -15.819386 17.87633845 -21.64854431 22.81845093 C-24.79429118 26.61185156 -26.02175861 29.22738375 -26.03525734 34.16791916 C-26.04645558 35.61676612 -26.04645558 35.61676612 -26.05788004 37.09488273 C-26.05594531 38.15324214 -26.05401057 39.21160156 -26.05201721 40.30203247 C-26.05780961 41.42842707 -26.06360202 42.55482167 -26.06956995 43.71534944 C-26.08662409 47.50332603 -26.08945114 51.29118118 -26.09239197 55.07919312 C-26.10058182 57.78911652 -26.11176683 60.49902561 -26.12283325 63.2089386 C-26.14511569 69.05020379 -26.16012304 74.89145143 -26.17020035 80.73274994 C-26.18478096 89.17829799 -26.21031603 97.6237849 -26.23853163 106.06929711 C-26.28401088 119.77131007 -26.320621 133.47333182 -26.35166931 147.17538452 C-26.38185022 160.48627263 -26.41619837 173.79713922 -26.4561615 187.10800171 C-26.45985382 188.33856104 -26.45985382 188.33856104 -26.46362074 189.59398016 C-26.47599525 193.70951743 -26.4884518 197.82505444 -26.50094914 201.94059134 C-26.60453389 236.08734849 -26.69373155 270.23413012 -26.77354431 304.38095093 C-25.8678772 304.37206848 -24.96221008 304.36318604 -24.02909851 304.35403442 C-15.49503306 304.27389419 -6.96109394 304.21298941 1.57326126 304.17370224 C5.96091511 304.15282521 10.3482581 304.12450583 14.73573303 304.07919312 C18.96973985 304.03573892 23.20344763 304.01181469 27.43766022 304.00144196 C29.0532324 303.99404976 30.66878818 303.97961443 32.28423309 303.9580307 C34.54690951 303.92900111 36.80834964 303.92499455 39.07118225 303.92684937 C40.35913696 303.91796692 41.64709167 303.90908447 42.97407532 303.89993286 C46.77597057 304.46222266 47.93692208 305.35847796 50.22645569 308.38095093 C50.79286194 310.38095093 50.79286194 310.38095093 50.78895569 312.38095093 C50.82182678 313.37095093 50.82182678 313.37095093 50.85536194 314.38095093 C49.85782364 317.55324663 47.9674467 318.58765697 45.22645569 320.38095093 C41.89178467 320.86196899 41.89178467 320.86196899 38.04945374 320.83505249 C37.34646652 320.8356366 36.64347931 320.8362207 35.91918945 320.83682251 C33.60833908 320.834048 31.29879789 320.80298883 28.98817444 320.77157593 C27.38106999 320.76411122 25.77395642 320.75841937 24.1668396 320.75442505 C19.94652469 320.73918666 15.72676453 320.69992089 11.50666809 320.65560913 C7.19654341 320.61461734 2.88632868 320.59640573 -1.42393494 320.57626343 C-9.87405868 320.53342438 -18.3237324 320.46519545 -26.77354431 320.38095093 C-26.72925184 325.94996596 -26.65927223 331.51786229 -26.56602478 337.08627319 C-26.53789215 338.97843497 -26.51663943 340.87071257 -26.50254822 342.76303101 C-26.48101145 345.49173962 -26.43430762 348.21906684 -26.38291931 350.94735718 C-26.38169067 351.78617935 -26.38046204 352.62500153 -26.37919617 353.48924255 C-26.23753473 359.23872159 -25.0498815 362.63118796 -21.77354431 367.38095093 C-16.70509282 371.71581076 -11.06912409 372.50556953 -4.63903809 372.50844288 C-3.37255149 372.51145053 -2.10606489 372.51445818 -0.80119991 372.51755697 C0.60702588 372.5158694 2.01525158 372.51409834 3.42347717 372.51225281 C4.91725691 372.51395478 6.4110362 372.51610438 7.90481472 372.51866406 C11.15632971 372.52326378 14.40782566 372.5246814 17.65934372 372.52369881 C22.9493103 372.52210717 28.23925795 372.52730562 33.52922058 372.5333252 C41.20882664 372.54144065 48.88842938 372.54638281 56.56803894 372.54961586 C68.70085552 372.55510905 80.83364394 372.57200232 92.96644592 372.59095764 C97.11563106 372.59731439 101.26481626 372.60362279 105.41400146 372.60993481 C106.45092465 372.61151857 107.48784783 372.61310233 108.55619293 372.61473409 C120.36131756 372.63267312 132.16644417 372.64889918 143.97157288 372.66390991 C145.59050983 372.66597372 145.59050983 372.66597372 147.24215257 372.66807922 C164.74408176 372.69002351 182.24600372 372.70076898 199.74794424 372.70828066 C217.70627981 372.7163437 235.6645532 372.73960642 253.62285328 372.77623433 C264.70618894 372.7982918 275.78939687 372.80791409 286.87275338 372.80173399 C294.46320577 372.79856625 302.05354883 372.80984408 309.64396739 372.83262841 C314.02724545 372.8453311 318.41028002 372.85142414 322.79356766 372.84021187 C326.80304373 372.8300872 330.81204584 372.83820087 334.82146561 372.86107483 C336.27496691 372.86609323 337.72851032 372.86429561 339.18199146 372.85514215 C341.15195647 372.84370762 343.1220233 372.85908891 345.09194946 372.87593555 C346.18793237 372.87691236 347.28391527 372.87788917 348.41310978 372.87889558 C351.91985349 373.50469116 353.10639376 374.56030112 355.22645569 377.38095093 C355.69564252 381.13444554 355.7578195 383.41943546 353.91395569 386.75595093 C350.64063842 389.90803422 347.13432622 389.5026802 342.82728577 389.49447632 C341.86102516 389.49469536 341.86102516 389.49469536 340.87524414 389.49491882 C338.74879067 389.49422288 336.62242509 389.48644541 334.49598694 389.47860718 C333.02053882 389.47674187 331.54509008 389.4753185 330.06964111 389.47431946 C326.18819974 389.47050319 322.30679584 389.46068049 318.42536926 389.44961548 C313.76725794 389.43758271 309.10913408 389.43299488 304.45101166 389.42716217 C297.37613361 389.41746827 290.30133778 389.3983055 283.22645569 389.38095093 C287.51645569 405.22095093 291.80645569 421.06095093 296.22645569 437.38095093 C305.26080533 437.59076071 305.26080533 437.59076071 314.29579163 437.76889038 C315.42275452 437.80200317 316.54971741 437.83511597 317.71083069 437.86923218 C318.8629303 437.89541626 320.01502991 437.92160034 321.20204163 437.94857788 C324.49035351 438.41867801 325.89397418 439.05364198 328.22645569 441.38095093 C329.3902545 444.94993394 329.53566006 446.6648987 328.03895569 450.13095093 C326.03259629 452.62160398 325.20747819 453.30757306 322.22645569 454.38095093 C319.28672134 454.57361818 316.44243182 454.65498109 313.50296021 454.64164734 C312.61285592 454.64547289 311.72275164 454.64929843 310.80567449 454.65323991 C307.8170503 454.66357538 304.82861803 454.65957671 301.83998108 454.65560913 C299.69974591 454.65995529 297.5595123 454.66513811 295.41928101 454.6710968 C289.6011684 454.68450811 283.78312067 454.68506312 277.96499562 454.6825335 C273.11141479 454.68146527 268.25784717 454.68634334 263.40426916 454.69113892 C251.95607198 454.7022414 240.50790761 454.70266729 229.05970764 454.69662476 C217.24109459 454.69058273 205.42260053 454.70290014 193.60400778 454.72419482 C183.4637978 454.74179502 173.32362575 454.7478147 163.18340105 454.74455708 C157.12408651 454.74274162 151.06485685 454.74540665 145.00555611 454.75927162 C139.30841955 454.77181966 133.61146886 454.7699345 127.91433525 454.75686073 C125.82171949 454.75448883 123.72909078 454.75725148 121.63648987 454.76548386 C118.78308736 454.77590105 115.93031433 454.76789107 113.07693481 454.75517273 C112.24600077 454.76254701 111.41506673 454.7699213 110.55895287 454.77751905 C105.97608102 454.73445214 102.92585512 454.38941752 99.22645569 451.38095093 C97.55291118 448.0338619 97.00089439 446.28319611 97.91395569 442.63095093 C99.22645569 440.38095093 99.22645569 440.38095093 102.22645569 438.38095093 C105.13734436 438.06210327 105.13734436 438.06210327 108.64442444 437.96688843 C109.77388489 437.93127808 110.90334534 437.89566772 112.06703186 437.85897827 C113.50151672 437.82497925 114.93600159 437.79098022 116.41395569 437.75595093 C120.97208069 437.63220093 125.53020569 437.50845093 130.22645569 437.38095093 C134.51645569 421.54095093 138.80645569 405.70095093 143.22645569 389.38095093 C138.59388733 389.39666138 133.96131897 389.41237183 129.18836975 389.42855835 C113.86551094 389.47831488 98.54264892 389.51157724 83.21973038 389.53638744 C73.93140278 389.55182783 64.64315196 389.57286302 55.35487366 389.60726929 C47.25512378 389.63725851 39.15542953 389.65654647 31.05562568 389.66321641 C26.77054183 389.6671126 22.48561706 389.67620961 18.20058441 389.6981411 C14.15898815 389.71865706 10.11761499 389.72475454 6.0759716 389.72027397 C4.60067211 389.72109247 3.12536436 389.72696755 1.65011024 389.73856735 C-11.61743303 389.83768267 -23.6454563 388.7568666 -33.77354431 379.38095093 C-39.47560163 372.6950507 -43.01841656 366.34967542 -43.03081322 357.40474987 C-43.03726211 356.22444956 -43.043711 355.04414925 -43.05035532 353.82808226 C-43.04725811 352.54044881 -43.04416091 351.25281536 -43.04096985 349.92616272 C-43.04470795 348.53733839 -43.04931011 347.14851616 -43.05470049 345.75969726 C-43.06692618 341.94827431 -43.06667054 338.13693917 -43.06431174 334.32550108 C-43.06390347 330.2129078 -43.07494373 326.10034262 -43.08442688 321.98776245 C-43.10103539 313.93231959 -43.10653635 305.876906 -43.10765164 297.82144745 C-43.10860216 291.27322669 -43.11271268 284.72501558 -43.11905289 278.17679787 C-43.13666473 259.60908575 -43.14589182 241.04139675 -43.14439194 222.47367623 C-43.14431203 221.47281565 -43.14423211 220.47195507 -43.14414978 219.44076538 C-43.14406802 218.43868201 -43.14398626 217.43659863 -43.14390202 216.40414909 C-43.14308909 200.16342306 -43.16222863 183.92278976 -43.19042651 167.68209054 C-43.21915521 151.0039975 -43.23296682 134.32594968 -43.23123896 117.64783126 C-43.23057506 108.28523296 -43.23606725 98.92273188 -43.25759506 89.56015587 C-43.27580664 81.58878224 -43.28015438 73.61754992 -43.26657622 65.6461645 C-43.26004649 61.58019888 -43.25992939 57.51450435 -43.27728271 53.44856453 C-43.29301848 49.72326575 -43.29014507 45.99845289 -43.27271445 42.27316592 C-43.26819658 40.29377936 -43.28329793 38.3143777 -43.29919374 36.33504981 C-43.24326594 29.11042669 -42.40944174 23.67292675 -38.77354431 17.38095093 C-38.31592712 16.58302124 -37.85830994 15.78509155 -37.38682556 14.96298218 C-28.14466196 2.39030917 -14.89870826 -0.0973807 0 0 Z M160.22645569 389.38095093 C155.1963137 406.9502986 155.1963137 406.9502986 150.35145569 424.56845093 C150.04465881 425.69702515 149.73786194 426.82559937 149.42176819 427.9883728 C149.13301819 429.06022827 148.84426819 430.13208374 148.54676819 431.23641968 C148.29169495 432.18154419 148.0366217 433.1266687 147.77381897 434.10043335 C147.14865945 436.31419775 147.14865945 436.31419775 147.22645569 438.38095093 C190.78645569 438.38095093 234.34645569 438.38095093 279.22645569 438.38095093 C276.78449011 428.00259721 274.32588012 417.68093976 271.56166077 407.39096069 C271.02509918 405.39182393 270.49375932 403.39134349 269.96278381 401.39071655 C268.4929692 395.24201696 268.4929692 395.24201696 266.22645569 389.38095093 C231.24645569 389.38095093 196.26645569 389.38095093 160.22645569 389.38095093 Z " fill="#000000" transform="translate(42.77354431152344,28.619049072265625)"/>
<path d="M0 0 C5.60731083 3.78407479 9.55074679 8.35860082 11.59765625 14.9140625 C12.04662369 17.24171894 12.09733421 19.38127378 12.0625 21.75 C12.05347656 22.54921875 12.04445313 23.3484375 12.03515625 24.171875 C12.01775391 25.07679687 12.01775391 25.07679687 12 26 C12.8362793 26.25289795 13.67255859 26.5057959 14.53417969 26.76635742 C18.35243724 28.12544839 21.87311738 29.86089018 25.453125 31.73828125 C26.15338806 32.10092575 26.85365112 32.46357025 27.57513428 32.83720398 C29.80223392 33.99155991 32.02619893 35.15180435 34.25 36.3125 C35.7276482 37.0804946 37.20551102 37.84807642 38.68359375 38.61523438 C39.40357544 38.989133 40.12355713 39.36303162 40.86535645 39.7482605 C42.2893821 40.48668834 43.71409735 41.22378797 45.13952637 41.95950317 C48.14287794 43.51021927 51.13288058 45.07257356 54.09960938 46.69287109 C55.40381836 47.39210693 55.40381836 47.39210693 56.734375 48.10546875 C57.45334961 48.5027417 58.17232422 48.90001465 58.91308594 49.30932617 C61.61496089 50.20352414 63.29732525 49.78288642 66 49 C67.18851797 48.35100663 68.35636596 47.66266795 69.5 46.9375 C75.86632979 43.67025151 83.08108543 43.83346439 89.84765625 45.84765625 C96.80846203 48.94484736 100.83381372 53.55558331 104.1328125 60.32421875 C106.21910339 66.76164786 106.2688455 75.18922034 103.5 81.4375 C100.90265189 85.72635952 97.20703088 89.29715893 93 92 C91.34073948 92.36843374 89.6740839 92.70617697 88 93 C87.94529016 100.73697087 87.93367432 108.47299687 87.97665405 116.21002483 C87.99526882 119.8031289 87.99919317 123.39498365 87.96923828 126.98803711 C87.94085807 130.45765262 87.9514675 133.92518449 87.98880005 137.39469337 C87.99984051 139.3583515 87.97079295 141.32210265 87.94116211 143.28556824 C87.81610411 149.6227136 87.81610411 149.6227136 90.77651978 154.88723755 C92.80831119 156.15584742 94.79348958 157.0825132 97 158 C99.0234375 159.84375 99.0234375 159.84375 100.375 161.5 C100.83648437 162.0465625 101.29796875 162.593125 101.7734375 163.15625 C106.05108602 169.58634586 105.65168885 176.54366392 105 184 C103.27212576 191.15502286 97.74187206 195.77446739 92 200 C86.77113466 202.72810366 80.78010265 202.67247732 75 202 C71.12063425 200.75011316 67.58622238 199.01917339 64.15930176 196.81732178 C62.01931451 195.76135918 62.01931451 195.76135918 59.83752441 196.61920166 C59.05905151 197.026203 58.28057861 197.43320435 57.47851562 197.85253906 C56.1469342 198.53379852 56.1469342 198.53379852 54.78845215 199.2288208 C53.83732544 199.73596619 52.88619873 200.24311157 51.90625 200.765625 C50.92257446 201.27422058 49.93889893 201.78281616 48.92541504 202.30682373 C45.77561654 203.93968936 42.63790133 205.59440543 39.5 207.25 C37.38487795 208.35172718 35.2690008 209.45200601 33.15234375 210.55078125 C28.48192837 212.97805241 23.81910232 215.41924919 19.16247559 217.87286377 C17.71981011 218.62481701 16.25153302 219.32951903 14.76257324 219.98504639 C12.69941128 220.89850041 12.69941128 220.89850041 12.27734375 223.609375 C12.16519531 224.64578125 12.05304688 225.6821875 11.9375 226.75 C10.98016177 233.71775741 8.97168555 238.89748062 4 244 C-2.58394917 248.78955319 -8.99599895 250.53767174 -17.09375 249.8125 C-24.06460865 248.4847174 -30.01303516 244.44549519 -34.4375 239 C-38.17196184 231.82983328 -38.17196184 231.82983328 -37.81030273 227.98144531 C-37.65166309 225.20723827 -37.8589694 223.55441577 -39 221 C-43.24322702 217.75838449 -48.02496562 215.719723 -52.875 213.5625 C-54.24887662 212.92287065 -55.62111112 212.27970255 -56.99169922 211.63305664 C-59.04784837 210.66379964 -61.10485452 209.6973999 -63.16860962 208.74443054 C-69.76260519 205.69398938 -76.12066632 202.24723248 -82.41357422 198.61743164 C-86.12466702 196.40412538 -86.12466702 196.40412538 -90.23828125 196.62109375 C-90.81964844 197.07613281 -91.40101563 197.53117188 -92 198 C-99.40626229 202.01844726 -106.13572587 203.57812473 -114.453125 201.33984375 C-121.36334305 198.62511523 -126.00600266 194.15180225 -129.9375 187.9375 C-132.36666915 181.22692023 -132.37591485 172.10680402 -129.5 165.5625 C-126.07449007 159.87370673 -120.85090814 155.92545407 -115 153 C-114.67 133.2 -114.34 113.4 -114 93 C-115.65 92.67 -117.3 92.34 -119 92 C-124.62175722 88.38825653 -129.3006403 83.55467315 -131 77 C-132.11479439 68.11349616 -131.56171983 60.27301824 -126 53 C-119.20751518 46.42662759 -112.70267789 44.50913485 -103.36328125 44.59375 C-98.98799029 45.12224043 -95.91148024 46.67065718 -92.21875 49.00390625 C-89.26606978 50.32949332 -88.12038832 49.86764116 -85 49 C-82.4424649 47.85093932 -79.95633062 46.66476979 -77.4609375 45.39453125 C-76.73943512 45.03284348 -76.01793274 44.6711557 -75.27456665 44.29850769 C-73.74852673 43.53213307 -72.22392604 42.76288672 -70.70068359 41.9909668 C-68.40633411 40.82837757 -66.10795317 39.67412781 -63.80859375 38.52148438 C-56.45256118 34.82292553 -49.1532592 31.06840973 -41.99072266 27.00268555 C-40 26 -40 26 -38 26 C-38.05220703 25.1646875 -38.05220703 25.1646875 -38.10546875 24.3125 C-38.40503813 15.86749662 -36.43352401 9.80816796 -30.6796875 3.5390625 C-22.27404714 -4.16284983 -9.97014694 -5.51363636 0 0 Z M-20 16 C-22.13272462 18.71437679 -21.99745956 20.04826833 -21.8125 23.5625 C-21.21905597 26.84985341 -21.21905597 26.84985341 -19.875 28.875 C-16.91693888 30.64983667 -14.42199954 30.88200002 -11 31 C-8.08669541 29.76993806 -6.52857289 28.69675518 -4.625 26.1875 C-3.73910285 23.08685996 -4.10054821 21.08383471 -5 18 C-7.11912421 15.09601497 -8.50634623 14.15754907 -11.9375 13.0625 C-15.65042412 12.98672604 -17.12800603 13.6864493 -20 16 Z M-33.00813293 40.5164032 C-35.5245552 41.61440063 -37.93441417 42.8373062 -40.359375 44.125 C-41.26318909 44.58350342 -42.16700317 45.04200684 -43.09820557 45.5144043 C-45.99305757 46.98931801 -48.87111915 48.49419046 -51.75 50 C-53.67347164 50.98504278 -55.59794151 51.96813893 -57.5234375 52.94921875 C-65.76080268 57.16356095 -73.93401159 61.4651403 -82 66 C-82 68.31 -82 70.62 -82 73 C-77.76232971 75.24569534 -73.51947446 77.48074122 -69.26953125 79.703125 C-65.19711874 81.83510924 -61.14184928 83.99623069 -57.09553528 86.17712402 C-54.30906737 87.67444882 -51.51449649 89.1562324 -48.71853638 90.63574219 C-47.32388838 91.37802565 -45.93263874 92.12673001 -44.54489136 92.88183594 C-42.57230512 93.95382258 -40.58883335 95.00242493 -38.6015625 96.046875 C-37.44994629 96.66401367 -36.29833008 97.28115234 -35.11181641 97.91699219 C-32.084184 99.29437581 -32.084184 99.29437581 -29.25146484 98.28222656 C-27.61620642 97.3509343 -25.99206396 96.40003807 -24.375 95.4375 C-17.16178199 92.36520344 -10.21591884 92.30586581 -2.92578125 95.08984375 C-1 96 -1 96 1.6875 97.8125 C3.95928314 99.2969029 3.95928314 99.2969029 6.49487305 98.39868164 C11.28298419 96.48803953 15.81434896 94.16872001 20.39453125 91.80859375 C21.38249191 91.30328629 22.37045258 90.79797882 23.38835144 90.27735901 C25.46785196 89.21270236 27.54630833 88.14600409 29.6237793 87.07739258 C32.81641963 85.43548421 36.0124084 83.80024639 39.20898438 82.16601562 C41.22936569 81.13059659 43.24955483 80.09480246 45.26953125 79.05859375 C46.22986771 78.56693222 47.19020416 78.07527069 48.17964172 77.56871033 C49.06113388 77.11476395 49.94262604 76.66081757 50.85083008 76.19311523 C52.01948357 75.59260597 52.01948357 75.59260597 53.21174622 74.97996521 C54.96638269 74.12704559 54.96638269 74.12704559 56 73 C56.04092937 70.66702567 56.04241723 68.33294775 56 66 C47.12002932 61.38476777 38.22762599 56.79534767 29.31333923 52.2467041 C25.13453398 50.10985014 20.98641032 47.92723827 16.859375 45.69140625 C15.21929879 44.83488586 13.57873156 43.97930449 11.9375 43.125 C11.22746826 42.72031494 10.51743652 42.31562988 9.78588867 41.89868164 C7.56570983 40.67639112 7.56570983 40.67639112 4 40 C1.67268578 40.97885199 -0.13998344 42.16051363 -2.13842773 43.69873047 C-6.71784841 46.89982059 -12.64384979 46.45909859 -18 46 C-21.83709725 45.03573813 -25.06455078 43.8361413 -28.03295898 41.18286133 C-30.80542737 39.7394398 -30.80542737 39.7394398 -33.00813293 40.5164032 Z M-115 66 C-115.83333333 69.5 -115.83333333 69.5 -115 73 C-112.88468773 75.70289901 -111.1101533 77.42701765 -108.0625 79 C-104.82444682 79 -102.72372099 77.65791712 -100 76 C-97.49968346 72.24952518 -97.46396446 70.44143734 -98 66 C-100.59216083 62.30813458 -102.04149064 61.17116239 -106.5 60.375 C-110.95850936 61.17116239 -112.40783917 62.30813458 -115 66 Z M72 66 C71.16666667 69.5 71.16666667 69.5 72 73 C74.11531227 75.70289901 75.8898467 77.42701765 78.9375 79 C82.17555318 79 84.27627901 77.65791712 87 76 C89.50031654 72.24952518 89.53603554 70.44143734 89 66 C86.40783917 62.30813458 84.95850936 61.17116239 80.5 60.375 C76.04149064 61.17116239 74.59216083 62.30813458 72 66 Z M-96.25341797 91.0456543 C-100.03267704 95.27447298 -99.12973695 101.28849992 -99.0625 106.65625 C-99.06789405 108.00477212 -99.07566242 109.35328663 -99.08569336 110.70178223 C-99.09746658 113.52346094 -99.08042652 116.34310897 -99.04296875 119.16455078 C-98.99737273 122.7740664 -99.02363046 126.37882567 -99.07154846 129.98816681 C-99.10052048 132.77154104 -99.09123083 135.55379518 -99.07052612 138.33720398 C-99.06262719 140.31195177 -99.08683813 142.28674386 -99.11157227 144.26135254 C-99.20810183 150.59131161 -99.20810183 150.59131161 -96.24902344 155.84887695 C-94.16818893 157.20083187 -94.16818893 157.20083187 -91.9934082 158.09338379 C-87.98826588 159.91495097 -85.74663441 163.49004922 -83.83081055 167.36450195 C-82.89685694 170.32719051 -83.21495082 172.11687762 -83.58203125 175.16796875 C-83.51685717 178.17285437 -83.51685717 178.17285437 -82 181 C-76.4617372 185.68846415 -69.23807034 188.35434335 -62.6875 191.3125 C-60.86467361 192.17118681 -59.04368352 193.03378324 -57.22460938 193.90039062 C-53.73385084 195.55712458 -50.23440968 197.19220321 -46.72412109 198.80712891 C-41.0832944 201.40944611 -35.52928585 204.16813496 -30 207 C-29.2575 206.38125 -28.515 205.7625 -27.75 205.125 C-25.49484681 203.38238162 -23.54344168 202.20650438 -21 201 C-20.79107293 193.28122664 -20.63135972 185.56274766 -20.53369045 177.84178734 C-20.4867998 174.25597355 -20.42326312 170.67209949 -20.32104492 167.08740234 C-20.22293131 163.6248041 -20.16938124 160.16406517 -20.14610481 156.70018387 C-20.12148523 154.74207366 -20.05126992 152.78470795 -19.98033142 150.82772827 C-19.80192837 144.28681898 -19.80192837 144.28681898 -22.98001099 138.90216064 C-25.25978322 137.38888803 -27.5467214 136.20121784 -30 135 C-33.74697698 131.25302302 -35.65920593 127.07167716 -37 122 C-36.99558175 120.53304691 -36.97989992 119.06608944 -36.95361328 117.59936523 C-37.27433721 114.57227606 -37.56321644 113.39371643 -39.8493042 111.33303833 C-42.5234487 109.7605691 -45.2300395 108.44304531 -48.0546875 107.16015625 C-49.57341965 106.42060951 -49.57341965 106.42060951 -51.12283325 105.66612244 C-54.35900308 104.09887965 -57.61539264 102.58030124 -60.875 101.0625 C-63.06273109 100.01556758 -65.24895132 98.96547173 -67.43359375 97.91210938 C-72.24177913 95.59571999 -77.06365756 93.31091313 -81.89962769 91.05311584 C-84 90 -84 90 -87 88 C-90.86952361 88 -93.03995214 88.9370703 -96.25341797 91.0456543 Z M56.58984375 90.16796875 C55.69418701 90.64226318 54.79853027 91.11655762 53.87573242 91.60522461 C51.88484317 92.6773437 49.89412575 93.74978191 47.90356445 94.82250977 C42.26575334 97.83446725 36.61860572 100.6613255 30.765625 103.234375 C29.58492432 103.7703833 28.40422363 104.3063916 27.18774414 104.85864258 C24.89455756 105.89303176 22.58374286 106.88938322 20.25561523 107.8425293 C17.04708035 109.32109978 14.58248413 110.58313971 12 113 C10.82434509 116.40543635 10.42364994 119.35555339 10.24633789 122.94750977 C9.76544384 128.90649723 6.3103218 133.04462951 1.9375 136.875 C-0.37677548 138.54915673 -2.44916116 139.78218016 -5 141 C-5.23213673 148.71862539 -5.40959518 156.43688753 -5.51812172 164.15821266 C-5.57022592 167.74426523 -5.64081948 171.32792354 -5.75439453 174.91259766 C-5.86341107 178.37524069 -5.92290715 181.83558913 -5.94877243 185.29981613 C-5.97612957 187.25807289 -6.05414931 189.21541046 -6.13296509 191.17227173 C-6.20941164 197.77983561 -6.20941164 197.77983561 -2.99093628 203.28927612 C0.27260642 205.54332901 3.09156768 207.14369405 7.13882446 206.83895874 C9.30253632 206.082985 11.10705516 205.11158563 13.0703125 203.9296875 C13.79507782 203.5406424 14.51984314 203.15159729 15.26657104 202.75076294 C17.57744724 201.49873447 19.84943183 200.18991253 22.125 198.875 C23.62795808 198.04409371 25.13315915 197.21723106 26.640625 196.39453125 C28.88564615 195.16721326 31.12543134 193.93386485 33.35217285 192.67364502 C37.06097402 190.57673881 40.7782008 188.59304225 44.63867188 186.78808594 C45.37858368 186.4391629 46.11849548 186.09023987 46.88082886 185.73074341 C48.28284228 185.07841593 49.69257998 184.44235205 51.11062622 183.82565308 C54.31375755 182.32909839 55.78419016 181.56637766 57.06933594 178.19360352 C57.30515931 175.47902622 57.30515931 175.47902622 57.1015625 172.67578125 C56.93962877 168.40945033 58.52053256 165.39256473 61 162 C64.3208818 158.53238156 67.70034119 156.10203072 72 154 C72.18556501 146.13331657 72.32760577 138.26714778 72.41449738 130.39882374 C72.4562086 126.74483123 72.51274957 123.09233828 72.60351562 119.43920898 C72.69060648 115.91181984 72.73830475 112.38587005 72.75901794 108.85748863 C72.78094146 106.86014126 72.84337219 104.86337152 72.90637207 102.86689758 C73.12639712 96.45682756 73.12639712 96.45682756 70.27124023 91.03451538 C65.22415123 87.72350077 61.95049882 87.29029447 56.58984375 90.16796875 Z M-20 111 C-22.15741221 113.62641487 -21.9990559 115.05286942 -21.9375 118.5 C-21.26211588 122.07782385 -21.26211588 122.07782385 -18.8125 124.4375 C-15.45611204 126.30215998 -13.7822566 126.6303761 -10 126 C-7.0684887 124.5714939 -7.0684887 124.5714939 -5 122 C-4.08891584 118.59861914 -3.70511584 116.17953664 -4.5625 112.75 C-6.64068958 110.22003008 -9.01178557 109.24508935 -12 108 C-15.18083904 108 -17.29178403 109.42020735 -20 111 Z M-115 173 C-115.87527568 175.87507773 -115.86253999 178.12293708 -115 181 C-112.59524336 184.24009686 -112.59524336 184.24009686 -109 186 C-105.04580795 186.06817573 -102.88377478 185.5665223 -99.5625 183.4375 C-97.7502244 180.61035007 -97.31096457 178.33135013 -97.48046875 174.97265625 C-98.47977599 171.17829417 -100.70164883 169.99145731 -104 168 C-108.6944298 166.82639255 -112.25479347 169.23100358 -115 173 Z M72 173 C71.12472432 175.87507773 71.13746001 178.12293708 72 181 C74.40475664 184.24009686 74.40475664 184.24009686 78 186 C81.95419205 186.06817573 84.11622522 185.5665223 87.4375 183.4375 C89.2497756 180.61035007 89.68903543 178.33135013 89.51953125 174.97265625 C88.52022401 171.17829417 86.29835117 169.99145731 83 168 C78.3055702 166.82639255 74.74520653 169.23100358 72 173 Z M-21 220 C-22.33660145 223.35592863 -22.33660145 223.35592863 -22 227 C-19.83958094 230.4312538 -18.25998121 232.46450799 -14.5 234.0625 C-10.36058633 233.95901466 -8.06685433 231.99573071 -5.125 229.25 C-3.40405288 225.80810577 -3.96041257 223.638556 -5 220 C-7.59679473 217.10642873 -9.16539447 216.13910092 -13 215.5 C-16.83460553 216.13910092 -18.40320527 217.10642873 -21 220 Z " fill="#000000" transform="translate(269,67)"/>
<path d="M0 0 C1.25027985 -0.00708481 2.50055969 -0.01416962 3.78872681 -0.02146912 C5.1719364 -0.01917527 6.55514564 -0.01666556 7.93835449 -0.01396179 C9.39729066 -0.01830991 10.85622454 -0.0234934 12.31515503 -0.02944946 C16.27843311 -0.04284811 20.24161586 -0.04341658 24.20491219 -0.04088616 C27.51941744 -0.03981584 30.83390346 -0.04470201 34.1484046 -0.04949158 C41.97716555 -0.06059232 49.80587854 -0.06102269 57.63464355 -0.05497742 C65.68932461 -0.0489527 73.74383032 -0.06120897 81.79848146 -0.08254749 C88.72694141 -0.10022224 95.65534587 -0.10615515 102.5838275 -0.10290974 C106.71568786 -0.10110418 110.84742349 -0.10365884 114.97926331 -0.11762428 C118.87320559 -0.13029186 122.76687758 -0.12817511 126.66081619 -0.11521339 C128.08128072 -0.11286637 129.50176479 -0.11551413 130.92220688 -0.12383652 C145.10616527 -0.20087057 156.12986524 1.57907493 166.90515137 11.26069641 C174.76188012 19.60733666 175.34421776 28.99644161 175.29283142 39.95599365 C175.29700835 41.34654595 175.30248783 42.73709484 175.30915123 44.12763745 C175.3235775 47.93458589 175.31937001 51.74131732 175.31198442 55.5482775 C175.30724807 59.65947911 175.3197667 63.77063409 175.33000183 67.88182068 C175.34718578 75.93032207 175.34803071 83.97874538 175.34278893 92.02726036 C175.33874539 98.56971627 175.34019296 105.11214914 175.34553719 111.65460396 C175.34628561 112.58621827 175.34703403 113.51783258 175.34780513 114.47767763 C175.34933663 116.37032278 175.35087497 118.26296793 175.3524201 120.15561307 C175.36614357 137.89874038 175.36070843 155.64182357 175.34923489 173.38494987 C175.33930174 189.61261972 175.35224486 205.84017555 175.37616908 222.06782781 C175.40055871 238.73694933 175.41016834 255.40601775 175.40351635 272.07515675 C175.40002395 281.43101223 175.40225764 290.78678002 175.41976738 300.14262199 C175.43448761 308.1066352 175.4351271 316.07049896 175.41769647 324.03450923 C175.40918278 328.09643289 175.40704582 332.15808956 175.42234802 336.21999931 C175.43619419 339.94152635 175.43143333 343.66255763 175.41210879 347.38405598 C175.40657258 349.36135213 175.42062089 351.33867352 175.43546289 353.31592172 C175.34037443 364.8154342 171.82184555 372.905089 163.90515137 381.26069641 C154.33488324 389.57008688 141.1537307 389.72143798 129.12780762 389.69429016 C127.74445849 389.69886465 126.36111162 389.70417393 124.97776794 389.71017456 C122.10442758 389.71902974 119.2313664 389.71676463 116.35803223 389.70674133 C112.68386422 389.69516931 109.01064569 389.71562508 105.33660221 389.74465847 C102.49092053 389.76301554 99.64546777 389.76273068 96.79974174 389.75702095 C94.78952301 389.7567943 92.77932565 389.77365469 90.7691803 389.79083252 C89.54698288 389.78145157 88.32478546 389.77207062 87.06555176 389.7624054 C85.99366104 389.76223923 84.92177032 389.76207306 83.81739807 389.76190186 C80.17754152 389.13547281 78.51015861 387.8355103 75.90515137 385.26069641 C74.64905121 381.57090221 74.56162324 379.99682812 76.21765137 376.44819641 C77.90515137 374.26069641 77.90515137 374.26069641 79.90515137 373.26069641 C81.86415106 373.15582411 83.82668216 373.11466578 85.78845215 373.10298157 C87.64145432 373.08758835 87.64145432 373.08758835 89.53189087 373.07188416 C90.19437962 373.06844624 90.85686836 373.06500832 91.53943253 373.06146622 C93.61699158 373.04966503 95.69434388 373.03020568 97.77182007 373.00834656 C103.67947408 372.94679747 109.58711042 372.89284615 115.49499512 372.85932922 C119.10903983 372.83827457 122.72271295 372.80287856 126.33654404 372.75857162 C127.708684 372.74448776 129.08088977 372.73570652 130.4530983 372.73251724 C143.02847427 372.7466774 143.02847427 372.7466774 153.78015137 366.82319641 C156.68295145 363.32276102 158.13723967 360.70404587 158.22399902 356.13471985 C158.25380356 354.93392792 158.25380356 354.93392792 158.28421021 353.70887756 C158.29576141 352.85457153 158.30731262 352.0002655 158.31921387 351.12007141 C158.33858002 350.2378894 158.35794617 349.3557074 158.37789917 348.4467926 C158.43757985 345.63485825 158.4840342 342.82288271 158.53015137 340.01069641 C158.56834175 338.1018246 158.6073941 336.19296982 158.64733887 334.28413391 C158.74327194 329.60979345 158.82734553 324.93537232 158.90515137 320.26069641 C158.09663359 320.26221529 157.28811581 320.26373417 156.4550975 320.26529908 C108.56497381 320.35475802 60.67485897 320.42341563 12.78466849 320.46495773 C7.03796408 320.46996072 1.29125983 320.47513799 -4.45544434 320.48042297 C-5.59953824 320.48147222 -6.74363215 320.48252146 -7.92239556 320.48360249 C-26.46180863 320.50102076 -45.00117223 320.53256628 -63.54055592 320.5693076 C-82.55529563 320.60667745 -101.57000939 320.62892388 -120.58478433 320.63705039 C-132.32352389 320.64254637 -144.06212362 320.65992201 -155.80082015 320.69236228 C-163.84401966 320.71346135 -171.88714659 320.71990692 -179.93037178 320.71470192 C-184.57502335 320.71213295 -189.21943012 320.71614666 -193.86403847 320.73751831 C-198.11361847 320.75693005 -202.36278817 320.75800164 -206.61238674 320.74429199 C-208.15217765 320.74259665 -209.69199377 320.74771651 -211.23173478 320.76022914 C-213.32104719 320.77622473 -215.40886819 320.76766794 -217.49815655 320.75288773 C-218.65972104 320.75440661 -219.82128553 320.75592549 -221.01804894 320.7574904 C-224.75213983 320.1545672 -226.42480081 318.88960122 -229.09484863 316.26069641 C-229.72375488 314.26069641 -229.72375488 314.26069641 -229.65734863 312.26069641 C-229.6586377 311.60069641 -229.65992676 310.94069641 -229.66125488 310.26069641 C-228.83046872 307.32716183 -227.46027699 306.16263901 -225.09484863 304.26069641 C-222.13583541 303.76390243 -222.13583541 303.76390243 -218.60558701 303.7685051 C-217.95263613 303.76388972 -217.29968526 303.75927434 -216.626948 303.7545191 C-214.42945998 303.74389452 -212.23313415 303.76190403 -210.03570557 303.77967834 C-208.44832721 303.77793468 -206.86094997 303.77443354 -205.27357888 303.76932168 C-200.90426517 303.76035757 -196.53534202 303.77640488 -192.16607809 303.79643393 C-187.45717457 303.81367396 -182.74829387 303.80786467 -178.03936768 303.80482483 C-169.87842318 303.80272528 -161.7176064 303.81529766 -153.55669403 303.83777618 C-141.75734017 303.87025536 -129.9580482 303.88069902 -118.15865448 303.88572815 C-99.01593157 303.89448722 -79.87327675 303.92111939 -60.73059082 303.9589386 C-42.13293804 303.99564286 -23.53530375 304.02396238 -4.93762207 304.04096985 C-3.79166666 304.04202074 -2.64571125 304.04307164 -1.46502993 304.04415438 C4.28377078 304.04937445 10.03257162 304.0544293 15.78137255 304.05940199 C63.48934589 304.10088307 111.19724531 304.17134814 158.90515137 304.26069641 C158.8691669 269.3293907 158.81225175 234.3981851 158.72723041 199.46696406 C158.71721285 195.34384655 158.70736874 191.22072865 158.69763184 187.09761047 C158.69569046 186.27676527 158.69374909 185.45592007 158.69174889 184.61020078 C158.66072026 171.31584656 158.64374583 158.0215096 158.63195714 144.72712599 C158.61955005 131.08779803 158.59205865 117.44856076 158.5505383 103.80929005 C158.52539021 95.3918056 158.51203504 86.97447152 158.51372179 78.55694897 C158.51375153 72.78623235 158.49914106 67.015669 158.47298709 61.24501209 C158.45832601 57.91455944 158.45231897 54.58468589 158.45934868 51.25416756 C158.4659564 47.64320262 158.44814356 44.03315911 158.4241333 40.42228699 C158.43189372 39.36975325 158.43965414 38.31721952 158.44764972 37.23279083 C158.37628726 31.18671229 157.72460259 27.97278704 153.90515137 23.26069641 C153.90515137 22.60069641 153.90515137 21.94069641 153.90515137 21.26069641 C147.9908549 18.82539786 142.9378893 17.01198417 136.47799683 17.00241089 C135.20499222 16.99558289 133.93198761 16.98875488 132.6204071 16.98171997 C131.22232027 16.98413896 129.82423372 16.9867232 128.42614746 16.98945618 C126.94408381 16.98506596 125.46202262 16.97976273 123.97996521 16.97361755 C120.79611071 16.96214213 117.61232256 16.95665997 114.42844772 16.95573616 C109.39446735 16.95379222 104.36062399 16.93572294 99.32669067 16.91497803 C86.827146 16.8658411 74.32756433 16.83487977 61.82794189 16.81367493 C52.10571541 16.79715968 42.38360692 16.77438099 32.66145957 16.73065418 C27.65648282 16.70885988 22.65173015 16.70082151 17.6467092 16.70304692 C14.53588623 16.70138193 11.4252101 16.68734499 8.31443977 16.66983414 C6.87127435 16.66422849 5.42807856 16.66375506 3.98491096 16.66877174 C2.01604838 16.6748989 0.0471537 16.6609532 -1.92166138 16.64596558 C-3.02370722 16.64395425 -4.12575306 16.64194292 -5.26119423 16.63987064 C-8.45614303 16.21235123 -9.81977385 15.51243062 -12.09484863 13.26069641 C-13.25864744 9.6917134 -13.404053 7.97674864 -11.90734863 4.51069641 C-8.50448063 0.28644648 -5.26726808 0.00994869 0 0 Z " fill="#000000" transform="translate(337.0948486328125,28.739303588867188)"/>
</svg>
