<?xml version="1.0" encoding="UTF-8"?>
<svg version="1.1" xmlns="http://www.w3.org/2000/svg" width="512" height="512">
<path d="M0 0 C1.13211914 -0.02791626 1.13211914 -0.02791626 2.28710938 -0.05639648 C13.90552151 0.07178437 23.80148435 5.42308815 33.625 11.125 C34.72013916 11.74963135 35.81527832 12.3742627 36.94360352 13.01782227 C40.11590022 14.83232842 43.27879642 16.66195227 46.4375 18.5 C47.22318359 18.95713379 48.00886719 19.41426758 48.81835938 19.88525391 C52.18890905 21.85297267 55.54948968 23.83699575 58.90625 25.828125 C64.53617855 29.16001908 70.2066917 32.42147673 75.875 35.6875 C76.98222412 36.32550537 78.08944824 36.96351074 79.23022461 37.62084961 C81.50087068 38.92889477 83.77162358 40.23675448 86.04248047 41.54443359 C91.5091998 44.69332054 96.97324887 47.84683264 102.4375 51 C104.60415311 52.2500235 106.77081979 53.50002347 108.9375 54.75 C121.9375 62.25 134.9375 69.75 147.9375 77.25 C149.01016113 77.86883057 150.08282227 78.48766113 151.18798828 79.12524414 C153.35307071 80.37435518 155.51810982 81.62354129 157.68310547 82.87280273 C163.12365706 86.01202309 168.56497216 89.14990563 174.0078125 92.28515625 C184.45956199 98.30747329 194.90049548 104.34669337 205.3125 110.4375 C213.99012859 115.51275485 222.703789 120.52217149 231.4375 125.5 C244.15326689 132.74957182 256.83096286 140.06169797 269.4375 147.5 C270.15583008 147.9228125 270.87416016 148.345625 271.61425781 148.78125 C286.94703379 157.84465827 295.95296384 167.05963395 301.4375 184.5 C304.39377929 197.91695987 301.8147536 211.46098955 295.4375 223.5 C287.71442155 235.06935467 277.12453562 241.31343602 265.20501709 248.00735474 C263.37903172 249.03283604 261.55655801 250.06432969 259.73486328 251.09741211 C257.83638576 252.17403211 255.9377564 253.250368 254.03811646 254.32493591 C247.77548715 257.86821659 241.54183734 261.46104551 235.3125 265.0625 C233.1640625 266.30338542 231.015625 267.54427083 228.8671875 268.78515625 C227.80725586 269.39762207 226.74732422 270.01008789 225.65527344 270.64111328 C220.25079351 273.76324607 214.84399893 276.88136526 209.4375 280 C208.36628906 280.61810547 207.29507812 281.23621094 206.19140625 281.87304688 C200.75103925 285.01222374 195.30987045 288.14999629 189.8671875 291.28515625 C179.41543801 297.30747329 168.97450452 303.34669337 158.5625 309.4375 C149.29250223 314.85921178 139.97918248 320.20204915 130.64904785 325.51922607 C121.5246716 330.72045129 112.43617226 335.98027878 103.37060547 341.28344727 C92.85402145 347.43335892 82.29835599 353.51491822 71.74169922 359.59570312 C67.30135616 362.15478956 62.86353506 364.7182308 58.42602539 367.28222656 C56.2401063 368.54388714 54.05310776 369.8036795 51.86499023 371.06152344 C46.7551953 373.99917927 41.65879622 376.95449695 36.59375 379.96875 C20.28848805 389.61982624 5.92110264 395.29864048 -13.21484375 391.83984375 C-27.13731591 388.01571644 -38.09347064 379.67161299 -45.2109375 367.1875 C-50.52282074 356.62514258 -51.7117472 347.07431754 -51.70294189 335.40086365 C-51.70591302 334.17167664 -51.70888414 332.94248963 -51.7119453 331.67605454 C-51.71911123 328.27141783 -51.7218035 324.8668316 -51.72254276 321.46219099 C-51.72439763 317.78716112 -51.73194721 314.1121421 -51.73867798 310.43711853 C-51.75224503 302.40380081 -51.75828366 294.37048809 -51.76268864 286.33716083 C-51.76545417 281.3174299 -51.76969213 276.29770089 -51.77419281 271.27797127 C-51.78638402 257.36966161 -51.79668319 243.46135348 -51.8000679 229.5530386 C-51.80028747 228.66330103 -51.80050703 227.77356347 -51.80073325 226.85686416 C-51.80106067 225.51912708 -51.80106067 225.51912708 -51.8013947 224.154365 C-51.80183816 222.34729477 -51.80228472 220.54022453 -51.80273438 218.7331543 C-51.8029558 217.83679168 -51.80317723 216.94042906 -51.80340537 216.01690394 C-51.8073509 201.50222609 -51.82479809 186.98759852 -51.8480939 172.47294008 C-51.8718387 157.55765168 -51.8842712 142.64238848 -51.88543582 127.72708088 C-51.88635089 119.35811535 -51.89206077 110.98921531 -51.91025543 102.62026787 C-51.92569879 95.49187511 -51.93075205 88.36356809 -51.92251733 81.23516177 C-51.91862558 77.6021419 -51.91946764 73.96929445 -51.93357468 70.33629608 C-51.94876955 66.38679813 -51.94040334 62.43753938 -51.92999268 58.48802185 C-51.94207728 56.78836176 -51.94207728 56.78836176 -51.95440602 55.0543651 C-51.85506844 38.86197275 -47.2619811 25.59690834 -36.03515625 13.7890625 C-25.71044877 4.23096047 -13.89433435 0.21899278 0 0 Z " fill="#ffffff" transform="translate(130.5625,59.5)"/>
</svg>
