<?xml version="1.0" encoding="UTF-8"?>
<svg version="1.1" xmlns="http://www.w3.org/2000/svg" width="512" height="512">
<path d="M0 0 C1.18932129 0.01208496 2.37864258 0.02416992 3.60400391 0.03662109 C23.57088725 0.47131376 42.82542295 4.24975031 61.75 10.5 C62.93335938 10.88430176 62.93335938 10.88430176 64.140625 11.27636719 C96.20080438 21.8525108 123.5104491 40.33033273 147.75 63.5 C148.76513672 64.45326172 148.76513672 64.45326172 149.80078125 65.42578125 C184.51911461 98.86711844 208.562828 151.94491078 209.92700195 199.98046875 C209.95310068 201.54939507 209.9732951 203.11842819 209.98828125 204.6875 C209.99802979 205.53968613 210.00777832 206.39187225 210.01782227 207.2698822 C210.18852408 226.05657736 209.98768283 244.1007263 205.75 262.5 C205.56808105 263.32822266 205.38616211 264.15644531 205.19873047 265.00976562 C198.34535802 295.65701831 184.81201816 326.84356156 164.12866211 350.74438477 C161.54274898 353.74009465 159.00550402 356.77265275 156.4765625 359.81640625 C156.01934814 360.36590942 155.56213379 360.9154126 155.09106445 361.48156738 C153.97694946 362.82068991 152.86341387 364.16029446 151.75 365.5 C153.04099609 365.51458252 154.33199219 365.52916504 155.66210938 365.54418945 C160.47813824 365.6024131 165.29371129 365.67964414 170.109375 365.76245117 C172.1887265 365.7955876 174.26816552 365.82365424 176.34765625 365.84643555 C179.34673146 365.88018951 182.34501287 365.9325156 185.34375 365.98828125 C186.26490601 365.99467117 187.18606201 366.0010611 188.13513184 366.00764465 C194.22092048 366.14448648 200.61846958 366.58778081 205.31066895 370.95137024 C209.80345602 376.20870587 210.09167724 379.76957246 210.03515625 386.51171875 C209.55981716 391.49301195 207.33239469 394.10941073 203.6875 397.3125 C200.66164229 399.16705795 198.14179821 399.62655733 194.67118835 399.64717102 C193.42850693 399.65790398 193.42850693 399.65790398 192.16072083 399.66885376 C190.8024543 399.67288712 190.8024543 399.67288712 189.41674805 399.67700195 C188.46034424 399.68357315 187.50394043 399.69014435 186.51855469 399.69691467 C183.3496086 399.71664554 180.18070987 399.72830923 177.01171875 399.73828125 C175.9297352 399.74235678 174.84775166 399.7464323 173.73298073 399.75063133 C168.00729183 399.77149018 162.28162688 399.78579328 156.5559082 399.79516602 C150.64088371 399.80623599 144.72623482 399.84064351 138.81134319 399.88033772 C134.2637105 399.9064745 129.71616776 399.91485521 125.16846657 399.91844749 C122.98797885 399.92332025 120.80749533 399.93495376 118.62708092 399.95348549 C115.57489552 399.9778161 112.5236881 399.9769229 109.47143555 399.9699707 C108.12227806 399.98918579 108.12227806 399.98918579 106.74586487 400.00878906 C101.24437206 399.96314355 98.11431653 399.16559959 93.75 395.5 C88.78687676 390.0003229 88.59504435 385.64239185 88.57299805 378.47387695 C88.56642685 377.54994644 88.55985565 376.62601593 88.55308533 375.67408752 C88.533353 372.61215128 88.52168895 369.55026411 88.51171875 366.48828125 C88.50764322 365.44189169 88.5035677 364.39550213 88.49936867 363.31740379 C88.47850677 357.77744112 88.46420637 352.23750322 88.45483398 346.69750977 C88.44377808 340.98221439 88.40938769 335.26730925 88.36966228 329.55215168 C88.34348343 325.15198556 88.33514093 320.75191218 88.33155251 316.35167503 C88.32668873 314.24540768 88.31508073 312.1391444 88.29651451 310.03295326 C88.27209978 307.07935552 88.2730927 304.12676401 88.2800293 301.1730957 C88.26721924 300.30890015 88.25440918 299.44470459 88.24121094 298.55432129 C88.29071737 292.74785184 89.48503846 288.35293092 92.75 283.5 C97.41692116 279.06073353 101.22748682 278.18784419 107.47265625 278.2890625 C112.34541469 278.74039862 115.43585024 280.9190507 118.5625 284.5 C121.47633683 288.49611909 121.8795442 291.16388098 121.95532227 295.98120117 C121.97526749 297.10213669 121.99521271 298.2230722 122.01576233 299.37797546 C122.03247482 300.58742325 122.04918732 301.79687103 122.06640625 303.04296875 C122.08718735 304.28170242 122.10796844 305.5204361 122.12937927 306.79670715 C122.18371797 310.08625256 122.23395951 313.37582726 122.28222656 316.66546631 C122.33250646 320.02377814 122.38815861 323.38200046 122.44335938 326.74023438 C122.55053048 333.32675159 122.65230135 339.91333584 122.75 346.5 C132.5779229 336.090414 132.5779229 336.090414 141.375 324.8125 C141.9114917 324.05831787 142.4479834 323.30413574 143.00073242 322.52709961 C159.69162192 298.61249824 170.26182556 271.26952103 174.75 242.5 C174.92200928 241.44498291 175.09401855 240.38996582 175.27124023 239.30297852 C175.78206137 235.24532384 175.92867478 231.25413876 175.953125 227.171875 C175.96371445 225.9983271 175.96371445 225.9983271 175.97451782 224.80107117 C176.34256904 201.46491825 176.34256904 201.46491825 172.75 178.5 C172.54068848 177.66307617 172.33137695 176.82615234 172.11572266 175.96386719 C170.521126 169.74573019 168.71047416 163.61199396 166.75 157.5 C166.52473633 156.79278809 166.29947266 156.08557617 166.06738281 155.35693359 C158.51164415 132.20971926 145.41916359 111.14396847 128.75 93.5 C127.62037767 92.17058052 126.49520688 90.83736282 125.375 89.5 C96.20530692 56.26786108 50.29874214 37.23620082 6.875 34.3125 C5.79992187 34.25288086 4.72484375 34.19326172 3.6171875 34.13183594 C-13.75316007 33.15529944 -13.75316007 33.15529944 -20.25 26.5 C-23.33745377 21.61948888 -22.84662038 16.06348504 -22.25 10.5 C-17.52893917 0.3315613 -10.12498055 -0.16508901 0 0 Z " fill="#2F2F2F" transform="translate(262.25,39.5)"/>
<path d="M0 0 C0.93602051 -0.00700928 1.87204102 -0.01401855 2.83642578 -0.02124023 C5.90875532 -0.0387445 8.98015248 -0.02722518 12.05249023 -0.01367188 C14.19905269 -0.01636873 16.34561395 -0.02025276 18.49217224 -0.02526855 C22.98171671 -0.03115317 27.47094197 -0.02263303 31.96044922 -0.00390625 C37.7060486 0.01889617 43.45090104 0.00574505 49.19647312 -0.01819611 C53.62580464 -0.0326702 58.05495989 -0.02804087 62.4842968 -0.01768494 C64.60252916 -0.01502284 66.72077769 -0.01826916 68.83899117 -0.02760315 C71.80194454 -0.03779662 74.76369817 -0.02222867 77.7265625 0 C78.59584885 -0.00809692 79.46513519 -0.01619385 80.36076355 -0.02453613 C86.15323587 0.05570492 89.54614105 1.15358734 94.29858398 4.51757812 C98.96326733 10.53256454 99.45028857 15.17479483 99.4597168 22.57543945 C99.46716415 23.9661541 99.46716415 23.9661541 99.47476196 25.38496399 C99.48938389 28.45651997 99.49618576 31.52802429 99.50170898 34.59960938 C99.50746054 36.73329164 99.51321827 38.86697389 99.51898193 41.00065613 C99.5294921 45.47708375 99.53533462 49.95349341 99.53881836 54.42993164 C99.5443022 60.1632882 99.56832795 65.89640716 99.59679031 71.62968922 C99.61542291 76.03835237 99.62062264 80.44695837 99.62215424 84.85565758 C99.62518003 86.96914659 99.63320606 89.08263461 99.64633942 91.19608498 C99.66341216 94.15475105 99.66151651 97.11283772 99.6550293 100.0715332 C99.66424408 100.94291931 99.67345886 101.81430542 99.68295288 102.71209717 C99.64376979 108.42280289 98.82185508 112.81453199 94.76342773 117.16210938 C88.77019864 121.74516692 84.79263994 122.24214155 77.29858398 121.51757812 C72.53176228 120.07361389 69.49634399 117.18887602 67.12145996 112.81564331 C65.32716037 107.80466045 65.69445317 102.4073657 65.68920898 97.14648438 C65.67267273 95.8690184 65.65613647 94.59155243 65.63909912 93.27537537 C65.59888093 89.90015795 65.575473 86.52569197 65.56036377 83.15032959 C65.54071834 79.69772155 65.49875713 76.24539013 65.45874023 72.79296875 C65.38490147 66.03457301 65.33323492 59.2762823 65.29858398 52.51757812 C56.43293297 61.98712752 56.43293297 61.98712752 48.29858398 72.08007812 C47.56140137 73.07225342 47.56140137 73.07225342 46.80932617 74.08447266 C17.8367314 113.96581473 6.11397746 163.9317277 13.77563477 212.54443359 C22.27036109 260.41879021 48.51404602 303.51033029 88.24780273 331.75195312 C116.94341388 351.64013854 149.41758702 362.80666737 184.22924805 364.83520508 C201.82963392 365.8908488 201.82963392 365.8908488 208.29858398 372.51757812 C211.38603776 377.39808925 210.89520436 382.95409309 210.29858398 388.51757812 C208.13983035 393.16720135 205.06976972 396.52697401 200.29858398 398.51757812 C196.20870071 399.12325902 192.17635732 399.08488196 188.04858398 399.01757812 C186.8592627 399.00549316 185.66994141 398.9934082 184.44458008 398.98095703 C164.50958262 398.54695854 145.17642046 394.83937341 126.29858398 388.51757812 C125.46085449 388.23962402 124.623125 387.96166992 123.76000977 387.67529297 C101.9875892 380.29558831 81.46383929 369.62110076 63.29858398 355.51757812 C62.28924805 354.73769531 61.27991211 353.9578125 60.23999023 353.15429688 C53.29603547 347.60898264 46.76685018 341.60426315 40.29858398 335.51757812 C39.63987305 334.90140625 38.98116211 334.28523438 38.30249023 333.65039062 C3.58158521 300.13228831 -20.51192233 247.15441869 -21.87841797 199.03710938 C-21.9045167 197.46818306 -21.92471112 195.89914993 -21.93969727 194.33007812 C-21.9494458 193.477892 -21.95919434 192.62570587 -21.96923828 191.74769592 C-22.1399401 172.96100076 -21.93909885 154.91685182 -17.70141602 136.51757812 C-17.51949707 135.68935547 -17.33757813 134.86113281 -17.15014648 134.0078125 C-9.56009303 100.06623299 6.1830216 68.7814656 28.72802734 42.3659668 C30.93741904 39.76573292 33.11634141 37.140636 35.29858398 34.51757812 C34.47292435 34.50877876 34.47292435 34.50877876 33.63058472 34.49980164 C27.8874221 34.43573209 22.14481282 34.35127789 16.40209961 34.25512695 C14.26057239 34.22192875 12.11895874 34.19388099 9.97729492 34.17114258 C6.89391345 34.13750309 3.81132029 34.08518158 0.72827148 34.02929688 C-0.70175705 34.01971199 -0.70175705 34.01971199 -2.16067505 34.00993347 C-8.98910851 33.85983242 -13.28570529 32.66487655 -18.51391602 28.01757812 C-22.22734188 23.77366285 -22.04956758 19.72105373 -21.97094727 14.31054688 C-21.54587942 9.90585831 -20.52473029 7.97613811 -17.70141602 4.51757812 C-12.05447674 0.56908116 -6.7320983 -0.06285215 0 0 Z " fill="#2F2F2F" transform="translate(61.701416015625,73.482421875)"/>
</svg>
