<?xml version="1.0" encoding="UTF-8"?>
<svg version="1.1" xmlns="http://www.w3.org/2000/svg" width="512" height="512">
<path d="M0 0 C1.4194154 -0.00543939 2.83882513 -0.01257209 4.25822449 -0.02124023 C8.06154882 -0.03924798 11.86443216 -0.03250479 15.66776276 -0.01972389 C19.66963259 -0.00949349 23.6714683 -0.01901563 27.67333984 -0.02526855 C34.3807647 -0.03250934 41.08801231 -0.02304471 47.79541016 -0.00390625 C55.53637067 0.01792696 63.27691074 0.01075033 71.01786137 -0.01121187 C77.69171517 -0.02938338 84.36544276 -0.03191781 91.03931332 -0.0214572 C95.01381771 -0.01524096 98.98812449 -0.01433624 102.96261597 -0.02760315 C106.69264203 -0.03918933 110.42212614 -0.03108635 114.15209389 -0.00802612 C116.16520578 -0.00025203 118.17836375 -0.01206615 120.19145203 -0.02453613 C127.03230705 0.0393382 131.58067709 0.32229018 137.09765625 4.51757812 C139.01489258 6.53222656 139.01489258 6.53222656 140.6171875 8.87695312 C141.28572754 9.84697266 141.95426758 10.81699219 142.64306641 11.81640625 C143.4630567 13.04893878 144.28103434 14.28281128 145.09765625 15.51757812 C145.86937164 16.67422974 145.86937164 16.67422974 146.65667725 17.85424805 C151.06738082 24.46943854 155.4292553 31.11622597 159.78515625 37.76757812 C161.74744547 40.76085976 163.71053683 43.75360723 165.67524719 46.74530029 C166.88996552 48.59526028 168.10325693 50.44615831 169.31486511 52.29815674 C169.86926773 53.1430365 170.42367035 53.98791626 170.99487305 54.85839844 C171.47482224 55.59133118 171.95477142 56.32426392 172.44926453 57.07940674 C172.9932338 57.8840033 173.53720306 58.68859985 174.09765625 59.51757812 C174.46063419 60.41773635 174.46063419 60.41773635 174.83094501 61.3360796 C176.00503449 63.72882742 176.92383684 64.94264301 179.09765625 66.51757812 C184.50385934 67.59100708 189.89967381 67.41913036 195.3840332 67.34057617 C197.07307953 67.34191619 198.76212584 67.34638988 200.45115662 67.35375977 C204.08824946 67.36300808 207.72437117 67.35029142 211.36135292 67.3206234 C217.12537754 67.27396828 222.88871367 67.27745201 228.65287781 67.28779602 C238.82482002 67.29962244 248.99630048 67.26872126 259.16815186 67.2286377 C274.44001118 67.16891857 289.71188967 67.1444531 304.98385781 67.15688354 C310.69903025 67.15997256 316.4136031 67.14174474 322.12865889 67.10589063 C325.7076465 67.08716839 329.28651877 67.08502689 332.86554909 67.08679962 C334.50850555 67.08417081 336.15146956 67.07477583 337.79433823 67.05758858 C357.53091061 66.85907792 376.26069235 71.18413826 390.96606445 85.18994141 C402.78086274 97.01074824 410.25662568 111.49455659 410.37446725 128.36848843 C410.36982145 129.85418892 410.36982145 129.85418892 410.36508179 131.36990356 C410.3696129 132.44083531 410.37414401 133.51176706 410.37881243 134.61515129 C410.39144016 138.19220892 410.38983708 141.76911399 410.38818359 145.34619141 C410.39416992 147.91575821 410.40097571 150.48532322 410.40853882 153.05488586 C410.42511484 159.30429996 410.43064686 165.55367631 410.43176357 171.80311055 C410.43271586 176.88718732 410.43683513 181.97125171 410.44316483 187.05532455 C410.46076954 201.49091635 410.47000514 215.92647846 410.46850388 230.36208107 C410.46842397 231.13945955 410.46834405 231.91683803 410.46826172 232.71777344 C410.46817996 233.49610876 410.4680982 234.27444409 410.46801396 235.07636534 C410.46720173 247.67941011 410.48632549 260.28233518 410.51453845 272.88534535 C410.54332347 285.84691696 410.5570756 298.80843031 410.5553509 311.77003467 C410.55468884 319.03852513 410.5600999 326.30689017 410.581707 333.57535172 C410.60191274 340.41593207 410.60118785 347.25624433 410.58667374 354.096838 C410.58458909 356.60010732 410.58926581 359.10339333 410.60139465 361.60663414 C410.70139144 383.6839823 408.15110494 400.68295245 392.2578125 417.34570312 C391.54496094 418.06242187 390.83210938 418.77914063 390.09765625 419.51757812 C389.58074219 420.06929688 389.06382812 420.62101562 388.53125 421.18945312 C384.69792012 424.91268737 380.12004813 427.2740591 375.41015625 429.70507812 C374.7752124 430.03846191 374.14026855 430.3718457 373.48608398 430.71533203 C362.61011798 436.09175806 351.67907827 436.9591262 339.70890808 436.90525818 C338.1830617 436.90943892 336.65721844 436.91492047 335.13138086 436.92157799 C330.96880708 436.93595443 326.80643262 436.93181247 322.6438483 436.92441118 C318.14268916 436.91966233 313.64157209 436.93220453 309.14042664 436.94242859 C300.33379953 436.95958878 291.52724386 436.96046232 282.72060438 436.95521569 C275.55901712 436.95116732 268.3974509 436.95262545 261.23586464 436.95796394 C259.70447423 436.95908658 259.70447423 436.95908658 258.14214665 436.96023189 C256.06784102 436.96176344 253.9935354 436.96330178 251.91922978 436.96484686 C232.48436481 436.97856201 213.04954014 436.97314128 193.6146761 436.96166164 C175.85551767 436.95173181 158.09646347 436.96466738 140.33732112 436.98859584 C122.0792476 437.01301019 103.82122257 437.02258887 85.56313306 437.01594311 C75.32182968 437.01245589 65.08060641 437.01465001 54.83931541 437.03219414 C46.1205625 437.0469454 37.40194611 437.04751347 28.68319579 437.03012323 C24.23975894 437.02163463 19.79656568 437.01941098 15.35314178 437.03477478 C11.27619526 437.04869624 7.19969929 437.04376405 3.12277833 437.02453554 C1.65720143 437.0207979 0.19158779 437.02363211 -1.27395616 437.0341472 C-20.11725758 437.15960534 -36.85905138 432.07410438 -50.6953125 418.75195312 C-51.42363281 418.01460938 -52.15195312 417.27726562 -52.90234375 416.51757812 C-53.53785156 415.90398437 -54.17335938 415.29039062 -54.828125 414.65820312 C-66.61303544 402.42907212 -70.36957388 386.20583821 -70.2900238 369.76091003 C-70.29420495 368.40020555 -70.29968672 367.03950456 -70.30634362 365.67880994 C-70.32071494 361.96810145 -70.31657977 358.25761664 -70.3091768 354.54689634 C-70.30442664 350.53381197 -70.31697131 346.52077472 -70.32719421 342.50770569 C-70.344352 334.65646067 -70.34522844 326.8052958 -70.33998131 318.95403691 C-70.33593241 312.56901821 -70.33739171 306.1840231 -70.34272957 299.79900551 C-70.34347799 298.88866881 -70.34422641 297.97833211 -70.34499751 297.04040945 C-70.34652907 295.19077656 -70.34806741 293.34114367 -70.34961248 291.49151079 C-70.36332683 274.16263837 -70.35790754 256.83381115 -70.34642727 239.50493977 C-70.33649804 223.67206221 -70.3494321 207.83930156 -70.37336146 192.00644203 C-70.39777922 175.72705539 -70.40735363 159.44772315 -70.40070873 143.16831857 C-70.3972222 134.03758965 -70.39941103 124.9069506 -70.41695976 115.77623558 C-70.43171533 108.00274542 -70.43227359 100.2294084 -70.41488885 92.45592114 C-70.40640362 88.49461816 -70.40416809 84.53358835 -70.41954041 80.57229996 C-70.43347235 76.93698098 -70.42851682 73.30216698 -70.40930117 69.66687659 C-70.40381482 67.74809687 -70.41774149 65.82929087 -70.43265527 63.91056126 C-70.28416703 46.19944412 -63.94798163 31.82165026 -51.69921875 19.24804688 C-37.10409854 4.99945885 -20.09501292 -0.12603914 0 0 Z M-31.90234375 46.51757812 C-38.08931616 56.50755192 -38.05127846 66.6220769 -38.03605652 78.02253723 C-38.03832208 79.27117843 -38.04058763 80.51981963 -38.04292184 81.80629843 C-38.04901445 85.25587516 -38.04890925 88.70542756 -38.04772747 92.15500844 C-38.04752282 95.88176984 -38.05304831 99.60852357 -38.05778503 103.33528137 C-38.06607805 110.630445 -38.06883926 117.92560054 -38.06939741 125.22076849 C-38.06987318 131.1525023 -38.07193098 137.08423345 -38.07509804 143.01596642 C-38.08390069 159.84626398 -38.08851799 176.67655517 -38.08776756 193.50685505 C-38.08772761 194.41346251 -38.08768765 195.32006997 -38.08764648 196.25415039 C-38.0876056 197.16186908 -38.08756472 198.06958778 -38.0875226 199.0048131 C-38.08711618 213.7146985 -38.09668592 228.42455829 -38.11078485 243.13443629 C-38.1251588 258.25092038 -38.13205448 273.36739199 -38.13119107 288.48388308 C-38.13085947 296.96563879 -38.1335905 305.44736766 -38.14436913 313.9291172 C-38.1534875 321.15046494 -38.15563838 328.37177366 -38.1488597 335.59312467 C-38.14560133 339.27447972 -38.14551306 342.95575997 -38.15421295 346.63710785 C-38.16356424 350.63535082 -38.15728419 354.63342161 -38.14958191 358.63166809 C-38.15472547 359.78480006 -38.15986904 360.93793202 -38.16516846 362.12600738 C-38.11513571 373.90731207 -37.07757553 384.65892149 -28.92578125 393.71289062 C-19.38076955 402.85316685 -9.80401208 404.11188122 3.05175781 404.0255127 C4.5546949 404.03012794 6.05762747 404.03648503 7.56055069 404.04442167 C11.66894813 404.0610527 15.77697183 404.05289721 19.88537025 404.0404768 C24.32444358 404.03140299 28.76345395 404.04540757 33.20251465 404.05639648 C41.89011908 404.07416146 50.57758509 404.07035074 59.26519489 404.05874592 C66.32723944 404.04970391 73.38924527 404.04849092 80.45129395 404.05284119 C81.96027799 404.05376058 81.96027799 404.05376058 83.49974656 404.05469856 C85.54354192 404.05597749 87.58733727 404.05727434 89.6311326 404.05858892 C108.78544014 404.0699888 127.93967104 404.0568903 147.09396601 404.03538746 C163.52101571 404.01751702 179.94795234 404.02062129 196.375 404.0390625 C215.46184525 404.06047966 234.54862338 404.06889022 253.63547897 404.05661345 C255.67165882 404.05533928 257.70783868 404.0540818 259.74401855 404.05284119 C260.74579769 404.05222408 261.74757683 404.05160698 262.77971292 404.05097118 C269.83138916 404.04752082 276.88302274 404.05333985 283.93469238 404.0627594 C292.53104199 404.07399015 301.12724553 404.07091669 309.72357845 404.04963642 C314.1076454 404.03914051 318.49146903 404.03497924 322.87553406 404.04823303 C326.89247965 404.06019309 330.90895744 404.05353531 334.92586088 404.03232282 C336.37525456 404.027872 337.82468815 404.03008873 339.27405596 404.03982598 C351.90418046 404.11813844 360.64886738 401.91870019 369.89453125 393.08007812 C377.81357994 383.86926972 378.25129827 373.12728072 378.23136902 361.55619812 C378.23363458 360.58115493 378.23590013 359.60611174 378.23823434 358.60152179 C378.24454142 355.34916313 378.2437471 352.0968465 378.24291992 348.84448242 C378.24591345 346.5064997 378.24931643 344.16851747 378.25309753 341.83053589 C378.26192166 335.48956153 378.26427497 329.14860067 378.26491332 322.80762076 C378.26574415 318.17783204 378.26864509 313.54804631 378.2717498 308.91825864 C378.28004838 296.46128389 378.28379281 284.00431628 378.28308006 271.54733887 C378.28304011 270.84086011 378.28300015 270.13438135 378.28295898 269.40649414 C378.2829181 268.69914664 378.28287722 267.99179913 378.2828351 267.26301686 C378.28242875 255.80255788 378.29199725 244.34213177 378.30609735 232.8816823 C378.3204819 221.09647425 378.3273664 209.31128222 378.32650357 197.52606517 C378.32617234 190.9166684 378.32908345 184.30730193 378.33968163 177.69791222 C378.34937959 171.48037164 378.34943009 165.26290374 378.34216499 159.04536057 C378.34112129 156.76820456 378.34346926 154.49104399 378.34952545 152.2138958 C378.35727867 149.09581554 378.35257855 145.97798422 378.34489441 142.85990906 C378.35260975 141.52125141 378.35260975 141.52125141 378.36048096 140.15555018 C378.29666675 128.36765114 376.38981841 118.29473453 368.171875 109.44335938 C360.5326479 102.3678034 352.80465736 100.36057742 342.52017212 100.38627625 C341.76538177 100.38416053 341.01059142 100.38204482 340.23292863 100.37986499 C337.70816823 100.37388189 335.18345804 100.37486393 332.65869141 100.37573242 C330.84667374 100.37269984 329.03465684 100.36917811 327.22264099 100.36520386 C323.32233216 100.35732267 319.42203244 100.35217291 315.52171707 100.34891319 C309.35285907 100.34299767 303.18405859 100.32645262 297.01522827 100.30757141 C294.9024525 100.30123429 292.7896767 100.29490867 290.67690086 100.28859425 C289.08994097 100.28384553 289.08994097 100.28384553 287.47092128 100.27900088 C273.11115816 100.23693569 258.75142221 100.20394206 244.39160156 100.19165039 C234.70233653 100.18327145 225.01321432 100.16078871 215.32402074 100.12229472 C210.19801819 100.10253211 205.07222916 100.09013029 199.94618607 100.09512901 C195.12469856 100.09977371 190.30361603 100.08597974 185.48221016 100.05811691 C183.7145718 100.05120275 181.9468916 100.051081 180.17925453 100.05831718 C177.76205828 100.06721185 175.34619581 100.05150338 172.92910767 100.02983093 C171.88507025 100.04249474 171.88507025 100.04249474 170.81994116 100.05541438 C165.45326645 99.96671079 162.44767477 98.43188135 158.09765625 95.51757812 C156.235672 93.48727417 156.235672 93.48727417 154.83129883 91.31005859 C154.28995804 90.48754608 153.74861725 89.66503357 153.19087219 88.81759644 C152.63030624 87.93226227 152.0697403 87.0469281 151.4921875 86.13476562 C150.88686691 85.20648956 150.28154633 84.2782135 149.65788269 83.32180786 C147.7274016 80.35455157 145.81840391 77.3741698 143.91015625 74.39257812 C142.6479225 72.4424278 141.38426253 70.49319981 140.11914062 68.54492188 C138.30738437 65.7540982 136.49734456 62.96240891 134.69917297 60.16281128 C133.53843221 58.3571306 132.34833472 56.57009252 131.13452148 54.7996521 C129.49289863 52.15444634 128.25465563 49.69861771 126.9934082 46.87539673 C124.02102977 40.76987184 120.99768487 34.90106797 114.2846241 32.51968765 C106.30999818 31.02390881 98.235632 31.29489329 90.16139174 31.56076097 C86.60976474 31.65936424 83.05805986 31.65728485 79.50527954 31.66757202 C73.54387107 31.69875827 67.58665773 31.79585442 61.62695312 31.93994141 C53.24933863 32.14227952 44.87398844 32.21743453 36.49430156 32.27084851 C30.65717898 32.31306732 24.82038759 32.38696382 18.98366213 32.46596479 C17.57754428 32.48471852 16.17141283 32.50247821 14.76526976 32.51923418 C10.13735155 32.57522857 5.51129604 32.66779864 0.88427734 32.77783203 C-0.26716263 32.79172974 -1.4186026 32.80562744 -2.60493469 32.81994629 C-14.84340393 33.17642813 -23.84857008 37.15006832 -31.90234375 46.51757812 Z " fill="#ffffff" transform="translate(85.90234375,37.482421875)"/>
<path d="M0 0 C4.16813506 2.12879001 7.16917085 4.99626441 8.9453125 9.3046875 C9.53725878 13.26424528 9.50917923 17.18724931 9.49121094 21.18505859 C9.50154861 22.37587036 9.51188629 23.56668213 9.52253723 24.7935791 C9.54691621 28.04534026 9.55380367 31.29656608 9.55281734 34.5484004 C9.55595314 37.95175611 9.58158512 41.35494191 9.60479736 44.75820923 C9.64531014 51.19663005 9.66568687 57.63494972 9.67877126 64.07347834 C9.69465739 71.40609574 9.73307972 78.73854137 9.77336454 86.07105899 C9.85569871 101.14887821 9.90983122 116.22667974 9.9453125 131.3046875 C10.4375531 130.80800568 10.9297937 130.31132385 11.43695068 129.79959106 C16.08097545 125.11546119 20.72982294 120.43617816 25.38412094 115.76225471 C27.77666434 113.35928245 30.16731505 110.95448886 32.55371094 108.54541016 C35.29847542 105.77472114 38.05134941 103.01217034 40.8046875 100.25 C41.65899353 99.3853714 42.51329956 98.5207428 43.39349365 97.62991333 C44.59428558 96.42889481 44.59428558 96.42889481 45.81933594 95.20361328 C46.87190582 94.14438156 46.87190582 94.14438156 47.94573975 93.06375122 C52.68121656 88.89785855 56.9017927 88.87287933 63.03125 88.9921875 C68.33271351 89.56070906 70.78503745 92.08334534 74.3203125 95.8046875 C76.66856976 100.86247236 76.91628557 105.82154543 75.9453125 111.3046875 C73.00616921 116.31778087 69.32743605 120.20797431 65.22070312 124.28808594 C64.55354782 124.95874588 63.88639252 125.62940582 63.19902039 126.32038879 C61.00485281 128.52331873 58.80349848 130.71889949 56.6015625 132.9140625 C55.06957232 134.44740059 53.53787907 135.98103541 52.00646973 137.51495361 C48.80198832 140.72237857 45.59392983 143.92617059 42.38330078 147.12744141 C38.26729319 151.23203574 34.16035493 155.34556906 30.0560379 159.46184921 C26.89754957 162.6275604 23.73431838 165.78849775 20.56962585 168.94800568 C19.05308694 170.46321028 17.53803271 171.97990239 16.02449036 173.49810028 C13.91110022 175.61656461 11.79141341 177.72852008 9.66992188 179.83886719 C9.0453862 180.46745132 8.42085052 181.09603546 7.77738953 181.7436676 C7.19709488 182.3183226 6.61680023 182.8929776 6.0189209 183.48504639 C5.51897362 183.98423962 5.01902634 184.48343285 4.50392914 184.99775314 C0.87581209 188.04000914 -2.25331125 188.62019162 -6.9296875 188.6796875 C-7.93773437 188.70804688 -8.94578125 188.73640625 -9.984375 188.765625 C-16.74523262 187.7506362 -21.4107471 182.23760873 -26.03808594 177.58007812 C-26.70874588 176.91292282 -27.37940582 176.24576752 -28.07038879 175.55839539 C-30.27331873 173.36422781 -32.46889949 171.16287348 -34.6640625 168.9609375 C-36.19740059 167.42894732 -37.73103541 165.89725407 -39.26495361 164.36584473 C-42.47237857 161.16136332 -45.67617059 157.95330483 -48.87744141 154.74267578 C-52.98203574 150.62666819 -57.09556906 146.51972993 -61.21184921 142.4154129 C-64.3775604 139.25692457 -67.53849775 136.09369338 -70.69800568 132.92900085 C-72.21321028 131.41246194 -73.72990239 129.89740771 -75.24810028 128.38386536 C-77.36656461 126.27047522 -79.47852008 124.15078841 -81.58886719 122.02929688 C-82.21745132 121.4047612 -82.84603546 120.78022552 -83.4936676 120.13676453 C-84.0683226 119.55646988 -84.6429776 118.97617523 -85.23504639 118.3782959 C-85.73423962 117.87834862 -86.23343285 117.37840134 -86.74775314 116.86330414 C-90.55490014 112.32299756 -90.47865033 107.94515295 -90.3671875 102.21875 C-89.79866594 96.91728649 -87.27602966 94.46496255 -83.5546875 90.9296875 C-78.49690264 88.58143024 -73.53782957 88.33371443 -68.0546875 89.3046875 C-62.22675391 92.60310974 -57.8332329 97.27049928 -53.15625 102.0078125 C-52.32128998 102.84560242 -51.48632996 103.68339233 -50.62606812 104.54656982 C-47.97252467 107.21126666 -45.32603835 109.88284936 -42.6796875 112.5546875 C-40.87676402 114.367647 -39.07338359 116.1801522 -37.26953125 117.9921875 C-32.85927638 122.42443852 -28.45478789 126.86235672 -24.0546875 131.3046875 C-24.05322094 130.68146292 -24.05175438 130.05823833 -24.05024338 129.41612816 C-24.01317007 114.24229754 -23.95414866 99.06872401 -23.87078476 83.89508629 C-23.83099797 76.55716975 -23.79860373 69.21936039 -23.78369141 61.88134766 C-23.77067293 55.48452186 -23.74370357 49.08793194 -23.70007443 42.691239 C-23.67746361 39.30507991 -23.66177656 35.9192117 -23.66280365 32.53297043 C-23.66044215 28.74997214 -23.63342553 24.96789794 -23.60058594 21.18505859 C-23.60813148 19.50623093 -23.60813148 19.50623093 -23.61582947 17.79348755 C-23.53336343 11.66002007 -23.21642239 7.93767196 -19.0546875 3.3046875 C-13.23132063 -1.12107132 -7.08748569 -2.39842672 0 0 Z " fill="#ffffff" transform="translate(263.0546875,195.6953125)"/>
</svg>
