<?xml version="1.0" encoding="UTF-8"?>
<svg version="1.1" xmlns="http://www.w3.org/2000/svg" width="512" height="512">
<path d="M0 0 C1.07341663 -0.00262956 1.07341663 -0.00262956 2.16851845 -0.00531223 C4.57882121 -0.00998327 6.98906393 -0.0075039 9.39936924 -0.00507832 C11.13992425 -0.00694573 12.88047885 -0.00924615 14.62103277 -0.01194364 C19.41381123 -0.01807659 24.20657228 -0.01792629 28.99935377 -0.01674926 C34.1643926 -0.01654564 39.32942579 -0.02206035 44.49446201 -0.02680683 C54.61695449 -0.0351219 64.73944114 -0.03786205 74.86193674 -0.03841921 C83.0869147 -0.03889392 91.31189074 -0.04094642 99.5368681 -0.04411983 C122.84034515 -0.05292839 146.14381759 -0.05753884 169.44729631 -0.05678936 C170.70423322 -0.0567494 171.96117012 -0.05670945 173.25619602 -0.05666828 C174.5146619 -0.0566274 175.77312777 -0.05658652 177.06972898 -0.0565444 C197.47446227 -0.05613777 217.87917712 -0.06571106 238.28390508 -0.07980665 C259.21979692 -0.09415542 280.15567975 -0.10107767 301.09157664 -0.10021287 C312.8517844 -0.0998804 324.61197283 -0.10264924 336.37217617 -0.11339092 C346.38327359 -0.12247619 356.3943429 -0.12468744 366.40544265 -0.1178815 C371.51585699 -0.11460641 376.62621735 -0.11459512 381.73662663 -0.12323475 C386.41154693 -0.13105708 391.08637007 -0.12971231 395.76128788 -0.12095062 C397.45572832 -0.11940618 399.15017586 -0.121267 400.84460794 -0.12681069 C403.14207366 -0.13383162 405.43919484 -0.12860818 407.73664856 -0.12025452 C409.0145175 -0.12047188 410.29238644 -0.12068925 411.60897869 -0.12091321 C416.00991487 0.20965734 418.80027901 1.18616292 422.18124485 4.00363445 C425.47947249 8.00862515 425.05709493 12.14701052 425.0598793 17.1973896 C425.06163234 17.91300069 425.06338538 18.62861178 425.06519154 19.36590806 C425.06986257 21.77621081 425.0673832 24.18645353 425.06495762 26.59675884 C425.06682503 28.33731386 425.06912545 30.07786845 425.07182294 31.81842238 C425.07795589 36.61120083 425.0778056 41.40396188 425.07662857 46.19674337 C425.07642494 51.36178221 425.08193965 56.52681539 425.08668613 61.69185162 C425.0950012 71.81434409 425.09774135 81.93683074 425.09829851 92.05932634 C425.09877322 100.28430431 425.10082572 108.50928034 425.10399914 116.7342577 C425.11280769 140.03773475 425.11741815 163.34120719 425.11666866 186.64468592 C425.11660873 188.53009127 425.11660873 188.53009127 425.11654758 190.45358562 C425.1165067 191.7120515 425.11646582 192.97051738 425.1164237 194.26711858 C425.11601707 214.67185187 425.12559037 235.07656673 425.13968595 255.48129468 C425.15403473 276.41718652 425.16095698 297.35306936 425.16009218 318.28896624 C425.15975971 330.049174 425.16252854 341.80936243 425.17327023 353.56956577 C425.18235549 363.58066319 425.18456675 373.59173251 425.1777608 383.60283225 C425.17448571 388.71324659 425.17447442 393.82360695 425.18311405 398.93401623 C425.19093638 403.60893653 425.18959162 408.28375967 425.18082992 412.95867748 C425.17928548 414.65311792 425.18114631 416.34756547 425.18669 418.04199754 C425.19371092 420.33946326 425.18848748 422.63658444 425.18013382 424.93403816 C425.18045987 426.85084158 425.18045987 426.85084158 425.18079251 428.80636829 C424.82878029 433.49276077 424.0146387 435.98962227 420.76158905 439.40967417 C417.16121265 441.5963001 414.84783726 441.62989267 410.64573765 441.63199902 C409.91884247 441.63781278 409.1919473 441.64362654 408.44302499 441.64961648 C406.00004209 441.66424905 403.55805881 441.65031675 401.11508274 441.63656902 C399.34891114 441.64117667 397.58274336 441.64752866 395.81658363 441.655478 C390.95755589 441.67221325 386.09884141 441.66390592 381.23981237 441.65153313 C376.00183336 441.64250211 370.76390912 441.65644267 365.5259409 441.66745281 C355.26251033 441.68526346 344.9991966 441.68138671 334.7357614 441.66980225 C326.39638193 441.66077821 318.05703527 441.65953946 309.71765232 441.66389751 C308.53191877 441.66451045 307.34618523 441.66512338 306.12452036 441.66575488 C303.71592068 441.66703375 301.307321 441.6683306 298.89872134 441.66964525 C276.29951691 441.68105851 253.70037733 441.66792564 231.10118353 441.64644378 C211.69912722 441.62857214 192.29716662 441.63167604 172.89511204 441.65011883 C150.37820547 441.67151236 127.86135577 441.6799598 105.34444046 441.66766977 C102.94457278 441.66639554 100.54470508 441.66513806 98.14483738 441.66389751 C96.96397668 441.66328041 95.78311599 441.66266331 94.56647164 441.66202751 C86.2346085 441.65857006 77.90278136 441.66441146 69.57092381 441.67381573 C59.42074157 441.68502024 49.27068311 441.68202827 39.12051511 441.66069275 C33.93915985 441.6501615 28.75801115 441.64609582 23.5766573 441.65928936 C18.83690027 441.67117614 14.097542 441.66471225 9.35782135 441.64337915 C7.63986223 441.63889729 5.92186969 441.64121469 4.20393193 441.6508823 C1.87438832 441.66298982 -0.45377712 441.6506303 -2.78324795 441.63199902 C-4.07880139 441.63134961 -5.37435484 441.6307002 -6.70916748 441.63003111 C-10.63606224 441.04396755 -12.28039433 439.89897736 -15.06875515 437.12863445 C-16.54877544 434.16859388 -16.19982629 431.52030623 -16.20576954 428.21506405 C-16.20974728 427.13036298 -16.20974728 427.13036298 -16.21380538 426.02374876 C-16.22152718 423.575808 -16.22205864 421.12791717 -16.2226553 418.67996502 C-16.22666802 416.91709952 -16.23110592 415.15423494 -16.23593485 413.39137149 C-16.24792734 408.52760094 -16.25355498 403.66384033 -16.25811601 398.80005789 C-16.26406194 393.56202223 -16.27567425 388.3239985 -16.28640652 383.08597088 C-16.31095297 370.42667772 -16.32556059 357.76738061 -16.33846658 345.10807097 C-16.34217676 341.5345632 -16.34615013 337.96105582 -16.35021925 334.38754845 C-16.37545304 312.21251404 -16.39751347 290.03747904 -16.4099474 267.86243343 C-16.41287725 262.72362802 -16.4158389 257.58482263 -16.41885281 252.44601727 C-16.41959886 251.16873901 -16.42034491 249.89146075 -16.42111357 248.57547709 C-16.43377334 227.87379796 -16.4670035 207.1722046 -16.50865464 186.47056559 C-16.55103496 165.23301966 -16.57463788 143.99551768 -16.57986796 122.75792956 C-16.58328642 110.82714093 -16.59509282 98.89648635 -16.6279707 86.96573925 C-16.6559187 76.80709938 -16.66699363 66.64862102 -16.65577523 56.48994568 C-16.65057521 51.30437706 -16.65356244 46.11914696 -16.67824078 40.93362713 C-16.70063429 36.18871729 -16.70007082 31.44439107 -16.6810369 26.69947168 C-16.67822295 24.98072019 -16.68391239 23.26192994 -16.69884984 21.54324105 C-16.71789275 19.20996922 -16.70621273 16.87879219 -16.68678761 14.54556942 C-16.68814413 13.24876948 -16.68950066 11.95196953 -16.6908983 10.61587262 C-15.86223314 5.97103683 -14.458469 4.37778841 -11.06875515 1.12863445 C-7.6535495 -0.45411181 -3.71368916 0.00204743 0 0 Z M4.93124485 22.12863445 C4.93124485 153.46863445 4.93124485 284.80863445 4.93124485 420.12863445 C136.27124485 420.12863445 267.61124485 420.12863445 402.93124485 420.12863445 C402.93124485 288.78863445 402.93124485 157.44863445 402.93124485 22.12863445 C271.59124485 22.12863445 140.25124485 22.12863445 4.93124485 22.12863445 Z " fill="#ffffff" transform="translate(16.06875514984131,70.87136554718018)"/>
<path d="M0 0 C0.72689518 -0.00581376 1.45379035 -0.01162753 2.20271266 -0.01761746 C4.64569555 -0.03225003 7.08767884 -0.01831773 9.53065491 -0.00457001 C11.29682651 -0.00917765 13.06299429 -0.01552964 14.82915401 -0.02347898 C19.68818176 -0.04021424 24.54689623 -0.0319069 29.40592527 -0.01953411 C34.64390429 -0.01050309 39.88182853 -0.02444366 45.11979675 -0.0354538 C55.38322732 -0.05326444 65.64654105 -0.04938769 75.90997624 -0.03780323 C84.24935571 -0.0287792 92.58870238 -0.02754045 100.92808533 -0.0318985 C102.11381887 -0.03251143 103.29955242 -0.03312436 104.52121729 -0.03375587 C106.92981697 -0.03503474 109.33841665 -0.03633159 111.74701631 -0.03764623 C134.34622074 -0.04905949 156.94536032 -0.03592662 179.54455411 -0.01444477 C198.94661043 0.00342687 218.34857102 0.00032298 237.75062561 -0.01811981 C260.26753218 -0.03951335 282.78438188 -0.04796079 305.30129719 -0.03567076 C307.70116487 -0.03439653 310.10103257 -0.03313904 312.50090027 -0.0318985 C313.68176096 -0.0312814 314.86262166 -0.03066429 316.07926601 -0.03002849 C324.41112914 -0.02657104 332.74295628 -0.03241244 341.07481384 -0.04181671 C351.22499608 -0.05302122 361.37505454 -0.05002926 371.52522254 -0.02869374 C376.7065778 -0.01816249 381.8877265 -0.0140968 387.06908035 -0.02729034 C391.80883737 -0.03917712 396.54819565 -0.03271323 401.2879163 -0.01138014 C403.00587542 -0.00689827 404.72386796 -0.00921568 406.44180572 -0.01888329 C408.77134933 -0.03099081 411.09951476 -0.01863129 413.4289856 0 C414.72453904 0.00064941 416.02009249 0.00129882 417.35490513 0.00196791 C421.28179989 0.58803146 422.92613197 1.73302166 425.7144928 4.50336456 C427.19451308 7.46340514 426.84556394 10.11169279 426.85150719 13.41693497 C426.85415901 14.14006901 426.85681084 14.86320306 426.85954303 15.60825026 C426.86726483 18.05619102 426.86779629 20.50408185 426.86839294 22.952034 C426.87240567 24.7148995 426.87684357 26.47776407 426.8816725 28.24062753 C426.89366499 33.10439807 426.89929263 37.96815868 426.90385365 42.83194113 C426.90979959 48.06997679 426.92141189 53.30800051 426.93214417 58.54602814 C426.95669062 71.20532129 426.97129823 83.86461841 426.98420423 96.52392805 C426.98791441 100.09743582 426.99188778 103.67094319 426.9959569 107.24445057 C427.02119069 129.41948498 427.04325112 151.59451998 427.05568504 173.76956558 C427.0586149 178.90837099 427.06157654 184.04717639 427.06459045 189.18598175 C427.0653365 190.46326001 427.06608256 191.74053826 427.06685121 193.05652192 C427.07951099 213.75820105 427.11274115 234.45979442 427.15439229 255.16143343 C427.1967726 276.39897936 427.22037553 297.63648133 427.22560561 318.87406945 C427.22902407 330.80485808 427.24083047 342.73551267 427.27370834 354.66625977 C427.30165635 364.82489964 427.31273127 374.983378 427.30151288 385.14205334 C427.29631286 390.32762196 427.29930009 395.51285206 427.32397842 400.69837189 C427.34637193 405.44328173 427.34580847 410.18760795 427.32677455 414.93252733 C427.3239606 416.65127883 427.32965004 418.37006907 427.34458749 420.08875796 C427.3636304 422.42202979 427.35195038 424.75320683 427.33252525 427.0864296 C427.33388178 428.38322954 427.33523831 429.68002948 427.33663595 431.01612639 C426.51832208 435.60294109 424.97125666 437.22940457 421.7144928 440.50336456 C418.22295319 442.13680911 414.09260717 441.66514552 410.28089905 441.67133331 C409.56594772 441.67466171 408.8509964 441.67799011 408.11437988 441.68141937 C406.60568381 441.68647048 405.09697662 441.68882826 403.58827209 441.6886673 C401.28836053 441.69085376 398.98892897 441.70902811 396.68910217 441.72797394 C395.21970276 441.73090831 393.75030109 441.73289281 392.28089905 441.73383331 C391.59741898 441.74101883 390.9139389 441.74820435 390.20974731 441.7556076 C385.0743061 441.73120239 381.52576646 440.91213296 377.4644928 437.75336456 C375.2148593 434.86097864 374.78635247 433.16820786 374.7144928 429.50336456 C376.35340467 424.41411189 377.34671403 422.77919864 381.7144928 419.50336456 C389.6344928 419.50336456 397.5544928 419.50336456 405.7144928 419.50336456 C405.7144928 288.16336456 405.7144928 156.82336456 405.7144928 21.50336456 C274.3744928 21.50336456 143.0344928 21.50336456 7.7144928 21.50336456 C7.7144928 29.42336456 7.7144928 37.34336456 7.7144928 45.50336456 C3.6343818 50.60350331 2.81880014 51.55614446 -3.2855072 52.50336456 C-7.78221907 51.62165635 -10.43423339 50.09385752 -13.2855072 46.50336456 C-14.60811093 42.79497258 -14.44716381 38.95807676 -14.45347595 35.06977081 C-14.45680435 34.35481949 -14.46013275 33.63986816 -14.46356201 32.90325165 C-14.46861312 31.39455557 -14.4709709 29.88584838 -14.47080994 28.37714386 C-14.4729964 26.0772323 -14.49117075 23.77780073 -14.51011658 21.47797394 C-14.51305095 20.00857453 -14.51503545 18.53917285 -14.51597595 17.06977081 C-14.52316147 16.38629074 -14.53034698 15.70281067 -14.53775024 14.99861908 C-14.51245695 9.67630618 -13.99657465 6.20241604 -10.15972042 2.39250612 C-6.52353957 0.00254412 -4.33330153 0.00217211 0 0 Z " fill="#ffffff" transform="translate(85.28550720214844,-0.5033645629882813)"/>
</svg>
