<?xml version="1.0" encoding="UTF-8"?>
<svg version="1.1" xmlns="http://www.w3.org/2000/svg" width="512" height="512">
<path d="M0 0 C1.11811638 -0.00382555 2.23623276 -0.00765109 3.38823146 -0.01159257 C7.11887 -0.02187607 10.84935329 -0.0179392 14.58000183 -0.01396179 C17.26133734 -0.01831085 19.94266164 -0.02343056 22.62399292 -0.02944946 C29.1419804 -0.04217115 35.65992663 -0.04399329 42.17792443 -0.0416492 C47.47890829 -0.0398629 52.77987968 -0.04162236 58.08086205 -0.04587364 C58.83662694 -0.04646883 59.59239184 -0.04706402 60.3710587 -0.04767724 C61.90663412 -0.04888906 63.44220954 -0.05010319 64.97778495 -0.05131962 C79.36510385 -0.06218559 93.75239929 -0.06003725 108.13971951 -0.05393478 C121.28398497 -0.04876749 134.42817628 -0.06001775 147.57242707 -0.07903299 C161.08772526 -0.09843423 174.60298842 -0.10666332 188.11830062 -0.10290974 C195.6985596 -0.10100103 203.27875549 -0.10345292 210.85900307 -0.11762428 C217.31286362 -0.12956829 223.76662226 -0.13090933 230.22048429 -0.11883412 C233.50911759 -0.11296626 236.79752738 -0.11343104 240.08615494 -0.12383652 C243.66152989 -0.13433073 247.23641001 -0.12618122 250.81176758 -0.11352539 C251.83679424 -0.12089968 252.86182089 -0.12827396 253.91790897 -0.13587171 C270.52000449 -0.01288176 284.23979692 5.98633549 295.967453 17.53022766 C308.06807196 30.09832967 313.09081268 44.67483909 312.97731018 62.02510071 C312.98199015 63.14578036 312.98667012 64.26646002 312.99149191 65.42109966 C313.00337163 69.14249514 312.99401203 72.86351755 312.98454285 76.58491516 C312.98861167 79.26669881 312.99384759 81.94845754 313.00047302 84.63023376 C313.01376117 91.1378067 313.01095469 97.6452754 313.0022351 104.1528523 C312.99543949 109.44518716 312.99454992 114.73749296 312.99780655 120.02983093 C312.99826625 120.78518936 312.99872595 121.54054778 312.99919958 122.31879586 C313.00015882 123.85364668 313.00113147 125.3884975 313.00211735 126.92334831 C313.01065683 141.29066591 313.0008598 155.65792594 312.98471625 170.0252341 C312.97131438 182.33324254 312.97364288 194.64116607 312.98747253 206.94917297 C313.00355389 221.26767911 313.00983299 235.58613488 313.00063574 249.90464878 C312.99968017 251.43361981 312.99873706 252.96259085 312.99780655 254.49156189 C312.99734372 255.24369971 312.9968809 255.99583752 312.99640404 256.77076739 C312.99382181 262.05220264 312.99816855 267.33360574 313.00524521 272.61503601 C313.01368887 279.05785168 313.01132018 285.5005578 312.99540298 291.94336104 C312.98755855 295.22593434 312.98599784 298.50828933 312.99435043 301.79086685 C313.00259154 305.35952158 312.99221279 308.92766937 312.97731018 312.49629211 C312.98400235 313.51927241 312.99069451 314.54225271 312.99758947 315.59623241 C312.86813415 331.66293203 307.02926445 345.440303 295.9127655 357.04585266 C282.98020793 369.4113841 268.68344487 374.75842878 250.83195496 374.64164734 C249.15093547 374.6486673 249.15093547 374.6486673 247.435956 374.65582907 C243.71456053 374.66770878 239.99353812 374.65834919 236.2721405 374.64888 C233.59035685 374.65294883 230.90859812 374.65818475 228.2268219 374.66481018 C221.71924896 374.67809833 215.21178026 374.67529185 208.70420337 374.66657226 C203.41186851 374.65977665 198.11956271 374.65888708 192.82722473 374.66214371 C191.69418709 374.66283326 191.69418709 374.66283326 190.5382598 374.66353673 C189.00340898 374.66449598 187.46855816 374.66546862 185.93370736 374.66645451 C171.56638975 374.67499399 157.19912972 374.66519696 142.83182156 374.64905341 C130.52381312 374.63565154 118.2158896 374.63798004 105.90788269 374.65180969 C91.58937656 374.66789105 77.27092079 374.67417015 62.95240688 374.6649729 C61.42343585 374.66401733 59.89446482 374.66307421 58.36549377 374.66214371 C57.61335596 374.66168088 56.86121814 374.66121805 56.08628827 374.6607412 C50.80485302 374.65815897 45.52344992 374.66250571 40.24201965 374.66958237 C33.79920398 374.67802603 27.35649786 374.67565733 20.91369462 374.65974014 C17.63112132 374.65189571 14.34876633 374.65033499 11.06618881 374.65868759 C7.49753409 374.6669287 3.9293863 374.65654995 0.36076355 374.64164734 C-0.66221675 374.6483395 -1.68519705 374.65503167 -2.73917675 374.66192663 C-18.80587637 374.53247131 -32.58324733 368.69360161 -44.188797 357.57710266 C-56.55432844 344.64454509 -61.90137312 330.34778203 -61.78459167 312.49629211 C-61.78927165 311.37561246 -61.79395162 310.2549328 -61.79877341 309.10029316 C-61.81065312 305.37889769 -61.80129353 301.65787528 -61.79182434 297.93647766 C-61.79589316 295.25469401 -61.80112908 292.57293528 -61.80775452 289.89115906 C-61.82104266 283.38358612 -61.81823618 276.87611742 -61.80951659 270.36854053 C-61.80272098 265.07620567 -61.80183141 259.78389987 -61.80508804 254.49156189 C-61.80554774 253.73620346 -61.80600744 252.98084504 -61.80648107 252.20259696 C-61.80744032 250.66774614 -61.80841296 249.13289532 -61.80939884 247.59804451 C-61.81793833 233.23072691 -61.8081413 218.86346688 -61.79199775 204.49615872 C-61.77859587 192.18815028 -61.78092437 179.88022675 -61.79475403 167.57221985 C-61.81083538 153.25371371 -61.81711449 138.93525795 -61.80791724 124.61674404 C-61.80696166 123.08777301 -61.80601855 121.55880198 -61.80508804 120.02983093 C-61.80462522 119.27769312 -61.80416239 118.5255553 -61.80368554 117.75062543 C-61.80110331 112.46919018 -61.80545004 107.18778708 -61.8125267 101.90635681 C-61.82097037 95.46354114 -61.81860167 89.02083502 -61.80268447 82.57803178 C-61.79484004 79.29545848 -61.79327933 76.01310349 -61.80163193 72.73052597 C-61.80987303 69.16187125 -61.79949429 65.59372345 -61.78459167 62.02510071 C-61.79128384 61.00212041 -61.79797601 59.97914011 -61.80487096 58.92516041 C-61.67116325 42.33069515 -55.67809983 28.59740562 -44.12239075 16.88569641 C-31.61494549 4.80954237 -17.13870016 -0.06278135 0 0 Z " fill="#000000" transform="translate(130.4036407470703,68.73930358886719)"/>
</svg>
