<?xml version="1.0" encoding="UTF-8"?>
<svg version="1.1" xmlns="http://www.w3.org/2000/svg" width="512" height="512">
<path d="M0 0 C7.18413124 3.83242689 12.91697219 8.92389328 16.26953125 16.44140625 C19.09621038 26.3412368 17.95351832 35.58892701 13.31640625 44.69140625 C7.10992092 52.4688736 -1.62220848 56.61166918 -10.375 60.9375 C-57.93557634 84.96648803 -102.04055782 117.30842167 -141.36328125 153.171875 C-143.45328324 155.0571023 -145.56364074 156.91113531 -147.6875 158.7578125 C-158.87518659 168.53222165 -169.48342451 178.95142341 -180 189.4375 C-180.87615967 190.30906738 -181.75231934 191.18063477 -182.6550293 192.07861328 C-187.01072519 196.44477456 -191.21626249 200.87424278 -195.23486328 205.55224609 C-197.97890342 208.70638095 -200.87447962 211.71623113 -203.75 214.75 C-208.66993773 219.9769866 -213.32874682 225.29612862 -217.80859375 230.90625 C-219.87612782 233.43888153 -222.03613341 235.8448116 -224.25 238.25 C-229.30894507 243.80956984 -233.88501203 249.70376511 -238.48095703 255.64501953 C-239.8186021 257.36498277 -241.16958922 259.07322841 -242.52734375 260.77734375 C-256.74097989 278.63677887 -270.94334005 297.0958599 -282.6875 316.6875 C-287.17449009 323.83969473 -293.09419538 329.81332647 -301.4296875 332.03515625 C-310.08010855 333.45846834 -318.25933751 333.09800511 -325.875 328.4375 C-331.94629717 323.82544726 -336.37923416 318.51224782 -340.75 312.3125 C-341.97813056 310.60862771 -343.20729977 308.90550359 -344.4375 307.203125 C-345.32308594 305.97045898 -345.32308594 305.97045898 -346.2265625 304.71289062 C-348.34777644 301.78491166 -350.53536487 298.92057642 -352.75 296.0625 C-362.37179268 283.63962623 -371.88239084 271.13063181 -381.28979492 258.54467773 C-386.20622812 251.97589871 -391.18656619 245.45614933 -396.1640625 238.93359375 C-400.26775964 233.55389097 -404.3508334 228.16128146 -408.38671875 222.73046875 C-410.49798956 219.91207374 -412.66421049 217.13835452 -414.83203125 214.36328125 C-415.54746094 213.44095703 -416.26289063 212.51863281 -417 211.56835938 C-418.42346884 209.73437228 -419.85410691 207.90591983 -421.29296875 206.08398438 C-429.57907542 195.37169278 -432.42470567 186.94984592 -430.875 173.4375 C-428.394186 164.98516912 -422.64275916 158.21220834 -414.9375 154 C-407.591612 151.10692767 -398.397817 151.11002384 -390.8671875 153.3203125 C-381.64247665 157.58004136 -375.79853526 165.54276252 -369.9375 173.5625 C-368.61537279 175.34824102 -367.29242947 177.13337804 -365.96875 178.91796875 C-365.29328125 179.8311084 -364.6178125 180.74424805 -363.921875 181.68505859 C-360.63107802 186.11020711 -357.28541746 190.49299742 -353.9375 194.875 C-352.95040039 196.16869507 -352.95040039 196.16869507 -351.94335938 197.48852539 C-350.60315576 199.24485113 -349.26265965 201.00095372 -347.921875 202.75683594 C-344.42508293 207.33636563 -340.93074267 211.91776244 -337.4375 216.5 C-336.76823486 217.377771 -336.09896973 218.25554199 -335.40942383 219.15991211 C-331.13376988 224.77220916 -326.8835676 230.40198514 -322.671875 236.0625 C-321.37034977 237.78277683 -320.0197043 239.46624728 -318.640625 241.125 C-316.875 243.4375 -316.875 243.4375 -316.875 245.4375 C-315.658125 245.705625 -314.44125 245.97375 -313.1875 246.25 C-312.16076172 246.47623047 -312.16076172 246.47623047 -311.11328125 246.70703125 C-305.6259332 246.04625112 -301.54098992 238.67746466 -298.25 234.5 C-297.72929932 233.84467285 -297.20859863 233.1893457 -296.67211914 232.51416016 C-294.11211549 229.2875252 -291.5681764 226.04863053 -289.03515625 222.80078125 C-284.09356396 216.46694291 -279.07783104 210.22720722 -273.85693359 204.12060547 C-270.9927571 200.7700401 -268.19813134 197.37461037 -265.4375 193.9375 C-261.57109833 189.1825895 -257.48971132 184.67088355 -253.29907227 180.203125 C-250.62239888 177.34800673 -248.00249617 174.45673334 -245.43359375 171.50390625 C-234.93656519 159.45351217 -223.65858726 148.12011898 -212.375 136.8125 C-211.81501312 136.24992493 -211.25502625 135.68734985 -210.67807007 135.10772705 C-205.14448758 129.55396862 -199.60737207 124.0531569 -193.64111328 118.95849609 C-190.69419297 116.42057606 -187.89091183 113.73075909 -185.0625 111.0625 C-179.99364488 106.3150878 -174.79815995 101.81591371 -169.375 97.47265625 C-167.03440954 95.56726933 -164.7943189 93.59329109 -162.5625 91.5625 C-157.21847647 86.76609725 -151.55465464 82.39360114 -145.88183594 77.99853516 C-143.77040864 76.35614269 -141.66973261 74.70067687 -139.5703125 73.04296875 C-129.56526163 65.16318451 -119.38894603 57.62395073 -108.875 50.4375 C-107.54903809 49.52895264 -107.54903809 49.52895264 -106.19628906 48.60205078 C-21.88351197 -8.9523458 -21.88351197 -8.9523458 0 0 Z " fill="#000000" transform="translate(462.875,90.5625)"/>
</svg>
