<?xml version="1.0" standalone="no"?>
<!DOCTYPE svg PUBLIC "-//W3C//DTD SVG 20010904//EN"
 "http://www.w3.org/TR/2001/REC-SVG-20010904/DTD/svg10.dtd">
<svg version="1.0" xmlns="http://www.w3.org/2000/svg"
 width="512.000000pt" height="512.000000pt" viewBox="0 0 512.000000 512.000000"
 preserveAspectRatio="xMidYMid meet">

<g transform="translate(0.000000,512.000000) scale(0.100000,-0.100000)"
fill="#000000" stroke="none">
<path d="M4613 4996 c-128 -42 -228 -146 -262 -274 l-12 -42 -562 0 c-471 0
-566 -2 -583 -14 -19 -14 -19 -39 -24 -969 l-5 -954 -320 445 c-176 245 -378
525 -448 623 l-129 179 21 29 c37 52 81 155 96 227 66 313 -125 626 -440 720
-95 28 -249 24 -350 -9 -252 -83 -425 -321 -425 -584 0 -110 14 -172 62 -273
74 -156 227 -281 395 -324 78 -20 231 -21 308 -1 72 18 173 66 216 102 26 22
32 24 43 12 7 -8 147 -201 311 -429 164 -228 368 -511 452 -627 l153 -213
-838 0 -837 0 -17 82 c-49 239 -227 444 -457 528 -303 111 -645 2 -832 -263
-158 -225 -169 -535 -28 -774 47 -80 161 -191 246 -242 158 -94 362 -125 533
-82 273 69 468 266 533 539 l22 92 833 0 c510 0 832 -4 830 -9 -6 -17 -903
-1260 -909 -1261 -4 0 -29 18 -55 40 -193 161 -487 183 -702 53 -235 -143
-350 -419 -283 -682 28 -113 79 -201 165 -286 267 -264 715 -226 930 79 131
185 151 418 55 627 l-31 68 128 179 c71 98 273 379 449 624 l320 445 3 -950
c2 -867 4 -952 19 -969 15 -17 47 -18 583 -18 l568 0 17 -52 c35 -110 108
-193 215 -246 49 -24 66 -27 155 -27 88 0 107 3 158 27 110 52 184 136 218
250 56 182 -33 379 -208 465 -52 25 -68 28 -163 28 -93 0 -111 -3 -162 -27
-104 -49 -189 -148 -217 -255 l-12 -43 -524 0 -525 0 0 970 0 970 254 0 254 0
7 -32 c22 -102 117 -218 219 -265 55 -25 72 -28 166 -28 94 0 111 3 161 28
120 58 196 158 220 288 31 170 -65 351 -228 427 -51 24 -70 27 -158 27 -92 0
-105 -3 -166 -32 -102 -50 -176 -139 -209 -250 l-13 -43 -254 0 -253 0 0 970
0 970 525 0 524 0 12 -42 c24 -90 83 -171 163 -223 199 -131 467 -53 570 165
28 58 31 75 31 160 0 86 -3 101 -32 162 -40 86 -106 151 -191 191 -55 26 -81
32 -152 34 -53 2 -101 -2 -127 -11z m-2549 -397 c31 -24 33 -52 6 -79 -19 -19
-33 -20 -285 -20 -252 0 -266 1 -285 20 -20 20 -25 47 -12 66 20 30 52 33 298
34 239 0 253 -1 278 -21z m-89 -175 c25 -10 37 -50 23 -79 -15 -33 -42 -37
-242 -33 -152 3 -169 5 -182 22 -19 27 -18 52 6 76 19 19 33 20 199 20 99 0
187 -3 196 -6z m95 -204 c26 -26 25 -46 -5 -75 l-24 -25 -254 0 c-242 0 -256
1 -281 21 -30 23 -33 45 -10 77 15 22 17 22 285 22 256 0 270 -1 289 -20z
m-1030 -1400 c24 -24 25 -48 4 -78 -15 -22 -16 -22 -326 -22 -343 0 -348 1
-348 61 0 57 13 59 347 59 290 0 304 -1 323 -20z m-89 -229 c21 -26 18 -58 -9
-78 -12 -10 -74 -13 -229 -13 -200 0 -214 1 -233 20 -21 21 -25 46 -12 67 17
27 63 32 260 30 202 -2 204 -2 223 -26z m83 -212 c30 -23 33 -54 9 -81 -15
-17 -39 -18 -329 -18 -343 0 -344 0 -344 60 0 58 13 60 341 60 285 0 297 -1
323 -21z m996 -1359 c11 -11 20 -29 20 -40 0 -11 -9 -29 -20 -40 -19 -19 -33
-20 -282 -20 -229 0 -264 2 -280 17 -22 20 -23 61 -1 85 15 17 37 18 280 18
250 0 264 -1 283 -20z m-78 -187 c22 -19 23 -52 4 -79 -13 -18 -28 -19 -206
-19 -190 0 -192 0 -211 24 -21 26 -18 58 9 79 11 8 68 12 201 12 158 0 187 -2
203 -17z m80 -190 c22 -20 23 -42 2 -71 -15 -22 -17 -22 -288 -22 -198 0 -275
3 -284 12 -7 7 -12 26 -12 43 0 17 5 36 12 43 9 9 85 12 282 12 237 0 272 -2
288 -17z"/>
</g>
</svg>
