<?xml version="1.0" standalone="no"?>
<!DOCTYPE svg PUBLIC "-//W3C//DTD SVG 20010904//EN"
 "http://www.w3.org/TR/2001/REC-SVG-20010904/DTD/svg10.dtd">
<svg version="1.0" xmlns="http://www.w3.org/2000/svg"
 width="878.000000pt" height="284.000000pt" viewBox="0 0 878.000000 284.000000"
 preserveAspectRatio="xMidYMid meet">

<g transform="translate(0.000000,284.000000) scale(0.100000,-0.100000)"
fill="#000000" stroke="none">
<path d="M0 1420 l0 -1420 4390 0 4390 0 0 1420 0 1420 -4390 0 -4390 0 0
-1420z m2188 1229 c6 -92 -25 -159 -105 -231 -165 -149 -264 -268 -222 -268
16 0 124 55 172 89 120 82 312 96 376 27 70 -74 7 -246 -123 -335 -52 -36
-130 -59 -216 -64 l-65 -3 4 -81 3 -82 -41 -39 c-23 -21 -41 -47 -42 -58 0
-10 -2 -28 -4 -39 -6 -29 22 -157 51 -234 29 -76 51 -104 116 -149 75 -51 75
-119 0 -225 -73 -102 -146 -121 -254 -67 -45 23 -72 30 -116 30 -80 0 -87 7
-87 85 0 58 -2 65 -17 61 -24 -6 -23 11 5 51 31 47 106 80 213 94 133 17 131
15 84 74 -80 100 -96 167 -65 269 23 75 19 153 -9 212 -69 139 -77 199 -51
371 10 65 21 127 25 139 8 19 49 62 186 191 48 45 94 117 94 145 -1 7 -10 2
-21 -12 -71 -86 -121 -137 -171 -175 -55 -43 -118 -80 -118 -71 0 3 -16 -2
-35 -10 -19 -7 -44 -14 -56 -14 -18 0 -140 -83 -187 -128 -8 -7 -26 -19 -42
-27 l-27 -14 -27 63 c-46 109 -83 127 -194 96 -178 -49 -252 -9 -302 165 l-18
60 -17 -40 c-32 -73 -2 -166 81 -255 42 -45 47 -47 87 -43 46 6 127 -12 127
-27 0 -6 5 -10 10 -10 18 0 122 -81 186 -145 l61 -61 26 -114 c15 -63 31 -144
37 -180 6 -36 25 -107 41 -158 35 -110 49 -227 49 -414 0 -137 0 -137 29 -170
74 -84 205 -128 319 -107 66 13 117 37 188 90 55 42 63 46 60 27 -4 -26 -40
-69 -85 -102 -47 -33 -135 -69 -145 -58 -3 3 -6 0 -6 -5 0 -19 -149 -7 -212
17 -52 19 -139 76 -193 127 -33 31 -95 76 -95 69 0 -15 52 -84 91 -122 82 -78
188 -121 297 -122 92 -1 92 -1 92 -12 0 -17 -88 -50 -134 -50 -24 0 -69 9
-101 19 -66 22 -99 16 -115 -21 -5 -13 -23 -72 -40 -133 -48 -171 -76 -235
-124 -290 -55 -63 -136 -123 -136 -101 0 9 22 72 50 141 27 69 50 128 50 132
0 10 -124 -6 -174 -23 -28 -10 -55 -28 -69 -46 -12 -17 -41 -50 -63 -74 -37
-39 -46 -44 -86 -44 -59 0 -108 36 -174 126 -67 91 -92 148 -105 239 -12 76
-10 95 26 266 13 61 14 85 5 118 -20 77 -71 104 -215 117 -99 9 -125 29 -125
99 l0 45 -130 0 c-184 0 -177 13 47 86 192 62 292 106 364 163 56 44 115 119
142 184 12 26 24 47 28 47 4 0 15 -22 24 -50 9 -27 19 -50 22 -50 3 0 3 24 -1
53 -3 28 -6 71 -6 93 l0 41 -77 13 c-43 7 -91 14 -108 17 -81 12 -188 99 -246
198 -36 62 -37 104 -4 135 23 22 30 23 117 17 104 -7 214 -28 270 -51 51 -22
128 -22 128 0 0 8 -31 45 -69 80 -115 108 -141 208 -88 327 30 67 127 175 138
155 4 -7 14 -54 23 -103 19 -110 37 -156 72 -184 40 -32 78 -26 199 32 105 50
114 52 205 55 85 3 106 0 189 -27 105 -35 167 -39 217 -15 46 22 118 98 166
176 22 35 56 77 76 95 l37 32 25 -26 c20 -22 25 -40 28 -94z m800 -1191 l-3
-483 -45 0 -45 0 -3 483 -2 482 50 0 50 0 -2 -482z m2839 454 c28 -11 64 -29
80 -41 40 -33 81 -99 88 -145 4 -23 9 -49 11 -58 5 -16 -2 -18 -54 -18 l-59 0
-13 44 c-24 88 -104 136 -222 136 -84 0 -142 -22 -176 -65 -44 -56 -37 -147
16 -181 15 -10 101 -35 192 -56 176 -41 232 -63 275 -106 40 -40 57 -80 62
-147 10 -120 -36 -203 -139 -254 -120 -59 -296 -64 -414 -12 -96 43 -163 137
-167 234 l-2 52 54 0 54 0 14 -55 c28 -110 124 -166 270 -157 149 9 218 63
210 164 -7 92 -35 110 -273 169 -187 46 -237 70 -275 131 -20 32 -24 51 -23
113 2 138 64 222 199 267 58 19 225 11 292 -15z m-2147 -212 c0 -121 3 -220 8
-220 4 0 106 99 227 220 l220 220 77 0 c43 0 78 -3 78 -7 0 -4 -84 -88 -186
-187 l-186 -181 191 -267 c105 -147 191 -269 191 -272 0 -3 -35 -6 -77 -6
l-78 0 -155 225 c-85 123 -159 225 -165 225 -5 0 -40 -30 -77 -67 l-68 -67 0
-158 0 -158 -60 0 -60 0 0 460 0 460 60 0 60 0 0 -220z m1254 210 c80 -13 145
-49 181 -99 25 -36 30 -53 34 -118 5 -99 -10 -145 -65 -200 -25 -25 -44 -46
-42 -47 2 -1 15 -9 29 -18 46 -29 61 -78 69 -231 8 -120 11 -142 29 -161 12
-12 21 -25 21 -29 0 -11 -148 -8 -155 3 -4 6 -11 75 -16 153 -16 219 -26 227
-291 227 l-178 0 0 -195 0 -195 -60 0 -60 0 0 460 0 460 223 0 c122 0 249 -4
281 -10z m1936 -45 l0 -55 -270 0 -270 0 0 -142 0 -143 227 3 c126 2 238 0
251 -3 21 -5 23 -10 20 -58 l-3 -52 -247 -3 -248 -2 0 -150 0 -150 275 0 275
0 0 -55 0 -55 -340 0 -340 0 0 453 c0 250 3 457 7 460 3 4 154 7 335 7 l328 0
0 -55z m696 26 c89 -39 136 -110 136 -202 0 -70 -18 -113 -67 -158 l-44 -41
32 -16 c55 -28 97 -75 112 -128 19 -63 19 -102 0 -157 -27 -77 -62 -116 -134
-152 l-65 -32 -248 -3 -248 -3 0 461 0 462 238 -4 c221 -3 240 -5 288 -27z
m527 -364 c72 -213 132 -385 135 -382 3 2 62 177 132 387 l126 383 67 3 c52 2
67 0 67 -11 0 -8 -30 -94 -66 -193 -36 -98 -104 -285 -151 -414 -47 -129 -91
-250 -99 -268 l-13 -33 -67 3 -67 3 -84 230 c-46 127 -120 328 -163 447 -44
119 -80 222 -80 228 0 7 23 10 67 8 l67 -3 129 -388z"/>
<path d="M4550 1655 l0 -155 178 0 c202 0 247 12 277 70 23 44 21 132 -2 173
-34 59 -66 67 -270 67 l-183 0 0 -155z"/>
<path d="M7168 1804 c-5 -4 -8 -67 -8 -141 l0 -133 143 0 c78 0 158 5 178 10
108 30 135 184 41 242 -34 21 -51 23 -192 26 -85 2 -158 0 -162 -4z"/>
<path d="M7168 1424 c-5 -4 -8 -76 -8 -161 l0 -153 173 0 c144 0 178 3 206 18
58 29 76 63 76 142 0 62 -3 72 -28 98 -15 16 -44 35 -65 41 -42 15 -343 27
-354 15z"/>
</g>
</svg>
