<?xml version="1.0" standalone="no"?>
<!DOCTYPE svg PUBLIC "-//W3C//DTD SVG 20010904//EN"
 "http://www.w3.org/TR/2001/REC-SVG-20010904/DTD/svg10.dtd">
<svg version="1.0" xmlns="http://www.w3.org/2000/svg"
 width="878.000000pt" height="284.000000pt" viewBox="0 0 878.000000 284.000000"
 preserveAspectRatio="xMidYMid meet">

<g transform="translate(0.000000,284.000000) scale(0.100000,-0.100000)"
fill="#000000" stroke="none">
<path d="M2108 2737 c-15 -12 -48 -55 -73 -95 -130 -203 -201 -234 -401 -171
-86 27 -110 30 -189 27 -84 -3 -97 -7 -200 -56 -130 -61 -160 -64 -210 -21
-39 34 -56 80 -75 203 -7 42 -16 76 -21 76 -15 0 -92 -97 -115 -145 -31 -65
-32 -152 -3 -215 12 -27 51 -74 95 -117 42 -40 74 -78 72 -85 -10 -29 -58 -31
-141 -5 -116 37 -167 47 -273 54 -82 5 -97 4 -114 -12 -42 -38 -17 -113 69
-207 70 -77 124 -103 259 -124 l112 -18 0 -55 c0 -31 3 -87 6 -126 5 -64 4
-68 -10 -51 -8 10 -21 43 -27 72 -13 60 -23 68 -34 27 -11 -46 -57 -114 -114
-170 -71 -70 -183 -125 -411 -200 l-175 -58 138 -3 137 -3 0 -49 c0 -73 17
-85 125 -93 99 -7 166 -34 199 -79 25 -35 26 -126 2 -216 -48 -178 -19 -324
92 -462 67 -83 108 -110 166 -110 40 0 73 27 134 109 13 17 37 38 52 46 31 16
197 48 210 40 5 -3 -16 -66 -46 -141 -30 -75 -54 -138 -52 -140 6 -5 94 69
122 102 37 46 69 117 100 224 55 188 61 203 86 222 25 18 27 18 89 -2 79 -25
145 -25 191 0 l35 19 -60 1 c-115 0 -227 44 -312 120 -57 51 -147 180 -126
180 5 0 58 -41 118 -91 61 -50 135 -104 167 -119 146 -75 315 -54 426 53 52
51 55 69 5 30 -104 -81 -202 -110 -312 -92 -101 16 -212 84 -230 142 -5 18
-12 118 -14 222 -4 144 -10 207 -25 260 -47 173 -63 238 -86 357 -14 70 -32
144 -42 163 -17 36 -133 141 -225 203 -52 35 -145 54 -159 32 -20 -32 -150
115 -171 193 -6 23 -8 62 -5 86 10 70 56 125 56 68 0 -34 36 -133 60 -168 45
-63 129 -76 244 -38 42 14 75 19 93 14 39 -9 96 -73 111 -123 7 -23 18 -42 25
-42 7 0 59 36 116 80 57 44 114 80 125 80 40 0 117 29 169 64 51 34 140 121
220 216 l38 45 -5 -34 c-12 -69 -49 -121 -158 -223 -60 -55 -115 -113 -123
-128 -21 -41 -48 -255 -41 -328 4 -44 18 -91 46 -151 45 -99 51 -160 25 -247
-32 -105 -16 -169 65 -266 27 -33 48 -64 44 -69 -3 -5 -26 -9 -52 -9 -61 -1
-192 -24 -223 -40 -57 -29 -101 -90 -65 -90 12 0 13 -11 9 -53 -8 -82 4 -97
81 -97 52 0 75 -6 122 -31 49 -26 67 -30 108 -26 44 4 55 10 101 58 60 63 91
131 81 183 -5 27 -16 40 -52 61 -61 36 -100 93 -129 190 -56 183 -54 247 11
307 l35 33 -6 87 -7 86 94 4 c75 3 104 8 150 30 110 51 198 172 198 274 0 82
-72 121 -206 111 -74 -5 -84 -10 -268 -113 -88 -48 -98 -51 -116 -29 -16 19
41 87 185 220 124 114 155 167 155 259 0 43 -6 71 -20 94 -11 17 -21 32 -22
32 -2 0 -15 -10 -30 -23z"/>
</g>
</svg>
