<?xml version="1.0" standalone="no"?>
<!DOCTYPE svg PUBLIC "-//W3C//DTD SVG 20010904//EN"
 "http://www.w3.org/TR/2001/REC-SVG-20010904/DTD/svg10.dtd">
<svg version="1.0" xmlns="http://www.w3.org/2000/svg"
 width="512.000000pt" height="512.000000pt" viewBox="0 0 512.000000 512.000000"
 preserveAspectRatio="xMidYMid meet">

<g transform="translate(0.000000,512.000000) scale(0.100000,-0.100000)"
fill="#000000" stroke="none">
<path d="M219 4797 c-73 -31 -121 -68 -159 -125 -64 -97 -60 15 -58 -1807 l3
-1660 26 -56 c33 -69 91 -129 161 -166 l53 -28 813 -3 c765 -2 813 -3 808 -20
-3 -9 -28 -105 -56 -212 -28 -107 -55 -212 -61 -232 l-10 -38 -140 0 c-135 0
-141 -1 -164 -25 -30 -30 -32 -64 -4 -99 l20 -26 1109 0 1109 0 20 26 c28 35
26 69 -4 99 -23 24 -29 25 -164 25 l-140 0 -10 38 c-6 20 -33 125 -61 232 -28
107 -53 203 -56 213 -5 16 16 17 336 17 l341 0 26 26 c20 20 24 31 19 57 -14
67 150 61 -1869 67 -1371 4 -1837 8 -1852 17 -37 21 -85 79 -95 114 -6 18 -10
118 -10 221 l0 188 369 0 370 0 20 26 c36 46 22 93 -33 114 -17 6 -159 10
-377 10 l-349 0 0 1359 c0 986 3 1367 11 1392 15 43 65 97 106 115 27 12 260
14 1408 14 l1376 0 24 25 c32 31 32 69 0 100 l-24 25 -1388 0 -1388 0 -56 -23z
m2938 -4087 c34 -129 63 -241 63 -247 0 -10 -139 -13 -660 -13 -495 0 -660 3
-660 12 0 10 115 447 125 476 3 10 116 12 537 10 l532 -3 63 -235z"/>
<path d="M3272 4797 c-29 -31 -28 -72 3 -102 l24 -25 760 0 c512 0 769 -3 788
-11 40 -15 82 -57 104 -104 18 -38 19 -98 19 -1402 l0 -1363 -1904 0 c-1363 0
-1912 -3 -1935 -11 -54 -19 -69 -79 -28 -117 l23 -22 1922 0 1922 0 0 -189 c0
-206 -6 -238 -54 -290 -56 -60 -63 -61 -416 -61 l-321 0 -24 -25 c-32 -31 -33
-74 -1 -104 23 -22 23 -22 372 -19 l349 3 53 28 c70 37 128 97 161 166 l26 56
0 1680 0 1680 -26 56 c-34 72 -96 134 -168 168 l-56 26 -786 3 -785 2 -22 -23z"/>
<path d="M2456 4450 c-84 -42 -127 -105 -135 -197 l-6 -64 -256 -131 -257
-130 -38 26 c-122 79 -277 44 -351 -81 -24 -40 -28 -59 -28 -118 1 -100 44
-173 128 -216 l37 -19 0 -304 0 -304 -30 -12 c-50 -21 -116 -103 -130 -161
-55 -228 196 -386 393 -247 16 11 52 -4 275 -118 l257 -130 6 -62 c8 -81 47
-146 113 -187 44 -27 58 -30 126 -30 68 0 82 3 126 30 65 41 105 106 113 186
l6 61 253 131 254 130 60 -32 c153 -78 322 -5 359 157 19 78 0 148 -56 210
-25 27 -58 55 -75 62 l-30 12 0 304 0 304 38 19 c146 75 174 269 56 387 -81
82 -208 93 -307 28 l-39 -26 -257 130 -256 131 -6 58 c-7 71 -19 100 -58 146
-66 74 -197 101 -285 57z m169 -155 c19 -18 25 -35 25 -65 0 -56 -34 -90 -90
-90 -56 0 -90 34 -90 90 0 56 34 90 90 90 30 0 47 -6 65 -25z m-65 -300 c82 0
91 2 132 31 l43 30 257 -130 258 -131 0 -42 0 -42 -257 -129 -258 -129 -49 31
c-44 28 -58 31 -126 31 -68 0 -82 -3 -126 -31 l-49 -31 -257 129 -258 129 0
42 0 42 258 131 257 130 43 -30 c41 -29 50 -31 132 -31z m-891 -160 c84 -43
50 -175 -44 -175 -93 0 -127 131 -46 175 34 18 55 18 90 0z m1870 0 c84 -43
50 -175 -44 -175 -93 0 -127 131 -46 175 34 18 55 18 90 0z m-1478 -387 l259
-133 0 -48 c0 -26 6 -63 14 -81 19 -45 79 -111 116 -126 l30 -12 0 -307 0
-307 -32 -17 c-18 -9 -40 -22 -49 -28 -13 -10 -62 11 -270 118 l-254 131 -6
53 c-4 30 -12 66 -18 81 -15 39 -86 113 -121 128 l-30 12 0 304 0 304 39 20
c22 11 42 24 46 30 3 5 9 10 12 10 3 0 122 -60 264 -132z m1274 122 c4 -6 24
-19 46 -30 l39 -20 0 -304 0 -304 -29 -12 c-39 -16 -95 -73 -117 -118 -9 -20
-20 -61 -23 -91 l-6 -54 -254 -130 c-208 -107 -257 -128 -270 -119 -9 7 -31
20 -48 29 l-33 17 0 307 0 307 30 12 c37 15 97 81 116 126 8 18 14 55 14 81
l0 48 258 132 c141 73 260 132 264 133 4 0 10 -5 13 -10z m-716 -226 c25 -21
31 -34 31 -64 0 -58 -35 -95 -90 -95 -55 0 -90 37 -90 95 0 30 6 43 31 64 17
15 43 26 59 26 16 0 42 -11 59 -26z m-928 -603 c37 -37 38 -79 3 -120 -21 -26
-33 -31 -69 -31 -36 0 -48 5 -69 31 -35 41 -34 83 3 120 22 21 39 29 66 29 27
0 44 -8 66 -29z m1870 0 c37 -37 38 -79 3 -120 -21 -26 -33 -31 -69 -31 -36 0
-48 5 -69 31 -35 41 -34 83 3 120 22 21 39 29 66 29 27 0 44 -8 66 -29z m-933
-477 c34 -39 30 -95 -9 -128 -39 -33 -79 -33 -118 0 -24 20 -31 34 -31 63 0
90 99 132 158 65z"/>
</g>
</svg>
